#N canvas 0 50 406 473 10;
#X obj 320 150 bng 30 250 50 0 empty empty empty 17 7 0 10 -262144
-1 -1;
#X obj 335 120 bng 30 250 50 0 empty empty empty 17 7 0 10 -162280
-1 -1;
#X obj 350 150 bng 30 250 50 0 empty empty empty 17 7 0 10 -262144
-1 -1;
#X obj 365 120 bng 30 250 50 0 empty empty empty 17 7 0 10 -162280
-1 -1;
#X obj 420 515 outlet;
#X obj 245 120 bng 30 250 50 0 empty empty empty 17 7 0 10 -162280
-1 -1;
#X obj 260 150 bng 30 250 50 0 empty empty empty 17 7 0 10 -262144
-1 -1;
#X obj 275 120 bng 30 250 50 0 empty empty empty 17 7 0 10 -162280
-1 -1;
#X obj 290 150 bng 30 250 50 0 empty empty empty 17 7 0 10 -262144
-1 -1;
#X obj 170 150 bng 30 250 50 0 empty empty empty 17 7 0 10 -262144
-1 -1;
#X obj 200 150 bng 30 250 50 0 empty empty empty 17 7 0 10 -262144
-1 -1;
#X obj 215 120 bng 30 250 50 0 empty empty empty 17 7 0 10 -162280
-1 -1;
#X obj 230 150 bng 30 250 50 0 empty empty empty 17 7 0 10 -262144
-1 -1;
#X obj 110 150 bng 30 250 50 0 empty empty empty 17 7 0 10 -262144
-1 -1;
#X obj 350 355 f 36;
#X obj 125 120 bng 30 250 50 0 empty empty empty 17 7 0 10 -162280
-1 -1;
#X obj 140 150 bng 30 250 50 0 empty empty empty 17 7 0 10 -262144
-1 -1;
#X obj 155 120 bng 30 250 50 0 empty empty empty 17 7 0 10 -162280
-1 -1;
#X obj 380 355 f 37;
#X obj 410 355 f 38;
#X obj 440 355 f 39;
#X obj 350 295 f 40;
#X obj 380 295 f 41;
#X obj 410 295 f 42;
#X obj 440 295 f 43;
#X obj 350 325 f 44;
#X obj 380 325 f 45;
#X obj 410 325 f 46;
#X obj 440 325 f 47;
#X obj 350 265 f 48;
#X obj 380 265 f 49;
#X obj 410 265 f 50;
#X obj 440 265 f 51;
#X obj 420 485 f2nv;
#X obj 420 455 +;
#X obj 110 200 hradio 30 1 1 7 empty empty empty 0 -8 0 10 -262144
-1 -1 3;
#X text 170 186 -1;
#X text 210 186 0;
#X text 140 186 -2;
#X text 110 186 -3;
#X text 240 186 1;
#X text 270 186 2;
#X text 300 186 3;
#X obj 180 355 + -3;
#X obj 180 385 * 12;
#X obj 320 200 nbx 7 20 -1e+037 1e+037 0 1 empty empty empty 0 -8 0
11 -262144 -1 -1 127 256;
#X text 320 186 Velocity;
#X connect 0 0 29 0;
#X connect 1 0 30 0;
#X connect 2 0 31 0;
#X connect 3 0 32 0;
#X connect 5 0 25 0;
#X connect 6 0 26 0;
#X connect 7 0 27 0;
#X connect 8 0 28 0;
#X connect 9 0 21 0;
#X connect 10 0 22 0;
#X connect 11 0 23 0;
#X connect 12 0 24 0;
#X connect 13 0 14 0;
#X connect 14 0 34 0;
#X connect 15 0 18 0;
#X connect 16 0 19 0;
#X connect 17 0 20 0;
#X connect 18 0 34 0;
#X connect 19 0 34 0;
#X connect 20 0 34 0;
#X connect 21 0 34 0;
#X connect 22 0 34 0;
#X connect 23 0 34 0;
#X connect 24 0 34 0;
#X connect 25 0 34 0;
#X connect 26 0 34 0;
#X connect 27 0 34 0;
#X connect 28 0 34 0;
#X connect 29 0 34 0;
#X connect 30 0 34 0;
#X connect 31 0 34 0;
#X connect 32 0 34 0;
#X connect 33 0 4 0;
#X connect 34 0 33 0;
#X connect 35 0 43 0;
#X connect 43 0 44 0;
#X connect 44 0 34 1;
#X connect 45 0 33 1;
#X coords 0 -1 1 1 310 140 1 100 100;
