#N canvas 0 0 614 538 10;
#X obj 102 203 until;
#X obj 102 233 f;
#X obj 132 233 + 1;
#X obj 102 263 t f f;
#X obj 102 113 t b b;
#X obj 152 173 f 0;
#X obj 102 173 f;
#X obj 102 83 inlet;
#X text 103 68 Copy;
#X obj 152 83 inlet;
#X text 153 68 Size;
#X obj 102 293 tabread \$2;
#X obj 102 323 tabwrite \$1;
#X connect 0 0 1 0;
#X connect 1 0 2 0;
#X connect 1 0 3 0;
#X connect 2 0 1 1;
#X connect 3 0 11 0;
#X connect 3 1 12 1;
#X connect 4 0 6 0;
#X connect 4 1 5 0;
#X connect 5 0 1 1;
#X connect 6 0 0 0;
#X connect 7 0 4 0;
#X connect 9 0 6 1;
#X connect 11 0 12 0;
