#N canvas 907 305 238 254 10;
#X obj 75 60 inlet~;
#X obj 25 60 inlet~;
#X obj 49 148 *~;
#X text 84 41 Mod;
#X obj 24 212 outlet~;
#X text 131 41 Amt;
#X text 31 41 Freq;
#X obj 125 60 inlet~;
#X obj 125 87 *~ 4;
#X obj 39 116 *~;
#X connect 0 0 2 1;
#X connect 1 0 4 0;
#X connect 1 0 9 0;
#X connect 2 0 4 0;
#X connect 7 0 8 0;
#X connect 8 0 9 1;
#X connect 9 0 2 0;
#X coords 0 254 1 253 34 90 0;
