#N canvas 907 305 251 258 10;
#X obj 75 16 inlet~;
#X obj 25 16 inlet~;
#X obj 79 133 *~;
#X obj 125 43 * 4;
#X text 84 -3 Mod;
#X obj 24 178 outlet~;
#X text 131 -3 Amt;
#X obj 125 16 inlet;
#X text 31 -3 Freq;
#X obj 39 82 tline~;
#X connect 0 0 2 1;
#X connect 1 0 5 0;
#X connect 1 0 9 0;
#X connect 2 0 5 0;
#X connect 3 0 9 1;
#X connect 7 0 3 0;
#X connect 9 0 2 0;
#X coords 0 258 1 257 34 90 0;
