#N canvas 165 65 399 579 10;
#X obj 27 27 inlet~;
#X obj 27 297 tabwrite~ \$0_array;
#X obj 207 327 f 22050;
#X obj 207 357 until;
#X obj 207 387 f;
#X obj 237 387 + 1;
#X obj 207 297 t b b;
#X obj 287 357 f 0;
#X obj 207 417 tabread \$0_array;
#X obj 207 447 moses;
#X obj 257 447 f;
#X obj 37 207 metro 500;
#X obj 197 477 f;
#X obj 37 237 t b b b;
#X obj 197 507 outlet;
#X obj 107 117 rrandom;
#X obj 107 147 * 20;
#X obj 267 207 ms_to_sample;
#X obj 267 267 array size \$0_array;
#X obj 27 537 array define \$0_array 22050;
#X obj 107 27 inlet;
#X obj 107 87 loadbang;
#X obj 107 177 + 700;
#X connect 0 0 1 0;
#X connect 2 0 3 0;
#X connect 3 0 4 0;
#X connect 4 0 5 0;
#X connect 4 0 8 0;
#X connect 5 0 4 1;
#X connect 6 0 2 0;
#X connect 6 1 7 0;
#X connect 7 0 4 1;
#X connect 7 0 10 0;
#X connect 8 0 9 0;
#X connect 9 1 10 0;
#X connect 10 0 9 1;
#X connect 10 0 12 1;
#X connect 11 0 13 0;
#X connect 12 0 14 0;
#X connect 13 0 1 0;
#X connect 13 1 12 0;
#X connect 13 2 6 0;
#X connect 15 0 16 0;
#X connect 16 0 22 0;
#X connect 17 0 2 1;
#X connect 17 0 18 0;
#X connect 20 0 11 0;
#X connect 21 0 15 0;
#X connect 22 0 11 1;
#X connect 22 0 17 0;
