#N canvas 0 0 450 300 10;
#X obj 100 112 vsl 10 85 0 1 0 0 empty empty empty 0 -9 0 10 -262144
-1 -262144 0 1;
#X obj 20 40 inlet~;
#X obj 20 100 outlet;
#X obj 20 70 peak_read~;
#X obj 100 100 tgl 10 0 empty empty empty 17 7 0 10 -262144 -1 -1 0
1;
#X text 19 212 Reads peak from a signal. Toggle to activate. Fairly
inefficient on the cpu.;
#X connect 1 0 3 0;
#X connect 3 0 2 0;
#X connect 3 0 0 0;
#X connect 4 0 3 1;
#X coords 0 -1 1 1 10 100 2 100 100;
