#N canvas 0 50 450 300 10;
#X obj 132 93 unpack f f f;
#X obj 42 183 pipe;
#X obj 132 183 pipe;
#X obj 42 213 pack;
#X obj 42 63 t a a;
#X obj 42 93 unpack f f f;
#X obj 42 243 outlet;
#X obj 42 33 inlet;
#X obj 42 123 swap;
#X obj 132 123 swap;
#X text 30 269 pipe's 2 input support is (was?) not reliable;
#X connect 0 0 9 0;
#X connect 0 2 9 1;
#X connect 1 0 3 0;
#X connect 2 0 3 1;
#X connect 3 0 6 0;
#X connect 4 0 5 0;
#X connect 4 1 0 0;
#X connect 5 0 8 0;
#X connect 5 1 8 1;
#X connect 7 0 4 0;
#X connect 8 0 1 0;
#X connect 8 1 1 1;
#X connect 9 0 2 0;
#X connect 9 1 2 1;
