#N canvas 251 43 779 570 10;
#X obj 266 309 s \$0-array;
#X msg 266 269 resize \$1;
#X text 219 14 Size;
#X obj 286 89 f;
#X text 283 14 Append;
#X obj 96 339 tabwrite \$0-array;
#X obj 286 119 +;
#X obj 286 59 t a b a;
#X obj 126 269 f;
#X obj 156 269 + 1;
#X obj 96 239 t a b b;
#X obj 166 239 f;
#X obj 46 69 t a b;
#X obj 216 219 rr;
#X obj 216 369 outlet;
#X text 369 14 Dump;
#X obj 216 29 inlet;
#X obj 286 29 inlet;
#X obj 366 29 inlet;
#X text 221 384 Size;
#X obj 586 369 outlet;
#X obj 586 219 f;
#X obj 516 29 inlet;
#X text 516 14 Slice;
#X obj 516 99 until;
#X msg 476 475 \; \$1-array const 0;
#X obj 476 422 bng 15 250 50 0 empty empty empty 17 7 0 10 -262144
-1 -1;
#X obj 476 449 f \$0;
#X obj 316 89 list length;
#X obj 586 339 tabread \$0-array;
#X obj 16 194 list split 1;
#X obj 26 129 until;
#X obj 16 159 list append;
#X obj 26 99 t b l;
#X obj 116 194 b;
#X obj 586 279 until;
#X obj 586 249 t a b;
#X obj 636 279 f 0;
#X obj 586 309 f;
#X obj 616 309 + 1;
#X obj 366 369 outlet;
#X text 371 384 Dump;
#X obj 366 339 array get \$0-array;
#X obj 602 448 array define \$0-array;
#X text 591 384 Slice;
#X obj 516 69 b;
#X text 34 459 Utility object for appending \, dumping \, and slicing
an array;
#X connect 1 0 0 0;
#X connect 3 0 6 0;
#X connect 3 0 11 1;
#X connect 6 0 3 1;
#X connect 6 0 13 0;
#X connect 7 0 12 0;
#X connect 7 1 3 0;
#X connect 7 2 28 0;
#X connect 8 0 9 0;
#X connect 8 0 5 1;
#X connect 9 0 8 1;
#X connect 10 0 5 0;
#X connect 10 1 8 0;
#X connect 11 0 8 1;
#X connect 12 0 33 0;
#X connect 12 1 11 0;
#X connect 13 0 1 0;
#X connect 13 0 14 0;
#X connect 13 0 21 1;
#X connect 16 0 3 1;
#X connect 16 0 13 0;
#X connect 17 0 7 0;
#X connect 18 0 42 0;
#X connect 21 0 36 0;
#X connect 22 0 45 0;
#X connect 26 0 27 0;
#X connect 27 0 25 0;
#X connect 28 0 6 1;
#X connect 29 0 20 0;
#X connect 30 0 10 0;
#X connect 30 1 32 1;
#X connect 30 2 34 0;
#X connect 31 0 32 0;
#X connect 32 0 30 0;
#X connect 33 0 31 0;
#X connect 33 1 32 1;
#X connect 34 0 31 1;
#X connect 35 0 38 0;
#X connect 36 0 35 0;
#X connect 36 1 37 0;
#X connect 37 0 38 1;
#X connect 38 0 29 0;
#X connect 38 0 39 0;
#X connect 39 0 38 1;
#X connect 42 0 40 0;
#X connect 45 0 21 0;
