#N canvas 0 0 450 300 10;
#X text 80 27 freq;
#X obj 243 42 inlet;
#X text 240 27 detune;
#X obj 133 132 *;
#X obj 133 162 * 2;
#X obj 133 192 -;
#X text 130 27 voice;
#X obj 193 42 inlet;
#X text 190 27 voices;
#X obj 133 42 inlet;
#X obj 83 42 inlet~;
#X obj 133 222 sig~;
#X obj 83 252 outlet~;
#X obj 243 72 t b f f;
#X text 220 207 \$2 voices;
#X obj 143 72 lb \$1;
#X obj 133 102 dtbf \$2;
#X text 220 187 \$1 voice (counting from 0);
#X connect 1 0 13 0;
#X connect 3 0 4 0;
#X connect 4 0 5 0;
#X connect 5 0 11 0;
#X connect 7 0 16 1;
#X connect 9 0 16 0;
#X connect 10 0 12 0;
#X connect 11 0 12 0;
#X connect 13 0 3 0;
#X connect 13 1 3 1;
#X connect 13 2 5 1;
#X connect 15 0 16 0;
#X connect 16 0 3 0;
