#N canvas 0 50 450 300 10;
#X obj 17 247 outlet~;
#X obj 17 67 inlet~;
#X obj 117 67 inlet~;
#X text 121 51 mod;
#N canvas 0 50 450 300 sinsqr 0;
#X obj 17 247 outlet~;
#X obj 17 67 inlet~;
#X obj 107 67 inlet~;
#X obj 157 67 inlet;
#X obj 157 97 switch~;
#X obj 17 217 sintanh_arm~;
#X obj 67 67 inlet;
#X connect 1 0 5 0;
#X connect 2 0 5 2;
#X connect 3 0 4 0;
#X connect 5 0 0 0;
#X connect 6 0 5 1;
#X restore 137 217 pd sinsqr;
#X text 171 51 switch;
#X obj 167 67 inlet;
#N canvas 0 50 450 300 trisaw 0;
#X obj 17 247 outlet~;
#X obj 17 67 inlet~;
#X obj 107 67 inlet~;
#X obj 157 67 inlet;
#X obj 157 97 switch~;
#X obj 17 217 traw~;
#X obj 67 67 inlet;
#X connect 1 0 5 0;
#X connect 2 0 5 2;
#X connect 3 0 4 0;
#X connect 5 0 0 0;
#X connect 6 0 5 1;
#X restore 17 217 pd trisaw;
#X text 21 51 freq;
#X obj 67 67 inlet;
#X text 71 51 phase;
#X obj 237 187 == 1;
#X obj 77 187 == 0;
#X connect 1 0 4 0;
#X connect 1 0 7 0;
#X connect 2 0 4 2;
#X connect 2 0 7 2;
#X connect 4 0 0 0;
#X connect 6 0 11 0;
#X connect 6 0 12 0;
#X connect 7 0 0 0;
#X connect 9 0 4 1;
#X connect 9 0 7 1;
#X connect 11 0 4 3;
#X connect 12 0 7 3;
