#N canvas 0 50 454 392 10;
#X obj 17 247 outlet~;
#X obj 17 67 inlet~;
#X obj 77 67 inlet~;
#X text 21 51 cv;
#X text 81 51 mod;
#N canvas 0 50 450 300 sinsqr 0;
#X obj 17 247 outlet~;
#X obj 17 67 inlet~;
#X obj 97 67 inlet~;
#X obj 147 67 inlet;
#X obj 147 97 switch~;
#X obj 17 217 sintanh_cv_arm~;
#X connect 1 0 5 0;
#X connect 2 0 5 1;
#X connect 3 0 4 0;
#X connect 5 0 0 0;
#X restore 137 217 pd sinsqr;
#X obj 127 67 inlet;
#N canvas 0 50 450 300 trisaw 0;
#X obj 17 247 outlet~;
#X obj 17 67 inlet~;
#X obj 97 67 inlet~;
#X obj 147 67 inlet;
#X obj 147 97 switch~;
#X obj 17 217 traw_cv~;
#X connect 1 0 5 0;
#X connect 2 0 5 1;
#X connect 3 0 4 0;
#X connect 5 0 0 0;
#X restore 17 217 pd trisaw;
#X obj 77 187 == 0;
#X obj 197 187 == 1;
#X text 19 295 Phasor~ (0-1) controlled oscillator that modulates between
triangle and saw (type=0) or sine to square (type=1);
#X text 131 51 type;
#X connect 1 0 5 0;
#X connect 1 0 7 0;
#X connect 2 0 5 1;
#X connect 2 0 7 1;
#X connect 5 0 0 0;
#X connect 6 0 8 0;
#X connect 6 0 9 0;
#X connect 7 0 0 0;
#X connect 8 0 7 2;
#X connect 9 0 5 2;
