#N canvas 381 107 629 490 10;
#X obj 54 92 phasor~;
#X obj 54 35 inlet~;
#X obj 104 35 inlet;
#X obj 54 328 outlet~;
#X text 154 20 Width;
#X text 58 20 Freq;
#X text 106 20 Phase;
#X obj 74 122 rev~;
#X obj 74 152 +~;
#X obj 154 35 inlet~;
#X obj 74 182 wrap~;
#X obj 54 212 +~;
#X obj 54 240 -~;
#X obj 54 270 *~ 2;
#X obj 54 298 -~ 1;
#X text 51 357 Pulse oscillator;
#X connect 0 0 7 0;
#X connect 0 0 11 0;
#X connect 1 0 0 0;
#X connect 2 0 0 1;
#X connect 7 0 8 0;
#X connect 8 0 10 0;
#X connect 9 0 8 1;
#X connect 9 0 12 1;
#X connect 10 0 11 1;
#X connect 11 0 12 0;
#X connect 12 0 13 0;
#X connect 13 0 14 0;
#X connect 14 0 3 0;
