#N canvas 641 220 402 363 10;
#X obj 36 47 inlet~;
#X obj 86 47 inlet;
#X text 42 32 Freq;
#X text 86 32 Phase;
#X text 131 32 Sin>Sqr;
#X obj 136 47 inlet~;
#X obj 136 137 +~ 1;
#X obj 136 107 *~ 77;
#X obj 36 77 osc~;
#X obj 136 77 pow~ 2;
#X obj 36 257 outlet~;
#X obj 36 207 tline~;
#X obj 36 137 rr~;
#X obj 36 177 asym_tanh_arm~;
#X text 140 6 sine \, asymetry \, tanh \, dry \, wet;
#X obj 196 47 inlet~;
#X obj 256 47 inlet;
#X obj 266 187 tline~ 1;
#X obj 316 157 rr;
#X obj 306 47 inlet;
#X text 201 32 Asym;
#X text 261 32 Dry;
#X text 311 32 Wet;
#X obj 196 137 rr~;
#X connect 0 0 8 0;
#X connect 1 0 8 1;
#X connect 5 0 9 0;
#X connect 6 0 13 2;
#X connect 7 0 6 0;
#X connect 8 0 12 0;
#X connect 9 0 7 0;
#X connect 11 0 10 0;
#X connect 12 0 13 0;
#X connect 12 0 17 0;
#X connect 13 0 11 0;
#X connect 15 0 23 0;
#X connect 16 0 17 1;
#X connect 17 0 10 0;
#X connect 18 0 11 1;
#X connect 19 0 18 0;
#X connect 23 0 13 1;
