#N canvas 641 220 402 363 10;
#X obj 36 47 inlet~;
#X text 131 32 Sin>Sqr;
#X obj 136 47 inlet~;
#X obj 136 137 +~ 1;
#X obj 136 107 *~ 77;
#X obj 136 77 pow~ 2;
#X obj 36 257 outlet~;
#X obj 36 177 asym_tanh_arm~;
#X obj 256 47 inlet;
#X obj 306 157 rr;
#X obj 306 47 inlet;
#X text 201 32 Asym;
#X text 261 32 Dry;
#X text 311 32 Wet;
#X obj 36 77 +~ 0.25;
#X obj 36 137 cos~;
#X text 42 32 CV;
#X obj 196 47 inlet;
#X obj 196 137 vlinesc~;
#X text 110 273 Sine \, Asymmetry \, Tanh \, Dry \, Wet;
#X obj 256 187 tline~;
#X obj 36 207 tline~ 1;
#X connect 0 0 14 0;
#X connect 2 0 5 0;
#X connect 3 0 7 2;
#X connect 4 0 3 0;
#X connect 5 0 4 0;
#X connect 7 0 21 0;
#X connect 8 0 20 1;
#X connect 9 0 21 1;
#X connect 10 0 9 0;
#X connect 14 0 15 0;
#X connect 15 0 7 0;
#X connect 15 0 20 0;
#X connect 17 0 18 0;
#X connect 18 0 7 1;
#X connect 20 0 6 0;
#X connect 21 0 6 0;
