#N canvas 641 220 402 363 10;
#X obj 36 47 inlet~;
#X text 131 32 Sin>Sqr;
#X obj 136 47 inlet~;
#X obj 136 137 +~ 1;
#X obj 136 107 *~ 77;
#X obj 136 77 pow~ 2;
#X obj 36 257 outlet~;
#X obj 36 177 asym_tanh_arm~;
#X obj 256 47 inlet;
#X text 201 32 Asym;
#X obj 36 77 +~ 0.25;
#X obj 36 137 cos~;
#X text 42 32 CV;
#X obj 196 47 inlet;
#X obj 196 137 vlinesc~;
#X text 261 32 Mix;
#X obj 316 157 rev;
#X obj 266 187 tline~;
#X obj 36 207 tline~ 1;
#X text 140 13 sine \, asymetry \, tanh \, mix 0=wet 1=dry;
#X connect 0 0 10 0;
#X connect 2 0 5 0;
#X connect 3 0 7 2;
#X connect 4 0 3 0;
#X connect 5 0 4 0;
#X connect 7 0 18 0;
#X connect 8 0 16 0;
#X connect 8 0 17 1;
#X connect 10 0 11 0;
#X connect 11 0 7 0;
#X connect 11 0 17 0;
#X connect 13 0 14 0;
#X connect 14 0 7 1;
#X connect 16 0 18 1;
#X connect 17 0 6 0;
#X connect 18 0 6 0;
