#N canvas 0 50 410 363 10;
#X obj 36 157 *~;
#X obj 36 47 inlet~;
#X text 42 32 Freq;
#X obj 36 217 *~ 1;
#X obj 136 47 inlet;
#X text 131 32 Sin>Sqr;
#X obj 136 77 * 127;
#X obj 36 267 outlet~;
#X obj 136 107 + 1;
#X obj 136 137 vlinesc~;
#X obj 196 57 lb 1;
#X obj 36 187 tanhx~;
#X obj 36 77 +~ 0.25;
#X text 39 302 Sine to square via tanh(x) with Control Voltage input
(0-1);
#X obj 36 107 cos~ \$1;
#X connect 0 0 11 0;
#X connect 1 0 12 0;
#X connect 3 0 7 0;
#X connect 4 0 6 0;
#X connect 6 0 8 0;
#X connect 8 0 9 0;
#X connect 9 0 0 1;
#X connect 10 0 9 2;
#X connect 11 0 3 0;
#X connect 12 0 14 0;
#X connect 14 0 0 0;
