#N canvas 0 50 434 402 10;
#X obj 36 157 *~;
#X obj 36 47 inlet~;
#X obj 36 217 *~ 1;
#X text 131 32 Sin>Sqr;
#X obj 36 267 outlet~;
#X obj 36 107 cos~;
#X obj 36 77 +~ 0.25;
#X obj 136 77 *~ 127;
#X obj 136 47 inlet~;
#X obj 136 107 +~ 1;
#X obj 36 187 tanhx~;
#X text 39 302 Sine to square via tanh(x) with Control Voltage (0-1)
input and Audio Rate Modulation;
#X text 42 32 CV;
#X connect 0 0 10 0;
#X connect 1 0 6 0;
#X connect 2 0 4 0;
#X connect 5 0 0 0;
#X connect 6 0 5 0;
#X connect 7 0 9 0;
#X connect 8 0 7 0;
#X connect 9 0 0 1;
#X connect 10 0 2 0;
