#N canvas 0 50 475 416 10;
#X obj 37 237 outlet~;
#X obj 157 27 inlet~;
#X obj 37 87 *~ -1;
#X obj 37 117 +~ 1;
#X obj 37 147 min~;
#X obj 107 87 *~;
#X obj 37 207 -~ 1;
#X obj 157 87 pow~ 4;
#X obj 157 117 *~ 500;
#X obj 157 149 +~ 1;
#X obj 217 117 pow~ 6;
#X obj 217 87 rev~;
#X obj 217 147 *~ 2;
#X obj 217 177 +~ 2;
#X obj 157 57 rr~;
#X obj 37 177 *~;
#X obj 37 27 inlet~;
#X text 31 283 TRiangle to sAW oscillator with Control Voltage input
(0-1);
#X connect 1 0 14 0;
#X connect 2 0 3 0;
#X connect 3 0 4 0;
#X connect 4 0 15 0;
#X connect 5 0 4 1;
#X connect 6 0 0 0;
#X connect 7 0 8 0;
#X connect 8 0 9 0;
#X connect 9 0 5 1;
#X connect 10 0 12 0;
#X connect 11 0 10 0;
#X connect 12 0 13 0;
#X connect 13 0 15 1;
#X connect 14 0 7 0;
#X connect 14 0 11 0;
#X connect 15 0 6 0;
#X connect 16 0 2 0;
#X connect 16 0 5 0;
