#N canvas 0 50 475 416 10;
#X obj 77 17 inlet~;
#X obj 77 227 outlet~;
#X obj 197 17 inlet~;
#X obj 77 77 *~ -1;
#X obj 77 107 +~ 1;
#X obj 77 137 min~;
#X obj 147 77 *~;
#X obj 77 197 -~ 1;
#X obj 197 77 pow~ 4;
#X obj 197 107 *~ 500;
#X obj 197 137 +~ 1;
#X obj 247 107 pow~ 6;
#X obj 247 77 rev~;
#X obj 247 137 *~ 2;
#X obj 247 167 +~ 2;
#X obj 137 17 inlet;
#X obj 197 47 rr~;
#X obj 77 167 *~;
#X obj 77 47 phasor~ \$1;
#X text 31 283 TRiangle to sAW oscillator;
#X connect 0 0 18 0;
#X connect 2 0 16 0;
#X connect 3 0 4 0;
#X connect 4 0 5 0;
#X connect 5 0 17 0;
#X connect 6 0 5 1;
#X connect 7 0 1 0;
#X connect 8 0 9 0;
#X connect 9 0 10 0;
#X connect 10 0 6 1;
#X connect 11 0 13 0;
#X connect 12 0 11 0;
#X connect 13 0 14 0;
#X connect 14 0 17 1;
#X connect 15 0 18 1;
#X connect 16 0 8 0;
#X connect 16 0 12 0;
#X connect 17 0 7 0;
#X connect 18 0 3 0;
#X connect 18 0 6 0;
