#N canvas 498 204 571 376 10;
#X obj 50 336 outlet~;
#X obj 50 36 inlet~;
#X obj 70 156 lb 0;
#X text 53 20 freq;
#X text 338 20 detune;
#X obj 100 36 inlet;
#X text 100 20 phase;
#X text 145 20 mod;
#X obj 340 36 inlet;
#X obj 340 66 rr;
#X obj 380 36 lb 1.5;
#X obj 140 36 inlet~;
#X obj 50 216 phasor~;
#X obj 50 306 traw_cv~;
#X obj 50 276 wrap~ 0 1;
#X obj 50 246 tline~ 1;
#X obj 180 216 phasor~;
#X obj 310 216 phasor~;
#X obj 180 306 traw_cv~;
#X obj 180 276 wrap~ 0 1;
#X obj 180 246 tline~ 1;
#X obj 310 306 traw_cv~;
#X obj 310 276 wrap~ 0 1;
#X obj 310 246 tline~ 1;
#X text 195 20 sync;
#X obj 190 36 inlet;
#X obj 50 186 detune 0 3;
#X obj 310 186 detune 2 3;
#X connect 1 0 16 0;
#X connect 1 0 27 0;
#X connect 1 0 26 0;
#X connect 2 0 26 1;
#X connect 5 0 12 1;
#X connect 5 0 16 1;
#X connect 5 0 17 1;
#X connect 8 0 9 0;
#X connect 9 0 27 3;
#X connect 9 0 26 3;
#X connect 10 0 9 0;
#X connect 11 0 13 1;
#X connect 11 0 18 1;
#X connect 11 0 21 1;
#X connect 12 0 15 0;
#X connect 13 0 0 0;
#X connect 14 0 13 0;
#X connect 15 0 14 0;
#X connect 16 0 20 0;
#X connect 17 0 23 0;
#X connect 18 0 0 0;
#X connect 19 0 18 0;
#X connect 20 0 19 0;
#X connect 21 0 0 0;
#X connect 22 0 21 0;
#X connect 23 0 22 0;
#X connect 25 0 15 1;
#X connect 25 0 23 1;
#X connect 25 0 20 1;
#X connect 26 0 12 0;
#X connect 27 0 17 0;
