#N canvas 498 204 450 300 10;
#X obj 150 226 trisaw_unimod~;
#X obj 260 226 trisaw_unimod~;
#X obj 40 256 outlet~;
#X obj 40 46 inlet~;
#X text 43 30 freq;
#X text 288 30 detune;
#X obj 90 46 inlet;
#X obj 130 46 inlet;
#X text 90 30 phase;
#X text 135 30 mod;
#X obj 40 226 trisaw_unimod~;
#X obj 290 46 inlet;
#X obj 290 76 rr;
#X obj 330 46 lb 1.5;
#X obj 40 196 detune 0 3;
#X obj 260 196 detune 2 3;
#X connect 0 0 2 0;
#X connect 1 0 2 0;
#X connect 3 0 14 0;
#X connect 3 0 15 0;
#X connect 6 0 0 1;
#X connect 6 0 1 1;
#X connect 6 0 10 1;
#X connect 7 0 0 2;
#X connect 7 0 1 2;
#X connect 7 0 10 2;
#X connect 10 0 2 0;
#X connect 11 0 12 0;
#X connect 12 0 14 3;
#X connect 12 0 15 3;
#X connect 13 0 12 0;
#X connect 14 0 10 0;
#X connect 15 0 1 0;
