#N canvas 498 204 467 352 10;
#X obj 50 246 outlet~;
#X obj 50 36 inlet~;
#X obj 300 36 inlet;
#X text 53 20 freq;
#X text 298 20 detune;
#X obj 100 36 inlet;
#X obj 140 36 inlet;
#X text 100 20 phase;
#X text 145 20 mod;
#X obj 50 216 \$1~;
#X obj 270 216 \$1~;
#X obj 50 186 detune 0 3;
#X obj 270 186 detune 2 3;
#X obj 160 216 \$1;
#X text 25 289 triple detune any oscillator with possible unipolar
modulator (inlet 3);
#X connect 1 0 11 0;
#X connect 1 0 12 0;
#X connect 1 0 13 0;
#X connect 2 0 11 3;
#X connect 2 0 12 3;
#X connect 5 0 9 1;
#X connect 5 0 10 1;
#X connect 5 0 13 1;
#X connect 6 0 9 2;
#X connect 6 0 10 2;
#X connect 9 0 0 0;
#X connect 10 0 0 0;
#X connect 11 0 9 0;
#X connect 12 0 10 0;
#X connect 13 0 0 0;
