#N canvas 250 42 833 602 10;
#X obj 111 32 inlet;
#X text 68 18 Freq;
#X text 113 18 Phase;
#X obj 61 62 phasor~;
#X obj 61 432 *~;
#X obj 181 432 *~;
#X obj 201 212 -~;
#X obj 181 122 sig~ 1;
#X obj 181 152 -~;
#X obj 181 242 -~;
#X obj 61 402 /~;
#X obj 181 402 /~;
#X obj 61 32 inlet~;
#X obj 61 552 outlet~;
#X obj 61 492 *~ 2;
#X obj 61 522 -~ 1;
#X obj 267 32 inlet~;
#X obj 267 112 pow~ 0.35;
#X obj 267 142 *~ 0.5;
#X obj 267 172 +~ 0.5;
#X obj 337 42 lb 0.35;
#X obj 337 72 sig~;
#X obj 267 202 rr~;
#X text 267 18 Width~;
#X obj 221 402 ar_gthan~;
#X obj 101 402 ar_lthan~;
#X connect 0 0 3 1;
#X connect 3 0 6 0;
#X connect 3 0 10 0;
#X connect 3 0 24 0;
#X connect 3 0 25 0;
#X connect 4 0 14 0;
#X connect 5 0 14 0;
#X connect 6 0 9 1;
#X connect 7 0 8 0;
#X connect 8 0 9 0;
#X connect 8 0 11 1;
#X connect 9 0 11 0;
#X connect 10 0 4 0;
#X connect 11 0 5 0;
#X connect 12 0 3 0;
#X connect 14 0 15 0;
#X connect 15 0 13 0;
#X connect 16 0 17 0;
#X connect 17 0 18 0;
#X connect 18 0 19 0;
#X connect 19 0 22 0;
#X connect 20 0 21 0;
#X connect 21 0 17 1;
#X connect 22 0 6 1;
#X connect 22 0 8 1;
#X connect 22 0 10 1;
#X connect 22 0 24 1;
#X connect 22 0 25 1;
#X connect 24 0 5 1;
#X connect 25 0 4 1;
#X coords 0 602 1 601 67 46 0;
