#N canvas 253 142 833 602 10;
#X obj -89 22 inlet;
#X obj 107 22 inlet;
#X text -132 8 Freq;
#X text -87 8 Phase;
#X text 107 8 Width;
#X obj -139 52 phasor~;
#X obj -139 382 *~;
#X obj -29 382 *~;
#X obj -9 172 -~;
#X obj -29 82 sig~ 1;
#X obj -29 112 -~;
#X obj -29 222 -~;
#X obj -139 352 /~;
#X obj -29 352 /~;
#X obj 107 92 * 0.5;
#X obj -139 22 inlet~;
#X obj -139 502 outlet~;
#X obj -139 442 *~ 2;
#X obj -139 472 -~ 1;
#X obj 107 122 + 0.5;
#X obj 107 152 vlinesc~;
#X obj 107 62 pow 0.35;
#X obj 11 352 ar_gthan~;
#X obj -99 352 ar_lthan~;
#X connect 0 0 5 1;
#X connect 1 0 21 0;
#X connect 5 0 8 0;
#X connect 5 0 12 0;
#X connect 5 0 22 0;
#X connect 5 0 23 0;
#X connect 6 0 17 0;
#X connect 7 0 17 0;
#X connect 8 0 11 1;
#X connect 9 0 10 0;
#X connect 10 0 11 0;
#X connect 10 0 13 1;
#X connect 11 0 13 0;
#X connect 12 0 6 0;
#X connect 13 0 7 0;
#X connect 14 0 19 0;
#X connect 15 0 5 0;
#X connect 17 0 18 0;
#X connect 18 0 16 0;
#X connect 19 0 20 0;
#X connect 20 0 8 1;
#X connect 20 0 10 1;
#X connect 20 0 12 1;
#X connect 20 0 22 1;
#X connect 20 0 23 1;
#X connect 21 0 14 0;
#X connect 22 0 7 1;
#X connect 23 0 6 1;
#X coords 0 602 1 601 67 46 0;
