#N canvas -8 -8 1280 677 10;
#X declare -path ./vv;
#X declare -path ./synth;
#X declare -path ./shortcut;
#X declare -path ./sampler;
#X declare -path ./oscillator;
#X declare -path ./modulation;
#X declare -path ./misc;
#X declare -path ./conversion;
#X declare -path ./audio_routing;
#X declare -path ./audio_effect;
#X declare -path ./control_and_note;
#X declare -path ./seq;
#X declare -path ./timing;
#X declare -path ../audio_effect;
#X declare -path ../audio_routing;
#X declare -path ../control_and_note;
#X declare -path ../conversion;
#X declare -path ../misc;
#X declare -path ../modulation;
#X declare -path ../oscillator;
#X declare -path ../sampler;
#X declare -path ../seq;
#X declare -path ../shortcut;
#X declare -path ../synth;
#X declare -path ../timing;
#X declare -path ../vv;
#X declare -path piloslib/audio_effect;
#X declare -path piloslib/audio_routing;
#X declare -path piloslib/control_and_note;
#X declare -path piloslib/conversion;
#X declare -path piloslib/misc;
#X declare -path piloslib/modulation;
#X declare -path piloslib/oscillator;
#X declare -path piloslib/sampler;
#X declare -path piloslib/seq;
#X declare -path piloslib/shortcut;
#X declare -path piloslib/synth;
#X declare -path piloslib/timing;
#X declare -path piloslib/vv;
#X obj 312 79 bng 45 250 50 0 empty empty empty 17 7 0 10 -262144 -1
-1;
#X obj 212 139 s global_save;
#X obj 212 79 bng 45 250 50 0 empty empty empty 17 7 0 10 -262144 -1
-1;
#X obj 312 139 s global_load;
#X obj 312 49 loadbang;
#X obj 402 79 sl_control;
#N canvas 665 208 450 300 msgbx 0;
#X obj 43 13 inlet;
#X msg 43 38 \; load_send global tempo 120 \;;
#X connect 0 0 1 0;
#X restore 402 109 pd msgbx;
#X obj 42 169 global_transport;
#X obj 502 269 catcher~ master;
#X obj 502 329 tanhx~;
#X obj 562 329 tanhx~;
#X obj 42 79 metronome_60;
#X obj 302 399 writesf_global~ 2;
#X obj 502 359 hip~ 3;
#X obj 562 359 hip~ 3;
#X obj 502 499 dac~;
#X obj 502 469 tline~;
#X obj 562 469 tline~;
#X obj 97 401 hsl 180 40 0 1 0 1 empty empty empty -2 -8 0 10 -262144
-1 -1 17900 0;
#X obj 242 479 peak_stick2~;
#X obj 242 489 peak_stick2~;
#X text 97 385 ||||||||||||||||||||||||||||;
#X obj 302 339 tgl 40 1 empty empty Record 17 7 0 10 -262144 -36352
-1 0 1;
#X obj 202 169 bar_readout;
#N canvas 0 50 450 300 dspon 0;
#X obj 37 37 inlet;
#X msg 37 59 dsp 1;
#X obj 37 81 s pd;
#X connect 0 0 1 0;
#X connect 1 0 2 0;
#X restore 42 459 pd dspon;
#N canvas 0 50 794 502 declares 0;
#X obj 42 456 declare -path ./vv;
#X obj 42 396 declare -path ./synth;
#X obj 42 366 declare -path ./shortcut;
#X obj 42 306 declare -path ./sampler;
#X obj 42 276 declare -path ./oscillator;
#X obj 42 246 declare -path ./modulation;
#X obj 42 216 declare -path ./misc;
#X obj 42 186 declare -path ./conversion;
#X obj 42 126 declare -path ./audio_routing;
#X obj 42 96 declare -path ./audio_effect;
#X obj 42 156 declare -path ./control_and_note;
#X obj 42 336 declare -path ./seq;
#X obj 42 426 declare -path ./timing;
#X text 39 81 For when in root:;
#X text 249 81 For when in a subdirectory:;
#X obj 252 96 declare -path ../audio_effect;
#X obj 252 126 declare -path ../audio_routing;
#X obj 252 156 declare -path ../control_and_note;
#X obj 252 186 declare -path ../conversion;
#X obj 252 216 declare -path ../misc;
#X obj 252 246 declare -path ../modulation;
#X obj 252 276 declare -path ../oscillator;
#X obj 252 306 declare -path ../sampler;
#X obj 252 336 declare -path ../seq;
#X obj 252 366 declare -path ../shortcut;
#X obj 252 396 declare -path ../synth;
#X obj 252 426 declare -path ../timing;
#X obj 252 456 declare -path ../vv;
#X obj 472 96 declare -path piloslib/audio_effect;
#X obj 472 126 declare -path piloslib/audio_routing;
#X obj 472 156 declare -path piloslib/control_and_note;
#X obj 472 186 declare -path piloslib/conversion;
#X obj 472 216 declare -path piloslib/misc;
#X obj 472 246 declare -path piloslib/modulation;
#X obj 472 276 declare -path piloslib/oscillator;
#X obj 472 306 declare -path piloslib/sampler;
#X obj 472 336 declare -path piloslib/seq;
#X obj 472 366 declare -path piloslib/shortcut;
#X obj 472 396 declare -path piloslib/synth;
#X obj 472 426 declare -path piloslib/timing;
#X obj 472 456 declare -path piloslib/vv;
#X text 469 81 For when in a folder in searchpath called piloslib:
;
#X text 29 21 Includes necessary directories. Patches only work if
library is in searchpath (automatic when installed via deken) or the
patch is in the root of the library or a subdirectory of the root;
#X restore 402 139 pd declares;
#X connect 0 0 3 0;
#X connect 2 0 1 0;
#X connect 4 0 0 0;
#X connect 5 0 6 0;
#X connect 8 0 9 0;
#X connect 8 1 10 0;
#X connect 9 0 13 0;
#X connect 10 0 14 0;
#X connect 13 0 12 0;
#X connect 13 0 16 0;
#X connect 13 0 19 0;
#X connect 14 0 12 1;
#X connect 14 0 17 0;
#X connect 14 0 20 0;
#X connect 16 0 15 0;
#X connect 17 0 15 1;
#X connect 18 0 17 1;
#X connect 18 0 16 1;
#X connect 18 0 24 0;
#X connect 22 0 12 2;
