#N canvas 0 50 522 449 10;
#X obj 30 60 sel 0 1 2 3 4 5 6 7 8 9 10 11 12 13 14 15;
#X obj 40 90 r \$1_0;
#X obj 30 120 f;
#X obj 60 90 r \$1_1;
#X obj 50 120 f;
#X obj 80 90 r \$1_2;
#X obj 70 120 f;
#X obj 100 90 r \$1_3;
#X obj 90 120 f;
#X obj 120 90 r \$1_4;
#X obj 110 120 f;
#X obj 140 90 r \$1_5;
#X obj 130 120 f;
#X obj 160 90 r \$1_6;
#X obj 150 120 f;
#X obj 180 90 r \$1_7;
#X obj 170 120 f;
#X obj 200 90 r \$1_8;
#X obj 190 120 f;
#X obj 220 90 r \$1_9;
#X obj 210 120 f;
#X obj 240 90 r \$1_10;
#X obj 230 120 f;
#X obj 260 90 r \$1_11;
#X obj 250 120 f;
#X obj 280 90 r \$1_12;
#X obj 270 120 f;
#X obj 300 90 r \$1_13;
#X obj 290 120 f;
#X obj 320 90 r \$1_14;
#X obj 310 120 f;
#X obj 370 90 r \$1_15;
#X obj 330 120 f;
#X obj 30 30 inlet;
#X obj 30 180 outlet;
#X text 280 180 \$1 name;
#X connect 0 0 2 0;
#X connect 0 1 4 0;
#X connect 0 2 6 0;
#X connect 0 3 8 0;
#X connect 0 4 10 0;
#X connect 0 5 12 0;
#X connect 0 6 14 0;
#X connect 0 7 16 0;
#X connect 0 8 18 0;
#X connect 0 9 20 0;
#X connect 0 10 22 0;
#X connect 0 11 24 0;
#X connect 0 12 26 0;
#X connect 0 13 28 0;
#X connect 0 14 30 0;
#X connect 0 15 32 0;
#X connect 1 0 2 1;
#X connect 2 0 34 0;
#X connect 3 0 4 1;
#X connect 4 0 34 0;
#X connect 5 0 6 1;
#X connect 6 0 34 0;
#X connect 7 0 8 1;
#X connect 8 0 34 0;
#X connect 9 0 10 1;
#X connect 10 0 34 0;
#X connect 11 0 12 1;
#X connect 12 0 34 0;
#X connect 13 0 14 1;
#X connect 14 0 34 0;
#X connect 15 0 16 1;
#X connect 16 0 34 0;
#X connect 17 0 18 1;
#X connect 18 0 34 0;
#X connect 19 0 20 1;
#X connect 20 0 34 0;
#X connect 21 0 22 1;
#X connect 22 0 34 0;
#X connect 23 0 24 1;
#X connect 24 0 34 0;
#X connect 25 0 26 1;
#X connect 26 0 34 0;
#X connect 27 0 28 1;
#X connect 28 0 34 0;
#X connect 29 0 30 1;
#X connect 30 0 34 0;
#X connect 31 0 32 1;
#X connect 32 0 34 0;
#X connect 33 0 0 0;
