#N canvas 0 0 700 600 10;
#X obj 20 60 inlet;
#X obj 20 90 sel 0 1 2 3 4 5 6 7 8 9 10 11 12 13 14 15 16 17 18 19
20 21 22 23 24 25 26 27 28 29 30 31;
#X obj 30 150 r \$1_0;
#X obj 20 180 f;
#X obj 50 150 r \$1_1;
#X obj 40 180 f;
#X obj 70 150 r \$1_2;
#X obj 60 180 f;
#X obj 90 150 r \$1_3;
#X obj 80 180 f;
#X obj 110 150 r \$1_4;
#X obj 100 180 f;
#X obj 130 150 r \$1_5;
#X obj 120 180 f;
#X obj 150 150 r \$1_6;
#X obj 140 180 f;
#X obj 170 150 r \$1_7;
#X obj 160 180 f;
#X obj 190 150 r \$1_8;
#X obj 180 180 f;
#X obj 210 150 r \$1_9;
#X obj 200 180 f;
#X obj 230 150 r \$1_10;
#X obj 220 180 f;
#X obj 250 150 r \$1_11;
#X obj 240 180 f;
#X obj 270 150 r \$1_12;
#X obj 260 180 f;
#X obj 290 150 r \$1_13;
#X obj 280 180 f;
#X obj 310 150 r \$1_14;
#X obj 300 180 f;
#X obj 330 150 r \$1_15;
#X obj 320 180 f;
#X obj 350 150 r \$1_16;
#X obj 340 180 f;
#X obj 370 150 r \$1_17;
#X obj 360 180 f;
#X obj 390 150 r \$1_18;
#X obj 380 180 f;
#X obj 410 150 r \$1_19;
#X obj 400 180 f;
#X obj 430 150 r \$1_20;
#X obj 420 180 f;
#X obj 450 150 r \$1_21;
#X obj 440 180 f;
#X obj 470 150 r \$1_22;
#X obj 460 180 f;
#X obj 490 150 r \$1_23;
#X obj 480 180 f;
#X obj 510 150 r \$1_24;
#X obj 500 180 f;
#X obj 530 150 r \$1_25;
#X obj 520 180 f;
#X obj 550 150 r \$1_26;
#X obj 540 180 f;
#X obj 570 150 r \$1_27;
#X obj 560 180 f;
#X obj 590 150 r \$1_28;
#X obj 580 180 f;
#X obj 610 150 r \$1_29;
#X obj 600 180 f;
#X obj 630 150 r \$1_30;
#X obj 620 180 f;
#X obj 650 150 r \$1_31;
#X obj 640 180 f;
#X obj 20 210 outlet;
#X connect 0 0 1 0;
#X connect 1 0 3 0;
#X connect 1 1 5 0;
#X connect 1 2 7 0;
#X connect 1 3 9 0;
#X connect 1 4 11 0;
#X connect 1 5 13 0;
#X connect 1 6 15 0;
#X connect 1 7 17 0;
#X connect 1 8 19 0;
#X connect 1 9 21 0;
#X connect 1 10 23 0;
#X connect 1 11 25 0;
#X connect 1 12 27 0;
#X connect 1 13 29 0;
#X connect 1 14 31 0;
#X connect 1 15 33 0;
#X connect 1 16 35 0;
#X connect 1 17 37 0;
#X connect 1 18 39 0;
#X connect 1 19 41 0;
#X connect 1 20 43 0;
#X connect 1 21 45 0;
#X connect 1 22 47 0;
#X connect 1 23 49 0;
#X connect 1 24 51 0;
#X connect 1 25 53 0;
#X connect 1 26 55 0;
#X connect 1 27 57 0;
#X connect 1 28 59 0;
#X connect 1 29 61 0;
#X connect 1 30 63 0;
#X connect 1 31 65 0;
#X connect 2 0 3 1;
#X connect 3 0 66 0;
#X connect 4 0 5 1;
#X connect 5 0 66 0;
#X connect 6 0 7 1;
#X connect 7 0 66 0;
#X connect 8 0 9 1;
#X connect 9 0 66 0;
#X connect 10 0 11 1;
#X connect 11 0 66 0;
#X connect 12 0 13 1;
#X connect 13 0 66 0;
#X connect 14 0 15 1;
#X connect 15 0 66 0;
#X connect 16 0 17 1;
#X connect 17 0 66 0;
#X connect 18 0 19 1;
#X connect 19 0 66 0;
#X connect 20 0 21 1;
#X connect 21 0 66 0;
#X connect 22 0 23 1;
#X connect 23 0 66 0;
#X connect 24 0 25 1;
#X connect 25 0 66 0;
#X connect 26 0 27 1;
#X connect 27 0 66 0;
#X connect 28 0 29 1;
#X connect 29 0 66 0;
#X connect 30 0 31 1;
#X connect 31 0 66 0;
#X connect 32 0 33 1;
#X connect 33 0 66 0;
#X connect 34 0 35 1;
#X connect 35 0 66 0;
#X connect 36 0 37 1;
#X connect 37 0 66 0;
#X connect 38 0 39 1;
#X connect 39 0 66 0;
#X connect 40 0 41 1;
#X connect 41 0 66 0;
#X connect 42 0 43 1;
#X connect 43 0 66 0;
#X connect 44 0 45 1;
#X connect 45 0 66 0;
#X connect 46 0 47 1;
#X connect 47 0 66 0;
#X connect 48 0 49 1;
#X connect 49 0 66 0;
#X connect 50 0 51 1;
#X connect 51 0 66 0;
#X connect 52 0 53 1;
#X connect 53 0 66 0;
#X connect 54 0 55 1;
#X connect 55 0 66 0;
#X connect 56 0 57 1;
#X connect 57 0 66 0;
#X connect 58 0 59 1;
#X connect 59 0 66 0;
#X connect 60 0 61 1;
#X connect 61 0 66 0;
#X connect 62 0 63 1;
#X connect 63 0 66 0;
#X connect 64 0 65 1;
#X connect 65 0 66 0;
