#N canvas 0 50 522 449 10;
#X obj 40 90 r \$1_0;
#X obj 30 120 f;
#X obj 60 90 r \$1_1;
#X obj 50 120 f;
#X obj 80 90 r \$1_2;
#X obj 70 120 f;
#X obj 100 90 r \$1_3;
#X obj 90 120 f;
#X obj 30 30 inlet;
#X obj 30 60 sel 0 1 2 3 4 5 6 7;
#X obj 30 180 outlet;
#X connect 0 0 1 1;
#X connect 1 0 10 0;
#X connect 2 0 3 1;
#X connect 3 0 10 0;
#X connect 4 0 5 1;
#X connect 5 0 10 0;
#X connect 6 0 7 1;
#X connect 7 0 10 0;
#X connect 8 0 9 0;
#X connect 9 0 1 0;
#X connect 9 1 3 0;
#X connect 9 2 5 0;
#X connect 9 3 7 0;
