#N canvas 0 50 522 449 10;
#X obj 40 90 r \$1_0;
#X obj 30 120 f;
#X obj 60 90 r \$1_1;
#X obj 50 120 f;
#X obj 80 90 r \$1_2;
#X obj 70 120 f;
#X obj 100 90 r \$1_3;
#X obj 90 120 f;
#X obj 120 90 r \$1_4;
#X obj 110 120 f;
#X obj 140 90 r \$1_5;
#X obj 130 120 f;
#X obj 160 90 r \$1_6;
#X obj 150 120 f;
#X obj 200 90 r \$1_7;
#X obj 30 30 inlet;
#X obj 170 120 f;
#X obj 30 60 sel 0 1 2 3 4 5 6 7;
#X obj 30 180 outlet;
#X connect 0 0 1 1;
#X connect 1 0 18 0;
#X connect 2 0 3 1;
#X connect 3 0 18 0;
#X connect 4 0 5 1;
#X connect 5 0 18 0;
#X connect 6 0 7 1;
#X connect 7 0 18 0;
#X connect 8 0 9 1;
#X connect 9 0 18 0;
#X connect 10 0 11 1;
#X connect 11 0 18 0;
#X connect 12 0 13 1;
#X connect 13 0 18 0;
#X connect 14 0 16 1;
#X connect 15 0 17 0;
#X connect 16 0 18 0;
#X connect 17 0 1 0;
#X connect 17 1 3 0;
#X connect 17 2 5 0;
#X connect 17 3 7 0;
#X connect 17 4 9 0;
#X connect 17 5 11 0;
#X connect 17 6 13 0;
#X connect 17 7 16 0;
