#N canvas 0 0 700 600 10;
#X obj 30 40 inlet;
#X obj 30 70 sel 0 1 2 3 4 5 6 7 8 9 10 11 12 13 14 15 16 17 18 19
20 21 22 23 24 25 26 27 28 29 30 31 32 33 34 35 36 37 38 39 40 41 42
43 44 45 46 47 48 49 50 51 52 53 54 55 56 57 58 59 60 61 62 63;
#X obj 40 130 r \$1_0;
#X obj 30 160 list store;
#X obj 60 130 r \$1_1;
#X obj 50 160 list store;
#X obj 80 130 r \$1_2;
#X obj 70 160 list store;
#X obj 100 130 r \$1_3;
#X obj 90 160 list store;
#X obj 120 130 r \$1_4;
#X obj 110 160 list store;
#X obj 140 130 r \$1_5;
#X obj 130 160 list store;
#X obj 160 130 r \$1_6;
#X obj 150 160 list store;
#X obj 180 130 r \$1_7;
#X obj 170 160 list store;
#X obj 200 130 r \$1_8;
#X obj 190 160 list store;
#X obj 220 130 r \$1_9;
#X obj 210 160 list store;
#X obj 240 130 r \$1_10;
#X obj 230 160 list store;
#X obj 260 130 r \$1_11;
#X obj 250 160 list store;
#X obj 280 130 r \$1_12;
#X obj 270 160 list store;
#X obj 300 130 r \$1_13;
#X obj 290 160 list store;
#X obj 320 130 r \$1_14;
#X obj 310 160 list store;
#X obj 340 130 r \$1_15;
#X obj 330 160 list store;
#X obj 360 130 r \$1_16;
#X obj 350 160 list store;
#X obj 380 130 r \$1_17;
#X obj 370 160 list store;
#X obj 400 130 r \$1_18;
#X obj 390 160 list store;
#X obj 420 130 r \$1_19;
#X obj 410 160 list store;
#X obj 440 130 r \$1_20;
#X obj 430 160 list store;
#X obj 460 130 r \$1_21;
#X obj 450 160 list store;
#X obj 480 130 r \$1_22;
#X obj 470 160 list store;
#X obj 500 130 r \$1_23;
#X obj 490 160 list store;
#X obj 520 130 r \$1_24;
#X obj 510 160 list store;
#X obj 540 130 r \$1_25;
#X obj 530 160 list store;
#X obj 560 130 r \$1_26;
#X obj 550 160 list store;
#X obj 580 130 r \$1_27;
#X obj 570 160 list store;
#X obj 600 130 r \$1_28;
#X obj 590 160 list store;
#X obj 620 130 r \$1_29;
#X obj 610 160 list store;
#X obj 640 130 r \$1_30;
#X obj 630 160 list store;
#X obj 660 130 r \$1_31;
#X obj 650 160 list store;
#X obj 680 130 r \$1_32;
#X obj 670 160 list store;
#X obj 700 130 r \$1_33;
#X obj 690 160 list store;
#X obj 720 130 r \$1_34;
#X obj 710 160 list store;
#X obj 740 130 r \$1_35;
#X obj 730 160 list store;
#X obj 760 130 r \$1_36;
#X obj 750 160 list store;
#X obj 780 130 r \$1_37;
#X obj 770 160 list store;
#X obj 800 130 r \$1_38;
#X obj 790 160 list store;
#X obj 820 130 r \$1_39;
#X obj 810 160 list store;
#X obj 840 130 r \$1_40;
#X obj 830 160 list store;
#X obj 860 130 r \$1_41;
#X obj 850 160 list store;
#X obj 880 130 r \$1_42;
#X obj 870 160 list store;
#X obj 900 130 r \$1_43;
#X obj 890 160 list store;
#X obj 920 130 r \$1_44;
#X obj 910 160 list store;
#X obj 940 130 r \$1_45;
#X obj 930 160 list store;
#X obj 960 130 r \$1_46;
#X obj 950 160 list store;
#X obj 980 130 r \$1_47;
#X obj 970 160 list store;
#X obj 1000 130 r \$1_48;
#X obj 990 160 list store;
#X obj 1020 130 r \$1_49;
#X obj 1010 160 list store;
#X obj 1040 130 r \$1_50;
#X obj 1030 160 list store;
#X obj 1060 130 r \$1_51;
#X obj 1050 160 list store;
#X obj 1080 130 r \$1_52;
#X obj 1070 160 list store;
#X obj 1100 130 r \$1_53;
#X obj 1090 160 list store;
#X obj 1120 130 r \$1_54;
#X obj 1110 160 list store;
#X obj 1140 130 r \$1_55;
#X obj 1130 160 list store;
#X obj 1160 130 r \$1_56;
#X obj 1150 160 list store;
#X obj 1180 130 r \$1_57;
#X obj 1170 160 list store;
#X obj 1200 130 r \$1_58;
#X obj 1190 160 list store;
#X obj 1220 130 r \$1_59;
#X obj 1210 160 list store;
#X obj 1240 130 r \$1_60;
#X obj 1230 160 list store;
#X obj 1260 130 r \$1_61;
#X obj 1250 160 list store;
#X obj 1280 130 r \$1_62;
#X obj 1270 160 list store;
#X obj 1300 130 r \$1_63;
#X obj 1290 160 list store;
#X obj 30 190 outlet;
#X connect 0 0 1 0;
#X connect 1 0 3 0;
#X connect 1 1 5 0;
#X connect 1 2 7 0;
#X connect 1 3 9 0;
#X connect 1 4 11 0;
#X connect 1 5 13 0;
#X connect 1 6 15 0;
#X connect 1 7 17 0;
#X connect 1 8 19 0;
#X connect 1 9 21 0;
#X connect 1 10 23 0;
#X connect 1 11 25 0;
#X connect 1 12 27 0;
#X connect 1 13 29 0;
#X connect 1 14 31 0;
#X connect 1 15 33 0;
#X connect 1 16 35 0;
#X connect 1 17 37 0;
#X connect 1 18 39 0;
#X connect 1 19 41 0;
#X connect 1 20 43 0;
#X connect 1 21 45 0;
#X connect 1 22 47 0;
#X connect 1 23 49 0;
#X connect 1 24 51 0;
#X connect 1 25 53 0;
#X connect 1 26 55 0;
#X connect 1 27 57 0;
#X connect 1 28 59 0;
#X connect 1 29 61 0;
#X connect 1 30 63 0;
#X connect 1 31 65 0;
#X connect 1 32 67 0;
#X connect 1 33 69 0;
#X connect 1 34 71 0;
#X connect 1 35 73 0;
#X connect 1 36 75 0;
#X connect 1 37 77 0;
#X connect 1 38 79 0;
#X connect 1 39 81 0;
#X connect 1 40 83 0;
#X connect 1 41 85 0;
#X connect 1 42 87 0;
#X connect 1 43 89 0;
#X connect 1 44 91 0;
#X connect 1 45 93 0;
#X connect 1 46 95 0;
#X connect 1 47 97 0;
#X connect 1 48 99 0;
#X connect 1 49 101 0;
#X connect 1 50 103 0;
#X connect 1 51 105 0;
#X connect 1 52 107 0;
#X connect 1 53 109 0;
#X connect 1 54 111 0;
#X connect 1 55 113 0;
#X connect 1 56 115 0;
#X connect 1 57 117 0;
#X connect 1 58 119 0;
#X connect 1 59 121 0;
#X connect 1 60 123 0;
#X connect 1 61 125 0;
#X connect 1 62 127 0;
#X connect 1 63 129 0;
#X connect 2 0 3 1;
#X connect 3 0 130 0;
#X connect 4 0 5 1;
#X connect 5 0 130 0;
#X connect 6 0 7 1;
#X connect 7 0 130 0;
#X connect 8 0 9 1;
#X connect 9 0 130 0;
#X connect 10 0 11 1;
#X connect 11 0 130 0;
#X connect 12 0 13 1;
#X connect 13 0 130 0;
#X connect 14 0 15 1;
#X connect 15 0 130 0;
#X connect 16 0 17 1;
#X connect 17 0 130 0;
#X connect 18 0 19 1;
#X connect 19 0 130 0;
#X connect 20 0 21 1;
#X connect 21 0 130 0;
#X connect 22 0 23 1;
#X connect 23 0 130 0;
#X connect 24 0 25 1;
#X connect 25 0 130 0;
#X connect 26 0 27 1;
#X connect 27 0 130 0;
#X connect 28 0 29 1;
#X connect 29 0 130 0;
#X connect 30 0 31 1;
#X connect 31 0 130 0;
#X connect 32 0 33 1;
#X connect 33 0 130 0;
#X connect 34 0 35 1;
#X connect 35 0 130 0;
#X connect 36 0 37 1;
#X connect 37 0 130 0;
#X connect 38 0 39 1;
#X connect 39 0 130 0;
#X connect 40 0 41 1;
#X connect 41 0 130 0;
#X connect 42 0 43 1;
#X connect 43 0 130 0;
#X connect 44 0 45 1;
#X connect 45 0 130 0;
#X connect 46 0 47 1;
#X connect 47 0 130 0;
#X connect 48 0 49 1;
#X connect 49 0 130 0;
#X connect 50 0 51 1;
#X connect 51 0 130 0;
#X connect 52 0 53 1;
#X connect 53 0 130 0;
#X connect 54 0 55 1;
#X connect 55 0 130 0;
#X connect 56 0 57 1;
#X connect 57 0 130 0;
#X connect 58 0 59 1;
#X connect 59 0 130 0;
#X connect 60 0 61 1;
#X connect 61 0 130 0;
#X connect 62 0 63 1;
#X connect 63 0 130 0;
#X connect 64 0 65 1;
#X connect 65 0 130 0;
#X connect 66 0 67 1;
#X connect 67 0 130 0;
#X connect 68 0 69 1;
#X connect 69 0 130 0;
#X connect 70 0 71 1;
#X connect 71 0 130 0;
#X connect 72 0 73 1;
#X connect 73 0 130 0;
#X connect 74 0 75 1;
#X connect 75 0 130 0;
#X connect 76 0 77 1;
#X connect 77 0 130 0;
#X connect 78 0 79 1;
#X connect 79 0 130 0;
#X connect 80 0 81 1;
#X connect 81 0 130 0;
#X connect 82 0 83 1;
#X connect 83 0 130 0;
#X connect 84 0 85 1;
#X connect 85 0 130 0;
#X connect 86 0 87 1;
#X connect 87 0 130 0;
#X connect 88 0 89 1;
#X connect 89 0 130 0;
#X connect 90 0 91 1;
#X connect 91 0 130 0;
#X connect 92 0 93 1;
#X connect 93 0 130 0;
#X connect 94 0 95 1;
#X connect 95 0 130 0;
#X connect 96 0 97 1;
#X connect 97 0 130 0;
#X connect 98 0 99 1;
#X connect 99 0 130 0;
#X connect 100 0 101 1;
#X connect 101 0 130 0;
#X connect 102 0 103 1;
#X connect 103 0 130 0;
#X connect 104 0 105 1;
#X connect 105 0 130 0;
#X connect 106 0 107 1;
#X connect 107 0 130 0;
#X connect 108 0 109 1;
#X connect 109 0 130 0;
#X connect 110 0 111 1;
#X connect 111 0 130 0;
#X connect 112 0 113 1;
#X connect 113 0 130 0;
#X connect 114 0 115 1;
#X connect 115 0 130 0;
#X connect 116 0 117 1;
#X connect 117 0 130 0;
#X connect 118 0 119 1;
#X connect 119 0 130 0;
#X connect 120 0 121 1;
#X connect 121 0 130 0;
#X connect 122 0 123 1;
#X connect 123 0 130 0;
#X connect 124 0 125 1;
#X connect 125 0 130 0;
#X connect 126 0 127 1;
#X connect 127 0 130 0;
#X connect 128 0 129 1;
#X connect 129 0 130 0;
