#N canvas 0 0 700 600 10;
#X obj 30 40 inlet;
#X obj 40 130 r \$1_0;
#X obj 30 160 list store;
#X obj 60 130 r \$1_1;
#X obj 50 160 list store;
#X obj 80 130 r \$1_2;
#X obj 70 160 list store;
#X obj 100 130 r \$1_3;
#X obj 90 160 list store;
#X obj 120 130 r \$1_4;
#X obj 110 160 list store;
#X obj 140 130 r \$1_5;
#X obj 130 160 list store;
#X obj 160 130 r \$1_6;
#X obj 150 160 list store;
#X obj 180 130 r \$1_7;
#X obj 170 160 list store;
#X obj 200 130 r \$1_8;
#X obj 190 160 list store;
#X obj 220 130 r \$1_9;
#X obj 210 160 list store;
#X obj 240 130 r \$1_10;
#X obj 230 160 list store;
#X obj 260 130 r \$1_11;
#X obj 250 160 list store;
#X obj 280 130 r \$1_12;
#X obj 270 160 list store;
#X obj 300 130 r \$1_13;
#X obj 290 160 list store;
#X obj 320 130 r \$1_14;
#X obj 310 160 list store;
#X obj 340 130 r \$1_15;
#X obj 330 160 list store;
#X obj 360 130 r \$1_16;
#X obj 350 160 list store;
#X obj 380 130 r \$1_17;
#X obj 370 160 list store;
#X obj 400 130 r \$1_18;
#X obj 390 160 list store;
#X obj 420 130 r \$1_19;
#X obj 410 160 list store;
#X obj 440 130 r \$1_20;
#X obj 430 160 list store;
#X obj 460 130 r \$1_21;
#X obj 450 160 list store;
#X obj 480 130 r \$1_22;
#X obj 470 160 list store;
#X obj 500 130 r \$1_23;
#X obj 490 160 list store;
#X obj 520 130 r \$1_24;
#X obj 510 160 list store;
#X obj 540 130 r \$1_25;
#X obj 530 160 list store;
#X obj 560 130 r \$1_26;
#X obj 550 160 list store;
#X obj 580 130 r \$1_27;
#X obj 570 160 list store;
#X obj 600 130 r \$1_28;
#X obj 590 160 list store;
#X obj 620 130 r \$1_29;
#X obj 610 160 list store;
#X obj 640 130 r \$1_30;
#X obj 630 160 list store;
#X obj 660 130 r \$1_31;
#X obj 650 160 list store;
#X obj 30 190 outlet;
#X obj 30 70 sel 0 1 2 3 4 5 6 7 8 9 10 11 12 13 14 15 16 17 18 19
20 21 22 23 24 25 26 27 28 29 30 31;
#X connect 0 0 66 0;
#X connect 1 0 2 1;
#X connect 2 0 65 0;
#X connect 3 0 4 1;
#X connect 4 0 65 0;
#X connect 5 0 6 1;
#X connect 6 0 65 0;
#X connect 7 0 8 1;
#X connect 8 0 65 0;
#X connect 9 0 10 1;
#X connect 10 0 65 0;
#X connect 11 0 12 1;
#X connect 12 0 65 0;
#X connect 13 0 14 1;
#X connect 14 0 65 0;
#X connect 15 0 16 1;
#X connect 16 0 65 0;
#X connect 17 0 18 1;
#X connect 18 0 65 0;
#X connect 19 0 20 1;
#X connect 20 0 65 0;
#X connect 21 0 22 1;
#X connect 22 0 65 0;
#X connect 23 0 24 1;
#X connect 24 0 65 0;
#X connect 25 0 26 1;
#X connect 26 0 65 0;
#X connect 27 0 28 1;
#X connect 28 0 65 0;
#X connect 29 0 30 1;
#X connect 30 0 65 0;
#X connect 31 0 32 1;
#X connect 32 0 65 0;
#X connect 33 0 34 1;
#X connect 34 0 65 0;
#X connect 35 0 36 1;
#X connect 36 0 65 0;
#X connect 37 0 38 1;
#X connect 38 0 65 0;
#X connect 39 0 40 1;
#X connect 40 0 65 0;
#X connect 41 0 42 1;
#X connect 42 0 65 0;
#X connect 43 0 44 1;
#X connect 44 0 65 0;
#X connect 45 0 46 1;
#X connect 46 0 65 0;
#X connect 47 0 48 1;
#X connect 48 0 65 0;
#X connect 49 0 50 1;
#X connect 50 0 65 0;
#X connect 51 0 52 1;
#X connect 52 0 65 0;
#X connect 53 0 54 1;
#X connect 54 0 65 0;
#X connect 55 0 56 1;
#X connect 56 0 65 0;
#X connect 57 0 58 1;
#X connect 58 0 65 0;
#X connect 59 0 60 1;
#X connect 60 0 65 0;
#X connect 61 0 62 1;
#X connect 62 0 65 0;
#X connect 63 0 64 1;
#X connect 64 0 65 0;
#X connect 66 0 2 0;
#X connect 66 1 4 0;
#X connect 66 2 6 0;
#X connect 66 3 8 0;
#X connect 66 4 10 0;
#X connect 66 5 12 0;
#X connect 66 6 14 0;
#X connect 66 7 16 0;
#X connect 66 8 18 0;
#X connect 66 9 20 0;
#X connect 66 10 22 0;
#X connect 66 11 24 0;
#X connect 66 12 26 0;
#X connect 66 13 28 0;
#X connect 66 14 30 0;
#X connect 66 15 32 0;
#X connect 66 16 34 0;
#X connect 66 17 36 0;
#X connect 66 18 38 0;
#X connect 66 19 40 0;
#X connect 66 20 42 0;
#X connect 66 21 44 0;
#X connect 66 22 46 0;
#X connect 66 23 48 0;
#X connect 66 24 50 0;
#X connect 66 25 52 0;
#X connect 66 26 54 0;
#X connect 66 27 56 0;
#X connect 66 28 58 0;
#X connect 66 29 60 0;
#X connect 66 30 62 0;
#X connect 66 31 64 0;
