#N canvas 0 50 390 265 10;
#N canvas 0 50 720 408 msgbox_8x 0;
#X obj 30 30 inlet;
#X obj 30 360 outlet;
#X msg 30 90;
#X msg 170 120;
#X msg 320 140;
#X msg 470 160;
#X obj 30 60 sel 0 1 2 3, f 78;
#X obj 500 190 rr;
#X msg 30 250;
#X msg 170 280;
#X msg 320 300;
#X msg 470 320;
#X obj 30 220 sel 4 5 6 7, f 78;
#X obj 10 190 rr;
#X connect 0 0 6 0;
#X connect 2 0 13 0;
#X connect 3 0 13 0;
#X connect 4 0 13 0;
#X connect 5 0 13 0;
#X connect 6 0 2 0;
#X connect 6 1 3 0;
#X connect 6 2 4 0;
#X connect 6 3 5 0;
#X connect 6 4 7 0;
#X connect 7 0 12 0;
#X connect 8 0 1 0;
#X connect 9 0 1 0;
#X connect 10 0 1 0;
#X connect 11 0 1 0;
#X connect 12 0 8 0;
#X connect 12 1 9 0;
#X connect 12 2 10 0;
#X connect 12 3 11 0;
#X connect 13 0 1 0;
#X restore 130 80 pd msgbox_8x;
#N canvas 0 50 1198 597 msgbox_16x 0;
#X obj 30 30 inlet;
#X msg 30 90;
#X msg 170 120;
#X msg 320 140;
#X msg 470 160;
#X obj 30 60 sel 0 1 2 3, f 78;
#X obj 500 190 rr;
#X msg 30 250;
#X msg 170 280;
#X msg 320 300;
#X msg 470 320;
#X obj 30 220 sel 4 5 6 7, f 78;
#X obj 10 190 rr;
#X obj 30 690 outlet;
#X msg 30 420;
#X msg 170 450;
#X msg 320 470;
#X msg 470 490;
#X obj 500 520 rr;
#X msg 30 580;
#X msg 170 610;
#X msg 320 630;
#X msg 470 650;
#X obj 10 520 rr;
#X obj 500 340 rr;
#X obj 10 360 rr;
#X obj 30 390 sel 8 9 10 11, f 78;
#X obj 30 550 sel 12 13 14 15, f 78;
#X connect 0 0 5 0;
#X connect 1 0 12 0;
#X connect 2 0 12 0;
#X connect 3 0 12 0;
#X connect 4 0 12 0;
#X connect 5 0 1 0;
#X connect 5 1 2 0;
#X connect 5 2 3 0;
#X connect 5 3 4 0;
#X connect 5 4 6 0;
#X connect 6 0 11 0;
#X connect 7 0 25 0;
#X connect 8 0 25 0;
#X connect 9 0 25 0;
#X connect 10 0 25 0;
#X connect 11 0 7 0;
#X connect 11 1 8 0;
#X connect 11 2 9 0;
#X connect 11 3 10 0;
#X connect 11 4 24 0;
#X connect 12 0 25 0;
#X connect 14 0 23 0;
#X connect 15 0 23 0;
#X connect 16 0 23 0;
#X connect 17 0 23 0;
#X connect 18 0 27 0;
#X connect 19 0 13 0;
#X connect 20 0 13 0;
#X connect 21 0 13 0;
#X connect 22 0 13 0;
#X connect 23 0 13 0;
#X connect 24 0 26 0;
#X connect 25 0 23 0;
#X connect 26 0 14 0;
#X connect 26 1 15 0;
#X connect 26 2 16 0;
#X connect 26 3 17 0;
#X connect 26 4 18 0;
#X connect 27 0 19 0;
#X connect 27 1 20 0;
#X connect 27 2 21 0;
#X connect 27 3 22 0;
#X restore 130 110 pd msgbox_16x;
#X text 27 35 For sequencing message boxes. Copy and paste from here
instead of modifying this patch;
