#N canvas 0 50 497 500 10;
#X obj 50 20 inlet;
#X obj 200 20 inlet;
#X obj 50 150 ttbf 1;
#X obj 150 270 wrap;
#X text 46 4 Rate;
#X text 196 4 Length;
#X obj 270 20 inlet;
#X text 266 4 Steps;
#X obj 270 80 rr;
#X obj 50 110 ttbf;
#X obj 360 20 inlet;
#X text 356 4 Offset;
#X obj 150 240 +;
#X obj 70 180 b2u_r;
#X obj 110 20 inlet;
#X text 106 4 Reset;
#X obj 150 330 int;
#X obj 150 390 outlet;
#X obj 140 150 * 0.999999;
#X obj 70 210 *;
#X obj 150 300 * 16;
#X obj 200 50 dtbf;
#X obj 262 160 dtbf;
#X obj 150 360 change -1;
#X connect 0 0 9 0;
#X connect 1 0 21 0;
#X connect 2 0 13 0;
#X connect 3 0 20 0;
#X connect 6 0 8 0;
#X connect 8 0 9 1;
#X connect 8 0 20 1;
#X connect 8 0 21 1;
#X connect 8 0 22 1;
#X connect 9 0 2 0;
#X connect 10 0 22 0;
#X connect 12 0 3 0;
#X connect 13 0 19 0;
#X connect 14 0 13 1;
#X connect 16 0 23 0;
#X connect 18 0 19 1;
#X connect 19 0 12 0;
#X connect 20 0 16 0;
#X connect 21 0 18 0;
#X connect 21 0 2 1;
#X connect 22 0 12 1;
#X connect 23 0 17 0;
