#N canvas 356 76 497 500 10;
#X obj 50 20 inlet;
#X obj 180 20 inlet;
#X obj 130 270 wrap;
#X text 46 4 Rate;
#X text 176 4 Length;
#X obj 250 20 inlet;
#X obj 340 20 inlet;
#X text 336 4 Offset;
#X obj 130 240 +;
#X obj 50 180 b2u_r;
#X obj 100 20 inlet;
#X text 96 4 Reset;
#X obj 130 330 int;
#X obj 130 390 outlet;
#X obj 50 210 *;
#X obj 130 300 * 16;
#X obj 222 180 dtbf;
#X obj 130 360 change -1;
#X text 246 4 Extend;
#X obj 102 180 * 0.999999;
#X obj 50 85 ttbf;
#X obj 112 60 ptbf;
#X obj 102 130 dtbf;
#X obj 50 52 neg2frac;
#X connect 0 0 23 0;
#X connect 1 0 21 0;
#X connect 1 0 15 1;
#X connect 1 0 16 1;
#X connect 1 0 22 1;
#X connect 2 0 15 0;
#X connect 5 0 21 1;
#X connect 6 0 16 0;
#X connect 8 0 2 0;
#X connect 9 0 14 0;
#X connect 10 0 9 1;
#X connect 12 0 17 0;
#X connect 14 0 8 0;
#X connect 15 0 12 0;
#X connect 16 0 8 1;
#X connect 17 0 13 0;
#X connect 19 0 14 1;
#X connect 20 0 9 0;
#X connect 21 0 22 0;
#X connect 21 0 20 1;
#X connect 22 0 19 0;
#X connect 23 0 20 0;
