#N canvas 0 0 763 567 10;
#X obj 110 391 seq_count_vv \$1;
#X obj 110 481 sel 0;
#X obj 110 591 outlet;
#X obj 110 511 pack f 127;
#X obj 190 541 pack f 0;
#X obj 190 511 pipe;
#X obj 160 481 r \$1_vel;
#X obj 220 481 beat_to_ms;
#X obj 240 391 r \$1_gate;
#X obj 240 451 ttbf;
#X obj 260 541 r \$1_cut;
#X msg 260 571 flush;
#X obj 310 391 r \$1_length;
#X obj 390 391 r \$1_steps;
#X obj 310 421 dtbf;
#X obj 110 451 f_16x \$1;
#X obj 110 131 seq_count_vvc \$1;
#X obj 400 131 nbx_16x_vvc \$1;
#X obj 110 260 nbx_vvc \$1 vel 127;
#X obj 230 260 hslxnbx_vvc \$1 gate 2 0.5;
#X text 116 77 Float to note+velocity pair with automatic note off
;
#X obj 110 310 vv_file_vvc \$1;
#X connect 0 0 15 0;
#X connect 1 1 3 0;
#X connect 1 1 5 0;
#X connect 3 0 2 0;
#X connect 4 0 2 0;
#X connect 5 0 4 0;
#X connect 6 0 3 1;
#X connect 7 0 5 1;
#X connect 8 0 9 0;
#X connect 9 0 7 0;
#X connect 10 0 11 0;
#X connect 11 0 5 0;
#X connect 12 0 14 0;
#X connect 13 0 14 1;
#X connect 14 0 9 1;
#X connect 15 0 1 0;
#X coords 0 -1 1 1 640 270 1 100 100;
