#N canvas 245 25 780 600 10;
#X obj 52 89 r \$1_scene;
#X obj 12 179 outlet;
#X obj 52 119 == \$2;
#X obj 12 29 inlet;
#X text 190 49 \$1 name;
#X text 190 69 \$2 scene;
#X obj 12 149 spigot 1;
#X text 190 109 \$4 steps;
#X text 190 129 \$5 interface (a control ending in _vvc);
#X obj 12 59 \$3_\$4x \$1_\$2;
#X obj 12 209 \$5_\$4x_vvc \$1_\$2;
#X text 190 89 \$3 data stored (f for float);
#X connect 0 0 2 0;
#X connect 2 0 6 1;
#X connect 3 0 9 0;
#X connect 6 0 1 0;
#X connect 9 0 6 0;
#X coords 0 600 1 599 270 120 0;
