#N canvas 392 70 789 528 10;
#X obj 62 37 inlet;
#X obj 62 517 outlet;
#X obj 202 67 s \$0_0;
#X obj 262 67 s \$0_1;
#X obj 312 67 s \$0_2;
#X obj 362 67 s \$0_3;
#X obj 412 67 s \$0_4;
#X obj 92 217 *;
#X obj 112 37 lb \$2;
#X obj 112 67 + \$3;
#X obj 132 97 swap \$1;
#X obj 132 127 -;
#X obj 92 367 +;
#X obj 132 277 spigot \$2;
#X obj 132 247 lb \$1;
#X obj 132 307 swap 1;
#X obj 132 337 /;
#X obj 142 517 outlet;
#X obj 132 157 / \$1;
#X obj 92 397 * \$1;
#X obj 92 427 int;
#X obj 62 457 change;
#X obj 43 157 moses 1e-005;
#X obj 462 67 s \$0_5;
#X text 240 297 Zero lock sends the 1st value at only zero then the
rest of the floats are spaced between. If one lock is enabled \, the
last float will only send its value at 1 and the rest of the floats
are spaced evenly.;
#X text 240 167 \$2 zero lock;
#X text 240 187 \$3 one lock;
#X obj 62 487 f_8x \$0;
#X text 240 237 Unipolar to float sequence - Get a float in a sequence
depending on where you are from zero to one. So 0 would give the first
float and 1 would give the last float. Floats are spaced evenly unless
you put 1 for \$2 (zero lock) or \$3 (one lock);
#X obj 142 397 b;
#X obj 512 67 s \$0_6;
#X obj 562 67 s \$0_7;
#X text 61 532 output;
#X obj 202 37 lb \$4;
#X obj 142 487 f 0;
#X text 141 532 for spigots to close/open depending on if zero or not
;
#X obj 262 37 lb \$5;
#X obj 312 37 lb \$6;
#X obj 362 37 lb \$7;
#X obj 412 37 lb \$8;
#X obj 462 37 lb \$9;
#X obj 512 37 lb \$10;
#X obj 562 37 lb \$11;
#X msg 152 427 set -1;
#X text 240 207 \$4-\$11 init floats;
#X text 240 147 \$1 float amount (max 8);
#X obj 119 187 rr;
#X obj 152 37 lb \$3;
#X obj 152 67 sel 0;
#X obj 53 129 * 1;
#X obj 72 98 0.999999;
#X connect 0 0 49 0;
#X connect 7 0 12 0;
#X connect 8 0 9 0;
#X connect 9 0 10 0;
#X connect 10 0 11 0;
#X connect 10 1 11 1;
#X connect 11 0 18 0;
#X connect 12 0 19 0;
#X connect 13 0 15 0;
#X connect 14 0 13 0;
#X connect 15 0 16 0;
#X connect 15 1 16 1;
#X connect 16 0 12 1;
#X connect 18 0 46 0;
#X connect 19 0 20 0;
#X connect 20 0 21 0;
#X connect 21 0 27 0;
#X connect 22 0 21 0;
#X connect 22 0 29 0;
#X connect 22 1 7 0;
#X connect 27 0 1 0;
#X connect 27 0 17 0;
#X connect 29 0 34 0;
#X connect 29 0 43 0;
#X connect 33 0 2 0;
#X connect 34 0 17 0;
#X connect 36 0 3 0;
#X connect 37 0 4 0;
#X connect 38 0 5 0;
#X connect 39 0 6 0;
#X connect 40 0 23 0;
#X connect 41 0 30 0;
#X connect 42 0 31 0;
#X connect 43 0 21 0;
#X connect 46 0 7 1;
#X connect 47 0 9 1;
#X connect 47 0 48 0;
#X connect 48 0 50 0;
#X connect 49 0 22 0;
#X connect 50 0 49 1;
#X coords 0 528 65 527 270 120 0;
