#N canvas 449 80 740 604 10;
#X obj 257 111 soundfiler;
#X obj 122 460 *~;
#X obj 122 430 vline~;
#X obj 122 28 inlet;
#X text 114 13 Note Vel;
#X obj 257 28 inlet;
#X text 245 13 Open Samp;
#X obj 122 580 outlet~;
#X obj 257 58 list \$0;
#X obj 122 210 pow;
#X obj 122 119 - 24;
#X obj 122 149 / 12;
#X obj 122 280 *;
#X obj 22 370 r global_stop;
#X msg 22 400 0;
#X obj 122 89 + 0;
#X obj 322 28 inlet;
#X obj 122 60 nof 24;
#X msg 122 400 0 \, 1 \$1;
#X obj 122 550 rr~;
#X obj 122 520 tabread4~ \$0_samp;
#X obj 287 219 swap 44100;
#X obj 287 249 /;
#X obj 122 178 swap 2;
#X obj 122 310 swap 1000;
#X obj 122 340 /;
#X msg 257 85 read -maxsize 1.0584e+007 -resize \$1 \$2_samp;
#X obj 422 28 inlet;
#X obj 172 490 +~;
#X obj 212 370 swap;
#X obj 202 426 -;
#X text 419 13 Offset (samp);
#X obj 192 310 sample_to_ms;
#X obj 122 370 -;
#X obj 192 340 t b a;
#X obj 342 524 table \$0_samp;
#X obj 287 141 unpack;
#X obj 422 246 f;
#X obj 240 168 t b a;
#X text 319 13 Transp (semi);
#X connect 0 0 38 0;
#X connect 0 1 36 0;
#X connect 1 0 28 0;
#X connect 2 0 1 0;
#X connect 3 0 17 0;
#X connect 5 0 8 0;
#X connect 8 0 26 0;
#X connect 9 0 12 0;
#X connect 10 0 11 0;
#X connect 11 0 23 0;
#X connect 12 0 24 0;
#X connect 13 0 14 0;
#X connect 14 0 2 0;
#X connect 15 0 10 0;
#X connect 16 0 15 1;
#X connect 17 0 15 0;
#X connect 18 0 2 0;
#X connect 19 0 7 0;
#X connect 20 0 19 0;
#X connect 21 0 22 0;
#X connect 21 1 22 1;
#X connect 22 0 12 1;
#X connect 23 0 9 0;
#X connect 23 1 9 1;
#X connect 24 0 25 0;
#X connect 24 1 25 1;
#X connect 25 0 33 0;
#X connect 26 0 0 0;
#X connect 27 0 37 0;
#X connect 28 0 20 0;
#X connect 29 0 30 0;
#X connect 29 1 30 1;
#X connect 30 0 1 1;
#X connect 32 0 34 0;
#X connect 33 0 18 0;
#X connect 34 0 33 0;
#X connect 34 1 33 1;
#X connect 36 0 21 1;
#X connect 36 0 32 1;
#X connect 37 0 29 0;
#X connect 37 0 28 1;
#X connect 37 0 32 0;
#X connect 38 0 37 0;
#X connect 38 1 29 1;
#X connect 38 1 21 0;
#X coords 0 0 1 1 85 60 0;
