#N canvas 0 93 773 485 10;
#X obj 120 29 inlet;
#X obj 120 459 outlet~;
#X text 117 14 note vel;
#X text 247 14 root;
#X obj 120 119 -;
#X obj 120 149 *;
#X obj 310 149 soundfiler;
#X text 367 14 slices;
#X obj 310 179 dtbf;
#X obj 150 179 +;
#X obj 120 269 vline~;
#X obj 120 299 tabread4~ \$0_array;
#X obj 120 209 pack f f f;
#X obj 350 179 sample_to_ms;
#X obj 210 359 table \$0_array;
#X obj 460 59 list \$0;
#X msg 310 119 read -resize \$1 \$2_array;
#X obj 350 209 dtbf;
#X msg 120 239 \$1 \, \$2 \$3;
#X obj 120 369 hip~ 5;
#X text 457 14 file;
#X obj 500 239 pow;
#X obj 500 178 / 12;
#X obj 500 269 *;
#X text 537 14 Transp;
#X obj 560 178 swap 44100;
#X obj 560 208 /;
#X obj 500 207 swap 2;
#X obj 500 299 swap 1000;
#X obj 500 329 /;
#X floatatom 573 241 5 0 0 0 - - -;
#X obj 500 359 dtbf;
#X obj 120 59 stripnote;
#X obj 120 89 t a b;
#X obj 500 118 f;
#X obj 120 429 *~;
#X obj 140 399 adsr_pa_vv~ \$1 amp_env \$2;
#X obj 30 59 s \$1_\$2_nv;
#X obj 250 29 inlet;
#X obj 370 29 inlet;
#X obj 460 29 inlet;
#X obj 540 29 inlet;
#X connect 0 0 32 0;
#X connect 0 0 37 0;
#X connect 4 0 5 0;
#X connect 5 0 9 0;
#X connect 5 0 12 0;
#X connect 6 0 8 0;
#X connect 6 0 13 0;
#X connect 6 0 25 0;
#X connect 6 1 25 1;
#X connect 6 1 13 1;
#X connect 8 0 5 1;
#X connect 8 0 9 1;
#X connect 9 0 12 1;
#X connect 10 0 11 0;
#X connect 11 0 19 0;
#X connect 12 0 18 0;
#X connect 13 0 17 0;
#X connect 15 0 16 0;
#X connect 16 0 6 0;
#X connect 18 0 10 0;
#X connect 19 0 35 0;
#X connect 21 0 23 0;
#X connect 22 0 27 0;
#X connect 23 0 28 0;
#X connect 25 0 26 0;
#X connect 25 1 26 1;
#X connect 26 0 23 1;
#X connect 26 0 30 0;
#X connect 27 0 21 0;
#X connect 27 1 21 1;
#X connect 28 0 29 0;
#X connect 28 1 29 1;
#X connect 29 0 31 0;
#X connect 31 0 12 2;
#X connect 32 0 33 0;
#X connect 33 0 4 0;
#X connect 33 1 34 0;
#X connect 34 0 22 0;
#X connect 35 0 1 0;
#X connect 36 0 35 1;
#X connect 38 0 4 1;
#X connect 39 0 8 1;
#X connect 39 0 17 1;
#X connect 39 0 31 1;
#X connect 40 0 15 0;
#X connect 41 0 34 1;
