#N canvas -8 -8 1280 677 10;
#X obj 120 29 inlet;
#X obj 120 459 outlet~;
#X text 117 14 note vel;
#X text 247 14 root;
#X obj 120 119 -;
#X obj 120 149 *;
#X obj 310 149 soundfiler;
#X text 367 14 slices;
#X obj 310 179 dtbf;
#X obj 150 179 +;
#X obj 120 269 vline~;
#X obj 120 299 tabread4~ \$0_array;
#X obj 120 209 pack f f f;
#X obj 350 179 sample_to_ms;
#X obj 210 359 table \$0_array;
#X obj 296 266 nbx 7 20 -1e+037 1e+037 0 1 empty empty empty 0 -8 0
11 -262144 -1 -1 17640.1 256;
#X obj 296 296 nbx 7 20 -1e+037 1e+037 0 1 empty empty empty 0 -8 0
11 -262144 -1 -1 400.001 256;
#X obj 296 326 nbx 7 20 -1e+037 1e+037 0 1 empty empty empty 0 -8 0
11 -262144 -1 -1 141121 256;
#X obj 460 59 list \$0;
#X msg 310 119 read -resize \$1 \$2_array;
#X obj 350 209 dtbf;
#X msg 120 239 \$1 \, \$2 \$3;
#X obj 120 369 hip~ 5;
#X text 457 14 file;
#X obj 500 239 pow;
#X obj 500 178 / 12;
#X obj 500 269 *;
#X text 537 14 Transp;
#X obj 560 178 swap 44100;
#X obj 560 208 /;
#X obj 500 207 swap 2;
#X obj 396 326 nbx 7 20 -1e+037 1e+037 0 1 empty empty empty 0 -8 0
11 -262144 -1 -1 6400.02 256;
#X obj 396 366 nbx 7 20 -1e+037 1e+037 0 1 empty empty empty 0 -8 0
11 -262144 -1 -1 400.001 256;
#X obj 500 299 swap 1000;
#X obj 500 329 /;
#X floatatom 573 241 5 0 0 0 - - -, f 5;
#X obj 500 359 dtbf;
#X obj 120 59 stripnote;
#X obj 120 89 t a b;
#X obj 500 118 f;
#X obj 250 29 r \$1_root;
#X obj 370 29 r \$1_slices;
#X obj 460 29 r \$1_file;
#X obj 540 29 r \$1_transpose;
#X obj 120 429 *~;
#X obj 140 399 adsr_pa_vv~ \$1 amp_env \$2;
#X obj 30 59 s \$1_\$2_nv;
#X connect 0 0 37 0;
#X connect 0 0 46 0;
#X connect 4 0 5 0;
#X connect 5 0 9 0;
#X connect 5 0 12 0;
#X connect 6 0 8 0;
#X connect 6 0 13 0;
#X connect 6 0 28 0;
#X connect 8 0 5 1;
#X connect 8 0 9 1;
#X connect 8 0 15 0;
#X connect 9 0 12 1;
#X connect 9 0 17 0;
#X connect 10 0 11 0;
#X connect 11 0 22 0;
#X connect 12 0 21 0;
#X connect 13 0 20 0;
#X connect 18 0 19 0;
#X connect 19 0 6 0;
#X connect 20 0 16 0;
#X connect 21 0 10 0;
#X connect 22 0 44 0;
#X connect 24 0 26 0;
#X connect 25 0 30 0;
#X connect 26 0 33 0;
#X connect 28 0 29 0;
#X connect 28 1 29 1;
#X connect 29 0 26 1;
#X connect 29 0 35 0;
#X connect 30 0 24 0;
#X connect 30 1 24 1;
#X connect 33 0 34 0;
#X connect 33 1 34 1;
#X connect 34 0 31 0;
#X connect 34 0 36 0;
#X connect 36 0 32 0;
#X connect 36 0 12 2;
#X connect 37 0 38 0;
#X connect 38 0 4 0;
#X connect 38 1 39 0;
#X connect 39 0 25 0;
#X connect 40 0 4 1;
#X connect 41 0 8 1;
#X connect 41 0 20 1;
#X connect 41 0 36 1;
#X connect 42 0 18 0;
#X connect 43 0 39 1;
#X connect 44 0 1 0;
#X connect 45 0 44 1;
