#N canvas 0 50 484 300 10;
#X obj 72 119 +~;
#X obj 72 209 hip~ 5;
#X obj 72 29 inlet~;
#X obj 72 239 outlet~;
#X obj 132 29 inlet~;
#X obj 72 149 *~;
#X obj 202 29 inlet~;
#X obj 72 179 tanhx~;
#X text 142 165 asymmetry \, tanh(x) with audio rate modulation (_arm)
;
#X connect 0 0 5 0;
#X connect 1 0 3 0;
#X connect 2 0 0 0;
#X connect 4 0 0 1;
#X connect 5 0 7 0;
#X connect 6 0 5 1;
#X connect 7 0 1 0;
