#N canvas 418 73 450 300 10;
#X obj 72 29 inlet~;
#X obj 72 69 asym_tanh~;
#X obj 132 29 r \$1_asym;
#X obj 202 29 r \$1_amp;
#X obj 72 179 outlet~;
#X obj 72 99 tline~;
#X obj 242 89 tline~;
#X obj 272 29 r \$1_dry;
#X obj 342 29 r \$1_wet;
#X text 146 203 Asymmetry (DC offset) -> tanh(x) (non-linear compression/distortion)
with dry/wet;
#X connect 0 0 6 0;
#X connect 0 0 1 0;
#X connect 1 0 5 0;
#X connect 2 0 1 1;
#X connect 3 0 1 2;
#X connect 5 0 4 0;
#X connect 6 0 4 0;
#X connect 7 0 6 1;
#X connect 8 0 5 1;
