#N canvas 0 0 450 300 10;
#X obj 72 119 +~;
#X obj 72 29 inlet~;
#X obj 92 59 / 100;
#X obj 72 239 outlet~;
#X obj 132 29 inlet;
#X obj 202 29 inlet;
#X obj 92 89 vlinesc~;
#X obj 72 149 tline~;
#X obj 72 179 tanhx~;
#X obj 72 209 hip~ 3;
#X text 150 175 Asymmetry (DC offset) -> tanh(x) (non-linear compression/distortion)
;
#X connect 0 0 7 0;
#X connect 1 0 0 0;
#X connect 2 0 6 0;
#X connect 4 0 2 0;
#X connect 5 0 7 1;
#X connect 6 0 0 1;
#X connect 7 0 8 0;
#X connect 8 0 9 0;
#X connect 9 0 3 0;
