#N canvas 0 50 637 413 10;
#X obj 77 17 inlet;
#X obj 137 17 inlet;
#X text 72 2 low cut;
#X text 129 2 high cut;
#X obj 267 17 inlet;
#X obj 327 17 inlet;
#X obj 387 17 inlet;
#X text 262 2 low amp;
#X text 321 2 mid amp;
#X text 379 2 high amp;
#X obj 117 267 tanhx~;
#X obj 177 267 tanhx~;
#X obj 237 267 tanhx~;
#X obj 117 207 tline~ 1;
#X obj 177 207 tline~ 1;
#X obj 237 207 tline~ 1;
#X obj 17 177 lop~ 200;
#X obj 87 177 hip~ 200;
#X obj 87 147 lop~ 2000;
#X obj 237 147 hip~ 2000;
#X obj 447 17 inlet;
#X text 449 2 amp;
#X obj 117 237 tline~ 1;
#X obj 177 237 tline~ 1;
#X obj 237 237 tline~ 1;
#X obj 497 17 inlet;
#X text 499 2 asym;
#X obj 17 17 inlet~;
#X obj 497 77 vlinesc~;
#X obj 17 117 +~;
#X obj 117 357 outlet~;
#X obj 117 327 hip~ 5;
#X obj 497 47 * 0.01;
#X obj 177 357 outlet~;
#X obj 237 357 outlet~;
#X obj 297 357 outlet~;
#X text 182 372 low;
#X text 251 372 mid;
#X text 299 372 high;
#X text 269 282 3 band eq where the middle band also contains the high
and low bands and itself is double amp. Each band also has a tanhx~
(non-linear compressor);
#X connect 0 0 16 1;
#X connect 0 0 17 1;
#X connect 1 0 18 1;
#X connect 1 0 19 1;
#X connect 4 0 13 1;
#X connect 5 0 14 1;
#X connect 6 0 15 1;
#X connect 10 0 31 0;
#X connect 10 0 33 0;
#X connect 11 0 31 0;
#X connect 11 0 34 0;
#X connect 12 0 31 0;
#X connect 12 0 35 0;
#X connect 13 0 22 0;
#X connect 14 0 23 0;
#X connect 15 0 24 0;
#X connect 16 0 13 0;
#X connect 17 0 14 0;
#X connect 18 0 14 0;
#X connect 19 0 15 0;
#X connect 20 0 24 1;
#X connect 20 0 23 1;
#X connect 20 0 22 1;
#X connect 22 0 10 0;
#X connect 23 0 11 0;
#X connect 24 0 12 0;
#X connect 25 0 32 0;
#X connect 27 0 29 0;
#X connect 28 0 29 1;
#X connect 29 0 16 0;
#X connect 29 0 18 0;
#X connect 29 0 19 0;
#X connect 29 0 17 0;
#X connect 31 0 30 0;
#X connect 32 0 28 0;
