#N canvas 302 103 508 376 10;
#X obj 110 10 inlet~;
#X obj 110 70 outlet~;
#X obj 290 130 nbx_vvc \$1 low_freq 220;
#X obj 290 170 nbx_vvc \$1 high_freq 1000;
#X obj 110 130 hslxnbx_vvc \$1 low_amp 1 1;
#X obj 110 190 hslxnbx_vvc \$1 mid_amp 1 1;
#X obj 110 250 hslxnbx_vvc \$1 high_amp 1 1;
#X obj 290 220 nbx_vvc \$1 amp 1;
#X obj 290 260 nbx_vvc \$1 asym;
#X obj 170 70 outlet~;
#X obj 230 70 outlet~;
#X obj 290 70 outlet~;
#X obj 110 40 bellmid_3band_vv~ \$1;
#X connect 0 0 12 0;
#X connect 12 0 1 0;
#X connect 12 1 9 0;
#X connect 12 2 10 0;
#X connect 12 3 11 0;
#X coords 0 -1 1 1 360 220 1 100 100;
