#N canvas 702 69 933 662 10;
#X obj 72 23 inlet~;
#X text 70 8 ~ in;
#X obj 72 193 outlet~;
#X obj 132 23 r \$1_low_freq;
#X obj 232 23 r \$1_high_freq;
#X obj 342 23 r \$1_low_amp;
#X obj 442 23 r \$1_mid_amp;
#X obj 532 23 r \$1_high_amp;
#X obj 632 23 r \$1_amp;
#X obj 702 23 r \$1_asym;
#X obj 132 193 outlet~;
#X obj 192 193 outlet~;
#X obj 252 193 outlet~;
#X obj 72 163 bellmid_3band~;
#X connect 0 0 13 0;
#X connect 3 0 13 1;
#X connect 4 0 13 2;
#X connect 5 0 13 3;
#X connect 6 0 13 4;
#X connect 7 0 13 5;
#X connect 8 0 13 6;
#X connect 9 0 13 7;
#X connect 13 0 2 0;
#X connect 13 1 10 0;
#X connect 13 2 11 0;
#X connect 13 3 12 0;
