#N canvas 674 110 471 501 10;
#X obj 37 37 inlet~;
#X obj 37 217 -~;
#X obj 57 187 wrap~;
#X obj 37 307 outlet~;
#X obj 37 127 tline~;
#X obj 37 247 /~;
#X obj 37 157 rr~;
#X obj 107 37 inlet;
#X obj 107 97 rr;
#X obj 157 37 lb \$1 32;
#X obj 107 67 sel 0;
#X obj 107 187 vlinesc~;
#X obj 177 197 tline~;
#X obj 217 37 inlet;
#X text 109 21 bits;
#X text 219 21 dry;
#X obj 267 37 inlet;
#X text 269 21 wet;
#X obj 37 277 tline~ 1;
#X text 162 277 Bit reduction-Reduce bits to degrade sound;
#X connect 0 0 4 0;
#X connect 0 0 12 0;
#X connect 1 0 5 0;
#X connect 2 0 1 1;
#X connect 4 0 6 0;
#X connect 5 0 18 0;
#X connect 6 0 1 0;
#X connect 6 0 2 0;
#X connect 7 0 10 0;
#X connect 8 0 4 1;
#X connect 8 0 11 0;
#X connect 9 0 10 0;
#X connect 10 1 8 0;
#X connect 11 0 5 1;
#X connect 12 0 3 0;
#X connect 13 0 12 1;
#X connect 16 0 18 1;
#X connect 18 0 3 0;
