#N canvas 0 0 588 422 10;
#X obj 57 47 inlet~;
#X obj 57 317 outlet~;
#X obj 237 227 r \$1_wet;
#X obj 297 287 tline~;
#X obj 57 287 tline~;
#X obj 107 227 r \$1_dry;
#X obj 147 47 inlet;
#X obj 107 47 inlet;
#X obj 267 47 r \$1_freq;
#X obj 227 47 inlet;
#X obj 337 77 ptbf;
#X obj 337 47 r \$1_q;
#X text 61 33 in;
#X text 151 33 wet;
#X text 111 33 dry;
#X text 191 33 freq;
#X text 231 33 q;
#X obj 187 47 inlet;
#X obj 267 77 ptbf;
#X obj 297 227 bob~;
#X obj 267 107 vlinesc~;
#X obj 337 107 vlinesc~;
#X text 431 33 freq;
#X text 481 33 q;
#X obj 427 47 inlet~;
#X obj 477 47 inlet~;
#X connect 0 0 4 0;
#X connect 0 0 19 0;
#X connect 2 0 3 1;
#X connect 3 0 1 0;
#X connect 4 0 1 0;
#X connect 5 0 4 1;
#X connect 6 0 3 1;
#X connect 7 0 4 1;
#X connect 8 0 18 1;
#X connect 9 0 10 0;
#X connect 10 0 21 0;
#X connect 11 0 10 1;
#X connect 17 0 18 0;
#X connect 18 0 20 0;
#X connect 19 0 3 0;
#X connect 20 0 19 1;
#X connect 21 0 19 2;
#X connect 24 0 19 1;
#X connect 25 0 19 2;
