#N canvas 204 278 508 376 10;
#X obj 110 20 inlet~;
#X obj 110 80 outlet~;
#X obj 280 120 hslxnbx_vvc \$1 dry 1 0.5;
#X obj 280 180 hslxnbx_vvc \$1 wet 1 0.5;
#X obj 200 20 inlet;
#X obj 160 20 inlet;
#X obj 110 180 hslxnbx_vvc \$1 q 3 0.5;
#X text 121 3 in;
#X text 211 3 wet;
#X text 171 3 dry;
#X text 251 3 freq;
#X text 301 3 q;
#X obj 290 20 inlet;
#X obj 240 20 inlet;
#X obj 110 50 bob_mix~ \$1;
#X text 351 3 freq;
#X text 401 3 q;
#X obj 340 20 inlet~;
#X obj 390 20 inlet~;
#X obj 110 120 hslxnbx_vvc \$1 freq 11075;
#X connect 0 0 14 0;
#X connect 4 0 14 2;
#X connect 5 0 14 1;
#X connect 12 0 14 4;
#X connect 13 0 14 3;
#X connect 14 0 1 0;
#X connect 17 0 14 5;
#X connect 18 0 14 6;
#X coords 0 -1 1 1 330 150 1 100 100;
