#N canvas 0 50 595 300 10;
#X obj 37 37 inlet~;
#X obj 37 187 outlet~;
#X obj 277 67 vlinesc~;
#X obj 97 37 r \$1_dry;
#X obj 167 37 r \$1_wet;
#X obj 247 37 r \$1_fdbk;
#X obj 327 37 r \$1_ms;
#X obj 37 157 delay_ms_pitch~;
#X obj 397 37 r \$1_pitch;
#X obj 477 37 r \$1_preamp;
#X connect 0 0 7 0;
#X connect 2 0 7 4;
#X connect 3 0 7 1;
#X connect 4 0 7 2;
#X connect 5 0 7 3;
#X connect 6 0 2 0;
#X connect 7 0 1 0;
#X connect 8 0 7 5;
#X connect 9 0 7 6;
