#N canvas 206 108 450 300 10;
#X obj 52 36 inlet~;
#X text 51 21 ~ in;
#X obj 102 36 inlet;
#X text 107 21 dry;
#X obj 142 36 inlet;
#X text 147 21 wet;
#X obj 182 36 inlet;
#X text 230 21 ms;
#X text 185 21 fdbk;
#X obj 52 126 tline~;
#X obj 102 126 tline~;
#X obj 152 96 vd~ \$0_delay;
#X obj 222 36 inlet~;
#X obj 152 126 tline~;
#X obj 102 186 outlet~;
#X obj 32 216 delwrite~ \$0_delay 7000;
#X connect 0 0 9 0;
#X connect 0 0 15 0;
#X connect 2 0 9 1;
#X connect 4 0 10 1;
#X connect 6 0 13 1;
#X connect 9 0 14 0;
#X connect 10 0 14 0;
#X connect 11 0 10 0;
#X connect 11 0 13 0;
#X connect 12 0 11 0;
#X connect 13 0 15 0;
