#N canvas 312 102 784 300 10;
#X obj 37 37 inlet~;
#X obj 37 187 delay_ms~;
#X obj 37 217 outlet~;
#X obj 537 157 vlinesc~;
#X obj 87 67 clip 0 1;
#X obj 227 67 clip 0 1;
#X obj 377 67 clip 0 1;
#X obj 537 67 clip 0 5000;
#X obj 537 127 f;
#X obj 457 67 r \$1_\$3_nv;
#X obj 457 97 b;
#X obj 227 37 vv_mpn \$1 \$2_wet \$3;
#X obj 87 37 vv_mpn \$1 \$2_dry \$3;
#X obj 377 37 vv_mpn \$1 \$2_fdbk \$3;
#X obj 537 37 vv_mpn \$1 \$2_ms \$3;
#X connect 0 0 1 0;
#X connect 1 0 2 0;
#X connect 3 0 1 4;
#X connect 4 0 1 1;
#X connect 5 0 1 2;
#X connect 6 0 1 3;
#X connect 7 0 8 1;
#X connect 8 0 3 0;
#X connect 9 0 10 0;
#X connect 10 0 8 0;
#X connect 11 0 5 0;
#X connect 12 0 4 0;
#X connect 13 0 6 0;
#X connect 14 0 7 0;
