#N canvas 365 78 477 465 10;
#X obj 52 36 inlet~;
#X text 51 21 ~ in;
#X obj 102 36 inlet;
#X text 107 21 dry;
#X obj 142 36 inlet;
#X text 147 21 wet;
#X obj 182 36 inlet;
#X text 230 21 ms;
#X text 185 21 fdbk;
#X obj 52 156 tline~;
#X obj 162 156 tline~;
#X obj 222 96 vd~ \$0_delay;
#X obj 222 36 inlet~;
#X obj 222 156 tline~;
#X obj 52 216 outlet~;
#X obj 192 256 delwrite~ \$0_delay 7000;
#X obj 272 36 inlet;
#X text 272 21 pitch;
#X obj 322 36 inlet;
#X text 322 21 preamp;
#X obj 102 96 tline~ 1;
#X obj 222 196 pitch_shift~;
#X obj 222 226 hip~ 5;
#X text 49 299 Feedback delay set via ms with the feedback loop potentially
pitch shifting by the semitone;
#X connect 0 0 20 0;
#X connect 0 0 9 0;
#X connect 2 0 9 1;
#X connect 4 0 10 1;
#X connect 6 0 13 1;
#X connect 9 0 14 0;
#X connect 10 0 14 0;
#X connect 11 0 10 0;
#X connect 11 0 13 0;
#X connect 12 0 11 0;
#X connect 13 0 21 0;
#X connect 16 0 21 1;
#X connect 18 0 20 1;
#X connect 20 0 15 0;
#X connect 21 0 22 0;
#X connect 22 0 15 0;
