#N canvas 0 50 667 268 10;
#X obj 37 37 inlet~;
#X obj 37 347 outlet~;
#X obj 517 67 vlinesc~;
#X obj 287 37 r \$1_dry;
#X obj 357 37 r \$1_wet;
#X obj 437 37 r \$1_fdbk;
#X obj 517 37 r \$1_ms;
#X obj 587 37 r \$1_preamp;
#X obj 37 317 delay_extfb~;
#X obj 87 37 inlet~;
#X obj 107 347 outlet~;
#X obj 147 37 catch~ \$1_in;
#X connect 0 0 8 0;
#X connect 2 0 8 5;
#X connect 3 0 8 2;
#X connect 4 0 8 3;
#X connect 5 0 8 4;
#X connect 6 0 2 0;
#X connect 7 0 8 6;
#X connect 8 0 1 0;
#X connect 8 1 10 0;
#X connect 9 0 8 1;
#X connect 11 0 8 1;
