#N canvas 138 91 716 349 10;
#X obj 52 36 inlet~;
#X text 51 21 ~ in;
#X obj 162 36 inlet;
#X text 167 21 dry;
#X obj 212 36 inlet;
#X text 217 21 wet;
#X obj 262 36 inlet;
#X text 320 21 ms;
#X text 265 21 fdbk;
#X obj 252 96 vd~ \$0_delay;
#X obj 312 36 inlet~;
#X obj 292 156 tline~;
#X obj 52 216 outlet~;
#X obj 132 276 delwrite~ \$0_delay 7000;
#X obj 382 36 inlet;
#X text 382 21 preamp;
#X obj 132 96 tline~ 1;
#X obj 102 36 inlet~;
#X text 101 21 fdbk in;
#X obj 292 216 outlet~;
#X text 390 97 delay external feedback;
#X obj 52 156 tline~ 0.75;
#X obj 212 156 tline~ 0.25;
#X obj 132 126 rr~;
#X connect 0 0 16 0;
#X connect 0 0 21 0;
#X connect 2 0 21 1;
#X connect 4 0 22 1;
#X connect 6 0 11 1;
#X connect 9 0 11 0;
#X connect 9 0 22 0;
#X connect 10 0 9 0;
#X connect 11 0 19 0;
#X connect 14 0 16 1;
#X connect 16 0 23 0;
#X connect 17 0 23 0;
#X connect 21 0 12 0;
#X connect 22 0 12 0;
#X connect 23 0 13 0;
