#N canvas 0 0 450 300 10;
#X obj 37 37 inlet~;
#X obj 37 97 delay_ms~;
#X obj 37 127 outlet~;
#X obj 337 67 vlinesc~;
#X obj 87 37 r \$1_dry;
#X obj 167 37 r \$1_wet;
#X obj 247 37 r \$1_fdbk;
#X obj 337 37 r \$1_ms;
#X connect 0 0 1 0;
#X connect 1 0 2 0;
#X connect 3 0 1 4;
#X connect 4 0 1 1;
#X connect 5 0 1 2;
#X connect 6 0 1 3;
#X connect 7 0 3 0;
