#N canvas 0 0 539 378 10;
#X obj 171 219 phasor~;
#X obj 120 249 samphold~;
#X obj 120 279 tline~;
#X obj 111 69 sel 0;
#X msg 111 99 0;
#X msg 141 99 1;
#X obj 70 279 tline~;
#X obj 71 9 inlet~;
#X obj 80 249 rev;
#X obj 120 309 outlet~;
#X obj 221 19 lb \$1;
#X obj 171 39 *~ -1;
#X obj 171 9 inlet~;
#X obj 171 69 +~ 1;
#X obj 171 99 pow~ 6;
#X obj 171 129 *~ 21850;
#X obj 171 159 +~ 150;
#X obj 111 39 ssam~;
#X text 274 87 down-sample with audio rate modulation;
#X connect 0 0 1 1;
#X connect 1 0 2 0;
#X connect 2 0 9 0;
#X connect 3 0 4 0;
#X connect 3 1 5 0;
#X connect 4 0 2 1;
#X connect 4 0 8 0;
#X connect 5 0 2 1;
#X connect 5 0 8 0;
#X connect 6 0 9 0;
#X connect 7 0 6 0;
#X connect 7 0 1 0;
#X connect 8 0 6 1;
#X connect 10 0 11 0;
#X connect 11 0 13 0;
#X connect 12 0 11 0;
#X connect 12 0 17 0;
#X connect 13 0 14 0;
#X connect 14 0 15 0;
#X connect 15 0 16 0;
#X connect 16 0 0 0;
#X connect 17 0 3 0;
