#N canvas 0 50 450 300 10;
#X obj 72 29 inlet~;
#X obj 72 179 outlet~;
#X obj 72 99 tline~;
#X obj 242 89 tline~;
#X obj 272 29 r \$1_dry;
#X obj 342 29 r \$1_wet;
#X obj 132 29 r \$1_amount;
#X obj 72 69 downsample~;
#X connect 0 0 3 0;
#X connect 0 0 7 0;
#X connect 2 0 1 0;
#X connect 3 0 1 0;
#X connect 4 0 3 1;
#X connect 5 0 2 1;
#X connect 6 0 7 1;
#X connect 7 0 2 0;
