#N canvas 0 50 450 300 10;
#X obj 100 190 inlet~;
#X obj 110 120 hsl_vvc \$1 amount;
#X obj 100 250 outlet~;
#X obj 100 220 downsample_vv~ \$1;
#X obj 160 190 inlet;
#X connect 0 0 3 0;
#X connect 3 0 2 0;
#X connect 4 0 1 0;
#X coords 0 -1 1 1 150 80 1 100 100;
