#N canvas 0 0 388 438 10;
#X obj 181 149 * 21850;
#X obj 181 179 + 150;
#X obj 181 239 phasor~;
#X obj 130 269 samphold~;
#X obj 181 29 inlet;
#X obj 181 89 + 1;
#X obj 181 59 * -1;
#X obj 181 119 pow 6;
#X obj 130 299 tline~;
#X obj 101 59 sel 0;
#X msg 101 89 0;
#X msg 131 89 1;
#X obj 71 29 inlet~;
#X obj 80 269 rev;
#X obj 130 329 outlet~;
#X obj 231 39 lb \$1;
#X obj 181 209 vlinesc~ 5;
#X text 72 383 Downsample: lower the audio sample rate;
#X text 72 13 ~ in;
#X text 182 13 Amt;
#X obj 70 299 tline~ 1;
#X connect 0 0 1 0;
#X connect 1 0 16 0;
#X connect 2 0 3 1;
#X connect 3 0 8 0;
#X connect 4 0 6 0;
#X connect 4 0 9 0;
#X connect 5 0 7 0;
#X connect 6 0 5 0;
#X connect 7 0 0 0;
#X connect 8 0 14 0;
#X connect 9 0 10 0;
#X connect 9 1 11 0;
#X connect 10 0 8 1;
#X connect 10 0 13 0;
#X connect 11 0 8 1;
#X connect 11 0 13 0;
#X connect 12 0 3 0;
#X connect 12 0 20 0;
#X connect 13 0 20 1;
#X connect 15 0 6 0;
#X connect 16 0 2 0;
#X connect 20 0 14 0;
