#N canvas 702 69 933 662 10;
#X obj 72 23 inlet~;
#X text 70 8 ~ in;
#X obj 72 113 outlet~;
#X obj 72 83 eq_3band~ 0 0 0 0 0;
#X obj 132 23 r \$1_low_freq;
#X obj 232 23 r \$1_high_freq;
#X obj 342 23 r \$1_low_amp;
#X obj 442 23 r \$1_mid_amp;
#X obj 532 23 r \$1_high_amp;
#X connect 0 0 3 0;
#X connect 3 0 2 0;
#X connect 4 0 3 1;
#X connect 5 0 3 2;
#X connect 6 0 3 3;
#X connect 7 0 3 4;
#X connect 8 0 3 5;
