#N canvas 0 0 681 366 10;
#X obj 27 67 inlet~;
#X obj 27 127 lop~;
#X obj 87 67 inlet;
#X obj 117 157 lop~;
#X obj 77 127 hip~;
#X obj 147 67 inlet;
#X obj 167 127 hip~;
#X obj 127 277 outlet~;
#X text 82 52 low cut;
#X text 139 52 high cut;
#X obj 127 247 tline~;
#X obj 177 247 tline~;
#X obj 227 247 tline~;
#X obj 277 67 inlet;
#X obj 337 67 inlet;
#X obj 397 67 inlet;
#X text 272 52 low amp;
#X text 331 52 mid amp;
#X text 389 52 high amp;
#X connect 0 0 1 0;
#X connect 0 0 4 0;
#X connect 0 0 6 0;
#X connect 1 0 10 0;
#X connect 2 0 1 1;
#X connect 2 0 4 1;
#X connect 3 0 11 0;
#X connect 4 0 3 0;
#X connect 5 0 3 1;
#X connect 5 0 6 1;
#X connect 6 0 12 0;
#X connect 10 0 7 0;
#X connect 11 0 7 0;
#X connect 12 0 7 0;
#X connect 13 0 10 1;
#X connect 14 0 11 1;
#X connect 15 0 12 1;
