#N canvas 31 114 1228 438 10;
#X obj 223 70 unpack f f f f f;
#X obj 333 70 unpack f f f f f;
#X obj 443 70 unpack f f f f f;
#X obj 563 210 vcff~ 0 0 0;
#X obj 613 60 f;
#X obj 223 30 r \$0-freqs;
#X obj 333 30 r \$0-amps;
#X obj 443 30 r \$0-qs;
#N canvas 164 69 919 300 alto 0;
#X msg 63 60 800 1150 2800 3500 4950;
#X msg 73 80 0 -4 -20 -36 -60;
#X msg 83 100 80 90 120 130 140;
#X obj 83 30 b;
#X obj 233 30 b;
#X msg 213 60 400 1600 2700 3300 4950;
#X msg 223 80 0 -24 -30 -35 -60;
#X msg 233 100 60 80 120 150 200;
#X obj 63 130 s \$0-freqs;
#X obj 73 150 s \$0-amps;
#X obj 83 170 s \$0-qs;
#X obj 213 140 s \$0-freqs;
#X obj 223 160 s \$0-amps;
#X obj 233 180 s \$0-qs;
#X obj 83 -30 route a e i o u;
#X obj 393 30 b;
#X obj 373 140 s \$0-freqs;
#X obj 383 160 s \$0-amps;
#X obj 393 180 s \$0-qs;
#X obj 553 30 b;
#X obj 533 140 s \$0-freqs;
#X obj 543 160 s \$0-amps;
#X obj 553 180 s \$0-qs;
#X obj 713 30 b;
#X obj 693 140 s \$0-freqs;
#X obj 703 160 s \$0-amps;
#X obj 713 180 s \$0-qs;
#X msg 373 60 350 1700 2700 3700 4950;
#X msg 383 80 0 -20 -30 -36 -60;
#X msg 393 100 50 100 120 150 200;
#X msg 533 60 450 800 2830 3500 4950;
#X msg 543 80 0 -9 -16 -28 -55;
#X msg 553 100 70 80 100 130 135;
#X msg 693 60 325 700 2530 3500 4950;
#X msg 703 80 0 -12 -30 -40 -64;
#X msg 713 100 50 60 170 180 200;
#X obj 83 -60 inlet;
#X symbolatom 7 -12 1 0 0 0 - - -;
#X connect 0 0 8 0;
#X connect 1 0 9 0;
#X connect 2 0 10 0;
#X connect 3 0 0 0;
#X connect 3 0 1 0;
#X connect 3 0 2 0;
#X connect 4 0 5 0;
#X connect 4 0 6 0;
#X connect 4 0 7 0;
#X connect 5 0 11 0;
#X connect 6 0 12 0;
#X connect 7 0 13 0;
#X connect 14 0 3 0;
#X connect 14 1 4 0;
#X connect 14 2 15 0;
#X connect 14 3 19 0;
#X connect 14 4 23 0;
#X connect 15 0 27 0;
#X connect 15 0 28 0;
#X connect 15 0 29 0;
#X connect 19 0 30 0;
#X connect 19 0 31 0;
#X connect 19 0 32 0;
#X connect 23 0 33 0;
#X connect 23 0 34 0;
#X connect 23 0 35 0;
#X connect 27 0 16 0;
#X connect 28 0 17 0;
#X connect 29 0 18 0;
#X connect 30 0 20 0;
#X connect 31 0 21 0;
#X connect 32 0 22 0;
#X connect 33 0 24 0;
#X connect 34 0 25 0;
#X connect 35 0 26 0;
#X connect 36 0 14 0;
#X connect 37 0 14 0;
#X restore 903 260 pd alto;
#N canvas 164 69 919 300 bass 0;
#X obj 83 30 b;
#X obj 233 30 b;
#X obj 63 130 s \$0-freqs;
#X obj 73 150 s \$0-amps;
#X obj 83 170 s \$0-qs;
#X obj 213 140 s \$0-freqs;
#X obj 223 160 s \$0-amps;
#X obj 233 180 s \$0-qs;
#X obj 83 -30 route a e i o u;
#X obj 393 30 b;
#X obj 373 140 s \$0-freqs;
#X obj 383 160 s \$0-amps;
#X obj 393 180 s \$0-qs;
#X obj 553 30 b;
#X obj 533 140 s \$0-freqs;
#X obj 543 160 s \$0-amps;
#X obj 553 180 s \$0-qs;
#X obj 713 30 b;
#X obj 693 140 s \$0-freqs;
#X obj 703 160 s \$0-amps;
#X obj 713 180 s \$0-qs;
#X obj 83 -60 inlet;
#X msg 63 60 600 1040 2250 2450 2750;
#X msg 73 80 0 -7 -9 -9 -20;
#X msg 83 100 60 70 110 120 130;
#X msg 213 60 400 1620 2400 2800 3100;
#X msg 223 80 0 -12 -9 -12 -18;
#X msg 233 100 40 80 100 120 120;
#X msg 373 60 250 1750 2600 3050 3340;
#X msg 383 80 0 -30 -16 -22 -28;
#X msg 393 100 60 90 100 120 120;
#X msg 533 60 400 750 2400 2600 2900;
#X msg 543 80 0 -11 -21 -20 -40;
#X msg 553 100 40 80 100 120 120;
#X msg 693 60 350 600 2400 2675 2950;
#X msg 703 80 0 -20 -32 -28 -36;
#X msg 713 100 40 80 100 120 120;
#X connect 0 0 22 0;
#X connect 0 0 23 0;
#X connect 0 0 24 0;
#X connect 1 0 25 0;
#X connect 1 0 26 0;
#X connect 1 0 27 0;
#X connect 8 0 0 0;
#X connect 8 1 1 0;
#X connect 8 2 9 0;
#X connect 8 3 13 0;
#X connect 8 4 17 0;
#X connect 9 0 28 0;
#X connect 9 0 29 0;
#X connect 9 0 30 0;
#X connect 13 0 31 0;
#X connect 13 0 32 0;
#X connect 13 0 33 0;
#X connect 17 0 34 0;
#X connect 17 0 35 0;
#X connect 17 0 36 0;
#X connect 21 0 8 0;
#X connect 22 0 2 0;
#X connect 23 0 3 0;
#X connect 24 0 4 0;
#X connect 25 0 5 0;
#X connect 26 0 6 0;
#X connect 27 0 7 0;
#X connect 28 0 10 0;
#X connect 29 0 11 0;
#X connect 30 0 12 0;
#X connect 31 0 14 0;
#X connect 32 0 15 0;
#X connect 33 0 16 0;
#X connect 34 0 18 0;
#X connect 35 0 19 0;
#X connect 36 0 20 0;
#X restore 1013 260 pd bass;
#N canvas 100 120 919 300 soprano 0;
#X obj 83 30 b;
#X obj 233 30 b;
#X obj 63 130 s \$0-freqs;
#X obj 73 150 s \$0-amps;
#X obj 83 170 s \$0-qs;
#X obj 213 140 s \$0-freqs;
#X obj 223 160 s \$0-amps;
#X obj 233 180 s \$0-qs;
#X obj 83 -30 route a e i o u;
#X obj 393 30 b;
#X obj 373 140 s \$0-freqs;
#X obj 383 160 s \$0-amps;
#X obj 393 180 s \$0-qs;
#X obj 553 30 b;
#X obj 533 140 s \$0-freqs;
#X obj 543 160 s \$0-amps;
#X obj 553 180 s \$0-qs;
#X obj 713 30 b;
#X obj 693 140 s \$0-freqs;
#X obj 703 160 s \$0-amps;
#X obj 713 180 s \$0-qs;
#X obj 83 -60 inlet;
#X msg 63 60 800 1150 2900 3900 4950;
#X msg 73 80 0 -6 -32 -20 -50;
#X msg 83 100 80 90 120 130 140;
#X msg 213 60 350 2000 2800 3600 4950;
#X msg 223 80 0 -20 -15 -40 -56;
#X msg 233 100 60 100 120 150 200;
#X msg 373 60 270 2140 2950 3900 4950;
#X msg 383 80 0 -12 -26 -26 -44;
#X msg 393 100 60 90 100 120 120;
#X msg 533 60 450 800 2830 3800 4950;
#X msg 543 80 0 -11 -22 -22 -50;
#X msg 553 100 40 80 100 120 120;
#X msg 693 60 325 700 2700 3800 4950;
#X msg 703 80 0 -16 -35 -40 -60;
#X msg 713 100 50 60 170 180 200;
#X connect 0 0 22 0;
#X connect 0 0 23 0;
#X connect 0 0 24 0;
#X connect 1 0 25 0;
#X connect 1 0 26 0;
#X connect 1 0 27 0;
#X connect 8 0 0 0;
#X connect 8 1 1 0;
#X connect 8 2 9 0;
#X connect 8 3 13 0;
#X connect 8 4 17 0;
#X connect 9 0 28 0;
#X connect 9 0 29 0;
#X connect 9 0 30 0;
#X connect 13 0 31 0;
#X connect 13 0 32 0;
#X connect 13 0 33 0;
#X connect 17 0 34 0;
#X connect 17 0 35 0;
#X connect 17 0 36 0;
#X connect 21 0 8 0;
#X connect 22 0 2 0;
#X connect 23 0 3 0;
#X connect 24 0 4 0;
#X connect 25 0 5 0;
#X connect 26 0 6 0;
#X connect 27 0 7 0;
#X connect 28 0 10 0;
#X connect 29 0 11 0;
#X connect 30 0 12 0;
#X connect 31 0 14 0;
#X connect 32 0 15 0;
#X connect 33 0 16 0;
#X connect 34 0 18 0;
#X connect 35 0 19 0;
#X connect 36 0 20 0;
#X restore 733 260 pd soprano;
#X obj 733 200 listatba;
#N canvas 164 69 919 300 tenor 0;
#X obj 83 30 b;
#X obj 233 30 b;
#X obj 63 130 s \$0-freqs;
#X obj 73 150 s \$0-amps;
#X obj 83 170 s \$0-qs;
#X obj 213 140 s \$0-freqs;
#X obj 223 160 s \$0-amps;
#X obj 233 180 s \$0-qs;
#X obj 83 -30 route a e i o u;
#X obj 393 30 b;
#X obj 373 140 s \$0-freqs;
#X obj 383 160 s \$0-amps;
#X obj 393 180 s \$0-qs;
#X obj 553 30 b;
#X obj 533 140 s \$0-freqs;
#X obj 543 160 s \$0-amps;
#X obj 553 180 s \$0-qs;
#X obj 713 30 b;
#X obj 693 140 s \$0-freqs;
#X obj 703 160 s \$0-amps;
#X obj 713 180 s \$0-qs;
#X obj 83 -60 inlet;
#X msg 63 60 650 1080 2650 2900 3250;
#X msg 73 80 0 -6 -7 -8 -22;
#X msg 83 100 80 90 120 130 140;
#X msg 213 60 400 1700 2600 3200 3580;
#X msg 223 80 0 -14 -12 -14 -20;
#X msg 233 100 70 80 100 120 120;
#X msg 373 60 290 1870 2800 3250 3540;
#X msg 383 80 0 -15 -18 -20 -30;
#X msg 393 100 40 90 100 120 120;
#X msg 533 60 400 800 2600 2800 3000;
#X msg 543 80 0 -10 -12 -12 -26;
#X msg 553 100 70 80 100 130 135;
#X msg 693 60 350 600 2700 2900 3300;
#X msg 703 80 0 -20 -17 -14 -26;
#X msg 713 100 40 60 100 120 120;
#X connect 0 0 22 0;
#X connect 0 0 23 0;
#X connect 0 0 24 0;
#X connect 1 0 25 0;
#X connect 1 0 26 0;
#X connect 1 0 27 0;
#X connect 8 0 0 0;
#X connect 8 1 1 0;
#X connect 8 2 9 0;
#X connect 8 3 13 0;
#X connect 8 4 17 0;
#X connect 9 0 28 0;
#X connect 9 0 29 0;
#X connect 9 0 30 0;
#X connect 13 0 31 0;
#X connect 13 0 32 0;
#X connect 13 0 33 0;
#X connect 17 0 34 0;
#X connect 17 0 35 0;
#X connect 17 0 36 0;
#X connect 21 0 8 0;
#X connect 22 0 2 0;
#X connect 23 0 3 0;
#X connect 24 0 4 0;
#X connect 25 0 5 0;
#X connect 26 0 6 0;
#X connect 27 0 7 0;
#X connect 28 0 10 0;
#X connect 29 0 11 0;
#X connect 30 0 12 0;
#X connect 31 0 14 0;
#X connect 32 0 15 0;
#X connect 33 0 16 0;
#X connect 34 0 18 0;
#X connect 35 0 19 0;
#X connect 36 0 20 0;
#X restore 953 260 pd tenor;
#X obj 733 230 route s c a t b;
#N canvas 311 53 919 300 countertenor 0;
#X obj 83 30 b;
#X obj 233 30 b;
#X obj 63 130 s \$0-freqs;
#X obj 73 150 s \$0-amps;
#X obj 83 170 s \$0-qs;
#X obj 213 140 s \$0-freqs;
#X obj 223 160 s \$0-amps;
#X obj 233 180 s \$0-qs;
#X obj 83 -30 route a e i o u;
#X obj 393 30 b;
#X obj 373 140 s \$0-freqs;
#X obj 383 160 s \$0-amps;
#X obj 393 180 s \$0-qs;
#X obj 553 30 b;
#X obj 533 140 s \$0-freqs;
#X obj 543 160 s \$0-amps;
#X obj 553 180 s \$0-qs;
#X obj 713 30 b;
#X obj 693 140 s \$0-freqs;
#X obj 703 160 s \$0-amps;
#X obj 713 180 s \$0-qs;
#X obj 83 -60 inlet;
#X msg 63 60 660 1120 2750 3000 3350;
#X msg 73 80 0 -6 -23 -24 -38;
#X msg 83 100 80 90 120 130 140;
#X msg 213 60 440 1800 2700 3000 3300;
#X msg 223 80 0 -14 -18 -20 -20;
#X msg 233 100 70 80 100 120 120;
#X msg 373 60 270 1850 2900 3350 3590;
#X msg 383 80 0 -24 -24 -36 -36;
#X msg 393 100 40 90 100 120 120;
#X msg 533 60 430 820 2700 3000 3300;
#X msg 543 80 0 -10 -26 -22 -34;
#X msg 553 100 40 80 100 120 120;
#X msg 693 60 370 630 2750 3000 3400;
#X msg 703 80 0 -20 -23 -30 -34;
#X msg 713 100 40 60 100 120 120;
#X connect 0 0 22 0;
#X connect 0 0 23 0;
#X connect 0 0 24 0;
#X connect 1 0 25 0;
#X connect 1 0 26 0;
#X connect 1 0 27 0;
#X connect 8 0 0 0;
#X connect 8 1 1 0;
#X connect 8 2 9 0;
#X connect 8 3 13 0;
#X connect 8 4 17 0;
#X connect 9 0 28 0;
#X connect 9 0 29 0;
#X connect 9 0 30 0;
#X connect 13 0 31 0;
#X connect 13 0 32 0;
#X connect 13 0 33 0;
#X connect 17 0 34 0;
#X connect 17 0 35 0;
#X connect 17 0 36 0;
#X connect 21 0 8 0;
#X connect 22 0 2 0;
#X connect 23 0 3 0;
#X connect 24 0 4 0;
#X connect 25 0 5 0;
#X connect 26 0 6 0;
#X connect 27 0 7 0;
#X connect 28 0 10 0;
#X connect 29 0 11 0;
#X connect 30 0 12 0;
#X connect 31 0 14 0;
#X connect 32 0 15 0;
#X connect 33 0 16 0;
#X connect 34 0 18 0;
#X connect 35 0 19 0;
#X connect 36 0 20 0;
#X restore 803 260 pd countertenor;
#X obj 13 20 inlet~;
#X obj 113 20 inlet~;
#X obj 113 50 +~;
#X text 18 5 ~ in;
#X text 118 5 Freq;
#X obj 613 20 inlet;
#X obj 733 20 inlet;
#X text 734 5 Voice;
#X obj 903 20 inlet;
#X text 904 5 Vowel;
#X obj 673 20 inlet;
#X text 684 5 Q+;
#X obj 673 60 rr;
#X obj 103 370 outlet~;
#X obj 323 210 vcff~ 0 0 0;
#X obj 103 210 vcff~ 0 0 0;
#X obj 203 210 vcff~ 0 0 0;
#X obj 443 210 vcff~ 0 0 0;
#X obj 673 160 rr;
#X obj 733 90 route 0 1 2 3 4;
#X obj 733 170 rr;
#X msg 793 130 a;
#X msg 853 130 b;
#X msg 823 130 t;
#X msg 733 130 s;
#X msg 763 130 c;
#X obj 903 90 route 0 1 2 3 4;
#X obj 903 170 rr;
#X msg 903 130 a;
#X msg 933 130 e;
#X msg 963 130 i;
#X msg 993 130 o;
#X msg 1023 130 u;
#X obj 1053 20 inlet;
#X obj 1133 20 inlet;
#X text 1054 5 Dry;
#X text 1134 5 Wet;
#X obj 103 340 tline~ 1;
#X obj 13 340 tline~;
#X obj 33 310 r \$0_dry;
#X obj 173 340 r \$0_wet;
#X obj 1053 50 s \$0_dry;
#X obj 1133 50 s \$0_wet;
#X obj 733 60 int;
#X obj 903 60 int;
#X text 446 343 Vowel formant filter;
#X text 608 5 Glide ms;
#X connect 0 0 30 1;
#X connect 0 1 31 1;
#X connect 0 2 29 1;
#X connect 0 3 32 1;
#X connect 0 4 3 1;
#X connect 1 0 30 2;
#X connect 1 1 31 2;
#X connect 1 2 29 2;
#X connect 1 3 32 2;
#X connect 1 4 3 2;
#X connect 2 0 30 3;
#X connect 2 1 31 3;
#X connect 2 2 29 3;
#X connect 2 3 32 3;
#X connect 2 4 3 3;
#X connect 3 0 52 0;
#X connect 4 0 3 5;
#X connect 4 0 29 5;
#X connect 4 0 30 5;
#X connect 4 0 31 5;
#X connect 4 0 32 5;
#X connect 5 0 0 0;
#X connect 6 0 1 0;
#X connect 7 0 2 0;
#X connect 11 0 13 0;
#X connect 13 0 10 0;
#X connect 13 1 14 0;
#X connect 13 2 8 0;
#X connect 13 3 12 0;
#X connect 13 4 9 0;
#X connect 15 0 3 0;
#X connect 15 0 29 0;
#X connect 15 0 30 0;
#X connect 15 0 31 0;
#X connect 15 0 32 0;
#X connect 15 0 53 0;
#X connect 16 0 17 0;
#X connect 17 0 3 4;
#X connect 17 0 29 4;
#X connect 17 0 30 4;
#X connect 17 0 31 4;
#X connect 17 0 32 4;
#X connect 20 0 4 0;
#X connect 21 0 58 0;
#X connect 23 0 59 0;
#X connect 25 0 27 0;
#X connect 27 0 3 6;
#X connect 27 0 29 6;
#X connect 27 0 30 6;
#X connect 27 0 31 6;
#X connect 27 0 32 6;
#X connect 27 0 33 0;
#X connect 29 0 52 0;
#X connect 30 0 52 0;
#X connect 31 0 52 0;
#X connect 32 0 52 0;
#X connect 33 0 3 7;
#X connect 33 0 32 7;
#X connect 33 0 29 7;
#X connect 33 0 31 7;
#X connect 33 0 30 7;
#X connect 34 0 39 0;
#X connect 34 1 40 0;
#X connect 34 2 36 0;
#X connect 34 3 38 0;
#X connect 34 4 37 0;
#X connect 35 0 11 0;
#X connect 36 0 35 0;
#X connect 37 0 35 0;
#X connect 38 0 35 0;
#X connect 39 0 35 0;
#X connect 40 0 35 0;
#X connect 41 0 43 0;
#X connect 41 1 44 0;
#X connect 41 2 45 0;
#X connect 41 3 46 0;
#X connect 41 4 47 0;
#X connect 42 0 11 1;
#X connect 43 0 42 0;
#X connect 44 0 42 0;
#X connect 45 0 42 0;
#X connect 46 0 42 0;
#X connect 47 0 42 0;
#X connect 48 0 56 0;
#X connect 49 0 57 0;
#X connect 52 0 28 0;
#X connect 53 0 28 0;
#X connect 54 0 53 1;
#X connect 55 0 52 1;
#X connect 58 0 34 0;
#X connect 59 0 41 0;
