#N canvas 0 50 875 310 10;
#X obj 87 67 vlinesc~;
#X obj 37 7 inlet~;
#X obj 87 7 inlet~;
#X obj 37 157 outlet~;
#X obj 87 37 r \$1_freq;
#X obj 167 37 r \$1_glide;
#X obj 257 37 r \$1_q;
#X obj 317 37 r \$1_voice;
#X obj 407 37 r \$1_vowel;
#X obj 497 37 r \$1_dry;
#X obj 567 37 r \$1_wet;
#X obj 37 127 formant_filter_3v~;
#X connect 0 0 11 1;
#X connect 1 0 11 0;
#X connect 2 0 11 1;
#X connect 4 0 0 0;
#X connect 5 0 0 1;
#X connect 5 0 11 2;
#X connect 6 0 11 3;
#X connect 7 0 11 4;
#X connect 8 0 11 5;
#X connect 9 0 11 6;
#X connect 10 0 11 7;
#X connect 11 0 3 0;
