#N canvas 623 150 558 450 10;
#X obj 110 0 inlet~;
#X obj 110 60 outlet~;
#X obj 250 0 inlet~;
#X text 256 -15 freq;
#X obj 110 120 nbx_vvc \$1 freq;
#X obj 110 160 nbx_vvc \$1 glide;
#X obj 270 120 hrd5_vvc \$1 voice;
#X obj 270 180 hrd5_vvc \$1 vowel;
#X text 275 158 s;
#X text 355 158 b;
#X text 335 158 t;
#X text 315 158 a;
#X text 295 158 c;
#X text 275 218 a;
#X text 295 218 e;
#X text 315 218 i;
#X text 335 218 o;
#X text 355 218 u;
#X obj 110 200 hslxnbx_vvc \$1 q 3 0.5;
#X obj 110 260 hslxnbx_vvc \$1 dry;
#X obj 250 260 hslxnbx_vvc \$1 wet 1 1;
#X obj 110 30 formant_filter_3v_vv~ \$1;
#X connect 0 0 21 0;
#X connect 2 0 21 1;
#X connect 21 0 1 0;
#X coords 0 -1 1 1 300 230 1 100 100;
