#N canvas 0 50 527 419 10;
#X text 255 158 s;
#X text 335 158 b;
#X text 315 158 t;
#X text 295 158 a;
#X text 275 158 c;
#X text 255 218 a;
#X text 275 218 e;
#X text 295 218 i;
#X text 315 218 o;
#X text 335 218 u;
#X obj 100 120 nbx_vvc \$1 \$2_freq;
#X obj 100 160 nbx_vvc \$1 \$2_glide;
#X obj 100 200 hslxnbx_vvc \$1 \$2_q;
#X obj 250 180 hrd5_vvc \$1 \$2_vowel;
#X obj 250 120 hrd5_vvc \$1 \$2_voice;
#X obj 100 260 hslxnbx_vvc \$1 dry;
#X obj 240 260 hslxnbx_vvc \$1 wet 1 1;
#X coords 0 -1 1 1 300 230 1 100 100;
