#N canvas 0 50 1169 300 10;
#X obj 87 67 vlinesc~;
#X obj 37 7 inlet~;
#X obj 87 7 inlet~;
#X obj 37 157 outlet~;
#X obj 37 127 formant_filter~;
#X obj 87 37 vv_mm \$1 \$2_freq \$3;
#X obj 227 37 vv_mm \$1 \$2_glide \$3;
#X obj 377 37 vv_mm \$1 \$2_q \$3;
#X obj 497 37 vv_mm \$1 \$2_voice \$3;
#X obj 647 37 vv_mm \$1 \$2_vowel \$3;
#X obj 797 37 vv_mm \$1 \$2_dry \$3;
#X obj 937 37 vv_mm \$1 \$2_wet \$3;
#X connect 0 0 4 1;
#X connect 1 0 4 0;
#X connect 2 0 4 1;
#X connect 4 0 3 0;
#X connect 5 0 0 0;
#X connect 6 0 0 1;
#X connect 6 0 4 2;
#X connect 7 0 4 3;
#X connect 8 0 4 4;
#X connect 9 0 4 5;
#X connect 10 0 4 6;
#X connect 11 0 4 7;
