#N canvas 0 50 527 419 10;
#X text 265 158 s;
#X text 345 158 b;
#X text 325 158 t;
#X text 305 158 a;
#X text 285 158 c;
#X text 265 218 a;
#X text 285 218 e;
#X text 305 218 i;
#X text 325 218 o;
#X text 345 218 u;
#X obj 110 120 nbx_vvc \$1 \$2_freq;
#X obj 110 160 nbx_vvc \$1 \$2_glide;
#X obj 110 200 hslxnbx_vvc \$1 \$2_q;
#X obj 260 180 hrd5_vvc \$1 \$2_vowel;
#X obj 260 120 hrd5_vvc \$1 \$2_voice;
#X obj 110 260 hslxnbx_vvc \$1 \$2_dry;
#X obj 250 260 hslxnbx_vvc \$1 \$2_wet 1 1;
#X coords 0 -1 1 1 300 230 1 100 100;
