#N canvas 0 0 450 300 10;
#X obj 117 47 inlet~;
#X obj 117 187 outlet~;
#X obj 297 107 r \$1_wet;
#X obj 357 77 r \$1_freq;
#X obj 357 157 tline~;
#X obj 117 157 tline~;
#X obj 167 107 r \$1_dry;
#X obj 207 47 inlet;
#X obj 167 47 inlet;
#X obj 247 47 inlet;
#X obj 357 107 lop~;
#X connect 0 0 5 0;
#X connect 0 0 10 0;
#X connect 2 0 4 1;
#X connect 3 0 10 1;
#X connect 4 0 1 0;
#X connect 5 0 1 0;
#X connect 6 0 5 1;
#X connect 7 0 4 1;
#X connect 8 0 5 1;
#X connect 9 0 10 1;
#X connect 10 0 4 0;
