#N canvas -93 423 508 376 10;
#X obj 110 20 inlet~;
#X obj 110 80 outlet~;
#X obj 280 120 hslxnbx_vvc \$1 dry 1 0.5;
#X obj 280 180 hslxnbx_vvc \$1 wet 1 0.5;
#X obj 200 20 inlet;
#X obj 160 20 inlet;
#X obj 240 20 inlet;
#X obj 110 50 lop_mix~ \$1;
#X obj 110 120 hslxnbx_vvc \$1 freq 11075;
#X connect 0 0 7 0;
#X connect 4 0 7 2;
#X connect 5 0 7 1;
#X connect 6 0 7 3;
#X connect 7 0 1 0;
#X coords 0 -1 1 1 330 150 1 100 100;
