#N canvas 669 73 508 376 10;
#X obj 110 20 inlet~;
#X obj 110 80 outlet~;
#X obj 280 120 hslxnbx_vvc \$1 dry 1 0.5;
#X obj 280 180 hslxnbx_vvc \$1 wet 1 0.5;
#X obj 200 20 inlet;
#X obj 160 20 inlet;
#X obj 240 20 inlet~;
#X obj 110 180 hslxnbx_vvc \$1 q 3 0.5;
#X text 121 3 in;
#X text 211 3 wet;
#X text 171 3 dry;
#X text 251 3 freq;
#X text 301 3 q;
#X obj 290 20 inlet;
#X obj 110 240 nbx_vvc \$1 poles 4;
#X obj 110 50 multi_vcf_mix~ \$1;
#X obj 310 240 nbx_vvc \$1 type;
#X text 230 259 1: lp (vcf~);
#X text 230 269 2: lp (bob~);
#X text 230 249 0: bp (vcf~);
#X obj 110 120 hslxnbx_vvc \$1 freq 11075;
#X connect 0 0 15 0;
#X connect 4 0 15 2;
#X connect 5 0 15 1;
#X connect 6 0 15 3;
#X connect 13 0 15 4;
#X connect 15 0 1 0;
#X coords 0 -1 1 1 340 190 1 100 100;
