#N canvas 0 50 893 529 10;
#X obj 47 27 inlet~;
#X obj 107 27 inlet~;
#X obj 157 27 inlet;
#X obj 197 147 vcf_npnpnode~ 0 \$0;
#X obj 197 177 vcf_npnpnode~ 1 \$0;
#X obj 197 207 vcf_npnpnode~ 2 \$0;
#X obj 197 237 vcf_npnpnode~ 3 \$0;
#X obj 337 27 inlet;
#X obj 337 57 s \$0_type;
#X text 105 11 Freq;
#X text 155 11 Q;
#X text 235 11 Poles;
#X obj 237 57 rr;
#X obj 237 27 inlet;
#X obj 277 37 lb \$1 4;
#X obj 377 37 lb \$2;
#X text 335 11 type;
#X obj 197 417 outlet~;
#X obj 87 147 r \$0_type;
#X obj 87 177 == 2;
#X obj 127 177 vlinesc~;
#X text 365 171 \$2 type;
#X text 366 131 vcf~ n-pole with bp or "lp" \, or bob~ (resonant low-pass)
;
#N canvas 0 50 450 300 bob 0;
#X obj 107 17 inlet~;
#X obj 167 17 inlet~;
#X obj 107 107 outlet~;
#X obj 317 47 switch~;
#X obj 317 17 inlet;
#X obj 107 77 bob~;
#X obj 217 17 inlet~;
#X obj 142 47 clip~ -1111 22050;
#X connect 0 0 5 0;
#X connect 1 0 7 0;
#X connect 4 0 3 0;
#X connect 5 0 2 0;
#X connect 6 0 5 2;
#X connect 7 0 5 1;
#X restore 57 207 pd bob;
#X text 365 151 \$1 poles (only for type 0 and 1);
#X text 375 211 1=lp(vcf~);
#X text 375 231 2=lp(bob~);
#X text 375 191 0=bp(vcf~);
#X obj 307 267 *~ -1;
#X obj 47 297 +~;
#X obj 47 387 tline~;
#X obj 67 327 r \$0_type;
#X obj 67 357 == 3;
#X obj 184 282 tline~;
#X floatatom 376 343 5 0 0 0 - - -;
#X connect 0 0 23 0;
#X connect 0 0 29 0;
#X connect 0 0 3 0;
#X connect 1 0 6 1;
#X connect 1 0 23 1;
#X connect 1 0 3 1;
#X connect 1 0 4 1;
#X connect 1 0 5 1;
#X connect 2 0 6 2;
#X connect 2 0 20 0;
#X connect 2 0 3 2;
#X connect 2 0 4 2;
#X connect 2 0 5 2;
#X connect 3 0 4 0;
#X connect 3 1 4 0;
#X connect 4 0 5 0;
#X connect 4 1 5 0;
#X connect 5 0 6 0;
#X connect 5 1 6 0;
#X connect 6 0 17 0;
#X connect 6 1 17 0;
#X connect 6 1 28 0;
#X connect 7 0 8 0;
#X connect 12 0 6 3;
#X connect 12 0 3 3;
#X connect 12 0 4 3;
#X connect 12 0 5 3;
#X connect 13 0 12 0;
#X connect 14 0 12 0;
#X connect 15 0 8 0;
#X connect 18 0 19 0;
#X connect 19 0 23 3;
#X connect 20 0 23 2;
#X connect 23 0 17 0;
#X connect 28 0 33 0;
#X connect 29 0 30 0;
#X connect 30 0 17 0;
#X connect 31 0 32 0;
#X connect 32 0 30 1;
#X connect 33 0 29 1;
#X connect 34 0 33 1;
