#N canvas 608 130 1033 616 10;
#X obj 92 368 *~;
#X obj 215 305 line~;
#X obj 215 279 pack 0 200;
#X obj 29 153 exp;
#X floatatom 29 179 6 0 0 0 - - -;
#X obj 29 269 /;
#X obj 156 199 * 0.001;
#X obj 324 375 line~;
#X obj 324 350 pack 0 200;
#X obj 92 394 +~;
#X obj 29 420 cos~;
#X obj 29 447 *~;
#X obj 29 476 +~;
#X obj 116 327 wrap~;
#X obj 261 370 *~;
#X obj 261 403 +~;
#X obj 198 430 cos~;
#X obj 198 457 *~;
#X obj 156 226 t b f;
#X floatatom 29 295 6 0 0 0 - - -;
#X obj 116 300 +~ 0.5;
#X obj 29 368 -~ 0.5;
#X obj 29 394 *~ 0.5;
#X obj 198 369 -~ 0.5;
#X obj 198 402 *~ 0.5;
#X obj 29 206 - 1;
#X obj 29 127 * 0.05776;
#X obj 29 232 * -1;
#X text 92 173 speed;
#X text 91 187 change;
#X text 291 121 <--window (msec);
#X text 64 262 tape head;
#X obj 29 326 phasor~;
#X text 327 232 delay;
#X text 324 250 (msec);
#X obj 247 149 max 1;
#X text 65 275 rotation freq;
#X obj -121 71 inlet~;
#X obj 29 503 outlet~;
#X obj 29 71 inlet;
#X text 5 55 Semitone Transp;
#X obj -121 102 delwrite~ \$0-del 5000;
#X obj 92 420 vd~ \$0-del;
#X obj 261 432 vd~ \$0-del;
#X obj 324 326 max 0.5;
#X msg 322 300 0;
#X obj 323 272 loadbang;
#X obj 247 96 loadbang;
#X msg 248 123 100;
#X obj 69 81 lb \$1;
#X text 423 220 pitch shifter - adapted from pd 0.43 help file G.09
;
#X connect 0 0 9 0;
#X connect 1 0 0 1;
#X connect 1 0 14 1;
#X connect 2 0 1 0;
#X connect 3 0 4 0;
#X connect 4 0 25 0;
#X connect 5 0 19 0;
#X connect 6 0 18 0;
#X connect 7 0 9 1;
#X connect 7 0 15 1;
#X connect 8 0 7 0;
#X connect 9 0 42 0;
#X connect 10 0 11 0;
#X connect 11 0 12 0;
#X connect 12 0 38 0;
#X connect 13 0 14 0;
#X connect 13 0 23 0;
#X connect 14 0 15 0;
#X connect 15 0 43 0;
#X connect 16 0 17 0;
#X connect 17 0 12 1;
#X connect 18 0 5 0;
#X connect 18 1 5 1;
#X connect 19 0 32 0;
#X connect 20 0 13 0;
#X connect 21 0 22 0;
#X connect 22 0 10 0;
#X connect 23 0 24 0;
#X connect 24 0 16 0;
#X connect 25 0 27 0;
#X connect 26 0 3 0;
#X connect 27 0 5 0;
#X connect 32 0 0 0;
#X connect 32 0 21 0;
#X connect 32 0 20 0;
#X connect 35 0 6 0;
#X connect 35 0 2 0;
#X connect 37 0 41 0;
#X connect 39 0 26 0;
#X connect 42 0 11 1;
#X connect 43 0 17 1;
#X connect 44 0 8 0;
#X connect 45 0 44 0;
#X connect 46 0 45 0;
#X connect 47 0 48 0;
#X connect 48 0 35 0;
#X connect 49 0 26 0;
