#N canvas 199 143 775 399 10;
#X obj -40 100 inlet~;
#X obj -40 250 outlet~;
#X obj 110 170 tgl_hide_vvc \$1 1_on;
#X obj -40 130 retrig_ij_vv~ \$1 1;
#X obj -40 220 retrig_ij_vv~ \$1 4;
#X obj -40 160 retrig_ij_vv~ \$1 2;
#X obj -40 190 retrig_ij_vv~ \$1 3;
#X obj 150 170 nbx_hide_vvc \$1 1_length 1;
#X obj 320 170 tgl_hide_vvc \$1 2_on;
#X obj 360 170 nbx_hide_vvc \$1 2_length 0.5;
#X obj 320 220 tgl_hide_vvc \$1 4_on;
#X obj 150 220 nbx_hide_vvc \$1 3_length 0.25;
#X obj 360 220 nbx_hide_vvc \$1 4_length 0.125;
#X obj 110 220 tgl_hide_vvc \$1 3_on;
#X obj -180 100 inlet~;
#X obj -180 250 outlet~;
#X obj -180 130 retrig_ij_vv~ \$1 1;
#X obj -180 220 retrig_ij_vv~ \$1 4;
#X obj -180 160 retrig_ij_vv~ \$1 2;
#X obj -180 190 retrig_ij_vv~ \$1 3;
#X obj 230 170 nbx_hide_vvc \$1 1_window 1;
#X obj 440 170 nbx_hide_vvc \$1 2_window 1;
#X obj 230 220 nbx_hide_vvc \$1 3_window 1;
#X obj 440 220 nbx_hide_vvc \$1 4_window 1;
#X obj 480 120 tgl_hide_vvc \$1 rev;
#X obj 400 120 nbx_hide_vvc \$1 speed 1;
#X text 119 78 \$1 name;
#X text 119 38 Stereo retrigger aka stutter/beat repeat with four rates
with a speed and reverse button. Idea taken from the old vst Instajungle.
;
#X connect 0 0 3 0;
#X connect 3 0 5 0;
#X connect 4 0 1 0;
#X connect 5 0 6 0;
#X connect 6 0 4 0;
#X connect 14 0 16 0;
#X connect 16 0 18 0;
#X connect 17 0 15 0;
#X connect 18 0 19 0;
#X connect 19 0 17 0;
#X coords 0 -1 1 1 420 180 1 100 100;
