#N canvas 0 0 927 300 10;
#X obj 37 37 inlet~;
#X obj 427 38 r \$1_speed;
#X obj 37 127 outlet~;
#X obj 527 38 r \$1_rev;
#X obj 187 38 r \$1_\$2_length;
#X obj 87 38 r \$1_\$2_on;
#X obj 307 38 r \$1_\$2_window;
#X obj 617 38 r \$1_length_mult;
#X obj 37 97 retrig~ \$1_\$2 0 0 0 0 0 0 0 0 0 0 0 0;
#X connect 0 0 8 0;
#X connect 1 0 8 4;
#X connect 3 0 8 5;
#X connect 4 0 8 2;
#X connect 5 0 8 1;
#X connect 6 0 8 3;
#X connect 7 0 8 6;
#X connect 8 0 2 0;
