#N canvas 165 50 1010 647 10;
#X obj 432 113 beat_to_sample;
#X obj 432 203 s \$0_array;
#X msg 432 173 resize \$1;
#X obj 272 293 spigot;
#X obj 152 123 rev;
#X obj 32 53 inlet~;
#X obj 52 593 outlet~;
#X obj 272 323 tabwrite~ \$0_array;
#X obj 272 173 b2n 1;
#X obj 512 323 vline~;
#X msg 512 293 0 \, 1 \$1;
#X obj 512 233 f;
#X obj 512 443 *~;
#X obj 182 53 inlet;
#X text 30 38 ~ in;
#X obj 512 413 wrap~;
#X text 651 38 Speed;
#X text 180 38 Off On;
#X obj 152 93 f;
#X obj 52 563 tline~;
#X obj 512 263 sample_to_ms;
#X obj 512 383 *~;
#X obj 512 473 tabread~ \$0_array;
#X obj 242 263 rev;
#X obj 442 143 s \$0_samples;
#X obj 562 413 r \$0_samples;
#X obj 532 203 r \$0_samples;
#X obj 272 203 s \$0_beat;
#X obj 112 53 r \$0_beat;
#X obj 512 173 r \$0_beat;
#X obj 272 53 inlet;
#X obj 272 83 neg2frac;
#X text 269 38 Length;
#X obj 532 53 inlet;
#X obj 532 83 neg2frac;
#X text 529 38 Window;
#X obj 532 113 s \$0_window;
#X obj 272 263 b2n 4;
#X obj 272 233 r \$0_window;
#X obj 671 473 table \$0_array;
#X obj 702 53 inlet;
#X text 707 37 Rev;
#X obj 702 83 sel 0;
#X msg 702 110 1;
#X msg 732 110 -1;
#X obj 652 53 inlet;
#X obj 652 203 *~;
#X obj 652 143 rr;
#X obj 272 143 ttbf 1;
#X obj 752 53 inlet;
#X text 747 37 Length Mult;
#X obj 752 83 s \$0_length_mult;
#X obj 312 113 r \$0_length_mult;
#X obj 122 563 tline~ 1;
#X obj 652 173 vlinesc~ 3;
#X connect 0 0 24 0;
#X connect 0 0 2 0;
#X connect 2 0 1 0;
#X connect 3 0 7 0;
#X connect 4 0 53 1;
#X connect 5 0 7 0;
#X connect 5 0 53 0;
#X connect 8 0 27 0;
#X connect 9 0 21 0;
#X connect 10 0 9 0;
#X connect 11 0 20 0;
#X connect 12 0 22 0;
#X connect 13 0 18 1;
#X connect 13 0 23 0;
#X connect 15 0 12 0;
#X connect 18 0 4 0;
#X connect 18 0 19 1;
#X connect 19 0 6 0;
#X connect 20 0 10 0;
#X connect 21 0 15 0;
#X connect 22 0 19 0;
#X connect 23 0 3 1;
#X connect 25 0 12 1;
#X connect 26 0 11 1;
#X connect 28 0 18 0;
#X connect 29 0 11 0;
#X connect 30 0 31 0;
#X connect 31 0 0 0;
#X connect 31 0 48 0;
#X connect 33 0 34 0;
#X connect 34 0 36 0;
#X connect 37 0 3 0;
#X connect 38 0 37 0;
#X connect 40 0 42 0;
#X connect 42 0 43 0;
#X connect 42 1 44 0;
#X connect 43 0 46 1;
#X connect 44 0 46 1;
#X connect 45 0 47 0;
#X connect 46 0 21 1;
#X connect 47 0 54 0;
#X connect 48 0 8 0;
#X connect 49 0 51 0;
#X connect 52 0 48 1;
#X connect 53 0 6 0;
#X connect 54 0 46 0;
