#N canvas 460 134 315 403 10;
#X obj 192 279 rev;
#X obj 192 249 * 0.75;
#X obj 32 219 rev;
#X obj 82 189 pow 0.5;
#X obj 192 219 rr;
#X obj 82 219 * 0.8;
#X obj 32 249 + 0.1;
#X obj 192 309 s \$1_dry;
#X obj 32 309 s \$1_bits;
#X obj 32 279 * 32;
#X obj 32 69 bit_red_vv~ \$1;
#X obj 32 39 inlet~;
#X obj 32 99 outlet~;
#X obj 82 249 s \$1_wet;
#X obj 82 129 r \$1_amt;
#X obj 82 159 clip 0 1;
#X text 121 93 single knob bit reduction;
#X connect 0 0 7 0;
#X connect 1 0 0 0;
#X connect 2 0 6 0;
#X connect 3 0 2 0;
#X connect 3 0 4 0;
#X connect 3 0 5 0;
#X connect 4 0 1 0;
#X connect 5 0 13 0;
#X connect 6 0 9 0;
#X connect 9 0 8 0;
#X connect 10 0 12 0;
#X connect 11 0 10 0;
#X connect 14 0 15 0;
#X connect 15 0 3 0;
