#N canvas 0 0 450 300 10;
#X obj 132 92 *~ -1;
#X obj 62 152 -~;
#X obj 63 182 /~;
#X obj 132 152 +~;
#X obj 62 32 inlet~;
#X obj 132 122 exp~;
#X obj 62 122 exp~;
#X obj 62 242 outlet~;
#X obj 62 212 clip~ -1 1;
#X obj 62 62 clip~ -88 88;
#X text 224 67 Non-linear compressor via tanh(x);
#X connect 0 0 5 0;
#X connect 1 0 2 0;
#X connect 2 0 8 0;
#X connect 3 0 2 1;
#X connect 4 0 9 0;
#X connect 5 0 1 1;
#X connect 5 0 3 1;
#X connect 6 0 1 0;
#X connect 6 0 3 0;
#X connect 8 0 7 0;
#X connect 9 0 0 0;
#X connect 9 0 6 0;
