#N canvas 0 0 597 300 10;
#X obj 67 47 inlet~;
#X obj 67 197 outlet~;
#X obj 177 107 r \$1_wet;
#X obj 307 167 tline~;
#X obj 67 167 tline~;
#X obj 117 107 r \$1_dry;
#X obj 157 47 inlet;
#X obj 117 47 inlet;
#X obj 197 47 inlet~;
#X obj 317 47 r \$1_freq;
#X obj 317 77 vlinesc~;
#X obj 247 47 inlet;
#X obj 387 77 ptbf;
#X obj 387 47 r \$1_q;
#X text 71 33 in;
#X text 161 33 wet;
#X text 121 33 dry;
#X text 201 33 freq;
#X text 251 33 q;
#X obj 477 47 inlet;
#X obj 437 47 inlet;
#X obj 307 107 vcf_npnp~, f 28;
#X text 441 33 poles;
#X text 481 33 type;
#X obj 447 67 r \$1_poles;
#X obj 487 87 r \$1_type;
#X connect 0 0 4 0;
#X connect 0 0 21 0;
#X connect 2 0 3 1;
#X connect 3 0 1 0;
#X connect 4 0 1 0;
#X connect 5 0 4 1;
#X connect 6 0 3 1;
#X connect 7 0 4 1;
#X connect 8 0 21 1;
#X connect 9 0 10 0;
#X connect 10 0 21 1;
#X connect 11 0 12 0;
#X connect 12 0 21 2;
#X connect 13 0 12 1;
#X connect 19 0 21 4;
#X connect 20 0 21 3;
#X connect 21 0 3 0;
#X connect 24 0 21 3;
#X connect 25 0 21 4;
