#N canvas 384 375 508 376 10;
#X obj 110 20 inlet~;
#X obj 110 80 outlet~;
#X obj 280 120 hslxnbx_vvc \$1 dry 1 0.5;
#X obj 280 180 hslxnbx_vvc \$1 wet 1 0.5;
#X obj 200 20 inlet;
#X obj 160 20 inlet;
#X obj 240 20 inlet~;
#X obj 110 180 hslxnbx_vvc \$1 q 3 0.5;
#X text 121 3 in;
#X text 211 3 wet;
#X text 171 3 dry;
#X text 251 3 freq;
#X text 301 3 q;
#X obj 290 20 inlet;
#X obj 110 50 vcf_npnp_mix~ \$1;
#X obj 110 240 nbx_vvc \$1 poles 4;
#X text 240 259 0: bandpass;
#X text 240 269 1: lowpass;
#X obj 310 240 nbx_vvc \$1 type;
#X obj 110 120 hslxnbx_vvc \$1 freq 11075;
#X connect 0 0 14 0;
#X connect 4 0 14 2;
#X connect 5 0 14 1;
#X connect 6 0 14 3;
#X connect 13 0 14 4;
#X connect 14 0 1 0;
#X coords 0 -1 1 1 340 190 1 100 100;
