#N canvas 0 50 753 437 10;
#X obj 307 77 + -1;
#X obj 107 17 inlet~;
#X obj 167 17 inlet~;
#X obj 217 17 inlet;
#X obj 107 167 *~;
#X obj 307 107 <;
#N canvas 0 50 450 300 filt 0;
#X obj 107 17 inlet~;
#X obj 167 17 inlet~;
#X obj 217 17 inlet;
#X obj 107 107 outlet~;
#X obj 167 107 outlet~;
#X obj 107 47 vcf~;
#X obj 317 47 + -1;
#X obj 317 137 switch~;
#X obj 317 17 inlet;
#X obj 317 107 >=;
#X obj 267 27 lb \$1;
#X connect 0 0 5 0;
#X connect 1 0 5 1;
#X connect 2 0 5 2;
#X connect 5 0 3 0;
#X connect 5 1 4 0;
#X connect 6 0 9 0;
#X connect 8 0 6 0;
#X connect 9 0 7 0;
#X connect 10 0 9 1;
#X restore 167 77 pd filt;
#X obj 347 77 lb \$1;
#X obj 307 17 inlet;
#X obj 107 257 outlet~;
#X obj 167 257 outlet~;
#X obj 107 227 tline~;
#X obj 167 227 tline~;
#X obj 207 167 r \$2_type;
#X obj 127 197 rev;
#X floatatom 64 204 5 0 0 0 - - -;
#X connect 0 0 5 0;
#X connect 1 0 4 0;
#X connect 1 0 6 0;
#X connect 2 0 6 1;
#X connect 3 0 6 2;
#X connect 4 0 11 0;
#X connect 4 0 12 0;
#X connect 5 0 4 1;
#X connect 6 0 11 0;
#X connect 6 1 12 0;
#X connect 7 0 5 1;
#X connect 8 0 0 0;
#X connect 8 0 6 3;
#X connect 11 0 9 0;
#X connect 12 0 10 0;
#X connect 13 0 14 0;
#X connect 13 0 12 1;
#X connect 14 0 11 1;
#X connect 14 0 15 0;
