#N canvas 0 50 490 356 10;
#X obj 47 27 inlet~;
#X obj 107 27 inlet~;
#X obj 157 27 inlet;
#X obj 107 297 outlet~;
#X obj 107 87 vcf_npnpnode~ 0 \$0;
#X obj 107 117 vcf_npnpnode~ 1 \$0;
#X obj 107 147 vcf_npnpnode~ 2 \$0;
#X obj 107 177 vcf_npnpnode~ 3 \$0;
#X obj 337 27 inlet;
#X obj 337 57 s \$0_type;
#X text 105 11 Freq;
#X text 155 11 Q;
#X text 235 11 Poles;
#X obj 237 57 rr;
#X obj 237 27 inlet;
#X obj 277 37 lb \$1 4;
#X obj 377 37 lb \$2;
#X text 375 11 0=bp/1=lp;
#X text 335 11 type;
#X text 258 132 vcf n-pole with bp or "lp";
#X connect 0 0 4 0;
#X connect 1 0 4 1;
#X connect 1 0 5 1;
#X connect 1 0 6 1;
#X connect 1 0 7 1;
#X connect 2 0 4 2;
#X connect 2 0 5 2;
#X connect 2 0 6 2;
#X connect 2 0 7 2;
#X connect 4 0 5 0;
#X connect 4 1 5 0;
#X connect 5 0 6 0;
#X connect 5 1 6 0;
#X connect 6 0 7 0;
#X connect 6 1 7 0;
#X connect 7 0 3 0;
#X connect 7 1 3 0;
#X connect 8 0 9 0;
#X connect 13 0 4 3;
#X connect 13 0 5 3;
#X connect 13 0 6 3;
#X connect 13 0 7 3;
#X connect 14 0 13 0;
#X connect 15 0 13 0;
#X connect 16 0 9 0;
