#N canvas 0 50 487 397 10;
#X obj 107 17 inlet~;
#X obj 167 17 inlet~;
#X obj 217 17 inlet;
#X obj 107 227 outlet~;
#X obj 167 77 vcf_npnode~ 0;
#X obj 167 107 vcf_npnode~ 1;
#X obj 167 137 vcf_npnode~ 2;
#X obj 167 167 vcf_npnode~ 3;
#X obj 277 47 rr;
#X obj 277 17 inlet;
#X obj 317 27 lb \$1 4;
#X text 165 1 Freq;
#X text 215 1 Q;
#X text 275 1 Poles;
#X text 318 122 Bandpass with n poles;
#X text 318 142 \$1 Poles;
#X text 105 1 ~ in;
#X connect 0 0 4 0;
#X connect 1 0 4 1;
#X connect 1 0 5 1;
#X connect 1 0 6 1;
#X connect 1 0 7 1;
#X connect 2 0 4 2;
#X connect 2 0 5 2;
#X connect 2 0 6 2;
#X connect 2 0 7 2;
#X connect 4 0 5 0;
#X connect 5 0 6 0;
#X connect 6 0 7 0;
#X connect 7 0 3 0;
#X connect 8 0 4 3;
#X connect 8 0 5 3;
#X connect 8 0 6 3;
#X connect 8 0 7 3;
#X connect 9 0 8 0;
#X connect 10 0 8 0;
