#N canvas 0 0 542 300 10;
#X obj 117 47 inlet~;
#X obj 117 197 outlet~;
#X obj 297 107 r \$1_wet;
#X obj 357 167 tline~;
#X obj 117 167 tline~;
#X obj 167 107 r \$1_dry;
#X obj 207 47 inlet;
#X obj 167 47 inlet;
#X obj 357 107 vcf~;
#X obj 247 47 inlet~;
#X obj 357 47 r \$1_freq;
#X obj 357 77 vlinesc~;
#X obj 297 47 inlet;
#X obj 427 77 ptbf;
#X obj 427 47 r \$1_q;
#X text 121 33 in;
#X text 211 33 wet;
#X text 171 33 dry;
#X text 251 33 freq;
#X text 301 33 q;
#X connect 0 0 4 0;
#X connect 0 0 8 0;
#X connect 2 0 3 1;
#X connect 3 0 1 0;
#X connect 4 0 1 0;
#X connect 5 0 4 1;
#X connect 6 0 3 1;
#X connect 7 0 4 1;
#X connect 8 0 3 0;
#X connect 9 0 8 1;
#X connect 10 0 11 0;
#X connect 11 0 8 1;
#X connect 12 0 13 0;
#X connect 13 0 8 2;
#X connect 14 0 13 1;
