#N canvas 220 100 584 498 10;
#X obj 39 358 vcf~;
#X obj 199 28 inlet;
#X obj 39 448 outlet~;
#X obj 139 28 inlet;
#X text 92 12 Freq;
#X text 45 12 ~ in;
#X obj 39 28 inlet~;
#X obj 339 28 inlet;
#X text 199 12 Width;
#X obj 209 238 ssam~;
#X obj 209 268 /;
#X obj 89 28 inlet;
#X text 131 12 Amp (dB);
#X text 333 12 Line ms;
#X obj 89 98 rr~;
#X obj 89 68 vlinesc~;
#X obj 259 28 inlet~;
#X text 259 12 Freq+~;
#X obj 39 418 tline~;
#X obj 209 328 linesc;
#X obj 109 178 + 100;
#X obj 109 208 dbtorms;
#X obj 389 28 inlet;
#X text 400 12 Q+;
#X obj 389 58 * 1;
#X obj 429 28 inlet;
#X text 434 12 Amp*;
#X obj 109 238 ttbf 1;
#X obj 209 298 ptbf;
#X text 391 117 vcf for formant_filter~;
#X connect 0 0 18 0;
#X connect 1 0 10 1;
#X connect 3 0 20 0;
#X connect 6 0 0 0;
#X connect 7 0 15 1;
#X connect 7 0 19 1;
#X connect 7 0 18 2;
#X connect 9 0 10 0;
#X connect 10 0 28 0;
#X connect 11 0 15 0;
#X connect 14 0 0 1;
#X connect 14 0 9 0;
#X connect 15 0 14 0;
#X connect 16 0 14 0;
#X connect 18 0 2 0;
#X connect 19 0 0 2;
#X connect 20 0 21 0;
#X connect 21 0 27 0;
#X connect 22 0 24 0;
#X connect 24 0 28 1;
#X connect 25 0 27 1;
#X connect 27 0 18 1;
#X connect 28 0 19 0;
