#N canvas 529 118 825 271 10;
#X obj 37 7 inlet~;
#X obj 37 157 outlet~;
#X obj 87 37 r \$1_dry;
#X obj 177 37 r \$1_wet;
#X obj 277 37 r \$1_roomsize;
#X obj 87 7 inlet~;
#X obj 97 157 outlet~;
#X obj 407 37 r \$1_damping;
#X obj 37 127 vverb~ 0 0 0 0;
#X obj 537 37 r \$1_preamp;
#X connect 0 0 8 0;
#X connect 2 0 8 2;
#X connect 3 0 8 3;
#X connect 4 0 8 4;
#X connect 5 0 8 1;
#X connect 7 0 8 5;
#X connect 8 0 1 0;
#X connect 8 1 6 0;
#X connect 9 0 8 6;
