#N canvas 467 154 743 475 10;
#X obj 240 300 r save_trig;
#X obj 280 0 r load_send;
#X obj 240 400 s save_send;
#X obj 350 300 r \$1_save;
#X obj 350 400 s \$1_save_send;
#X obj 360 0 r \$1_load_send;
#X obj 280 30 route \$1;
#X obj 280 60 route \$2;
#X obj 240 370 list2p \$1 \$2;
#X obj 350 370 listp \$2;
#X obj 130 400 s \$1_\$2;
#X obj 30 0 r \$1_\$2_r;
#X obj 201 120 nbx 7 20 -1e+037 1e+037 0 1 empty empty empty 0 -8 0
11 -262144 -1 -1 27 256;
#X obj 80 400 outlet;
#X text 372 160 \$1 parent name;
#X text 372 180 \$2 name;
#X obj 100 0 inlet;
#X obj 101 120 nbx 7 20 -1e+037 1e+037 0 1 empty empty empty 0 -8 0
11 -262144 -1 -1 0.0385695 256;
#X obj 130 240 listp set;
#X obj 130 180 beat_to_hz;
#X obj 130 210 ftom;
#X obj 230 180 mtof;
#X obj 230 210 hz_to_beat;
#X obj 240 340 f;
#X obj 350 340 f;
#X obj 100 300 f;
#X obj 130 300 rr;
#X obj 110 30 lb \$3;
#X obj 210 30 lb \$4;
#X obj 200 0 inlet;
#X obj 190 400 outlet;
#X text 121 140 beat;
#X text 171 140 <->;
#X text 221 140 note;
#X text 311 100 beat <-> note - Controls and outputs an amount in both
beats (quarter notes) and the converted midi note value. Requires a
lower block size for note values (see [block~] or add a [block~ 32]
to window using this);
#X text 372 200 \$3 default value of beat;
#X text 372 220 \$4 default value of note;
#X text 101 -15 beat;
#X text 201 -15 note;
#X text 81 415 beat;
#X text 191 415 note;
#X connect 0 0 23 0;
#X connect 1 0 6 0;
#X connect 3 0 24 0;
#X connect 5 0 7 0;
#X connect 6 0 7 0;
#X connect 7 0 17 0;
#X connect 8 0 2 0;
#X connect 9 0 4 0;
#X connect 11 0 17 0;
#X connect 12 0 21 0;
#X connect 16 0 17 0;
#X connect 17 0 19 0;
#X connect 17 0 25 0;
#X connect 17 0 26 0;
#X connect 18 0 12 0;
#X connect 19 0 20 0;
#X connect 20 0 18 0;
#X connect 20 0 30 0;
#X connect 21 0 22 0;
#X connect 22 0 17 0;
#X connect 22 0 30 0;
#X connect 23 0 8 0;
#X connect 24 0 9 0;
#X connect 25 0 23 1;
#X connect 25 0 24 1;
#X connect 26 0 10 0;
#X connect 26 0 13 0;
#X connect 27 0 17 0;
#X connect 28 0 12 0;
#X connect 29 0 12 0;
#X coords 0 -1 1 1 190 60 1 100 100;
