#N canvas 591 154 619 367 10;
#X obj 103 120 hsl 120 20 0 1 0 0 empty empty empty 0 -9 0 10 -262144
-1 -192512 1968 1;
#X obj 170 200 r save_trig;
#X obj 190 -10 r load_send;
#X obj 170 300 s save_send;
#X obj 280 200 r \$1_save;
#X obj 280 300 s \$1_save_send;
#X obj 270 -10 r \$1_load_send;
#X obj 190 20 route \$1;
#X obj 190 50 route \$2;
#X obj 170 270 list2p \$1 \$2;
#X obj 280 270 listp \$2;
#X obj 100 300 s \$1_\$2;
#X obj 100 -10 r \$1_\$2_r;
#X obj 111 140 nbx 7 20 -1e+037 1e+037 0 1 empty empty empty 0 -8 0
11 -262144 -1 -1 1 256;
#X obj 50 200 ttbf;
#X obj 100 80 unpack;
#X obj 90 200 packtbf;
#X obj 50 300 outlet;
#X obj 170 240 list;
#X obj 280 240 list;
#X obj 10 -10 lb \$4;
#X obj 50 20 lb \$3 1;
#X text 382 105 \$1 parent name;
#X text 382 125 \$2 name;
#X text 251 85 hsl x nbx = multiply an hsl and nbx value together;
#X obj 90 230 s \$1_\$2_pack;
#X text 382 145 \$3 default value of number box;
#X text 382 165 \$4 default value of slider;
#X text 101 145 x;
#X obj 50 -10 inlet;
#X connect 0 0 14 0;
#X connect 0 0 16 0;
#X connect 1 0 18 0;
#X connect 2 0 7 0;
#X connect 4 0 19 0;
#X connect 6 0 8 0;
#X connect 7 0 8 0;
#X connect 8 0 15 0;
#X connect 9 0 3 0;
#X connect 10 0 5 0;
#X connect 12 0 15 0;
#X connect 13 0 16 1;
#X connect 13 0 14 1;
#X connect 14 0 11 0;
#X connect 14 0 17 0;
#X connect 15 0 0 0;
#X connect 15 1 13 0;
#X connect 16 0 18 1;
#X connect 16 0 19 1;
#X connect 16 0 25 0;
#X connect 18 0 9 0;
#X connect 19 0 10 0;
#X connect 20 0 0 0;
#X connect 21 0 13 0;
#X connect 29 0 0 0;
#X coords 0 -1 1 1 130 60 1 100 100;
