#N canvas 139 43 1056 594 10;
#X obj -190 255 list tosymbol;
#X obj -150 155 list prepend set;
#X obj -150 177 list trim;
#X obj -150 133 list fromsymbol;
#X symbolatom 100 120 9 0 0 0 - - -, f 9;
#X obj 90 240 r save_trig;
#X obj 110 -50 r load_send;
#X obj 90 390 s save_send;
#X text 222 105 \$1 parent name;
#X obj 210 240 r \$1_save;
#X obj -10 220 rr;
#X obj 210 390 s \$1_save_send;
#X obj 200 -50 r \$1_load_send;
#X obj 110 -20 route \$1;
#X obj 110 10 route \$2;
#X text 222 125 \$2 name;
#X obj 90 360 list2p \$1 \$2;
#X obj 210 360 listp \$2;
#X obj 20 390 s \$1_\$2;
#X obj 10 10 r \$1_\$2_r;
#X text 222 145 \$3 default value;
#X obj -40 390 outlet;
#X obj 90 300 list;
#X obj 210 300 list;
#X obj 210 330 list fromsymbol;
#X obj -40 360 rr;
#X obj -190 111 t b a;
#N canvas 665 208 450 300 msgbx 0;
#X obj 43 13 inlet;
#X obj 43 73 outlet;
#X msg 43 43 102 117 99 107;
#X connect 0 0 2 0;
#X connect 2 0 1 0;
#X restore -190 221 pd msgbx;
#X obj -150 287 print \$1_\$2_tosymbol;
#X obj 110 40 t b a;
#X obj 90 270 b;
#X obj 150 70 list;
#X obj 180 180 list tosymbol;
#X obj 270 40 list tosymbol;
#X obj 120 440 list tosymbol;
#X obj -10 470 print \$1_postl2pp;
#X obj 120 470 print \$1_prel2pp;
#X obj 270 70 print \$1_loadts;
#X obj 160 40 print \$1_load;
#X obj 70 210 print \$1_\$2_rr;
#X obj 180 210 print \$1_\$2_rrts;
#X connect 0 0 28 0;
#X connect 0 0 4 0;
#X connect 1 0 2 0;
#X connect 2 0 27 0;
#X connect 3 0 1 0;
#X connect 3 0 10 0;
#X connect 4 0 3 0;
#X connect 4 0 25 0;
#X connect 5 0 30 0;
#X connect 6 0 13 0;
#X connect 9 0 23 0;
#X connect 10 0 22 1;
#X connect 10 0 23 1;
#X connect 10 0 32 0;
#X connect 10 0 39 0;
#X connect 12 0 14 0;
#X connect 13 0 14 0;
#X connect 14 0 29 0;
#X connect 14 0 33 0;
#X connect 14 0 38 0;
#X connect 16 0 7 0;
#X connect 16 0 35 0;
#X connect 17 0 11 0;
#X connect 19 0 4 0;
#X connect 22 0 16 0;
#X connect 22 0 34 0;
#X connect 23 0 24 0;
#X connect 24 0 17 0;
#X connect 25 0 21 0;
#X connect 25 0 18 0;
#X connect 26 0 27 0;
#X connect 26 1 3 0;
#X connect 27 0 0 0;
#X connect 29 0 27 0;
#X connect 29 1 31 0;
#X connect 30 0 22 0;
#X connect 31 0 1 0;
#X connect 31 0 22 1;
#X connect 32 0 40 0;
#X connect 33 0 37 0;
#X connect 34 0 36 0;
#X coords 0 -1 1 1 60 60 1 100 100;
