#N canvas 114 122 1056 507 10;
#X obj -190 81 openpanel;
#X obj -190 255 list tosymbol;
#X obj -150 155 list prepend set;
#X obj -150 177 list trim;
#X obj -150 133 list fromsymbol;
#X symbolatom -186 420 80 0 0 0 - - -;
#X obj 90 240 r save_trig;
#X obj 110 -50 r load_send;
#X obj 90 390 s save_send;
#X text 222 105 \$1 parent name;
#X obj 210 240 r \$1_save;
#X obj -10 220 rr;
#X obj 210 390 s \$1_save_send;
#X obj 200 -50 r \$1_load_send;
#X obj 110 -20 route \$1;
#X obj 110 10 route \$2;
#X text 222 125 \$2 name;
#X obj 90 360 list2p \$1 \$2;
#X obj 210 360 listp \$2;
#X obj 20 390 s \$1_\$2;
#X obj 10 10 r \$1_\$2_r;
#X text 222 145 \$3 default value;
#X obj -40 390 outlet;
#X obj 100 129 bng 30 250 50 0 empty empty empty 17 7 0 10 -262144
-1 -1;
#X text 101 116 Load;
#X obj 90 300 list;
#X obj 210 300 list;
#X obj 210 330 list fromsymbol;
#X obj -40 360 rr;
#X obj -190 111 t b a;
#N canvas 665 208 450 300 msgbx 0;
#X obj 43 13 inlet;
#X obj 43 73 outlet;
#X msg 43 43 67 58 47 85 115 101 114 115 47 100 69 69 106 47 68 101
115 107 116 111 112 47 100 106 39 115 32 102 105 108 101 115 47 112
117 114 101 100 97 116 97 47 117 114 47 119 115 102 103 95 111 117
116 49 98 105 108 108 50 46 119 97 118;
#X connect 0 0 2 0;
#X connect 2 0 1 0;
#X restore -190 221 pd msgbx;
#X obj 110 40 t b a;
#X obj 90 270 b;
#X obj 150 70 list;
#X connect 0 0 29 0;
#X connect 1 0 5 0;
#X connect 2 0 3 0;
#X connect 3 0 30 0;
#X connect 4 0 2 0;
#X connect 4 0 11 0;
#X connect 5 0 4 0;
#X connect 5 0 28 0;
#X connect 6 0 32 0;
#X connect 7 0 14 0;
#X connect 10 0 26 0;
#X connect 11 0 25 1;
#X connect 11 0 26 1;
#X connect 13 0 15 0;
#X connect 14 0 15 0;
#X connect 15 0 31 0;
#X connect 17 0 8 0;
#X connect 18 0 12 0;
#X connect 23 0 0 0;
#X connect 25 0 17 0;
#X connect 26 0 27 0;
#X connect 27 0 18 0;
#X connect 28 0 22 0;
#X connect 28 0 19 0;
#X connect 29 0 30 0;
#X connect 29 1 4 0;
#X connect 30 0 1 0;
#X connect 31 0 30 0;
#X connect 31 1 33 0;
#X connect 32 0 25 0;
#X connect 33 0 2 0;
#X connect 33 0 25 1;
#X coords 0 -1 1 1 60 60 1 100 100;
