#N canvas 254 118 981 481 10;
#X obj 87 277 / 127;
#X text 287 78 \$1 parent;
#X text 287 98 \$2 voice;
#X obj 57 177 s \$1_\$2_nv;
#X obj 57 37 inlet;
#X obj 157 97 stripnote;
#X obj 57 67 t a a a;
#X obj 267 307 f;
#X obj 287 277 r \$1_macro;
#X obj 177 367 s \$1_\$2_mod3;
#X obj 267 367 s \$1_\$2_mod4;
#X text 367 118 3 Random 0-1;
#X text 367 178 6 LFO;
#X obj 567 367 s \$1_\$2_mod6;
#X text 574 21 Rate;
#X obj 77 107 stripnote;
#X obj 207 277 b;
#X obj 47 337 / 127;
#X obj 47 367 s \$1_\$2_mod1;
#X obj 87 337 s \$1_\$2_mod2;
#X obj 367 367 s \$1_\$2_mod5;
#X obj 367 337 ssam~;
#X obj 177 307 rrandom;
#X text 367 98 2 Velocity;
#X obj 367 307 ar_ppa_vv_mqu~ \$1 mod_env \$2;
#X text 367 78 1 Pitch midi;
#X text 367 138 4 Macro;
#X text 367 158 5 Envelope;
#X obj 567 337 change -1;
#X obj 567 307 lfou_vv_mhx \$1 lfo \$2;
#X connect 0 0 19 0;
#X connect 4 0 6 0;
#X connect 5 0 17 0;
#X connect 5 1 0 0;
#X connect 6 0 3 0;
#X connect 6 1 15 0;
#X connect 6 2 5 0;
#X connect 7 0 10 0;
#X connect 8 0 7 1;
#X connect 15 0 16 0;
#X connect 15 1 22 0;
#X connect 16 0 7 0;
#X connect 17 0 18 0;
#X connect 21 0 20 0;
#X connect 22 0 9 0;
#X connect 24 0 21 0;
#X connect 28 0 13 0;
#X connect 29 0 28 0;
