#N canvas 254 118 981 481 10;
#X obj 87 277 / 127;
#X obj 177 277 b;
#X text 397 78 \$1 parent;
#X text 397 98 \$2 voice;
#X obj 47 177 s \$1_\$2_nv;
#X obj 57 37 inlet;
#X obj 177 337 / 10000;
#X obj 177 307 random 10000;
#X obj 157 97 stripnote;
#X obj 57 67 t a a a;
#X obj 267 307 f;
#X obj 287 277 r \$1_macro;
#X obj 177 367 s \$1_\$2_mod3;
#X obj 267 367 s \$1_\$2_mod4;
#X text 477 78 1 Velocity;
#X text 477 118 3 Random 0-1;
#X text 477 138 4 Macro 0;
#X obj 577 407 change;
#X text 477 98 2 Pitch midi;
#X text 574 21 Rate;
#X text 724 51 Reset;
#X obj 577 357 * 1;
#X text 644 211 Pow;
#X obj 577 257 moses;
#X obj 577 287 pow;
#X obj 577 317 * -1;
#X obj 617 287 pow;
#X obj 637 257 rr;
#X obj 577 227 ptbf;
#X obj 727 157 unip_to_usin;
#X obj 727 187 *;
#X obj 727 67 r \$1_lfo_note_reset;
#X obj 647 97 spigot;
#X obj 577 37 vv_mhx4 \$1 lfo_rate \$2;
#X obj 817 157 vv_mhx4 \$1 lfo_sin \$2;
#X obj 587 167 vv_mhx4 \$1 lfo_saw \$2;
#X obj 577 197 *;
#X obj 637 227 vv_mhx4 \$1 lfo_pow \$2;
#X obj 647 67 r \$1_\$2_nv;
#X obj 77 107 stripnote;
#X obj 207 277 b;
#X obj 47 337 / 127;
#X obj 47 367 s \$1_\$2_mod1;
#X obj 87 337 s \$1_\$2_mod2;
#X obj 577 127 rr;
#X obj 577 97 rr;
#X obj 577 67 b2u_r;
#X obj 727 97 sel 0;
#X obj 727 118 b;
#X text 477 158 5 LFO;
#X obj 577 437 s \$1_\$2_mod5;
#X connect 0 0 43 0;
#X connect 1 0 7 0;
#X connect 5 0 9 0;
#X connect 6 0 12 0;
#X connect 7 0 6 0;
#X connect 8 0 41 0;
#X connect 8 1 0 0;
#X connect 9 0 4 0;
#X connect 9 1 39 0;
#X connect 9 2 8 0;
#X connect 10 0 13 0;
#X connect 11 0 10 1;
#X connect 17 0 50 0;
#X connect 21 0 17 0;
#X connect 23 0 24 0;
#X connect 23 1 26 0;
#X connect 24 0 25 0;
#X connect 25 0 21 0;
#X connect 26 0 21 0;
#X connect 27 0 24 1;
#X connect 27 0 26 1;
#X connect 28 0 23 0;
#X connect 29 0 30 0;
#X connect 30 0 28 1;
#X connect 31 0 32 1;
#X connect 31 0 47 0;
#X connect 32 0 46 1;
#X connect 33 0 46 0;
#X connect 34 0 30 1;
#X connect 35 0 36 1;
#X connect 36 0 28 0;
#X connect 37 0 27 0;
#X connect 38 0 32 0;
#X connect 39 0 40 0;
#X connect 39 1 1 0;
#X connect 40 0 10 0;
#X connect 41 0 42 0;
#X connect 44 0 29 0;
#X connect 44 0 36 0;
#X connect 45 0 44 0;
#X connect 46 0 45 0;
#X connect 47 0 48 0;
#X connect 48 0 46 1;
