#N canvas 0 50 555 441 10;
#X obj 97 277 / 127;
#X obj 187 277 b;
#X text 287 78 \$1 parent;
#X text 287 98 \$2 voice;
#X obj 57 177 s \$1_\$2_nv;
#X obj 57 37 inlet;
#X obj 187 337 / 10000;
#X obj 187 307 random 10000;
#X obj 167 97 stripnote;
#X obj 57 67 t a a a;
#X obj 277 307 f;
#X obj 297 277 r \$1_macro;
#X obj 187 367 s \$1_\$2_mod3;
#X obj 277 367 s \$1_\$2_mod4;
#X text 367 118 3 Random 0-1;
#X text 367 138 4 Macro 0;
#X obj 87 107 stripnote;
#X obj 217 277 b;
#X obj 57 337 / 127;
#X obj 57 367 s \$1_\$2_mod1;
#X obj 97 337 s \$1_\$2_mod2;
#X text 367 78 1 Pitch midi;
#X text 367 98 2 Velocity;
#X connect 0 0 20 0;
#X connect 1 0 7 0;
#X connect 5 0 9 0;
#X connect 6 0 12 0;
#X connect 7 0 6 0;
#X connect 8 0 18 0;
#X connect 8 1 0 0;
#X connect 9 0 4 0;
#X connect 9 1 16 0;
#X connect 9 2 8 0;
#X connect 10 0 13 0;
#X connect 11 0 10 1;
#X connect 16 0 17 0;
#X connect 16 1 1 0;
#X connect 17 0 10 0;
#X connect 18 0 19 0;
