#N canvas 412 208 484 366 10;
#X obj 180 210 f;
#X obj 180 170 r save_trig;
#X obj 200 -10 r load_send;
#X obj 180 270 s save_send;
#X text 312 85 \$1 parent name;
#X obj 290 170 r \$1_save;
#X obj 110 170 rr;
#X obj 290 210 f;
#X obj 290 270 s \$1_save_send;
#X obj 280 -10 r \$1_load_send;
#X obj 200 20 route \$1;
#X obj 200 50 route \$2;
#X text 312 105 \$2 name;
#X obj 180 240 list2p \$1 \$2;
#X obj 290 240 listp \$2;
#X obj 110 270 s \$1_\$2;
#X obj 110 80 rr;
#X obj 110 -10 r \$1_\$2_r;
#X text 312 125 \$3 default value;
#X obj 60 -10 lb \$3;
#X obj 100 120 nbx 7 20 -1e+037 1e+037 0 0 empty empty empty 0 -8 0
11 -262144 -1 -262144 0 256;
#X obj 60 270 outlet;
#X obj 10 -10 inlet;
#X connect 0 0 13 0;
#X connect 1 0 0 0;
#X connect 2 0 10 0;
#X connect 5 0 7 0;
#X connect 6 0 0 1;
#X connect 6 0 7 1;
#X connect 6 0 15 0;
#X connect 6 0 21 0;
#X connect 7 0 14 0;
#X connect 9 0 11 0;
#X connect 10 0 11 0;
#X connect 11 0 16 0;
#X connect 13 0 3 0;
#X connect 14 0 8 0;
#X connect 16 0 20 0;
#X connect 17 0 16 0;
#X connect 19 0 16 0;
#X connect 20 0 6 0;
#X connect 22 0 20 0;
#X coords 0 -1 1 1 80 40 1 100 100;
