#N canvas 380 134 480 480 10;
#X obj 180 300 r save_trig;
#X obj 200 -20 r load_send;
#X obj 180 400 s save_send;
#X text 342 85 \$1 parent name;
#X obj 350 300 r \$1_save;
#X obj 350 400 s \$1_save_send;
#X obj 280 -20 r \$1_load_send;
#X obj 200 10 route \$1;
#X obj 200 40 route \$2;
#X text 342 105 \$2 name;
#X obj 180 370 list2p \$1 \$2;
#X obj 350 370 listp \$2;
#X obj 20 250 s \$1_\$2;
#X obj 170 70 rr;
#X obj 110 -20 r \$1_\$2_r;
#X text 342 125 \$3 default value;
#X obj 180 340 list;
#X obj 350 340 list;
#X obj 100 119 nbx 7 20 -1e+037 1e+037 0 0 empty empty empty 0 -8 0
11 -262144 -1 -262144 0 256;
#X obj 110 139 nbx 7 20 -1e+037 1e+037 0 0 empty empty empty 0 -8 0
11 -203890 -1 -262144 0 256;
#X obj 190 139 nbx 7 20 -1e+037 1e+037 0 0 empty empty empty 0 -8 0
11 -145636 -1 -262144 0 256;
#X obj 20 310 s \$1_\$2_mod1;
#X obj 20 340 s \$1_\$2_mod2;
#X obj 40 -20 lb \$3;
#X obj 260 300 packtbf3;
#X obj 10 70 unpack f f f;
#X connect 0 0 16 0;
#X connect 1 0 7 0;
#X connect 4 0 17 0;
#X connect 6 0 8 0;
#X connect 7 0 8 0;
#X connect 8 0 25 0;
#X connect 10 0 2 0;
#X connect 11 0 5 0;
#X connect 13 0 18 0;
#X connect 14 0 13 0;
#X connect 16 0 10 0;
#X connect 17 0 11 0;
#X connect 18 0 12 0;
#X connect 18 0 24 0;
#X connect 19 0 21 0;
#X connect 19 0 24 1;
#X connect 20 0 22 0;
#X connect 20 0 24 2;
#X connect 23 0 13 0;
#X connect 24 0 16 1;
#X connect 24 0 17 1;
#X connect 25 0 18 0;
#X connect 25 1 19 0;
#X connect 25 2 20 0;
#X coords 0 -1 1 1 170 60 1 100 100;
