#N canvas 662 90 450 300 10;
#X obj 201 74 r global_load;
#X obj 41 74 r save_send;
#X obj 41 134 list prepend add;
#X obj 41 164 list trim;
#X obj 41 104 list prepend load_send;
#X obj 41 194 outlet;
#X obj 201 104 b;
#X obj 291 74 r global_save;
#X obj 291 104 t b b;
#X msg 318 134 set \, addsemi;
#X obj 291 164 s save_trig;
#X text 350 116 Clear msgbox;
#X text 20 36 Save/Load control;
#X connect 0 0 6 0;
#X connect 1 0 4 0;
#X connect 2 0 3 0;
#X connect 3 0 5 0;
#X connect 4 0 2 0;
#X connect 6 0 5 0;
#X connect 7 0 8 0;
#X connect 8 0 10 0;
#X connect 8 1 9 0;
#X connect 9 0 5 0;
