#N canvas 903 51 456 300 10;
#X obj 81 234 s save_send;
#X obj 181 84 r load_send;
#X obj 181 144 rr;
#X obj 181 114 route \$1;
#X obj 81 204 list prepend \$1;
#X obj 181 264 outlet;
#X obj 171 54 inlet;
#X obj 81 84 r save_trig;
#X obj 71 264 s \$1_save_send;
#X obj 81 174 list store;
#X connect 1 0 3 0;
#X connect 2 0 5 0;
#X connect 2 0 9 1;
#X connect 3 0 2 0;
#X connect 4 0 0 0;
#X connect 4 0 8 0;
#X connect 6 0 9 1;
#X connect 7 0 9 0;
#X connect 9 0 4 0;
