#N canvas 682 81 518 528 10;
#X obj 170 240 r save_trig;
#X obj 200 -50 r load_send;
#X obj 170 390 s save_send;
#X text 312 85 \$1 parent name;
#X obj 290 240 r \$1_save;
#X obj 100 240 rr;
#X obj 290 390 s \$1_save_send;
#X obj 290 -50 r \$1_load_send;
#X obj 200 -20 route \$1;
#X obj 200 10 route \$2;
#X text 312 105 \$2 name;
#X obj 170 360 list2p \$1 \$2;
#X obj 290 360 listp \$2;
#X obj 100 390 s \$1_\$2;
#X obj 40 70 r \$1_\$2_r;
#X text 312 125 \$3 default value;
#X obj 50 390 outlet;
#X symbolatom 101 130 17 0 0 0 - - -, f 17;
#X obj 228 129 bng 30 250 50 0 empty empty empty 17 7 0 10 -262144
-1 -1;
#X obj 190 190 openpanel;
#X obj 170 300 list;
#X obj 290 300 list;
#X obj 120 70 listp set;
#X obj 280 40 list tosymbol;
#X obj 170 330 list fromsymbol;
#X obj 290 330 list fromsymbol;
#X text 225 115 Load;
#X connect 0 0 20 0;
#X connect 1 0 8 0;
#X connect 4 0 21 0;
#X connect 5 0 13 0;
#X connect 5 0 16 0;
#X connect 5 0 20 1;
#X connect 5 0 21 1;
#X connect 7 0 9 0;
#X connect 8 0 9 0;
#X connect 9 0 23 0;
#X connect 9 0 5 0;
#X connect 11 0 2 0;
#X connect 12 0 6 0;
#X connect 14 0 17 0;
#X connect 17 0 5 0;
#X connect 18 0 19 0;
#X connect 19 0 17 0;
#X connect 20 0 24 0;
#X connect 21 0 25 0;
#X connect 22 0 17 0;
#X connect 23 0 22 0;
#X connect 24 0 11 0;
#X connect 25 0 12 0;
#X coords 0 -1 1 1 160 60 1 100 100;
