#N canvas 114 122 1056 507 10;
#X obj -190 81 openpanel;
#X obj -190 255 list tosymbol;
#X obj -150 155 list prepend set;
#X obj -150 177 list trim;
#X obj -150 133 list fromsymbol;
#X symbolatom 101 122 15 0 0 0 - - -, f 15;
#X obj 90 240 r save_trig;
#X obj 110 -50 r load_send;
#X obj 90 390 s save_send;
#X text 332 175 \$1 parent name;
#X obj 210 240 r \$1_save;
#X obj -10 220 rr;
#X obj 210 390 s \$1_save_send;
#X obj 200 -50 r \$1_load_send;
#X obj 110 -20 route \$1;
#X obj 110 10 route \$2;
#X text 332 195 \$2 name;
#X obj 90 360 list2p \$1 \$2;
#X obj 210 360 listp \$2;
#X obj 20 390 s \$1_\$2;
#X text 332 215 \$3 default value;
#X obj -40 390 outlet;
#X obj -190 29 bng 30 250 50 0 empty empty empty 17 7 0 10 -262144
-1 -1;
#X text -189 16 Load;
#X obj 90 300 list;
#X obj 210 300 list;
#X obj 210 330 list fromsymbol;
#X obj -40 360 rr;
#X obj -190 111 t b a;
#N canvas 665 208 450 300 msgbx 0;
#X obj 43 13 inlet;
#X obj 43 73 outlet;
#X msg 43 43 115 105 110 116 97 110 104 95 99 118 95 97 114 109 126
;
#X connect 0 0 2 0;
#X connect 2 0 1 0;
#X restore -190 221 pd msgbx;
#X obj -150 30 print \$1_\$2_panel;
#X obj -150 287 print \$1_\$2_tosymbol;
#X obj 110 40 t b a;
#X obj 90 270 b;
#X obj 150 70 list;
#X obj 180 180 list tosymbol;
#X obj 270 40 list tosymbol;
#X obj 120 440 list tosymbol;
#X obj -10 470 print \$1_postl2pp;
#X obj 120 470 print \$1_prel2pp;
#X obj 270 70 print \$1_loadts;
#X obj 160 40 print \$1_load;
#X obj 70 210 print \$1_\$2_rr;
#X obj 180 210 print \$1_\$2_rrts;
#X obj 10 10 loadbang;
#X obj 10 40 symbol \$3;
#X connect 0 0 28 0;
#X connect 1 0 31 0;
#X connect 1 0 5 0;
#X connect 2 0 3 0;
#X connect 3 0 29 0;
#X connect 4 0 2 0;
#X connect 4 0 11 0;
#X connect 5 0 4 0;
#X connect 5 0 27 0;
#X connect 6 0 33 0;
#X connect 7 0 14 0;
#X connect 10 0 25 0;
#X connect 11 0 24 1;
#X connect 11 0 25 1;
#X connect 11 0 35 0;
#X connect 11 0 42 0;
#X connect 13 0 15 0;
#X connect 14 0 15 0;
#X connect 15 0 32 0;
#X connect 15 0 36 0;
#X connect 15 0 41 0;
#X connect 17 0 8 0;
#X connect 17 0 38 0;
#X connect 18 0 12 0;
#X connect 22 0 0 0;
#X connect 24 0 17 0;
#X connect 24 0 37 0;
#X connect 25 0 26 0;
#X connect 26 0 18 0;
#X connect 27 0 21 0;
#X connect 27 0 19 0;
#X connect 28 0 29 0;
#X connect 28 1 4 0;
#X connect 28 1 30 0;
#X connect 29 0 1 0;
#X connect 32 0 29 0;
#X connect 32 1 34 0;
#X connect 33 0 24 0;
#X connect 34 0 2 0;
#X connect 34 0 24 1;
#X connect 35 0 43 0;
#X connect 36 0 40 0;
#X connect 37 0 39 0;
#X connect 44 0 45 0;
#X connect 45 0 5 0;
#X coords 0 -1 1 1 110 40 1 100 100;
