#N canvas 604 88 556 366 10;
#X obj 170 200 f;
#X obj 170 170 r save_trig;
#X obj 190 -10 r load_send;
#X obj 170 260 s save_send;
#X text 302 85 \$1 parent name;
#X obj 280 170 r \$1_save;
#X obj 100 170 rr;
#X obj 280 200 f;
#X obj 280 260 s \$1_save_send;
#X obj 270 -10 r \$1_load_send;
#X obj 190 20 route \$1;
#X obj 190 50 route \$2;
#X text 302 105 \$2 name;
#X obj 170 230 list2p \$1 \$2;
#X obj 280 230 listp \$2;
#X obj 100 260 s \$1_\$2;
#X obj 100 80 rr;
#X obj 100 20 r \$1_\$2_r;
#X text 302 125 \$3 default value;
#X obj 80 -10 lb \$3;
#X obj 100 120 tgl 30 1 empty empty \$2 1 -7 0 10 -262144 -1 -1 0 1
;
#X obj 20 -10 inlet;
#X obj 20 200 outlet;
#X connect 0 0 13 0;
#X connect 1 0 0 0;
#X connect 2 0 10 0;
#X connect 5 0 7 0;
#X connect 6 0 0 1;
#X connect 6 0 7 1;
#X connect 6 0 15 0;
#X connect 6 0 22 0;
#X connect 7 0 14 0;
#X connect 9 0 11 0;
#X connect 10 0 11 0;
#X connect 11 0 16 0;
#X connect 13 0 3 0;
#X connect 14 0 8 0;
#X connect 16 0 20 0;
#X connect 17 0 16 0;
#X connect 19 0 16 0;
#X connect 20 0 6 0;
#X connect 21 0 16 0;
#X coords 0 -1 1 1 30 50 2 100 100;
