#N canvas 604 88 556 366 10;
#X text 302 85 \$1 parent name;
#X obj 100 170 rr;
#X text 302 105 \$2 name;
#X obj 100 80 rr;
#X obj 100 120 tgl 30 0 empty empty empty 17 7 0 10 -262144 -1 -1 1
1;
#X obj 20 -10 inlet;
#X obj 40 270 outlet;
#X obj 100 270 s \$1_\$2_r;
#X obj 100 20 r \$1_\$2;
#X msg 100 50 set \$1;
#X text 172 55 Makes a tgl_vvc whose value is duplicated by the object
of the same name and can send values like the original;
#X connect 1 0 6 0;
#X connect 1 0 7 0;
#X connect 3 0 4 0;
#X connect 4 0 1 0;
#X connect 5 0 3 0;
#X connect 8 0 9 0;
#X connect 9 0 3 0;
#X coords 0 -1 1 1 30 50 1 100 100;
