#N canvas 506 64 598 456 10;
#X obj 170 290 r save_trig;
#X obj 190 -10 r load_send;
#X obj 170 390 s save_send;
#X text 302 85 \$1 parent name;
#X obj 280 290 r \$1_save;
#X obj 280 390 s \$1_save_send;
#X obj 270 -10 r \$1_load_send;
#X obj 190 20 route \$1;
#X obj 190 50 route \$2;
#X text 302 105 \$2 name;
#X obj 170 360 list2p \$1 \$2;
#X obj 280 360 listp \$2;
#X obj 100 390 s \$1_\$2;
#X obj 100 -10 r \$1_\$2_r;
#X text 302 125 \$3 default value;
#X obj 10 -10 lb \$3;
#X obj 100 230 nbx 5 20 -1e+037 1e+037 0 0 empty empty empty 0 -8 0
11 -262144 -1 -1 1 256;
#X obj 50 290 ttbf;
#X obj 100 80 unpack;
#X obj 120 290 packtbf;
#X obj 50 390 outlet;
#X obj 50 -10 lb \$4 1;
#X obj 100 122 vsl 30 105 0 1 0 0 empty empty \$2 1 -9 0 10 -262144
-1 -1 0 1;
#X obj 170 330 list;
#X obj 280 330 list;
#X connect 0 0 23 0;
#X connect 1 0 7 0;
#X connect 4 0 24 0;
#X connect 6 0 8 0;
#X connect 7 0 8 0;
#X connect 8 0 18 0;
#X connect 10 0 2 0;
#X connect 11 0 5 0;
#X connect 13 0 18 0;
#X connect 15 0 22 0;
#X connect 16 0 19 1;
#X connect 16 0 17 1;
#X connect 17 0 12 0;
#X connect 17 0 20 0;
#X connect 18 0 22 0;
#X connect 18 1 16 0;
#X connect 19 0 23 1;
#X connect 19 0 24 1;
#X connect 21 0 16 0;
#X connect 22 0 17 0;
#X connect 22 0 19 0;
#X connect 23 0 10 0;
#X connect 24 0 11 0;
#X coords 0 -1 1 1 61 150 2 100 100;
