#N canvas 196 171 656 409 10;
#X obj 211 64 inlet;
#X obj 401 64 inlet;
#X text 213 49 Save;
#X text 403 49 Load;
#X obj 251 284 textfile;
#X msg 211 154 write \$1;
#X msg 511 154 read \$1;
#X msg 571 154 clear;
#X obj 211 124 t a b b;
#X msg 351 154 clear;
#X obj 401 124 t b b a b;
#X msg 451 154 rewind;
#X msg 401 154 bang;
#X obj 321 284 b;
#X obj 251 314 s \$1_load_send;
#X obj 101 154 r \$1_save_send;
#X obj 281 154 s \$1_save;
#X obj 101 184 listp add;
#X obj 101 94 r \$1_save_file;
#X obj 291 94 r \$1_load_file;
#X obj 188 200 listp write;
#X obj 401 94 openpanel;
#X obj 211 94 savepanel;
#X connect 0 0 22 0;
#X connect 1 0 21 0;
#X connect 4 0 13 0;
#X connect 4 0 14 0;
#X connect 6 0 4 0;
#X connect 7 0 4 0;
#X connect 8 0 5 0;
#X connect 8 0 20 0;
#X connect 8 1 16 0;
#X connect 8 2 9 0;
#X connect 9 0 4 0;
#X connect 10 0 12 0;
#X connect 10 1 11 0;
#X connect 10 2 6 0;
#X connect 10 3 7 0;
#X connect 11 0 4 0;
#X connect 12 0 4 0;
#X connect 13 0 4 0;
#X connect 15 0 17 0;
#X connect 17 0 4 0;
#X connect 18 0 8 0;
#X connect 19 0 10 0;
#X connect 20 0 4 0;
#X connect 21 0 10 0;
#X connect 22 0 8 0;
