#N canvas -8 -8 1280 677 10;
#X obj 160 2 r \$1_\$2;
#X obj 220 122 r \$1_\$3_mod2;
#X obj 220 2 r \$1_\$3_mod1;
#X obj 220 242 r \$1_\$3_mod3;
#X obj 260 32 r \$1_\$2_mod1;
#X obj 260 152 r \$1_\$2_mod2;
#X obj 260 272 r \$1_\$2_mod3;
#X obj 220 362 r \$1_\$3_mod4;
#X obj 260 392 r \$1_\$2_mod4;
#X obj 160 542 outlet;
#X obj 350 212 +;
#X obj 220 182 *;
#X obj 220 62 *;
#X obj 220 302 *;
#X obj 220 422 *;
#X obj 350 332 +;
#X obj 350 452 +;
#X obj 160 512 ptbf 0;
#X obj 350 482 rr;
#X text 457 58 \$1 parent;
#X text 457 78 \$2 name;
#X text 457 98 \$3 voice;
#X text 457 158 Modulation types are explained in Intro.pd [pd synth]
;
#X connect 0 0 17 0;
#X connect 1 0 11 0;
#X connect 2 0 12 0;
#X connect 3 0 13 0;
#X connect 4 0 12 1;
#X connect 5 0 11 1;
#X connect 6 0 13 1;
#X connect 7 0 14 0;
#X connect 8 0 14 1;
#X connect 10 0 15 1;
#X connect 11 0 10 0;
#X connect 12 0 10 1;
#X connect 13 0 15 0;
#X connect 14 0 16 0;
#X connect 15 0 16 1;
#X connect 16 0 18 0;
#X connect 17 0 9 0;
#X connect 18 0 17 1;
