#N canvas -8 -8 1280 677 10;
#X obj 160 2 r \$1_\$2;
#X text 687 58 \$1 parent;
#X text 687 78 \$2 name;
#X text 687 98 \$3 voice;
#X obj 220 122 r \$1_\$3_mod2;
#X obj 220 2 r \$1_\$3_mod1;
#X obj 220 242 r \$1_\$3_mod3;
#X obj 260 32 r \$1_\$2_mod1;
#X obj 260 152 r \$1_\$2_mod2;
#X obj 260 272 r \$1_\$2_mod3;
#X obj 220 362 r \$1_\$3_mod4;
#X obj 260 392 r \$1_\$2_mod4;
#X obj 470 362 r \$1_\$2_mod5;
#X obj 160 642 outlet;
#X obj 350 212 +;
#X obj 220 182 *;
#X obj 220 62 *;
#X obj 220 302 *;
#X obj 220 422 *;
#X obj 350 332 +;
#X obj 350 482 +;
#X obj 160 572 ptbf 0;
#X obj 430 392 *;
#X obj 430 332 r \$1_\$3_mod5;
#X obj 350 542 ptbf;
#X obj 430 422 change;
#X connect 0 0 21 0;
#X connect 4 0 15 0;
#X connect 5 0 16 0;
#X connect 6 0 17 0;
#X connect 7 0 16 1;
#X connect 8 0 15 1;
#X connect 9 0 17 1;
#X connect 10 0 18 0;
#X connect 11 0 18 1;
#X connect 12 0 22 1;
#X connect 14 0 19 1;
#X connect 15 0 14 0;
#X connect 16 0 14 1;
#X connect 17 0 19 0;
#X connect 18 0 20 0;
#X connect 19 0 20 1;
#X connect 20 0 24 0;
#X connect 21 0 13 0;
#X connect 22 0 25 0;
#X connect 23 0 22 0;
#X connect 24 0 21 1;
#X connect 25 0 24 1;
