#N canvas 156 37 831 613 10;
#X obj 60 32 r \$1_\$2;
#X text 357 88 \$1 parent;
#X text 357 108 \$2 name;
#X text 357 128 \$3 voice;
#X obj 120 152 r \$1_\$3_mod2;
#X obj 120 32 r \$1_\$3_mod1;
#X obj 120 272 r \$1_\$3_mod3;
#X obj 160 62 r \$1_\$2_mod1;
#X obj 160 182 r \$1_\$2_mod2;
#X obj 160 302 r \$1_\$2_mod3;
#X obj 120 392 r \$1_\$3_mod4;
#X obj 160 422 r \$1_\$2_mod4;
#X obj 370 392 r \$1_\$2_mod5;
#X obj 490 392 r \$1_\$2_mod6;
#X obj 60 572 outlet;
#X obj 250 242 +;
#X obj 120 212 *;
#X obj 120 92 *;
#X obj 120 332 *;
#X obj 120 452 *;
#X obj 250 362 +;
#X obj 250 482 +;
#X obj 60 542 ptbf 0;
#X obj 330 422 *;
#X obj 450 422 *;
#X obj 330 362 r \$1_\$3_mod5;
#X obj 450 362 r \$1_\$3_mod6;
#X obj 330 482 ptbf;
#X obj 250 512 ptbf;
#X obj 330 452 change;
#X obj 450 452 change;
#X text 357 188 Modulation types are explained in Intro.pd [pd synth]
;
#X connect 0 0 22 0;
#X connect 4 0 16 0;
#X connect 5 0 17 0;
#X connect 6 0 18 0;
#X connect 7 0 17 1;
#X connect 8 0 16 1;
#X connect 9 0 18 1;
#X connect 10 0 19 0;
#X connect 11 0 19 1;
#X connect 12 0 23 1;
#X connect 13 0 24 1;
#X connect 15 0 20 1;
#X connect 16 0 15 0;
#X connect 17 0 15 1;
#X connect 18 0 20 0;
#X connect 19 0 21 0;
#X connect 20 0 21 1;
#X connect 21 0 28 0;
#X connect 22 0 14 0;
#X connect 23 0 29 0;
#X connect 24 0 30 0;
#X connect 25 0 23 0;
#X connect 26 0 24 0;
#X connect 27 0 28 1;
#X connect 28 0 22 1;
#X connect 29 0 27 0;
#X connect 30 0 27 1;
