#N canvas 231 116 729 506 10;
#X obj 50 32 r \$1_\$2;
#X text 347 88 \$1 parent;
#X text 347 108 \$2 name;
#X text 347 128 \$3 voice;
#X obj 110 152 r \$1_\$3_mod2;
#X obj 110 32 r \$1_\$3_mod1;
#X obj 110 272 r \$1_\$3_mod3;
#X obj 150 62 r \$1_\$2_mod1;
#X obj 150 182 r \$1_\$2_mod2;
#X obj 150 302 r \$1_\$2_mod3;
#X obj 240 242 +;
#X obj 110 212 *;
#X obj 110 92 *;
#X obj 110 332 *;
#X obj 240 362 +;
#X obj 50 392 ptbf 0;
#X text 347 188 Modulation types are explained in Intro.pd [pd synth]
;
#X obj 330 362 r \$1_\$2_mod4;
#X obj 450 362 r \$1_\$2_mod5;
#X obj 50 422 vlinesc~;
#X obj 50 482 outlet~;
#X obj 290 332 catch~ \$1_\$3_mod4~;
#X obj 410 332 catch~ \$1_\$3_mod5~;
#X obj 290 392 tline~;
#X obj 410 392 tline~;
#X connect 0 0 15 0;
#X connect 4 0 11 0;
#X connect 5 0 12 0;
#X connect 6 0 13 0;
#X connect 7 0 12 1;
#X connect 8 0 11 1;
#X connect 9 0 13 1;
#X connect 10 0 14 1;
#X connect 11 0 10 0;
#X connect 12 0 10 1;
#X connect 13 0 14 0;
#X connect 14 0 15 1;
#X connect 15 0 19 0;
#X connect 17 0 23 1;
#X connect 18 0 24 1;
#X connect 19 0 20 0;
#X connect 21 0 23 0;
#X connect 22 0 24 0;
#X connect 23 0 20 0;
#X connect 24 0 20 0;
