#N canvas -8 -8 1280 677 10;
#X declare -path ./vv;
#X declare -path ./synth;
#X declare -path ./shortcut;
#X declare -path ./sampler;
#X declare -path ./oscillator;
#X declare -path ./modulation;
#X declare -path ./misc;
#X declare -path ./conversion;
#X declare -path ./audio_routing;
#X declare -path ./audio_effect;
#X declare -path ./control_and_note;
#X declare -path ./seq;
#X declare -path ./timing;
#X declare -path ../audio_effect;
#X declare -path ../audio_routing;
#X declare -path ../control_and_note;
#X declare -path ../conversion;
#X declare -path ../misc;
#X declare -path ../modulation;
#X declare -path ../oscillator;
#X declare -path ../sampler;
#X declare -path ../seq;
#X declare -path ../shortcut;
#X declare -path ../synth;
#X declare -path ../timing;
#X declare -path ../vv;
#X declare -path piloslib/audio_effect;
#X declare -path piloslib/audio_routing;
#X declare -path piloslib/control_and_note;
#X declare -path piloslib/conversion;
#X declare -path piloslib/misc;
#X declare -path piloslib/modulation;
#X declare -path piloslib/oscillator;
#X declare -path piloslib/sampler;
#X declare -path piloslib/seq;
#X declare -path piloslib/shortcut;
#X declare -path piloslib/synth;
#X declare -path piloslib/timing;
#X declare -path piloslib/vv;
#X obj 422 39 sl_control;
#N canvas 0 50 1280 677 msgbx 0;
#X obj 43 13 inlet;
#X msg 43 38 \; load_send global tempo 120 \; load_send cymfmci 20
0 \; load_send cym_on_ci_ci 52 4 \; load_send cym_on_ci toggle 1 \;
load_send cymdownsamp amount 0.10084 \; load_send cym_2ni_ni 49 \;
load_send cym_2ni pitch 42 \; load_send rcymsynth poles 2 \; load_send
rcymsynth bp 1 1 \; load_send rcymsynth amp 1 1 \; load_send rcymsynth
filt_env_amount 3 \; load_send rcymsynth filt_env_ms 1000 \; load_send
rcymsynth filt_env_pow 4 \; load_send rcymsynth filt_env_a 0 \; load_send
rcymsynth filt_env_r 1 \; load_send rcymsynth pitch 48 \; load_send
rcymsynth hp_pitch 1 1 \; load_send rcymsynth lp_pitch 1 1 \; load_send
rcymsynth bp_pitch 1 1 \; load_send rcymsynth hp 0.991597 1 \; load_send
rcymsynth dry 1 1 \; load_send rcymsynth lp 0.319328 1 \; load_send
rcymsynth bp_q 0.159664 8 \; load_send rcymsynth bp_env 1 2222 \; load_send
rcymsynth bp_freq 0.361345 5555 \; load_send rcymsynth hp_env 0.747899
1 \; load_send rcymsynth hp_freq 0.0504202 1113 \; load_send rcymsynth
lp_env 1 1 \; load_send rcymsynth lp_freq 0.756303 10000 \; load_send
rcymsynth osc_a_lp 1 1 \; load_send rcymsynth osc_a_bp 0.495798 1 \;
load_send rcymsynth osc_a_hp 0 1 \; load_send rcymsynth osc_b_dry 0
1 \; load_send rcymsynth osc_b_hp 0.151261 1 \; load_send rcymsynth
osc_b_lp 0.495798 1 \; load_send rcymsynth osc_b_bp 0 1 \; load_send
rcymsynth noise_lp 0.210084 1 \; load_send rcymsynth noise_bp 0.092437
1 \; load_send rcymsynth noise_hp 0.268908 1 \; load_send rcymsynth
noise_dry 0 1 \; load_send rcymsynth osc_a_dry 0 1 \; load_send rcymsynth
noise_env_amount 0.7 \; load_send rcymsynth noise_env_pow 3 \; load_send
rcymsynth noise_env_ms 19784 \; load_send rcymsynth noise_env_a 0 \;
load_send rcymsynth noise_env_r 0.5 \; load_send rcymsynth noise_env_d
0.5 \; load_send rcymsynth noise_env_s 0 \; load_send rcymsynth osc_b_env_amount
0.3 \; load_send rcymsynth osc_b_env_pow 3 \; load_send rcymsynth osc_b_env_ms
29821 \; load_send rcymsynth osc_b_env_a 0 \; load_send rcymsynth osc_b_env_r
0.5 \; load_send rcymsynth osc_b_env_d 0.5 \; load_send rcymsynth osc_b_env_s
0 \; load_send rcymsynth osc_a_env_amount 0.25 \; load_send rcymsynth
osc_a_env_pow 2 \; load_send rcymsynth osc_a_env_ms 29847 \; load_send
rcymsynth osc_a_env_a 0.0756303 \; load_send rcymsynth osc_a_env_r
0.5 \; load_send rcymsynth osc_a_env_d 0.5 \; load_send rcymsynth osc_a_env_s
0 \; load_send rcymsynth random_pitch 0 \; load_send rcymsynth a_amp
50 \; load_send rcymsynth b_amp 111 \; load_send rcymsynth osc_b_freq
423 \; load_send rcymsynth osc_a_freq 59 \; load_send rcymsynth fm
0.613445 27 \; load_send cym_chan amp 0.350515 \; load_send rcym_ni_ni
48 \; load_send rcym_ni pitch 31 \; load_send cym_4ni_ni 50 \; load_send
cym_4ni pitch 0.8 \; load_send hhopen 0 0 \; load_send hhautoci_ci
44 4 \; load_send hhautoci toggle 1 \; load_send hhknob 20 4 \; load_send
hh_amp amp 0.103093 \; load_send hh3_ni 46 \; load_send hh2_ni 42 \;
load_send hh_ni 44 \; load_send hh freq 0.0504202 3423 \; load_send
hh b_amp 55 \; load_send hh osc_b 0.87395 0.5 \; load_send hh osc_a
1 0.5 \; load_send hh noise_env_amount 4 \; load_send hh noise_env_pow
5 \; load_send hh noise_env_ms 250 \; load_send hh noise_env_a 0 \;
load_send hh noise_env_r 0.15 \; load_send hh noise_env_d 0.15 \; load_send
hh noise_env_s 0 \; load_send hh osc_b_env_amount 1 \; load_send hh
osc_b_env_pow 7 \; load_send hh osc_b_env_ms 825 \; load_send hh osc_b_env_a
0 \; load_send hh osc_b_env_r 0.15 \; load_send hh osc_b_env_d 0.15
\; load_send hh osc_b_env_s 0 \; load_send hh osc_a_env_amount 4 \;
load_send hh osc_a_env_pow 5 \; load_send hh osc_a_env_ms 605 \; load_send
hh osc_a_env_a 0.00840336 \; load_send hh osc_a_env_r 0.15 \; load_send
hh osc_a_env_d 0.15 \; load_send hh osc_a_env_s 0 \; load_send hh random_pitch
0.151261 \; load_send hh amp 0.554622 27 \; load_send hh a_amp 60 \;
load_send hh osc_b_freq 3812 \; load_send hh osc_a_freq 505 \; load_send
hh fm 0.0420168 213 \; load_send sn5_ni_ni 43 \; load_send sn5_ni pitch
58 \; load_send sn filt2_freq 0.0853659 1111 -1154 0 0 0 \; load_send
sn dry_amp 0.579268 2 2 0 0 0 \; load_send sn filt1_to_filt2 1 1 0
0 0 0 \; load_send sn filt2_pitch_follow 1 \; load_send sn amp_env_ms
1000 0 0 0 0 \; load_send sn amp_env_pow 3 0 0 0 0 \; load_send sn
amp_env_s 0.5 0 0 0 0 \; load_send sn amp_env_d 0.5 0 0 0 0 \; load_send
sn amp_env_r 0.5 0 0 0 0 \; load_send sn amp_env_amount 1 0 0 0 0 \;
load_send sn amp_env_a 0 0 0 0 0 \; load_send sn amp_pitch_follow 1
0 0 0 0 \; load_send sn filt2_amp 0.317073 4 0 0 0 0 \; load_send sn
filt1_type 1 \; load_send sn filt1_poles 4 \; load_send sn filt1_env_r
0.5 0 0 0 0 \; load_send sn filt1_env_a 0 0 0 0 0 \; load_send sn filt1_env_ms
500 0 0 0 0 \; load_send sn filt1_env_pow_a -3 0 0 0 0 \; load_send
sn filt1_env_pow_b 3 0 0 0 0 \; load_send sn filt1_env_amount 1 0 0
0 0 \; load_send sn filt1_freq 0.103659 12121 0 933 0 0 \; load_send
sn filt1_pitch_follow 1 \; load_send sn filt1_amp 1 3 0 0 0 0 \; load_send
sn filt1_mod 0.390244 3 0 -0.32 0 0 \; load_send sn pitch_env_amount
38 0 0 0 0 \; load_send sn pitch_env_pow 77 0 0 0 0 \; load_send sn
pitch_env_ms 250 0 0 0 0 \; load_send sn pitch_env_r 0.436975 0 0 0
0 \; load_send sn pitch_env_a 0 0 0 0 0 \; load_send sn noise_noenv
0 0 0 0 0 \; load_send sn noise_dry 0.313084 0 0 0 0 \; load_send sn
noise_filt1 0.719626 0 0 0 0 \; load_send sn noise_filt2 0.457944 0
0 0 0 \; load_send sn noise_ds_pitch_env 0.0794393 0 0 0 0 \; load_send
sn noise_env_r 0.537815 0 0 0 0 \; load_send sn noise_env_a 0.0588235
0 0 0 0 \; load_send sn noise_env_ms 333 0 0 0 0 \; load_send sn noise_env_pow_a
-3 0 0 0 0 \; load_send sn noise_env_pow_b 3 0 0 0 0 \; load_send sn
noise_env_amount 1 0 0 0 0 \; load_send sn noise_ds 0 0 0 0 0 \; load_send
sn osc_a_nomod 0.0981308 0 0 0 0 \; load_send sn osc_a_sync 1 0 12
0 0 \; load_send sn osc_a_pitch_env 0 1 0 0 0 0 \; load_send sn osc_a_freq
0 0 0 0 0 \; load_send sn osc_a_pitch 0 0 0 0 0 \; load_send sn osc_a_pitched
1 \; load_send sn osc_a_phase_start 0 \; load_send sn osc_a_type 1
\; load_send sn osc_a_glide 0 0 0 0 0 \; load_send sn osc_a_reset 1
\; load_send sn osc_a_noenv 0.512195 1 0 0 0 0 \; load_send sn osc_a_asym
0 0 0 0 0 \; load_send sn osc_a_wet 1 0 0 0 0 \; load_send sn osc_a_mod_env_amount
1 0 0 0 0 \; load_send sn osc_a_mod_env_pow 3 0 0 0 0 \; load_send
sn osc_a_mod_env_ms 777 0 0 0 0 \; load_send sn osc_a_mod_env_r 0.5
0 0 0 0 \; load_send sn osc_a_mod_env_a 0 0 0 0 0 \; load_send sn osc_a_env_r
0.5 0 0 0 0 \; load_send sn osc_a_env_a 0 0 0 0 0 \; load_send sn osc_a_env_ms
500 0 0 0 0 \; load_send sn osc_a_env_pow_a -3 0 0 0 0 \; load_send
sn osc_a_env_pow_b 3 0 0 0 0 \; load_send sn osc_a_env_amount 1 0 0
0 0 \; load_send sn osc_a_filt1 1 0 0 0 0 \; load_send sn osc_a_filt2
0.448598 0 0 0 0 \; load_send sn osc_a_dry 0.0981308 0 0 0 0 \; load_send
sn osc_a_mod 0 0 0 0 0 \; load_send sn osc_b_freq 0 0 0 0 0 \; load_send
sn osc_b_pitched 1 \; load_send sn osc_b_noenv 0 0 0 0 0 \; load_send
sn osc_b_mod_env_amount 1 0 0 0 0 \; load_send sn osc_b_mod_env_pow
3 0 0 0 0 \; load_send sn osc_b_mod_env_ms 819 0 0 0 0 \; load_send
sn osc_b_mod_env_r 0.5 0 0 0 0 \; load_send sn osc_b_mod_env_a 0 0
0 0 0 \; load_send sn osc_b_phase_start 0 \; load_send sn osc_b_type
0 \; load_send sn osc_b_pitch_env 0 1 0 0 0 0 \; load_send sn osc_b_env_r
0.5 0 0 0 0 \; load_send sn osc_b_env_a 0 0 0 0 0 \; load_send sn osc_b_env_ms
450 0 0 0 0 \; load_send sn osc_b_env_pow_a -3 0 0 0 0 \; load_send
sn osc_b_env_pow_b 3 0 0 0 0 \; load_send sn osc_b_env_amount 1 0 0
0 0 \; load_send sn osc_b_filt1 0.990654 0 0 0 0 \; load_send sn osc_b_filt2
0.514019 0 0 0 0 \; load_send sn osc_b_dry 0.350467 0 0 0 0 \; load_send
sn osc_b_sync 1 0 0 0 0 \; load_send sn osc_b_glide 0 0 0 0 0 \; load_send
sn osc_b_mod 0 -0.214286 0.547619 0 0 \; load_send sn osc_b_reset 1
\; load_send sn osc_b_pitch -12 0 0 0 0 \; load_send sn fm 0.634146
4 0 0 0 0 \; load_send sn pitch -2 0 0 0 0 \; load_send sn_slider 19
4 \; load_send sn_seq 14 1 \; load_send sn_seq 13 1 \; load_send sn_seq
12 1 \; load_send sn_seq 11 0 \; load_send sn_seq 10 1 \; load_send
sn_seq 9 0 \; load_send sn_seq 8 0 \; load_send sn_seq 15 1 \; load_send
sn_seq 6 1 \; load_send sn_seq 5 1 \; load_send sn_seq 4 0 \; load_send
sn_seq 3 0 \; load_send sn_seq 2 0 \; load_send sn_seq 1 0 \; load_send
sn_seq 0 0 \; load_send sn_seq 7 1 \; load_send sn_seq rate 0.25 \;
load_send sn_seq length 16 \; load_send sn_seq offset 0 \; load_send
sn_seq steps 16 \; load_send sn_button2_ci 51 4 \; load_send sn_button2
toggle 0 \; load_send sn_button_ci 43 4 \; load_send sn_button toggle
1 \; load_send sndel ms 0.487395 450 \; load_send sndel preamp 0 \;
load_send sndel wet 0.369748 \; load_send sndel dry 1 \; load_send
sndel fdbk 0.89916 \; load_send sndelci 23 4 \; load_send snds amount
0.0504202 \; load_send sn_ni2_3_ni 45 \; load_send sn_ni2_3 pitch 34
\; load_send sn_ni2_2_ni 41 \; load_send sn_ni2_2 pitch 36 \; load_send
sn_ni1_3_ni 47 \; load_send sn_ni1_3 pitch 39 \; load_send sn_ni1_2_ni
49 \; load_send sn_ni1_2 pitch 31 \; load_send sn_amp amp 0.0876289
\; load_send sn_ni_ni 37 \; load_send sn_ni pitch 48 \; load_send sn_lpf
q 0.361345 3 \; load_send sn_slider 19 4 \; load_send sn4_ni_ni 39
\; load_send sn4_ni pitch 24 \; load_send sn3_ni_ni 38 \; load_send
sn3_ni pitch 37 \; load_send playoff_ci 53 4 \; load_send recoff_ci
54 4 \; load_send recon_ci 46 4 \; load_send rr_erase_ci 55 4 \; load_send
playon_ci 45 4 \; load_send syndelfo rev 0 \; load_send syndelfo sync
0 1 \; load_send syndelfo pow 1 1 \; load_send syndelfo add 0.12605
1 \; load_send syndelfo mult 0.015625 1 \; load_send syndelfo sin 0.142857
1 \; load_send syndelfo sqr 0 1 \; load_send syndelfo saw 0 1 \; load_send
syndelfo rate 1.6 \; load_send syn_del ms 0.128274 250 \; load_send
syn_del preamp 1 \; load_send syn_del wet 0.579832 \; load_send syn_del
dry 1 \; load_send syn_del fdbk 0.932773 \; load_send syn lfo_rate
0 0 0 0 0 \; load_send syn mod_env_r 0.5 0 0 0 0 \; load_send syn mod_env_a
0 0 0 0 0 \; load_send syn mod_env_ms 500 0 0 0 0 \; load_send syn
mod_env_pow_a -3 0 0 0 0 \; load_send syn mod_env_pow_b 3 0 0 0 0 \;
load_send syn mod_env_amount 1 0 0 0 0 \; load_send syn lfo_sin 0 1
0 0 0 0 \; load_send syn lfo_note_reset 0 \; load_send syn lfo_pow
1 1 0 0 0 0 \; load_send syn lfo_saw 0 1 0 0 0 0 \; load_send syn filt_amp
1 1 0 0 0 0 0 0 \; load_send syn filt_mod 0.75 3 0 0 0 0 0 0 \; load_send
syn filt_freq 0.963415 2323 0 0 0 0 0 0 \; load_send syn filt_pitch_follow
1 \; load_send syn amp_env_amount 1 0 0 0 0 0 0 \; load_send syn amp_env_pow
3 0 0 0 0 \; load_send syn amp_env_ms 9999 0 0 0 0 \; load_send syn
amp_env_r 1 0 0 0 0 \; load_send syn amp_env_s 0.808411 0 0 0 0 \;
load_send syn amp_env_d 1 0 0 0 0 \; load_send syn amp_env_a 0.191589
0 0 0 0 \; load_send syn amp_pitch_follow 1 \; load_send syn dry_amp
1 0 0 0 0 0 0 \; load_send syn osc_b_pitch_env 1 \; load_send syn osc_b_reset
1 \; load_send syn osc_b_filt 0 0 0 0 0 0 0 \; load_send syn osc_b_type
1 \; load_send syn osc_b_mod_env_amount 1 0 0 0 0 0 0 \; load_send
syn osc_b_mod_env_pow 3 0 0 0 0 \; load_send syn osc_b_mod_env_ms 1000
0 0 0 0 \; load_send syn osc_b_mod_env_r 0.5 0 0 0 0 \; load_send syn
osc_b_mod_env_a 0 0 0 0 0 \; load_send syn osc_b_dry 0.476636 0 0.785714
0 0 0 0 \; load_send syn osc_b_sync 1 0 0 0 0 0 0 \; load_send syn
osc_b_mod 0.607477 0 0 0 0 0 0 \; load_send syn osc_b_pitch 12 0 0
0 0 0 0 \; load_send syn fm 0.913386 6 0 0 0 0 0 0 \; load_send syn
noise_filt 0 0 0 0 0 0 0 \; load_send syn pitch 0 \; load_send syn
noise_ds 0 0 0 0 0 0 0 \; load_send syn noise_dry 0 0 0 0 0 0 0 \;
load_send syn pitch_env_amount 1 0 0 0 0 0 0 \; load_send syn pitch_env_pow
3 0 0 0 0 \; load_send syn pitch_env_ms 1000 0 0 0 0 \; load_send syn
pitch_env_r 0.5 0 0 0 0 \; load_send syn pitch_env_a 0 0 0 0 0 \; load_send
syn osc_a_pitch_env 1 \; load_send syn osc_a_reset 1 \; load_send syn
osc_a_filt 0 0 0 0 0 0 0 \; load_send syn osc_a_type 1 \; load_send
syn osc_a_mod_env_amount 0 0 0.37 0 0 0 0 \; load_send syn osc_a_mod_env_pow
3 0 0 0 0 \; load_send syn osc_a_mod_env_ms 1000 0 0 0 0 \; load_send
syn osc_a_mod_env_r 0.5 0 0 0 0 \; load_send syn osc_a_mod_env_a 0.14486
0 0 0 0 \; load_send syn osc_a_dry 0.514019 0 0.452381 0 0 0 0 \; load_send
syn osc_a_sync 1 0 0 0 0 0 0 \; load_send syn osc_a_mod 0.32243 0 0
0 0 0 0 \; load_send syn osc_a_pitch 0 0 0 0 0 0 0 \; load_send rem_kn6
13 4 \; load_send rem_kn8 \; load_send rem_kn7 14 4 \; load_send rem_kn5
12 4 \; load_send rem_ped 1 1 \; load_send rem_kn4 11 4 \; load_send
rem_kn3 10 4 \; load_send rem_kn2 9 4 \; load_send rem_kn1 8 4 \; load_send
synrr_recording 20.9317 68 103 20.9636 71 66 21.7531 75 13 25.2825
75 0 25.4277 71 0 25.4364 68 0 26.5538 56 36 26.609 59 44 26.609 63
11 2.19028 59 0 2.39056 63 0 2.42539 56 0 3.34548 64 11 3.38901 57
12 3.42675 61 3 19.2686 57 0 19.3005 64 0 19.3411 61 0 0 0 0 0 0 0
0 0 0 0 0 0 0 0 0 0 0 0 0 0 0 0 0 0 0 0 0 0 0 0 49.6704 67 5 51.3974
67 0 51.7573 68 33 51.8153 68 0 56.4564 44 127 66.708 47 44 66.8619
44 0 81.2176 47 0 81.325 44 111 94.5371 47 66 94.5691 44 0 102.711
49 40 103.033 49 0 103.314 49 103 109.439 49 0 109.508 44 127 109.555
47 0 124.108 44 0 124.201 40 97 139.134 44 124 139.209 40 0 153.765
44 0 154.12 45 121 169.073 45 0 169.41 44 118 184.657 44 0 185.649
47 121 202.063 47 0 202.501 44 118 218.294 44 0 218.636 42 95 233.532
42 0 234.072 44 127 256.63 44 0 257.861 39 95 257.869 42 65 276.091
39 0 276.19 42 0 277.304 44 127 277.319 47 97 296.04 44 0 296.075 47
0 296.751 45 31 296.78 49 58 306.21 44 1 307.926 44 0 310.692 49 0
310.782 45 0 311.562 42 65 311.565 45 66 312.61 45 0 312.619 42 0 313.054
47 104 313.063 44 127 313.803 45 71 313.812 44 0 314.12 45 0 314.343
44 111 320.168 51 36 328.089 44 0 328.202 47 0 328.229 51 0 328.623
45 38 328.638 49 79 328.832 52 1 344.869 49 0 344.898 52 0 345.031
45 0 345.783 44 118 345.792 47 71 347.783 51 1 362.838 44 0 362.864
47 0 363.102 51 0 364.002 45 19 364.002 52 48 364.002 49 21 377.783
45 0 377.792 49 0 377.826 52 0 378.053 47 61 378.102 44 58 378.14 44
0 378.294 44 7 378.465 44 0 378.706 44 103 397.587 44 0 397.688 47
0 397.688 47 0 3407.67 51 21 3407.67 44 79 3407.68 47 38 3418.92 56
79 3422.69 56 0 3425.18 44 0 3425.28 47 0 3425.33 51 0 3426.1 57 1
3426.17 64 13 3426.28 61 9 3428.44 45 61 3429.65 49 71 3432.06 52 48
3440.47 61 0 3440.84 57 0 3440.94 64 0 3442.07 56 103 3442.07 59 48
3442.08 63 26 3442.19 45 0 3442.21 49 0 3442.23 52 0 3458.78 56 0 3459.14
59 0 3459.15 63 0 3459.15 63 0 \; load_send synrr length 8 \; load_send
synrr thru 0 \; load_send synrr play 1 \; load_send synrr record 1
\; load_send rem_button6 \; load_send rem_button2_ci \; load_send rem_button2
toggle 1 \; load_send rem_button1_ci \; load_send rem_button1 toggle
1 \; load_send rem_button5_ci \; load_send rem_button5 toggle 0 \;
load_send syn_amp_a amp 0.252577 \; load_send syn_asymtan asym 17 \;
load_send syn_asymtan amp 2 \; load_send syn_amp amp 0.0515464 \; load_send
bd asym 0.219512 1 0 0 0 0 0 0 \; load_send bd lfo_rate 0 0 0 0 0 \;
load_send bd mod_env_r 0.584112 0 0 0 0 \; load_send bd mod_env_a 0.0934579
0 0 0 0 \; load_send bd mod_env_ms 580 0 0 0 0 \; load_send bd mod_env_pow_a
-3 0 0 0 0 \; load_send bd mod_env_pow_b 3 0 0 0 0 \; load_send bd
mod_env_amount 2 0 0 0 0 \; load_send bd lfo_sin 0 1 0 0 0 0 \; load_send
bd lfo_note_reset 0 \; load_send bd lfo_pow 1 1 0 0 0 0 \; load_send
bd lfo_saw 0 1 0 0 0 0 \; load_send bd noise_ds 0.0700935 0 0 0.0714286
0 0 0 \; load_send bd glide 0 0 0 0 0 \; load_send bd amp_env_amount
1.5 0 0 0 0 0 0 \; load_send bd amp_env_pow 10 0 0 0 0 \; load_send
bd amp_env_ms 3000 0 0 0 0 \; load_send bd amp_env_r 0.588785 -0.142857
0 0 0 \; load_send bd amp_env_s 0.719626 0 0 0 0 \; load_send bd amp_env_d
0.574766 -0.214286 0 0 0 \; load_send bd amp_env_a 0 0 0 0 0 \; load_send
bd wet 1 0 0 0 0 0 0 \; load_send bd dry 0.593458 0 0 0 0 0 0 \; load_send
bd noise_env_amount 1 0 0 0 0 0 0 \; load_send bd noise_env_pow -5
0 0 0 0 \; load_send bd noise_env_ms 11 0 0 0 0 \; load_send bd noise_env_r
0.406542 0 0 0 0 \; load_send bd noise_env_s 0 0 0 0 0 \; load_send
bd noise_env_d 0.5 0 0 0 0 \; load_send bd noise_env_a 0 0 0 0.833333
0 \; load_send bd amp_pitch_follow 0 0 0 0 0 0 0 \; load_send bd mod_env_amount
2 0 0 0 0 0 0 \; load_send bd mod_env_pow 9 0 0 0 0 \; load_send bd
mod_env_ms 580 0 0 0 0 \; load_send bd mod_env_r 0.584112 0 0 0 0 \;
load_send bd mod_env_a 0.0934579 0 0 0 0 \; load_send bd pitch -4 0
0 0 0 0 0 \; load_send bd preamp 1.5 0 0 0 0 0 0 \; load_send bd mod
0.116822 0 0 0 0 0 0 \; load_send bd pitch_env_amount 317 0 0 0 0 0
0 \; load_send bd pitch_env_pow 5 0 0 0 0 \; load_send bd pitch_env_ms
817 0 0 0 0 \; load_send bd pitch_env_r 0.200935 0 0 0 0 \; load_send
bd pitch_env_a 0 0 0 0 0 \; load_send bdrelci 11 1 \; load_send bd_slider
18 4 \; load_send bdseq2 gate 0.5 2 \; load_send bdseq2 vel 42 \; load_send
bdseq2 14 0 \; load_send bdseq2 13 0 \; load_send bdseq2 12 58 \; load_send
bdseq2 11 0 \; load_send bdseq2 10 48 \; load_send bdseq2 9 60 \; load_send
bdseq2 8 0 \; load_send bdseq2 6 58 \; load_send bdseq2 5 48 \; load_send
bdseq2 4 0 \; load_send bdseq2 3 55 \; load_send bdseq2 2 53 \; load_send
bdseq2 1 48 \; load_send bdseq2 0 0 \; load_send bdseq2 7 0 \; load_send
bdseq2 15 55 \; load_send bdseq2 length 4 \; load_send bdseq2 offset
0 \; load_send bdseq2 speed 1 \; load_send bdseq2 steps 16 \; load_send
bd_seqci_ci 42 4 \; load_send bd_seqci toggle 0 \; load_send bdseq
gate 0.613445 4 \; load_send bdseq vel 42 \; load_send bdseq 14 24
\; load_send bdseq 13 0 \; load_send bdseq 12 0 \; load_send bdseq
11 0 \; load_send bdseq 10 0 \; load_send bdseq 9 34 \; load_send bdseq
8 0 \; load_send bdseq 6 36 \; load_send bdseq 5 34 \; load_send bdseq
4 0 \; load_send bdseq 3 48 \; load_send bdseq 2 48 \; load_send bdseq
1 48 \; load_send bdseq 0 0 \; load_send bdseq 7 0 \; load_send bdseq
15 24 \; load_send bdseq length 4 \; load_send bdseq offset 0 \; load_send
bdseq speed 1 \; load_send bdseq steps 16 \; load_send bd_ni2_2_ni
40 \; load_send bd_ni2_2 pitch 32 \; load_send bd_amp_dry amp 0.0257732
\; load_send bd_amp amp 0.386598 \; load_send bd_ni7_ni 51 \; load_send
bd_ni7 pitch 29 \; load_send bd_ni6_ni 49 \; load_send bd_ni6 pitch
44 \; load_send bd_ni_ni 36 \; load_send bd_ni pitch 24 \; load_send
bd_ni5_ni 47 \; load_send bd_ni5 pitch 31 \; load_send bd_ni3_ni 43
\; load_send bd_ni3 pitch 39 \; load_send bd_asymtan asym 8 \; load_send
bd_asymtan amp 1.59219 \; load_send a_fffade 8 4 \; load_send freqrandom
add 0 1 \; load_send freqrandom mult 1 1 \; load_send a_fffreqci 22
4 \; load_send vowelrandom add 0 1 \; load_send vowelrandom mult 1
5 \; load_send a_ffvowelci 21 4 \; load_send a_ffglideci 23 4 \; load_send
a_ff wet 0 1.3 \; load_send a_ff dry 1 2 \; load_send a_ff q 0.571429
16 \; load_send a_ff vowel 2 \; load_send a_ff voice 4 \; load_send
a_ff glide 0 \; load_send a_ff freq 629.213 \; load_send pk_k2 21 0
\; load_send pk_k1 20 0 \; load_send a_delay_dw_ciu \; load_send a_delay_ms_ciu
\; load_send a_dly_amt 1 0 \; load_send a_dly_ms \; load_send a_dly_pitch
\; load_send a_delayR ms 0.747899 222 \; load_send a_delayR preamp
0.03 \; load_send a_delayR wet 1 \; load_send a_delayR dry 1 \; load_send
a_delayR fdbk 0.815126 \; load_send a_delayL ms 0.915966 111 \; load_send
a_delayL preamp 0.03 \; load_send a_delayL wet 1 \; load_send a_delayL
dry 1 \; load_send a_delayL fdbk 0.87395 \; load_send a_multi asym
34 \; load_send a_multi amp 3 \; load_send a_multi high_amp 0.605042
0.82 \; load_send a_multi mid_amp 0.655462 0.89 \; load_send a_multi
low_amp 1 1 \; load_send a_multi high_freq 8964 \; load_send a_multi
low_freq 220 \; load_send a_speed_down 16 4 \; load_send a_speed_up
17 4 \; load_send a_rev 50 4 \; load_send a_retrig_2 41 4 \; load_send
a_retrig_4 49 4 \; load_send a_retrig_3 48 4 \; load_send a_retrig_1
40 4 \; load_send dly_control_glide 0 20 \; load_send a_retrig speed
1 \; load_send a_retrig rev 0 \; load_send a_retrig 4_window 0.065
\; load_send a_retrig 3_window 0.25 \; load_send a_retrig 2_window
0.5 \; load_send a_retrig 1_window 1 \; load_send a_retrig 3_on 0 \;
load_send a_retrig 4_length 0.125 \; load_send a_retrig 3_length -3
\; load_send a_retrig 4_on 0 \; load_send a_retrig 2_length 0.5 \;
load_send a_retrig 2_on 0 \; load_send a_retrig 1_length 1 \; load_send
a_retrig 1_on 0 \; load_send a_verb preamp 0.697479 \; load_send a_verb
wet 0.0504202 \; load_send a_verb dry 0.376575 \; load_send a_verb
damping 3 \; load_send a_verb roomsize 1.04 \; load_send drum_midi_rr_recording
0 0 0 0 0 0 0 0 0 0 0 0 0 0 0 0 0 0 0 0 0 0 0 0 0 0 0 0 0 0 0 0 0 0
0 0 0 0 0 0 0 0 0 0 0 0 0 0 0 0 0 0 0 0 0 0 0 0 0 0 0 0 0 0 0 0 0 0
0 0 0 0 \; load_send drum_midi_rr length 1 \; load_send drum_midi_rr
thru 1 \; load_send drum_midi_rr play 1 \; load_send drum_midi_rr record
0 \; load_send drum_midi_rr_record_ci -18 0 \; load_send drum_midi_rr_clear_ci
-16 0 \; load_send clk_zero 72 4 \; load_send tap_tempo 77 4 \; load_send
rem_stop 74 4 \; load_send rem_play 75 4 \;;
#X connect 0 0 1 0;
#X restore 422 69 pd msgbx;
#X obj 512 339 catcher~ master;
#X obj 512 369 tanhx~;
#X obj 582 369 tanhx~;
#X obj 292 429 writesf_global~ 2;
#X obj 512 399 hip~ 3;
#X obj 582 399 hip~ 3;
#X obj 512 539 dac~;
#X obj 512 509 tline~;
#X obj 582 509 tline~;
#X obj 57 421 hsl 200 45 0 1 0 1 empty empty empty -2 -8 0 10 -262144
-1 -1 19900 0;
#X obj 232 519 peak_stick2~;
#X obj 232 529 peak_stick2~;
#N canvas 430 31 722 359 midi 0;
#X obj 32 39 nip_mod_chan 0;
#X obj 32 319 s drum_midi;
#X obj 142 89 s global_repl_r;
#X obj 272 89 s global_stop_r;
#X obj 142 39 cin_vvcm rem_play;
#X obj 272 39 cin_vvcm rem_stop;
#X obj 252 309 s drum_midi_rr_clear;
#X obj 252 229 s drum_midi_rr_record_r;
#X obj 252 199 sel 0;
#X obj 532 39 cin_vvcm tap_tempo;
#X obj 532 89 s global_tap_r;
#X obj 402 39 cin_vvcm clk_zero;
#X obj 402 89 f 0;
#X obj 402 119 s global_clk;
#X obj 252 259 ciu_vvcm drum_midi_rr_clear_ci;
#X obj 252 149 ciu_vvcm drum_midi_rr_record_ci;
#X obj 502 159 lb 0;
#X obj 502 180 s cisc;
#X obj 32 149 record_replay_2d_vvcm drum_midi_rr;
#X connect 0 0 18 0;
#X connect 4 0 2 0;
#X connect 5 0 3 0;
#X connect 8 0 7 0;
#X connect 9 0 10 0;
#X connect 11 0 12 0;
#X connect 12 0 13 0;
#X connect 14 0 6 0;
#X connect 16 0 17 0;
#X connect 18 0 1 0;
#X restore 552 99 pd midi;
#X text 57 405 ||||||||||||||||||||||||||||;
#N canvas -8 -8 1280 677 a 0;
#X obj 307 1467 vverb_vvcm~ a_verb;
#X obj 347 566 retrig_ij_vvcm~ a_retrig;
#X obj 42 1339 s a_delay_ms_r;
#X obj 42 1549 s a_delay_dry_r;
#X obj 42 1519 rev;
#X obj 42 1249 * 0.99;
#X obj 42 1279 + 0.01;
#X obj 42 1309 linesc;
#X obj 42 1429 linesc;
#X obj 112 1239 nbx_vvc dly_control_glide;
#X obj 42 1219 pow 3;
#X obj 52 1489 s a_delay_preamp_r;
#X obj 42 1459 * 0.75;
#X obj 42 869 s a_ff_vowel_r;
#X obj 42 1009 s a_ff_freq_r;
#X obj 102 429 * 90;
#X obj 12 159 sel 0;
#X obj 12 189 f 0;
#X obj 72 159 sel 0;
#X obj 52 189 rr;
#X obj 52 219 linesc 500;
#X obj 142 279 s a_downsamp_amount_r;
#X obj 77 249 sel 0;
#X obj 77 309 rr;
#X obj 77 279 f 0;
#X obj 162 459 s a_verb_dry_r;
#X obj 162 429 rev;
#X obj 162 369 pow 0.1;
#X obj 777 756 sk_bit_red_vv~ a_bitred;
#N canvas 0 50 599 472 retrig 0;
#X obj 37 247 s a_retrig_1_on_r;
#X obj 37 327 s a_retrig_3_on_r;
#X obj 177 327 s a_retrig_4_on_r;
#X obj 177 247 s a_retrig_2_on_r;
#X obj 317 327 s a_retrig_rev_r;
#X obj 187 97 + 1;
#X obj 37 157 s a_retrig_speed_r;
#X obj 37 97 * 0.5;
#X obj 37 127 rev;
#X obj 37 197 ciu_vvcm a_retrig_1;
#X obj 37 277 ciu_vvcm a_retrig_3;
#X obj 177 277 ciu_vvcm a_retrig_4;
#X obj 177 197 ciu_vvcm a_retrig_2;
#X obj 317 277 ciu_vvcm a_rev;
#X obj 187 47 ciu_vvcm a_speed_up;
#X obj 37 47 ciu_vvcm a_speed_down;
#X connect 5 0 6 0;
#X connect 7 0 8 0;
#X connect 8 0 6 0;
#X connect 9 0 0 0;
#X connect 10 0 1 0;
#X connect 11 0 2 0;
#X connect 12 0 3 0;
#X connect 13 0 4 0;
#X connect 14 0 5 0;
#X connect 15 0 7 0;
#X restore 217 896 pd retrig;
#X obj 347 756 sk_bit_red_vv~ a_bitred;
#X obj 142 249 * 0.0125;
#X obj 107 279 + 2;
#X obj 307 1087 bellmid_3band_vvcm~ a_multi;
#X obj 192 689 rev;
#X obj 32 629 rev;
#X obj 192 629 rr;
#X obj 32 659 + 0.1;
#X obj 32 689 * 32;
#X obj 82 569 clip 0 1;
#X obj 32 719 s a_bitred_bits;
#X obj 192 719 s a_bitred_dry;
#X obj 32 599 lb 1;
#X obj 82 599 pow 2;
#X obj 282 49 inlet~;
#X obj 332 49 inlet~;
#X obj 307 1662;
#X obj 307 1637 outlet~;
#X obj 677 1637 outlet~;
#X obj 12 79 rr a_knob_4;
#X obj 34 480 vsl 30 65 0 1 0 1 empty empty empty 0 -9 0 10 -262144
-1 -1 0 1;
#X obj 28 566 bng 15 250 50 0 empty empty empty 17 7 0 10 -262144 -1
-1;
#X obj 500 1659 peak_stick2~;
#N canvas 0 50 890 459 a_dly 0;
#X obj 627 737 s a_delay_pitch_r;
#X obj 627 707 * 12;
#X obj 627 617 s a_delay_ms_r;
#X obj 627 587 + 0.01;
#X obj 37 37 inlet~;
#X obj 37 337 outlet~;
#X obj 297 37 inlet~;
#X obj 537 337 outlet~;
#X obj 37 97 delay_extfb_vvcm~ a_delayL;
#X obj 257 317 hip~ 111;
#X obj 877 257 hip~ 111;
#X obj 877 287 s~ a_delayL_todel;
#X obj 257 347 throw~ a_delayL_in;
#X obj 537 97 delay_extfb_vvcm~ a_delayR;
#X obj 397 317 hip~ 111;
#X obj 397 347 throw~ a_delayR_in;
#X obj 627 457 s a_delayL_preamp_r;
#X obj 607 477 s a_delayR_preamp_r;
#X obj 627 647 ciu_vvcm a_dly_pitch;
#X obj 627 527 ciu_vvcm a_dly_ms;
#X obj 627 327 ciu_vvcm a_dly_amt;
#X obj 627 417 + 0.03;
#X obj 757 447 rev;
#X obj 767 477 s a_delayL_dry_r;
#X obj 757 498 s a_delayR_dry_r;
#X obj 627 387 * 0.9;
#X obj 757 417 * 0.3;
#X connect 1 0 0 0;
#X connect 3 0 2 0;
#X connect 4 0 8 0;
#X connect 6 0 13 0;
#X connect 8 0 5 0;
#X connect 8 1 9 0;
#X connect 9 0 12 0;
#X connect 10 0 11 0;
#X connect 13 0 7 0;
#X connect 13 1 14 0;
#X connect 14 0 15 0;
#X connect 20 0 25 0;
#X connect 20 0 26 0;
#X connect 21 0 16 0;
#X connect 21 0 17 0;
#X connect 22 0 23 0;
#X connect 22 0 24 0;
#X connect 25 0 21 0;
#X connect 26 0 22 0;
#X restore 647 1057 pd a_dly;
#X obj 102 459 + 1;
#X obj 102 339 + 0;
#X obj 102 489 s a_multi_amp_r;
#X obj 42 369 * 7;
#X obj 42 399 s a_asymtan_asym_r;
#X obj 162 399 * 0.75;
#X obj 222 399 rev;
#X obj 222 429 s a_multi_high_amp_r;
#X obj 737 1387 * 0.37;
#X obj 82 629 * 0.6;
#X obj 152 549 pow 0.1;
#X obj 212 579 rev;
#X obj 212 609 s a_multi_high_amp_r;
#X obj 222 369 * 0.9;
#X obj 212 519 * 0.7;
#X obj 212 549 + 0.1;
#X obj 737 1337 rr a_master_amp;
#X obj 82 659 s a_bitred_wet;
#X obj 162 789 s a_bitred_amt;
#X obj 144 700 vsl 30 65 0 1 0 0 empty empty empty 0 -9 0 10 -262144
-1 -1 0 1;
#X obj 787 819 *~ 0.1;
#X obj 787 840 peak_stick~;
#X obj 757 840 peak_stick~;
#X obj 42 1169 ciu_vvcm a_delay_ms_ciu;
#X obj 42 1379 ciu_vvcm a_delay_dw_ciu;
#X obj 42 759 ciu_vvcm pk_k1;
#X obj 42 899 ciu_vvcm pk_k2;
#X obj 192 659 * 1;
#X obj 347 789 formant_filter_vvcm~ a_ff;
#X obj 777 789 formant_filter_vv~ a_ff;
#X obj 42 809 u2f5 1 2 3 4;
#X obj 42 839 rr;
#X obj 42 949 * 3690;
#X obj 42 979 - 10;
#N canvas 302 94 950 528 ff 0;
#X obj 437 117 * 3000;
#X obj 437 37 ciu_vvcm a_ffglideci;
#X obj 437 147 s a_ff_glide_r;
#X obj 27 37 ciu_vvcm a_ffvowelci;
#X obj 27 117 b2n;
#X obj 27 177 n2rma_vvcm vowelrandom;
#X obj 27 397 int;
#X obj 27 427 s a_ff_vowel_r;
#X obj 27 147 spigot;
#X obj 437 87 pow 2;
#X obj 257 117 b2n;
#X obj 257 147 spigot;
#X obj 257 87 u2f 4 1 0.5 0.25 0.125;
#X obj 257 37 ciu_vvcm a_fffreqci;
#X obj 257 177 n2rma_vvcm freqrandom;
#X obj 257 417 * 7777;
#X obj 257 477 s a_ff_freq_r;
#X obj 257 447 - 111;
#X obj 257 387 pow 9;
#X floatatom 57 108 5 0 0 0 - - -;
#X floatatom 287 108 5 0 0 0 - - -;
#X obj 567 37 ciu_vvcm a_fffade;
#X obj 567 147 s a_ff_dry_r;
#X obj 567 117 rev;
#X obj 627 87 s a_ff_wet_r;
#X obj 567 87 * 0.666;
#X obj 627 117 s a_ff_wet_r;
#X obj 37 97 u2f 4 1.5 0.75 0.375 0.1875;
#X obj 27 87 u2f 4 1 0.5 0.25 0.125;
#X connect 0 0 2 0;
#X connect 1 0 9 0;
#X connect 3 0 28 0;
#X connect 4 0 8 0;
#X connect 5 0 6 0;
#X connect 6 0 7 0;
#X connect 8 0 5 0;
#X connect 9 0 0 0;
#X connect 10 0 11 0;
#X connect 11 0 14 0;
#X connect 12 0 10 0;
#X connect 12 0 11 1;
#X connect 12 0 20 0;
#X connect 12 1 11 1;
#X connect 13 0 12 0;
#X connect 14 0 18 0;
#X connect 15 0 17 0;
#X connect 17 0 16 0;
#X connect 18 0 15 0;
#X connect 21 0 24 0;
#X connect 21 0 25 0;
#X connect 23 0 22 0;
#X connect 25 0 23 0;
#X connect 28 0 4 0;
#X connect 28 0 8 1;
#X connect 28 0 19 0;
#X connect 28 1 8 1;
#X restore 622 770 pd ff params;
#X obj 40 446 bng 15 250 50 0 empty empty empty 17 7 0 10 -262144 -1
-1;
#X obj 97 680 bng 15 250 50 0 empty empty empty 17 7 0 10 -262144 -1
-1;
#X floatatom 92 830 5 0 0 0 - - -;
#X obj 737 1297 bellmid_3band_vv~ a_multi;
#X obj 307 1607 tline~ 0.37;
#X obj 677 1607 tline~ 0.37;
#X connect 0 0 93 0;
#X connect 0 1 94 0;
#X connect 1 0 30 0;
#X connect 1 1 28 0;
#X connect 4 0 3 0;
#X connect 5 0 6 0;
#X connect 6 0 7 0;
#X connect 7 0 2 0;
#X connect 8 0 12 0;
#X connect 9 0 7 1;
#X connect 9 0 8 1;
#X connect 10 0 5 0;
#X connect 12 0 4 0;
#X connect 12 0 11 0;
#X connect 15 0 54 0;
#X connect 16 0 17 0;
#X connect 16 1 19 0;
#X connect 17 0 20 2;
#X connect 19 0 20 0;
#X connect 20 0 22 0;
#X connect 20 0 31 0;
#X connect 22 0 24 0;
#X connect 22 1 32 0;
#X connect 24 0 23 0;
#X connect 26 0 25 0;
#X connect 27 0 59 0;
#X connect 27 0 67 0;
#X connect 28 0 83 0;
#X connect 30 0 82 0;
#X connect 31 0 21 0;
#X connect 32 0 23 0;
#X connect 33 0 0 0;
#X connect 34 0 41 0;
#X connect 35 0 37 0;
#X connect 36 0 81 0;
#X connect 37 0 38 0;
#X connect 38 0 40 0;
#X connect 39 0 43 0;
#X connect 42 0 35 0;
#X connect 43 0 36 0;
#X connect 43 0 63 0;
#X connect 44 0 1 0;
#X connect 45 0 1 1;
#X connect 49 0 16 0;
#X connect 50 0 39 0;
#X connect 50 0 64 0;
#X connect 51 0 42 0;
#X connect 53 0 33 0;
#X connect 53 1 92 0;
#X connect 54 0 56 0;
#X connect 55 0 15 0;
#X connect 55 0 27 0;
#X connect 55 0 57 0;
#X connect 57 0 58 0;
#X connect 59 0 26 0;
#X connect 60 0 61 0;
#X connect 62 0 93 1;
#X connect 62 0 94 1;
#X connect 63 0 71 0;
#X connect 64 0 68 0;
#X connect 67 0 60 0;
#X connect 68 0 69 0;
#X connect 69 0 65 0;
#X connect 70 0 62 0;
#X connect 73 0 72 0;
#X connect 74 0 75 0;
#X connect 79 0 84 0;
#X connect 80 0 86 0;
#X connect 81 0 34 0;
#X connect 82 0 53 0;
#X connect 83 0 74 0;
#X connect 83 0 76 0;
#X connect 83 0 53 1;
#X connect 84 0 85 0;
#X connect 84 0 91 0;
#X connect 84 1 85 0;
#X connect 85 0 13 0;
#X connect 86 0 87 0;
#X connect 87 0 14 0;
#X connect 89 0 50 0;
#X connect 90 0 73 0;
#X connect 92 0 0 1;
#X connect 93 0 47 0;
#X connect 93 0 52 0;
#X connect 94 0 48 0;
#X restore 642 279 pd a;
#N canvas -8 -8 1280 677 bd 0;
#X obj 92 879 delwrite~ bd_del 200;
#X obj 72 849 rr~;
#X obj 72 709 asym_tanh_vvcm~ bd_asymtan;
#X obj 272 599 stripnote;
#X obj 582 689 s bd_asymtan_amp_r;
#X obj 782 209 vnip_shift_vvcm drum_midi bd_ni3;
#X obj 782 119 vnip_shift_vvcm drum_midi bd_ni5;
#X obj 722 659 rev;
#X obj 722 719 s bd_glide_r;
#X obj 72 569 t a a;
#X obj 332 369 vnip_shift_vvcm drum_midi bd_ni;
#X obj 92 909 delread~ bd_del 33;
#X obj 722 689 * 0.77;
#X obj 582 29 vnip_shift_vvcm drum_midi bd_ni6;
#X obj 782 29 vnip_shift_vvcm drum_midi bd_ni7;
#X obj 282 229 r drum_midi_mod_1;
#X obj 282 259 - 0.5;
#X obj 282 319 s bd_filt_env_a_r;
#X obj 282 289 clip 0 1;
#X obj 82 529 rr;
#X obj 142 359 spigot;
#X obj 272 629 s bd_triggered;
#X obj 72 939 amp_2x2_vvcm~ bd_amp;
#X obj 72 1039 outlet~;
#X obj 252 1039 outlet~;
#X obj 552 1039 outlet;
#X obj 337 742 bng 15 250 50 0 empty empty empty 17 7 0 10 -262144
-1 -1;
#X obj 312 1039 outlet~;
#X obj 492 1039 outlet~;
#X obj 312 939 amp_2x2_vvcm~ bd_amp_dry;
#X obj 522 659 rev;
#X obj 522 749 s bd_pitch_env_a_r;
#X obj 455 692 vsl 30 65 0 1 0 1 empty empty empty 0 -9 0 10 -262144
-1 -1 4500 1;
#X obj 522 719 + 0.075;
#X obj 522 689 * 0.5;
#X obj 132 629 lop~ 111;
#X obj 437 652 nbx 7 20 -1e+037 1e+037 0 1 empty empty empty 0 -8 0
11 -262144 -1 -1 0.992188 256;
#X obj 582 659 + 0.6;
#X obj 2 529 r bd_nv_in;
#X obj 20 587 vsl 15 128 0 127 0 0 empty empty empty 0 -9 0 10 -262144
-1 -1 0 1;
#X obj 402 279 vnip_shift_vvcm drum_midi bd_ni2_2;
#N canvas 0 50 985 555 bdarp 0;
#X obj 37 597 outlet;
#X obj 37 37 seqqq_nbx_to_nv bdseq;
#X obj 37 547 spigot;
#X obj 387 417 citgl_vvcm bd_seqci;
#X obj 757 37 seqqq_nbx_to_nv bdseq2;
#X obj 47 417 spigot;
#X obj 67 367 < 0.5;
#X obj 127 417 spigot;
#X obj 147 367 >= 0.5;
#X obj 67 337 b2u 8;
#X obj 91 395 vsl 30 65 0 1 0 1 empty empty empty 0 -9 0 10 -262144
-1 -1 6400 1;
#X obj 367 672 pack 55 0;
#X obj 437 672 pack 53 0;
#X obj 507 672 pack 60 0;
#X obj 577 672 pack 58 0;
#X obj 107 517 sel 0;
#X obj 367 542 del 5;
#X obj 127 672 s bd_0_nv;
#X obj 197 672 s bd_1_nv;
#X obj 267 672 s bd_2_nv;
#X obj 127 552 del 5;
#X obj 87 542 b;
#X obj 97 497 rr;
#X obj 159 521 bng 15 250 50 0 empty empty empty 17 7 0 10 -262144
-1 -1;
#X obj 197 582 pack 40 0;
#X obj 197 552 del 6;
#X obj 127 582 pack 40 1;
#X connect 1 0 5 0;
#X connect 2 0 0 0;
#X connect 3 0 22 0;
#X connect 4 0 7 0;
#X connect 5 0 2 0;
#X connect 6 0 5 1;
#X connect 6 0 10 0;
#X connect 7 0 2 0;
#X connect 8 0 7 1;
#X connect 9 0 6 0;
#X connect 9 0 8 0;
#X connect 11 0 0 0;
#X connect 12 0 0 0;
#X connect 13 0 0 0;
#X connect 14 0 0 0;
#X connect 15 0 21 0;
#X connect 15 0 23 0;
#X connect 16 0 11 0;
#X connect 16 0 12 0;
#X connect 16 0 13 0;
#X connect 16 0 14 0;
#X connect 20 0 26 0;
#X connect 21 0 20 0;
#X connect 21 0 25 0;
#X connect 22 0 2 1;
#X connect 22 0 15 0;
#X connect 24 0 17 0;
#X connect 24 0 18 0;
#X connect 24 0 19 0;
#X connect 25 0 24 0;
#X connect 26 0 17 0;
#X connect 26 0 18 0;
#X connect 26 0 19 0;
#X restore 2 419 pd bdarp;
#X obj 72 189 ciu_vvcm bd_slider;
#X obj 52 679 bp~ 222 6;
#X obj 842 719 s bd_amp_env_r_r;
#X obj 842 609 ciu_vvcm bdrelci;
#X obj 82 249 u2f 2 1.5 1 0.75 0.25 -3 0.125;
#X obj 82 309 b2n;
#X obj 512 469 rr;
#X obj 222 379 stripnote;
#X obj 122 329 pack f 127;
#X obj 162 279 f;
#X obj 162 449 pack f 0;
#X obj 222 409 spigot;
#X obj 222 439 t a b;
#X obj 842 689 + 0.125;
#X obj 842 659 * 0.625;
#X obj 582 629 / 128;
#X obj 72 629 *~ 0.5;
#X obj 72 599 sysk_voice_vvcm~ rhibd bd;
#X obj 162 419 pipe 60;
#X obj 162 389 unpack;
#X connect 1 0 0 0;
#X connect 1 0 22 0;
#X connect 1 0 29 0;
#X connect 2 0 1 0;
#X connect 3 0 21 0;
#X connect 3 1 57 0;
#X connect 6 0 48 0;
#X connect 9 0 59 0;
#X connect 9 1 3 0;
#X connect 9 1 26 0;
#X connect 10 0 48 0;
#X connect 11 0 22 1;
#X connect 11 0 29 1;
#X connect 12 0 8 0;
#X connect 14 0 48 0;
#X connect 15 0 16 0;
#X connect 16 0 18 0;
#X connect 18 0 17 0;
#X connect 19 0 9 0;
#X connect 20 0 19 0;
#X connect 20 0 61 0;
#X connect 22 0 23 0;
#X connect 22 1 24 0;
#X connect 29 0 27 0;
#X connect 29 1 28 0;
#X connect 30 0 32 0;
#X connect 30 0 34 0;
#X connect 33 0 31 0;
#X connect 34 0 33 0;
#X connect 35 0 2 0;
#X connect 37 0 4 0;
#X connect 38 0 9 0;
#X connect 40 0 48 0;
#X connect 42 0 46 0;
#X connect 43 0 2 0;
#X connect 46 0 47 0;
#X connect 46 1 20 1;
#X connect 46 1 53 1;
#X connect 47 0 51 0;
#X connect 48 0 19 0;
#X connect 48 0 49 0;
#X connect 49 0 51 1;
#X connect 49 0 53 0;
#X connect 50 0 20 0;
#X connect 51 0 50 0;
#X connect 52 0 19 0;
#X connect 53 0 54 0;
#X connect 55 0 44 0;
#X connect 56 0 55 0;
#X connect 57 0 7 0;
#X connect 57 0 36 0;
#X connect 57 0 37 0;
#X connect 58 0 2 0;
#X connect 59 0 35 0;
#X connect 59 0 43 0;
#X connect 59 0 58 0;
#X connect 60 0 52 0;
#X connect 61 0 60 0;
#X restore 612 159 pd bd;
#N canvas 0 50 450 300 dspon 0;
#X obj 37 37 inlet;
#X msg 37 59 dsp 1;
#X obj 37 81 s pd;
#X connect 0 0 1 0;
#X connect 1 0 2 0;
#X restore 52 499 pd dspon;
#X obj 278 364 tgl 50 1 empty empty empty 17 7 0 10 -262144 -258113
-1 0 1;
#N canvas -8 -8 1280 677 syn 0;
#X obj 132 1539 outlet~;
#X obj 312 1539 outlet~;
#X obj 132 1429 amp_2x2_vvcm~ syn_amp;
#X obj 957 597 + 1;
#X obj 957 567 * 24;
#X obj 1097 597 s syn_fm_r;
#X obj 1107 927 s syn_arp_random_r;
#X obj 1097 567 rr;
#X obj 707 327 rr;
#X obj 707 357 s syn_arp_bypass_r;
#X obj 102 1524 peak_stick2~;
#X obj 132 579 scaler;
#X obj 243 540 nbx 2 20 -1e+037 1e+037 0 1 empty empty empty 0 -8 0
11 -262144 -1 -1 2 256;
#X obj 283 540 nbx 2 20 -1e+037 1e+037 0 1 empty empty empty 0 -8 0
11 -262144 -1 -1 0 256;
#X obj 73 650 bng 40 250 50 0 empty empty empty 17 7 0 10 -262144 -1
-1;
#X obj 132 609 pack;
#X obj 132 549 unpack;
#X obj 967 897 int;
#X obj 1107 867 * 12;
#X obj 1107 897 int;
#X obj 707 957 s syn_arp_beat_r;
#X obj 827 867 rev;
#X floatatom 827 949 5 0 0 0 - - -;
#X obj 967 927 s syn_arp_steps_r;
#X obj 457 605 vsl 50 135 0 1 0 0 empty empty empty 0 -9 0 10 -262144
-1 -1 0 0;
#X msg 457 579 set \$1;
#X obj 837 567 rr;
#X obj 517 605 vsl 50 135 0 1 0 0 empty empty empty 0 -9 0 10 -262144
-1 -1 0 0;
#X msg 517 579 set \$1;
#X obj 863 423 hsl 135 50 0 0.75 0 0 empty empty empty -2 -8 0 10 -262144
-1 -1 0 0;
#X obj 427 865 vsl 50 135 0 1 0 0 empty empty empty 0 -9 0 10 -262144
-1 -1 0 0;
#X msg 427 839 set \$1;
#X obj 707 867 pow 3;
#X obj 557 865 vsl 50 135 0 1 0 0 empty empty empty 0 -9 0 10 -262144
-1 -1 0 0;
#X msg 557 839 set \$1;
#X obj 142 1249 hip~ 50;
#X obj 202 1249 hip~ 50;
#X obj 132 809 asym_tanh_vvcm~ syn_asymtan;
#X obj 827 927 + 0.02;
#X obj 627 442 s rem_ped;
#X msg 887 399 set \$1;
#X obj 863 473 hsl 223 10 0 0.6 0 0 empty empty empty -2 -8 0 10 -262144
-1 -1 0 0;
#X obj 422 1539 outlet~;
#X obj 602 1539 outlet~;
#X obj 392 1524 peak_stick2~;
#X obj 422 1429 amp_2x2_vvcm~ syn_amp_a;
#X obj 707 247 citgl_vvcm rem_button5;
#X obj 707 107 citgl_vvcm rem_button1;
#X obj 877 107 citgl_vvcm rem_button2;
#X obj 707 187 s syn_osc_a_type_r;
#X obj 877 187 s syn_osc_b_type_r;
#X obj 877 247 cin_vvcm rem_button6;
#X obj 877 297 f 0.33333;
#X obj 877 357 s syn_arp_ms;
#X obj 687 207 print bb11;
#X obj 132 19 nip_mod_chan 1;
#X obj 957 627 linesc 77;
#X obj 707 597 s syn_osc_a_mod_r;
#X obj 837 597 s syn_osc_b_mod_r;
#X obj 587 605 vsl 50 135 0 1 0 0 empty empty empty 0 -9 0 10 -262144
-1 -1 0 0;
#X obj 647 605 vsl 50 135 0 1 0 0 empty empty empty 0 -9 0 10 -262144
-1 -1 0 0;
#X obj 957 657 s syn_osc_b_sync_r;
#X obj 132 639 rr;
#X obj 142 49 record_replay_2d_vvcm synrr;
#X obj 877 327 beat_to_ms;
#X obj 707 487 ciu_vvcm rem_kn1;
#X obj 837 487 ciu_vvcm rem_kn2;
#X obj 957 487 ciu_vvcm rem_kn3;
#X obj 1097 487 ciu_vvcm rem_kn4;
#X obj 707 387 ciu_vvcm rem_ped;
#X obj 707 757 ciu_vvcm rem_kn5;
#X obj 967 757 ciu_vvcm rem_kn7;
#X obj 1107 757 ciu_vvcm rem_kn8;
#X obj 827 757 ciu_vvcm rem_kn6;
#X obj 487 865 vsl 50 135 0 1 0 0 empty empty empty 0 -9 0 10 -262144
-1 -1 0 0;
#X msg 487 839 set \$1;
#X obj 827 897 * 0.73;
#X obj 707 927 + 0.75;
#X obj 707 897 * 2.5;
#X obj 967 867 * 5;
#X obj 707 567 spigchan cisc 1;
#X obj 837 537 spigchan cisc 1;
#X obj 957 537 spigchan cisc 1;
#X obj 1097 537 spigchan cisc 1;
#X obj 827 837 spigchan cisc 1;
#X obj 967 837 spigchan cisc 1;
#X obj 1107 837 spigchan cisc 1;
#X obj 707 837 spigchan cisc 1;
#X obj 132 749 sysk_nv_vvcm~ 7 sentinel syn;
#X obj 312 749 *~ 0.5;
#X obj 142 1049 delay_extfb_vvcm~ syn_del;
#X obj 432 1309 throw~ syn_del_in;
#X obj 432 1279 hip~ 100;
#X obj 552 1049 lfou_vvc syndelfo;
#X obj 552 1279 s syn_del_ms_r;
#X obj 432 1249 rr~ 0.05;
#X obj 1012 1219 touchin;
#X obj 707 437 s syn_fm_r;
#X obj 1012 1249 rr;
#X obj 1012 1279 / 127;
#X obj 1012 1309 s syn_fm_r;
#N canvas 406 133 450 300 rere 0;
#X obj 37 118 s synrr_play_r;
#X obj 37 37 cin_vvcm playon_ci;
#X obj 267 37 cin_vvcm rr_erase_ci;
#X obj 37 88 f 1;
#X obj 147 88 f 0;
#X obj 37 198 f 1;
#X obj 147 198 f 0;
#X obj 37 147 cin_vvcm recon_ci;
#X obj 147 147 cin_vvcm recoff_ci;
#X obj 147 37 cin_vvcm playoff_ci;
#X obj 37 228 s synrr_record_r;
#X obj 267 87 s synrr_clear_r;
#X obj 147 118 outlet;
#X obj 197 118 s synrr_clear_pipe;
#X obj 327 118 cut_voices syn;
#X connect 1 0 3 0;
#X connect 2 0 11 0;
#X connect 3 0 0 0;
#X connect 4 0 0 0;
#X connect 4 0 12 0;
#X connect 4 0 13 0;
#X connect 4 0 14 0;
#X connect 5 0 10 0;
#X connect 6 0 10 0;
#X connect 7 0 5 0;
#X connect 8 0 6 0;
#X connect 9 0 4 0;
#X restore 22 59 pd rere;
#X obj 12 379 note_array;
#X obj 56 179 until;
#X obj 56 149 t a b;
#X obj 106 179 f 0;
#X obj 56 209 f;
#X obj 86 209 + 1;
#X obj 56 119 f 127;
#X obj 22 89 t b b;
#X obj 12 409 sel 0;
#X obj 12 439 b;
#X obj 56 239 t a a;
#X obj 22 469 f;
#X obj 22 499 pack f 0;
#X obj 27 892 rev;
#X obj 27 832 r rem_ped;
#X obj 27 862 * 0.5;
#X obj 62 929 *~ 0.3;
#X obj 312 779 lop~ 333;
#X obj 312 929 *~ 1.25;
#X obj 132 999 *~ 0.16;
#X obj 322 809 lop~ 333;
#X obj 62 779 rr~;
#X connect 2 0 0 0;
#X connect 2 0 10 0;
#X connect 2 1 1 0;
#X connect 3 0 56 0;
#X connect 4 0 3 0;
#X connect 7 0 5 0;
#X connect 8 0 9 0;
#X connect 11 0 14 0;
#X connect 11 0 15 0;
#X connect 12 0 11 1;
#X connect 13 0 11 2;
#X connect 15 0 62 0;
#X connect 16 0 11 0;
#X connect 16 1 15 1;
#X connect 17 0 23 0;
#X connect 18 0 19 0;
#X connect 19 0 6 0;
#X connect 21 0 76 0;
#X connect 24 0 57 0;
#X connect 25 0 24 0;
#X connect 26 0 28 0;
#X connect 26 0 58 0;
#X connect 27 0 26 0;
#X connect 28 0 27 0;
#X connect 29 0 97 0;
#X connect 30 0 32 0;
#X connect 31 0 30 0;
#X connect 32 0 78 0;
#X connect 33 0 79 0;
#X connect 34 0 33 0;
#X connect 35 0 2 0;
#X connect 35 0 45 0;
#X connect 36 0 2 1;
#X connect 36 0 45 1;
#X connect 37 0 121 0;
#X connect 38 0 20 0;
#X connect 38 0 22 0;
#X connect 40 0 29 0;
#X connect 45 0 42 0;
#X connect 45 0 44 0;
#X connect 45 1 43 0;
#X connect 46 0 8 0;
#X connect 52 0 64 0;
#X connect 55 0 63 0;
#X connect 55 0 16 0;
#X connect 56 0 61 0;
#X connect 59 0 4 0;
#X connect 60 0 7 0;
#X connect 62 0 88 0;
#X connect 63 0 102 0;
#X connect 63 0 16 0;
#X connect 64 0 53 0;
#X connect 65 0 80 0;
#X connect 66 0 81 0;
#X connect 67 0 82 0;
#X connect 68 0 83 0;
#X connect 69 0 39 0;
#X connect 69 0 40 0;
#X connect 69 0 41 0;
#X connect 69 0 97 0;
#X connect 70 0 31 0;
#X connect 70 0 87 0;
#X connect 71 0 85 0;
#X connect 71 0 34 0;
#X connect 72 0 86 0;
#X connect 73 0 33 0;
#X connect 73 0 75 0;
#X connect 73 0 84 0;
#X connect 74 0 21 0;
#X connect 75 0 74 0;
#X connect 76 0 38 0;
#X connect 77 0 20 0;
#X connect 78 0 77 0;
#X connect 79 0 17 0;
#X connect 80 0 25 0;
#X connect 80 0 57 0;
#X connect 81 0 26 0;
#X connect 82 0 4 0;
#X connect 83 0 7 0;
#X connect 84 0 21 0;
#X connect 85 0 79 0;
#X connect 86 0 18 0;
#X connect 87 0 32 0;
#X connect 88 0 37 0;
#X connect 88 0 119 0;
#X connect 88 0 123 0;
#X connect 89 0 119 0;
#X connect 90 0 35 0;
#X connect 90 0 36 0;
#X connect 90 1 95 0;
#X connect 92 0 91 0;
#X connect 95 0 92 0;
#X connect 96 0 98 0;
#X connect 98 0 99 0;
#X connect 99 0 100 0;
#X connect 102 0 110 0;
#X connect 103 0 106 0;
#X connect 104 0 103 0;
#X connect 104 1 105 0;
#X connect 105 0 106 1;
#X connect 106 0 107 0;
#X connect 106 0 112 0;
#X connect 107 0 106 1;
#X connect 108 0 104 0;
#X connect 109 0 102 4;
#X connect 109 1 108 0;
#X connect 110 1 111 0;
#X connect 111 0 113 0;
#X connect 112 0 102 1;
#X connect 112 1 113 1;
#X connect 113 0 114 0;
#X connect 114 0 16 0;
#X connect 115 0 118 1;
#X connect 116 0 117 0;
#X connect 117 0 115 0;
#X connect 118 0 121 0;
#X connect 119 0 37 0;
#X connect 119 0 120 0;
#X connect 120 0 121 0;
#X connect 121 0 2 0;
#X connect 121 0 2 1;
#X connect 121 0 90 0;
#X connect 123 0 118 0;
#X restore 552 189 pd syn;
#N canvas 337 50 803 598 sn 0;
#X obj 332 129 vnip_shift_vvcm drum_midi sn3_ni;
#X obj 562 129 vnip_shift_vvcm drum_midi sn4_ni;
#X obj 492 289 sel 0;
#X obj 562 319 / 127;
#X obj 562 349 * 4;
#X obj 562 379 int;
#X obj 562 409 sel 0 1 2 3;
#X obj 562 469 rr;
#X obj 492 469 f 0;
#X obj 492 499 exb2n 1 1 2;
#X obj 492 239 civ_vvcm sn_slider;
#X msg 562 439 2;
#X msg 592 439 1;
#X msg 622 439 0.5;
#X obj 492 529 spigot;
#X msg 662 439 0.133333;
#X obj 534 376 bng 15 250 50 0 empty empty empty 17 7 0 10 -262144
-1 -1;
#X obj 102 249 rr;
#X obj 192 439 / 127;
#X obj 262 459 hslxnbx_vvc sn_lpf q;
#X obj 192 529 vlinesc~;
#X obj 192 499 * 11111;
#X obj 162 559 vcf_2p~;
#X obj 332 269 pack 21 100;
#X obj 192 309 stripnote;
#X obj 112 59 vnip_shift_vvcm drum_midi sn_ni;
#X obj 102 829 amp_1x2_vvcm~ sn_amp;
#X obj 102 939 outlet~;
#X obj 162 939 outlet~;
#X obj 192 469 pow 2.5;
#N canvas 142 64 948 427 sn_ni_drill 0;
#X obj 13 29 vnip_shift_vvcm drum_midi sn_ni1_2;
#X obj 22 389 outlet;
#X obj 233 129 vnip_shift_vvcm drum_midi sn_ni1_3;
#X obj 33 219 vnip_shift_vvcm drum_midi sn_ni2_2;
#X obj 23 129 vnip_shift_vvcm drum_midi sn_ni2_3;
#X connect 3 0 1 0;
#X connect 4 0 1 0;
#X restore 92 39 pd sn_ni_drill;
#X obj 132 329 downsample_vvcm~ snds;
#X obj 492 559 ciu_vvcm sndelci;
#X obj 492 610 s sndel_preamp_r;
#X obj 102 589 delay_extfb_vvcm~ sndel;
#X obj 432 790 hip~ 111;
#X obj 492 790 hip~ 555;
#X obj 432 820 lop~ 7000;
#X obj 432 870 tanhx~;
#X obj 432 930 throw~ sndel_in;
#X obj 432 850 pitch_shift~ 0.3;
#X obj 432 900 *~ 0.45;
#N canvas -8 -8 1280 677 snauto 0;
#X obj 32 179 spigot;
#X obj 22 209 sel 0;
#X obj 22 29 citgl_vvcm sn_button;
#X obj 92 429 outlet;
#X obj 422 169 spigot;
#X obj 692 199 sel 1;
#X obj 771 212 bng 15 250 50 0 empty empty empty 17 7 0 10 -262144
-1 -1;
#X obj 439 223 bng 15 250 50 0 empty empty empty 17 7 0 10 -262144
-1 -1;
#X obj 722 469 spigot;
#X obj 722 379 spigot;
#X obj 462 139 > 0.1;
#X obj 472 749 spigot;
#X obj 472 719 spigot;
#X obj 602 659 b2u_m 1.5 8;
#X obj 602 689 > 0.2;
#X obj 1062 379 vsl 30 65 0 1 0 1 empty empty empty 0 -9 0 10 -262144
-1 -1 2698 1;
#X obj 952 319 b2u 12;
#X floatatom 972 480 5 0 0 0 - - -;
#X obj 792 539 spigot;
#X obj 739 408 bng 15 250 50 0 empty empty empty 17 7 0 10 -262144
-1 -1;
#X obj 689 493 bng 15 250 50 0 empty empty empty 17 7 0 10 -262144
-1 -1;
#X obj 782 562 bng 15 250 50 0 empty empty empty 17 7 0 10 -262144
-1 -1;
#X obj 862 459 > 0.7;
#X obj 952 349 < 0.4;
#X obj 408 778 bng 15 250 50 0 empty empty empty 17 7 0 10 -262144
-1 -1;
#X obj 592 719 > 0.99;
#X obj 972 399 * 120;
#X obj 972 459 + 60;
#X obj 452 539 rrandom;
#X obj 452 629 b;
#X obj 452 659 f 24;
#X obj 492 659 + 24;
#X obj 492 629 * 80;
#X obj 452 569 pow 8;
#X obj 452 509 b2u -6;
#X obj 452 599 moses 0.05;
#X obj 242 179 spigot;
#X obj 232 209 sel 0;
#X obj 232 29 citgl_vvcm sn_button2;
#X obj 22 239 pack 36 0;
#X obj 232 239 pack 36 0;
#X obj 242 139 pack 36 192;
#X obj 32 139 pack 36 192;
#X obj 152 209 b;
#X obj 128 266 bng 15 250 50 0 empty empty empty 17 7 0 10 -262144
-1 -1;
#X obj 92 209 b;
#X obj 92 230 del 1212;
#X obj 152 230 del 666;
#X obj 492 219 sel 0;
#X obj 502 419 rr;
#X obj 472 329 pack 38 0;
#X obj 452 349 pack 24 0;
#X obj 432 369 pack 34 0;
#X obj 732 439 > 0.666;
#X obj 762 289 > 0.333777;
#X obj 402 249 cut_voices sn;
#X obj 242 109 eob2n 1;
#X obj 32 109 eob2n 2;
#X obj 692 29 seq_count_vvcm sn_seq;
#X obj 692 169 f_16x sn_seq;
#X obj 972 29 tgl_16x_vvc sn_seq;
#X obj 682 579 b2f 1.5 8;
#X obj 542 69 ciu_vvcm sn_slider;
#X obj 542 119 rr;
#X obj 452 18 vsl 30 65 0 1 0 0 empty empty empty 0 -9 0 10 -262144
-1 -1 0 1;
#X floatatom 452 91 5 0 0 0 - - -;
#X obj 642 259 > 0.3337;
#X obj 692 319 spigot;
#X obj 692 229 f 36;
#X obj 422 109 b2f 1.5 24;
#X obj 472 689 f 38 85 -12;
#X obj 532 659 b2n -12;
#X obj 792 569 spigot;
#X obj 722 349 b2f 0.25 44;
#X obj 792 469 b2f -3 48;
#X obj 422 199 f2nv 3 100;
#X obj 692 289 f2nv 4 76;
#X obj 722 528 f2nv 5 100;
#X obj 842 599 f2nv 5;
#X obj 472 779 f2nv 2 85 1;
#X connect 0 0 3 0;
#X connect 0 0 45 0;
#X connect 1 0 39 0;
#X connect 2 0 1 0;
#X connect 2 0 0 1;
#X connect 4 0 7 0;
#X connect 4 0 75 0;
#X connect 5 0 6 0;
#X connect 5 0 68 0;
#X connect 8 0 20 0;
#X connect 8 0 3 0;
#X connect 8 0 77 0;
#X connect 9 0 8 0;
#X connect 9 0 19 0;
#X connect 10 0 4 1;
#X connect 11 0 24 0;
#X connect 11 0 79 0;
#X connect 12 0 11 0;
#X connect 13 0 14 0;
#X connect 14 0 12 1;
#X connect 16 0 15 0;
#X connect 16 0 22 0;
#X connect 16 0 23 0;
#X connect 16 0 26 0;
#X connect 18 0 72 0;
#X connect 22 0 72 1;
#X connect 23 0 9 1;
#X connect 25 0 11 1;
#X connect 26 0 27 0;
#X connect 26 0 78 1;
#X connect 27 0 17 0;
#X connect 27 0 77 1;
#X connect 28 0 33 0;
#X connect 29 0 30 0;
#X connect 30 0 70 1;
#X connect 31 0 70 1;
#X connect 32 0 31 0;
#X connect 33 0 35 0;
#X connect 34 0 28 0;
#X connect 35 0 29 0;
#X connect 35 1 32 0;
#X connect 36 0 3 0;
#X connect 36 0 43 0;
#X connect 37 0 40 0;
#X connect 38 0 37 0;
#X connect 38 0 36 1;
#X connect 39 0 3 0;
#X connect 40 0 3 0;
#X connect 41 0 36 0;
#X connect 42 0 0 0;
#X connect 43 0 47 0;
#X connect 45 0 46 0;
#X connect 46 0 39 0;
#X connect 47 0 40 0;
#X connect 47 0 44 0;
#X connect 48 0 55 0;
#X connect 49 0 3 0;
#X connect 53 0 8 1;
#X connect 53 0 18 1;
#X connect 56 0 41 0;
#X connect 57 0 42 0;
#X connect 58 0 59 0;
#X connect 59 0 5 0;
#X connect 62 0 63 0;
#X connect 63 0 10 0;
#X connect 63 0 25 0;
#X connect 63 0 48 0;
#X connect 63 0 53 0;
#X connect 63 0 66 0;
#X connect 64 0 63 0;
#X connect 64 0 65 0;
#X connect 66 0 67 1;
#X connect 67 0 3 0;
#X connect 68 0 76 0;
#X connect 69 0 4 0;
#X connect 70 0 12 0;
#X connect 71 0 70 0;
#X connect 72 0 21 0;
#X connect 72 0 78 0;
#X connect 73 0 9 0;
#X connect 74 0 18 0;
#X connect 75 0 3 0;
#X connect 76 0 67 0;
#X connect 77 0 3 0;
#X connect 78 0 3 0;
#X connect 79 0 3 0;
#X restore 12 279 pd snauto;
#X obj 122 149 unpack;
#X obj 122 209 pack;
#X obj 152 179 * 2;
#X obj 102 279 sysk_nv_vvcm~ 3 imp sn;
#X obj 532 39 vnip_shift_vvcm drum_midi sn5_ni;
#X obj 102 559 *~ 0.1;
#X connect 0 0 17 0;
#X connect 1 0 17 0;
#X connect 2 0 8 0;
#X connect 2 1 3 0;
#X connect 3 0 4 0;
#X connect 4 0 5 0;
#X connect 5 0 6 0;
#X connect 6 0 11 0;
#X connect 6 1 12 0;
#X connect 6 2 13 0;
#X connect 6 3 15 0;
#X connect 7 0 9 0;
#X connect 7 0 14 1;
#X connect 8 0 14 1;
#X connect 9 0 14 0;
#X connect 10 0 2 0;
#X connect 11 0 7 0;
#X connect 12 0 7 0;
#X connect 13 0 7 0;
#X connect 15 0 7 0;
#X connect 16 0 8 0;
#X connect 17 0 24 0;
#X connect 17 0 46 0;
#X connect 18 0 29 0;
#X connect 19 0 22 2;
#X connect 20 0 22 1;
#X connect 21 0 20 0;
#X connect 22 0 34 0;
#X connect 23 0 17 0;
#X connect 24 1 18 0;
#X connect 25 0 17 0;
#X connect 25 0 43 0;
#X connect 26 0 27 0;
#X connect 26 1 28 0;
#X connect 29 0 21 0;
#X connect 30 0 17 0;
#X connect 31 0 22 0;
#X connect 31 0 48 0;
#X connect 32 0 33 0;
#X connect 34 0 26 0;
#X connect 34 1 35 0;
#X connect 34 1 36 0;
#X connect 35 0 37 0;
#X connect 36 0 37 0;
#X connect 37 0 40 0;
#X connect 38 0 41 0;
#X connect 40 0 38 0;
#X connect 41 0 39 0;
#X connect 42 0 17 0;
#X connect 43 0 44 0;
#X connect 43 1 45 0;
#X connect 44 0 17 0;
#X connect 45 0 44 1;
#X connect 46 0 22 0;
#X connect 46 0 31 0;
#X connect 46 0 48 0;
#X connect 47 0 17 0;
#X connect 48 0 34 0;
#X restore 672 129 pd sn;
#N canvas 19 19 1278 645 hh 0;
#X obj 242 379 sysk_voice_vvcm~ nhh hh;
#X obj 52 289 pack 36 36;
#X obj 262 349 b;
#X obj 242 209 vnip_vvcm drum_midi hh_ni;
#X obj 422 209 vnip_vvcm drum_midi hh2_ni;
#X obj 612 209 vnip_vvcm drum_midi hh3_ni;
#X obj 642 349 b;
#X obj 612 379 f 0;
#X obj 642 409 rr;
#X obj 662 439 s hh_osc_a_env_s_r;
#X obj 652 469 s hh_noise_env_s_r;
#X obj 642 499 s hh_osc_b_env_s_r;
#X obj 692 379 f 0.7;
#X obj 642 379 f 0.4;
#X obj 482 439 s hh_osc_a_env_r_r;
#X obj 472 469 s hh_noise_env_r_r;
#X obj 462 499 s hh_osc_b_env_r_r;
#X obj 532 379 f 1;
#X obj 242 319 t a a;
#X obj 582 319 t a a;
#X obj 312 439 s hh_osc_a_env_d_r;
#X obj 302 469 s hh_noise_env_d_r;
#X obj 292 499 s hh_osc_b_env_d_r;
#X obj 462 379 f 0.15;
#X obj 242 529 *~ 0.1;
#X obj 101 146 vsl 30 65 0 1 0 1 empty empty empty 0 -9 0 10 -262144
-1 -1 1500 1;
#X obj 52 259 t b b;
#X obj 242 559 amp_1x2_vvcm~ hh_amp;
#X obj 242 679 outlet~;
#X obj 312 679 outlet~;
#X obj 12 119 b2n;
#X obj 12 149 spigot;
#X obj 12 9 ciu_vvcm hhknob;
#N canvas 0 50 450 300 autohh 0;
#X obj 52 29 b2n 1.5;
#X obj 52 199 outlet;
#X obj 52 59 rrandom;
#X obj 52 89 moses 0.25;
#X obj 52 119 * 4;
#X connect 0 0 2 0;
#X connect 2 0 3 0;
#X connect 3 0 4 0;
#X connect 4 0 1 0;
#X restore 182 19 pd autohh;
#X obj 182 59 spigot;
#X obj 252 19 citgl_vvcm hhautoci;
#X obj 12 89 u2f 0.75 0 -3 0.25 0.125;
#X obj 422 259 ciu_vvcm hhopen;
#X obj 422 309 + 0.15;
#X connect 0 0 24 0;
#X connect 1 0 0 0;
#X connect 2 0 7 0;
#X connect 2 0 23 0;
#X connect 3 0 18 0;
#X connect 4 0 18 0;
#X connect 5 0 19 0;
#X connect 6 0 12 0;
#X connect 6 0 13 0;
#X connect 6 0 17 0;
#X connect 7 0 8 0;
#X connect 7 0 10 0;
#X connect 8 0 9 0;
#X connect 8 0 11 0;
#X connect 12 0 10 0;
#X connect 13 0 8 0;
#X connect 17 0 14 0;
#X connect 17 0 15 0;
#X connect 17 0 16 0;
#X connect 17 0 20 0;
#X connect 17 0 21 0;
#X connect 17 0 22 0;
#X connect 18 0 0 0;
#X connect 18 1 2 0;
#X connect 19 0 0 0;
#X connect 19 1 6 0;
#X connect 23 0 14 0;
#X connect 23 0 15 0;
#X connect 23 0 16 0;
#X connect 23 0 20 0;
#X connect 23 0 21 0;
#X connect 23 0 22 0;
#X connect 24 0 27 0;
#X connect 25 0 36 0;
#X connect 26 0 1 0;
#X connect 26 1 2 0;
#X connect 27 0 28 0;
#X connect 27 1 29 0;
#X connect 30 0 31 0;
#X connect 31 0 26 0;
#X connect 32 0 36 0;
#X connect 33 0 34 0;
#X connect 34 0 36 0;
#X connect 35 0 34 1;
#X connect 36 0 30 0;
#X connect 36 1 31 1;
#X connect 37 0 7 1;
#X connect 37 0 38 0;
#X connect 38 0 23 1;
#X restore 722 129 pd hh;
#N canvas 35 73 641 555 cym 0;
#X obj 37 457 tanhx~;
#X obj 37 107 vnip_shift_vvcm drum_midi cym_4ni;
#X obj 17 17 vnip_shift_vvcm drum_midi rcym_ni;
#X obj 37 487 amp_1x2_vvcm~ cym_chan;
#X obj 37 587 outlet~;
#X obj 227 587 outlet~;
#X obj 37 337 sysk_nv_vvcm~ 3 ncym rcymsynth;
#X obj 277 117 vnip_shift_vvcm drum_midi cym_2ni;
#X obj 47 367 downsample_vvcm~ cymdownsamp;
#X obj 47 277 b2pack 31 100 32;
#X obj 47 307 spigot;
#X obj 177 227 citgl_vvcm cym_on_ci;
#X obj 347 277 ciu_vvcm cymfmci;
#X obj 504 301 vsl 30 65 0 1 0 1 empty empty empty 0 -9 0 10 -262144
-1 -1 1400 1;
#X obj 347 387 s rcymsynth_fm;
#X obj 347 327 * -75;
#X obj 347 357 - 5;
#X connect 0 0 3 0;
#X connect 1 0 6 0;
#X connect 2 0 6 0;
#X connect 3 0 4 0;
#X connect 3 1 5 0;
#X connect 6 0 8 0;
#X connect 6 0 0 0;
#X connect 7 0 6 0;
#X connect 8 0 0 0;
#X connect 9 0 10 0;
#X connect 10 0 6 0;
#X connect 11 0 10 1;
#X connect 13 0 15 0;
#X connect 15 0 16 0;
#X connect 16 0 14 0;
#X restore 772 129 pd cym;
#X obj 322 49 bng 45 250 50 0 empty empty empty 17 7 0 10 -262144 -1
-1;
#X obj 222 99 s global_save;
#X obj 222 49 bng 45 250 50 0 empty empty empty 17 7 0 10 -262144 -1
-1;
#X obj 322 99 s global_load;
#X obj 322 19 loadbang;
#X obj 52 129 global_transport;
#X obj 52 49 metronome_60;
#X obj 212 129 bar_readout;
#X text 673 84 gs phrygian;
#N canvas 0 50 794 502 declares 0;
#X obj 42 456 declare -path ./vv;
#X obj 42 396 declare -path ./synth;
#X obj 42 366 declare -path ./shortcut;
#X obj 42 306 declare -path ./sampler;
#X obj 42 276 declare -path ./oscillator;
#X obj 42 246 declare -path ./modulation;
#X obj 42 216 declare -path ./misc;
#X obj 42 186 declare -path ./conversion;
#X obj 42 126 declare -path ./audio_routing;
#X obj 42 96 declare -path ./audio_effect;
#X obj 42 156 declare -path ./control_and_note;
#X obj 42 336 declare -path ./seq;
#X obj 42 426 declare -path ./timing;
#X text 39 81 For when in root:;
#X text 249 81 For when in a subdirectory:;
#X obj 252 96 declare -path ../audio_effect;
#X obj 252 126 declare -path ../audio_routing;
#X obj 252 156 declare -path ../control_and_note;
#X obj 252 186 declare -path ../conversion;
#X obj 252 216 declare -path ../misc;
#X obj 252 246 declare -path ../modulation;
#X obj 252 276 declare -path ../oscillator;
#X obj 252 306 declare -path ../sampler;
#X obj 252 336 declare -path ../seq;
#X obj 252 366 declare -path ../shortcut;
#X obj 252 396 declare -path ../synth;
#X obj 252 426 declare -path ../timing;
#X obj 252 456 declare -path ../vv;
#X obj 472 96 declare -path piloslib/audio_effect;
#X obj 472 126 declare -path piloslib/audio_routing;
#X obj 472 156 declare -path piloslib/control_and_note;
#X obj 472 186 declare -path piloslib/conversion;
#X obj 472 216 declare -path piloslib/misc;
#X obj 472 246 declare -path piloslib/modulation;
#X obj 472 276 declare -path piloslib/oscillator;
#X obj 472 306 declare -path piloslib/sampler;
#X obj 472 336 declare -path piloslib/seq;
#X obj 472 366 declare -path piloslib/shortcut;
#X obj 472 396 declare -path piloslib/synth;
#X obj 472 426 declare -path piloslib/timing;
#X obj 472 456 declare -path piloslib/vv;
#X text 469 81 For when in a folder in searchpath called piloslib:
;
#X text 29 21 Includes necessary directories. Patches only work if
library is in searchpath (automatic when installed via deken) or the
patch is in the root of the library or a subdirectory of the root;
#X restore 422 99 pd declares;
#X connect 0 0 1 0;
#X connect 2 0 3 0;
#X connect 2 1 4 0;
#X connect 3 0 6 0;
#X connect 4 0 7 0;
#X connect 6 0 5 0;
#X connect 6 0 9 0;
#X connect 6 0 12 0;
#X connect 7 0 5 1;
#X connect 7 0 10 0;
#X connect 7 0 13 0;
#X connect 9 0 8 0;
#X connect 10 0 8 1;
#X connect 11 0 10 1;
#X connect 11 0 9 1;
#X connect 11 0 18 0;
#X connect 16 0 2 0;
#X connect 16 1 2 1;
#X connect 17 0 16 0;
#X connect 17 1 16 1;
#X connect 17 2 2 0;
#X connect 17 3 2 1;
#X connect 19 0 5 2;
#X connect 20 0 2 0;
#X connect 20 1 2 1;
#X connect 20 2 16 0;
#X connect 20 3 16 1;
#X connect 21 0 16 0;
#X connect 21 1 16 1;
#X connect 22 0 16 0;
#X connect 22 1 16 1;
#X connect 23 0 16 0;
#X connect 23 1 16 1;
#X connect 24 0 27 0;
#X connect 26 0 25 0;
#X connect 28 0 24 0;
