#N canvas -8 -8 1280 677 10;
#X declare -path ./vv;
#X declare -path ./synth;
#X declare -path ./shortcut;
#X declare -path ./sampler;
#X declare -path ./oscillator;
#X declare -path ./modulation;
#X declare -path ./misc;
#X declare -path ./conversion;
#X declare -path ./audio_routing;
#X declare -path ./audio_effect;
#X declare -path ./control_and_note;
#X declare -path ./seq;
#X declare -path ./timing;
#X declare -path ../audio_effect;
#X declare -path ../audio_routing;
#X declare -path ../control_and_note;
#X declare -path ../conversion;
#X declare -path ../misc;
#X declare -path ../modulation;
#X declare -path ../oscillator;
#X declare -path ../sampler;
#X declare -path ../seq;
#X declare -path ../shortcut;
#X declare -path ../synth;
#X declare -path ../timing;
#X declare -path ../vv;
#X declare -path piloslib/audio_effect;
#X declare -path piloslib/audio_routing;
#X declare -path piloslib/control_and_note;
#X declare -path piloslib/conversion;
#X declare -path piloslib/misc;
#X declare -path piloslib/modulation;
#X declare -path piloslib/oscillator;
#X declare -path piloslib/sampler;
#X declare -path piloslib/seq;
#X declare -path piloslib/shortcut;
#X declare -path piloslib/synth;
#X declare -path piloslib/timing;
#X declare -path piloslib/vv;
#X obj 352 48 bng 60 250 50 0 empty empty empty 17 7 0 10 -262144 -1
-1;
#X obj 192 119 s global_save;
#X obj 192 48 bng 60 250 50 0 empty empty empty 17 7 0 10 -262144 -1
-1;
#X obj 352 119 s global_load;
#X obj 352 19 loadbang;
#X obj 442 19 sl_control;
#A saved 0.461568 3;
#A saved 0.199793 3;
#N canvas 0 50 1280 677 msgbx 0;
#X obj 43 13 inlet;
#X msg 43 38 \; load_send cymdslfo rev 0 \; load_send cymdslfo sync
0 1 \; load_send cymdslfo pow 1 1 \; load_send cymdslfo add 0 1 \;
load_send cymdslfo mult 1 1 \; load_send cymdslfo sin 0 1 \; load_send
cymdslfo sqr 0 1 \; load_send cymdslfo saw 0 1 \; load_send cymdslfo
rate 3.2 \; load_send cym_on_ci_ci 52 4 \; load_send cym_on_ci toggle
0 \; load_send cymdownsamp amount 0 \; load_send rcymsynth poles 2
\; load_send rcymsynth bp 1 1 \; load_send rcymsynth amp 1 1 \; load_send
rcymsynth filt_env_amount 3 \; load_send rcymsynth filt_env_ms 4000
\; load_send rcymsynth filt_env_pow 4 \; load_send rcymsynth filt_env_a
0 \; load_send rcymsynth filt_env_r 1 \; load_send rcymsynth pitch
48 \; load_send rcymsynth hp_pitch 1 1 \; load_send rcymsynth lp_pitch
1 1 \; load_send rcymsynth bp_pitch 1 1 \; load_send rcymsynth hp 0.991597
1 \; load_send rcymsynth dry 1 1 \; load_send rcymsynth lp 0.319328
1 \; load_send rcymsynth bp_q 0.0840336 16 \; load_send rcymsynth bp_env
1 2222 \; load_send rcymsynth bp_freq 0.092437 5555 \; load_send rcymsynth
hp_env 0.747899 1 \; load_send rcymsynth hp_freq 0.10084 1113 \; load_send
rcymsynth lp_env 1 1 \; load_send rcymsynth lp_freq 0.907563 10000
\; load_send rcymsynth osc_a_lp 1 1 \; load_send rcymsynth osc_a_bp
0.495798 1 \; load_send rcymsynth osc_a_hp 0 1 \; load_send rcymsynth
osc_b_dry 0 1 \; load_send rcymsynth osc_b_hp 0.151261 1 \; load_send
rcymsynth osc_b_lp 0.495798 1 \; load_send rcymsynth osc_b_bp 0 1 \;
load_send rcymsynth noise_lp 0.210084 1 \; load_send rcymsynth noise_bp
0.092437 1 \; load_send rcymsynth noise_hp 0.268908 1 \; load_send
rcymsynth noise_dry 0 1 \; load_send rcymsynth osc_a_dry 0 1 \; load_send
rcymsynth noise_env_amount 0.7 \; load_send rcymsynth noise_env_pow
3 \; load_send rcymsynth noise_env_ms 40000 \; load_send rcymsynth
noise_env_a 0 \; load_send rcymsynth noise_env_r 0.5 \; load_send rcymsynth
noise_env_d 0.5 \; load_send rcymsynth noise_env_s 0 \; load_send rcymsynth
osc_b_env_amount 0.3 \; load_send rcymsynth osc_b_env_pow 2 \; load_send
rcymsynth osc_b_env_ms 60000 \; load_send rcymsynth osc_b_env_a 0 \;
load_send rcymsynth osc_b_env_r 0.5 \; load_send rcymsynth osc_b_env_d
0.5 \; load_send rcymsynth osc_b_env_s 0 \; load_send rcymsynth osc_a_env_amount
0.25 \; load_send rcymsynth osc_a_env_pow 2 \; load_send rcymsynth
osc_a_env_ms 60000 \; load_send rcymsynth osc_a_env_a 0 \; load_send
rcymsynth osc_a_env_r 0.5 \; load_send rcymsynth osc_a_env_d 0.5 \;
load_send rcymsynth osc_a_env_s 0 \; load_send rcymsynth random_pitch
0 \; load_send rcymsynth a_amp 50 \; load_send rcymsynth b_amp 111
\; load_send rcymsynth osc_b_freq 423 \; load_send rcymsynth osc_a_freq
59 \; load_send rcymsynth fm 0.613445 4 \; load_send cym_chan amp 0.561856
\; load_send rcym_ni_ni 48 \; load_send rcym_ni pitch -3 \; load_send
cym_4ni_ni 50 \; load_send cym_4ni pitch 0.8 \; load_send hh_master_amp
amp 0.0670103 \; load_send hhautoci_ci 44 4 \; load_send hhautoci toggle
1 \; load_send hhknob 20 0 \; load_send hh_nse_a_ci 20 4 \; load_send
hh_tn2_a_ci 19 4 \; load_send hh_tn1_a_ci 18 4 \; load_send hh_amp
amp 0.226804 \; load_send hh3_ni 46 \; load_send hh2_ni 42 \; load_send
hh_ni 44 \; load_send hh freq 0.218487 3423 \; load_send hh b_amp 55
\; load_send hh osc_b 0.714286 0.5 \; load_send hh osc_a 1 0.5 \; load_send
hh noise_env_amount 4 \; load_send hh noise_env_pow 5 \; load_send
hh noise_env_ms 250 \; load_send hh noise_env_a 0 \; load_send hh noise_env_r
0.15 \; load_send hh noise_env_d 0.15 \; load_send hh noise_env_s 0
\; load_send hh osc_b_env_amount 1 \; load_send hh osc_b_env_pow 7
\; load_send hh osc_b_env_ms 3333 \; load_send hh osc_b_env_a 0.671875
\; load_send hh osc_b_env_r 0.15 \; load_send hh osc_b_env_d 0.15 \;
load_send hh osc_b_env_s 0 \; load_send hh osc_a_env_amount 4 \; load_send
hh osc_a_env_pow 5 \; load_send hh osc_a_env_ms 1011 \; load_send hh
osc_a_env_a 1 \; load_send hh osc_a_env_r 0.15 \; load_send hh osc_a_env_d
0.15 \; load_send hh osc_a_env_s 0 \; load_send hh random_pitch 0.285714
\; load_send hh amp 0.554622 27 \; load_send hh a_amp 74 \; load_send
hh osc_b_freq 3570 \; load_send hh osc_a_freq 628 \; load_send hh fm
0.0588235 80 \; load_send sn_ni2_3_ni 45 \; load_send sn_ni2_3 pitch
48 \; load_send sn_ni2_2_ni 41 \; load_send sn_ni2_2 pitch 41 \; load_send
sn_ni1_3_ni 47 \; load_send sn_ni1_3 pitch 40 \; load_send sn_ni1_2_ni
43 \; load_send sn_ni1_2 pitch 38 \; load_send sn_ff wet 1 2 \; load_send
sn_ff dry 0.563025 2 \; load_send sn_ff q 0.680672 3 \; load_send sn_ff
vowel 3 \; load_send sn_ff voice 3 \; load_send sn_ff glide 0 \; load_send
sn_ff freq -99 \; load_send sn_button_ci 43 4 \; load_send sn_button
toggle 1 \; load_send sn_amp amp 0.762887 \; load_send sn_ni_ni 37
\; load_send sn_ni pitch 24 \; load_send sn_lpf q 0.361345 3 \; load_send
sn_slider \; load_send sn4_ni_ni 39 \; load_send sn4_ni pitch 36 \;
load_send sn osc_a_lp 1 1 \; load_send sn osc_a_bp 1 1 \; load_send
sn osc_a_hp 1 1 \; load_send sn osc_b_dry 1 1 \; load_send sn osc_b_hp
1 1 \; load_send sn osc_b_lp 1 1 \; load_send sn osc_b_bp 1 1 \; load_send
sn noise_lp 1 1 \; load_send sn noise_bp 1 1 \; load_send sn noise_hp
1 1 \; load_send sn noise_dry 1 1 \; load_send sn hp_pitch 1 1 \; load_send
sn lp_pitch 0 1 \; load_send sn bp_pitch 1 1 \; load_send sn bp 0.151429
1 \; load_send sn hp 0.146341 1 \; load_send sn dry 0.361345 1 \; load_send
sn lp 0 1 \; load_send sn osc_a_dry 1 1 \; load_send sn bp_q 0.386555
3 \; load_send sn bp_env 0 1 \; load_send sn bp_freq 0.613445 10000
\; load_send sn hp_env 0 1 \; load_send sn hp_freq 0.092437 10000 \;
load_send sn lp_env 0 1 \; load_send sn lp_freq 1 10000 \; load_send
sn filt_env_amount 1 \; load_send sn filt_env_ms 250 \; load_send sn
filt_env_pow 3 \; load_send sn filt_env_a 0 \; load_send sn filt_env_r
0.5 \; load_send sn noise_env_amount 1 \; load_send sn noise_env_ms
333 \; load_send sn noise_env_pow 5 \; load_send sn noise_env_a 0.0588235
\; load_send sn noise_env_r 0.537815 \; load_send sn pitch 24 \; load_send
sn fm 0.226891 4 \; load_send sn osc_a_env_amount 1 \; load_send sn
osc_a_env_ms 500 \; load_send sn osc_a_env_pow 5 \; load_send sn osc_a_env_a
0 \; load_send sn osc_a_env_r 0.252101 \; load_send sn osc_b_env_amount
1 \; load_send sn osc_b_env_ms 250 \; load_send sn osc_b_env_pow 5
\; load_send sn osc_b_env_a 0 \; load_send sn osc_b_env_r 0.546219
\; load_send sn pitch_env_amount 38 \; load_send sn pitch_env_ms 250
\; load_send sn pitch_env_pow 77 \; load_send sn pitch_env_a 0 \; load_send
sn pitch_env_r 0.436975 \; load_send sn3_ni_ni 38 \; load_send sn3_ni
pitch 12 \; load_send syn lfo_rev 0 \; load_send syn lfo_note_reset
0 \; load_send syn lfo_sync 0 1 0 0 0 0 \; load_send syn lfo_pow 1
1 0 0 0 0 \; load_send syn lfo_add 0 1 0 0 0 0 \; load_send syn lfo_mult
1 1 0 0 0 0 \; load_send syn lfo_sin 0 1 0 0 0 0 \; load_send syn lfo_sqr
0 1 0 0 0 0 \; load_send syn lfo_saw 0 1 0 0 0 0 \; load_send syn lfo_rate
0 0 0 0 0 \; load_send syn mod_env_r 0.5 0 0 0 0 \; load_send syn mod_env_a
0 0 0 0 0 \; load_send syn mod_env_ms 500 0 0 0 0 \; load_send syn
mod_env_pow_a -3 0 0 0 0 \; load_send syn mod_env_pow_b 3 0 0 0 0 \;
load_send syn mod_env_amount 1 0 0 0 0 \; load_send syn filt_amp 0
1 0 0 0 0 0 0 \; load_send syn filt_mod 0.5 3 0 0 0 0 0 0 \; load_send
syn filt_freq 0 1 0 0 0 0 0 0 \; load_send syn filt_pitch_follow 1
\; load_send syn amp_env_amount 0.496063 0 0 0 0 0 0 \; load_send syn
amp_env_pow 3 0 0 0 0 \; load_send syn amp_env_ms 1000 0 0 0 0 \; load_send
syn amp_env_r 0.322835 0 0 0 0 \; load_send syn amp_env_s 1 0 0 0 0
\; load_send syn amp_env_d 0.5 0 0 0 0 \; load_send syn amp_env_a 0
0 0 0 0 \; load_send syn amp_pitch_follow 1 \; load_send syn dry_amp
1 0 0 0 0 0 0 \; load_send syn osc_b_pitch_env 1 \; load_send syn osc_b_reset
1 \; load_send syn osc_b_filt 0 0 0 0 0 0 0 \; load_send syn osc_b_type
1 \; load_send syn osc_b_mod_env_amount 0 0 0 0 0 0 0 \; load_send
syn osc_b_mod_env_pow 3 0 0 0 0 \; load_send syn osc_b_mod_env_ms 1000
0 0 0 0 \; load_send syn osc_b_mod_env_r 0.5 0 0 0 0 \; load_send syn
osc_b_mod_env_a 0 0 0 0 0 \; load_send syn osc_b_dry 1 0 0 0 0 0 0
\; load_send syn osc_b_sync 1 0 0 0 0 0 0 \; load_send syn osc_b_mod
0 0 0 0 0 0 0 \; load_send syn osc_b_pitch 12 0 0 0 0 0 0 \; load_send
syn fm 0.292683 3 0 0 0 0 0 0 \; load_send syn noise_filt 0 0 0 0 0
0 0 \; load_send syn pitch 12 \; load_send syn noise_ds 0 0 0 0 0 0
0 \; load_send syn noise_dry 0 0 0 0 0 0 0 \; load_send syn pitch_env_amount
0 0 0 0 0 0 0 \; load_send syn pitch_env_pow 3 0 0 0 0 \; load_send
syn pitch_env_ms 1000 0 0 0 0 \; load_send syn pitch_env_r 0.5 0 0
0 0 \; load_send syn pitch_env_a 0 0 0 0 0 \; load_send syn osc_a_pitch_env
1 \; load_send syn osc_a_reset 1 \; load_send syn osc_a_filt 0 0 0
0 0 0 0 \; load_send syn osc_a_type 1 \; load_send syn osc_a_mod_env_amount
0 0 0 0 0 0 0 \; load_send syn osc_a_mod_env_pow 3 0 0 0 0 \; load_send
syn osc_a_mod_env_ms 1000 0 0 0 0 \; load_send syn osc_a_mod_env_r
0.5 0 0 0 0 \; load_send syn osc_a_mod_env_a 0 0 0 0 0 \; load_send
syn osc_a_dry 1 0 0 0 0 0 0 \; load_send syn osc_a_sync 1 0 0 0 0 0
0 \; load_send syn osc_a_mod 0 0 0 0 0 0 0 \; load_send syn osc_a_pitch
0 0 0 0 0 0 0 \; load_send rr_auto_ci_ci 47 4 \; load_send rr_auto_ci
toggle 0 \; load_send rr_erase_ci 55 4 \; load_send syn_amp_a amp 0.201031
\; load_send syn_asymtan asym 5 \; load_send syn_asymtan amp 0.83 \;
load_send syn_verb preamp 0.680672 \; load_send syn_verb wet 0.168067
\; load_send syn_verb dry 0.478992 \; load_send syn_verb damping 0.5
\; load_send syn_verb roomsize 6.85 \; load_send syn_amp amp 0.123711
\; load_send bdsynclfo_ni 21 0 \; load_send bdsynclfo rev 0 \; load_send
bdsynclfo sync 0 1 \; load_send bdsynclfo pow 1 1 \; load_send bdsynclfo
add 1 1 \; load_send bdsynclfo mult 0.703125 3 \; load_send bdsynclfo
sin 1 1 \; load_send bdsynclfo sqr 0 1 \; load_send bdsynclfo saw 0
1 \; load_send bdsynclfo rate 4 \; load_send bd sync 0.611852 1 \;
load_send bd noise_env_amount 0.5 \; load_send bd noise_env_pow 2 \;
load_send bd noise_env_ms 11 \; load_send bd noise_env_a 0.149533 \;
load_send bd noise_env_r 0.406542 \; load_send bd noise_env_d 0.5 \;
load_send bd noise_env_s 0 \; load_send bd asym 0.121951 2 \; load_send
bd wet 0.5 \; load_send bd dry 0.5 \; load_send bd amp_pitch_follow
1 \; load_send bd mod_env_amount 1 \; load_send bd mod_env_ms 1000
\; load_send bd mod_env_pow 4 \; load_send bd mod_env_a 0.046729 \;
load_send bd mod_env_r 0.350467 \; load_send bd pitch 6.03577 \; load_send
bd preamp 0.62262 \; load_send bd amp_env_amount 1 \; load_send bd
amp_env_pow 3 \; load_send bd amp_env_ms 1577 \; load_send bd amp_env_a
0 \; load_send bd amp_env_r 1 \; load_send bd amp_env_d 0.0280374 \;
load_send bd amp_env_s 0.720472 \; load_send bd glide 0 \; load_send
bd mod 0.327103 \; load_send bd pitch_env_amount 317 \; load_send bd
pitch_env_ms 817 \; load_send bd pitch_env_pow 10 \; load_send bd pitch_env_a
0 \; load_send bd pitch_env_r 0.200935 \; load_send bd_ped_ni 64 1
\; load_send bdseq 14 0 \; load_send bdseq 13 0 \; load_send bdseq
12 46 \; load_send bdseq 11 0 \; load_send bdseq 10 34 \; load_send
bdseq 9 0 \; load_send bdseq 8 34 \; load_send bdseq 6 0 \; load_send
bdseq 5 0 \; load_send bdseq 4 36 \; load_send bdseq 3 0 \; load_send
bdseq 2 36 \; load_send bdseq 1 0 \; load_send bdseq 0 36 \; load_send
bdseq 7 0 \; load_send bdseq 15 0 \; load_send bdseq rate 2 \; load_send
bdseq length 16 \; load_send bdseq offset 0 \; load_send bdseq steps
16 \; load_send bdseqci_ci 51 4 \; load_send bdseqci toggle 1 \; load_send
bd_ni2_2_ni 40 \; load_send bd_ni2_2 pitch 34 \; load_send bd_amp_dry
amp 0.164948 \; load_send bd_amp amp 0.474227 \; load_send bd_button_ci
42 4 \; load_send bd_button toggle 0 \; load_send bd_ni7_ni 51 \; load_send
bd_ni7 pitch 43 \; load_send bd_ni6_ni 49 \; load_send bd_ni6 pitch
39 \; load_send bd_ni_ni 36 \; load_send bd_ni pitch 36 \; load_send
bd_ni5_ni 47 \; load_send bd_ni5 pitch 29 \; load_send bd_ni3_ni 43
\; load_send bd_ni3 pitch 26 \; load_send bd_asymtan asym 8 \; load_send
bd_asymtan amp 1.92292 \; load_send dlymslfo rev 0 \; load_send dlymslfo
sync 0 1 \; load_send dlymslfo pow 1 1 \; load_send dlymslfo add 1
0.01 \; load_send dlymslfo mult 1 1 \; load_send dlymslfo sin 0 5 \;
load_send dlymslfo sqr 0 1 \; load_send dlymslfo saw 0 5 \; load_send
dlymslfo rate 0.9 \; load_send a_dlylfo_rate_ci 10 4 \; load_send a_dlylfo_saw_ci
9 4 \; load_send a_dlylfo_sin_ci 8 4 \; load_send a_dly_fdbkci 23 4
\; load_send a_dly_amt 21 4 \; load_send a_dly_ms 22 4 \; load_send
a_delayR fdbk 0 \; load_send a_delayR wet 0.89916 \; load_send a_delayR
dry 1 \; load_send a_delayR ms 0.02 222 \; load_send a_delayR preamp
0.01 \; load_send a_delayL fdbk 0 \; load_send a_delayL wet 0.89916
\; load_send a_delayL dry 1 \; load_send a_delayL ms 0.02 175 \; load_send
a_delayL preamp 0.01 \; load_send a_multi asym 0 \; load_send a_multi
amp 5 \; load_send a_multi high_amp 0.9 1 \; load_send a_multi mid_amp
0.789916 1 \; load_send a_multi low_amp 1 1 \; load_send a_multi high_freq
1212 \; load_send a_multi low_freq 256 \; load_send a_speed_down 16
4 \; load_send a_speed_up 17 4 \; load_send a_rev 50 4 \; load_send
a_retrig_2 41 4 \; load_send a_retrig_4 49 4 \; load_send a_retrig_3
48 4 \; load_send a_retrig_1 40 4 \; load_send a_retrig speed 1 \;
load_send a_retrig rev 0 \; load_send a_retrig 4_window 0.125 \; load_send
a_retrig 3_window 0.5 \; load_send a_retrig 2_window 1 \; load_send
a_retrig 1_window 1 \; load_send a_retrig 3_on 0 \; load_send a_retrig
4_length 0.125 \; load_send a_retrig 3_length 0.25 \; load_send a_retrig
4_on 0 \; load_send a_retrig 2_length 0.5 \; load_send a_retrig 2_on
0 \; load_send a_retrig 1_length 1 \; load_send a_retrig 1_on 0 \;
load_send a_verb preamp 0.697479 \; load_send a_verb wet 0.10084 \;
load_send a_verb dry 0.537815 \; load_send a_verb damping 3 \; load_send
a_verb roomsize 1.04 \; load_send drum_midi_rr_record_ci \; load_send
drum_midi_rr_clear_ci \; load_send clk_zero 72 4 \; load_send tap_tempo
77 4 \; load_send rem_stop 74 4 \; load_send rem_play 75 4 \; load_send
global tempo 69 \;;
#X connect 0 0 1 0;
#X restore 442 49 pd msgbx;
#X obj 32 149 global_transport;
#X obj 522 609 catcher~ master;
#X obj 522 639 tanhx~;
#X obj 592 639 tanhx~;
#X obj 32 49 metronome_60;
#X obj 292 699 writesf_global~ 2;
#X obj 522 669 hip~ 3;
#X obj 592 669 hip~ 3;
#X obj 522 809 dac~;
#X obj 522 779 tline~;
#X obj 592 779 tline~;
#X obj 57 691 hsl 200 45 0 1 0 1 empty empty empty -2 -8 0 10 -262144
-1 -1 19900 0;
#X obj 232 789 peak_stick2~;
#X obj 232 799 peak_stick2~;
#N canvas 430 31 722 359 midi 0;
#X obj 32 39 nip_mod_chan 0;
#X obj 32 319 s drum_midi;
#X obj 142 89 s global_repl_r;
#X obj 272 89 s global_stop_r;
#X obj 142 39 cin_vvcm rem_play;
#X obj 272 39 cin_vvcm rem_stop;
#X obj 252 309 s drum_midi_rr_clear;
#X obj 252 229 s drum_midi_rr_record_r;
#X obj 252 199 sel 0;
#X obj 532 39 cin_vvcm tap_tempo;
#X obj 532 89 s global_tap_r;
#X obj 402 39 cin_vvcm clk_zero;
#X obj 402 89 f 0;
#X obj 402 119 s global_clk;
#X obj 252 259 ciu_vvcm drum_midi_rr_clear_ci;
#X obj 252 149 ciu_vvcm drum_midi_rr_record_ci;
#X obj 502 180 s cisc;
#X obj 502 159 lb 1;
#X obj 22 19 inlet;
#X connect 0 0 1 0;
#X connect 4 0 2 0;
#X connect 5 0 3 0;
#X connect 8 0 7 0;
#X connect 9 0 10 0;
#X connect 11 0 12 0;
#X connect 12 0 13 0;
#X connect 14 0 6 0;
#X connect 15 0 8 0;
#X connect 17 0 16 0;
#X connect 18 0 1 0;
#X restore 452 459 pd midi;
#X text 57 675 ||||||||||||||||||||||||||||;
#N canvas -8 -8 1280 677 a 0;
#X obj 307 947 vverb_vvcm~ a_verb;
#X obj 307 206 retrig_ij_vvcm~ a_retrig;
#X obj 737 446 sk_bit_red_vv~ a_bitred;
#N canvas 0 50 599 472 retrig 0;
#X obj 37 247 s a_retrig_1_on_r;
#X obj 37 327 s a_retrig_3_on_r;
#X obj 177 327 s a_retrig_4_on_r;
#X obj 177 247 s a_retrig_2_on_r;
#X obj 317 327 s a_retrig_rev_r;
#X obj 187 97 + 1;
#X obj 37 157 s a_retrig_speed_r;
#X obj 37 97 * 0.5;
#X obj 37 127 rev;
#X obj 37 197 ciu_vvcm a_retrig_1;
#X obj 37 277 ciu_vvcm a_retrig_3;
#X obj 177 277 ciu_vvcm a_retrig_4;
#X obj 177 197 ciu_vvcm a_retrig_2;
#X obj 317 277 ciu_vvcm a_rev;
#X obj 187 47 ciu_vvcm a_speed_up;
#X obj 37 47 ciu_vvcm a_speed_down;
#X connect 5 0 6 0;
#X connect 7 0 8 0;
#X connect 8 0 6 0;
#X connect 9 0 0 0;
#X connect 10 0 1 0;
#X connect 11 0 2 0;
#X connect 12 0 3 0;
#X connect 13 0 4 0;
#X connect 14 0 5 0;
#X connect 15 0 7 0;
#X restore 217 206 pd retrig;
#X obj 307 446 sk_bit_red_vv~ a_bitred;
#X obj 307 567 bellmid_3band_vvcm~ a_multi;
#X obj 192 489 rev;
#X obj 32 429 rev;
#X obj 192 429 rr;
#X obj 32 459 + 0.1;
#X obj 32 489 * 32;
#X obj 82 369 clip 0 1;
#X obj 32 519 s a_bitred_bits;
#X obj 192 519 s a_bitred_dry;
#X obj 32 399 lb 1;
#X obj 82 399 pow 2;
#X obj 132 49 inlet~;
#X obj 182 49 inlet~;
#X obj 307 1117 outlet~;
#X obj 677 1117 outlet~;
#X obj 34 280 vsl 30 65 0 1 0 1 empty empty empty 0 -9 0 10 -262144
-1 -1 0 1;
#X obj 28 366 bng 15 250 50 0 empty empty empty 17 7 0 10 -262144 -1
-1;
#X obj 500 1139 peak_stick2~;
#N canvas 0 50 1169 593 a_dly 0;
#X obj 177 807 + 0.01;
#X obj 37 17 inlet~;
#X obj 37 317 outlet~;
#X obj 297 17 inlet~;
#X obj 537 317 outlet~;
#X obj 37 77 delay_extfb_vvcm~ a_delayL;
#X obj 537 77 delay_extfb_vvcm~ a_delayR;
#X obj 397 297 hip~ 111;
#X obj 47 607 s a_delayL_preamp_r;
#X obj 27 627 s a_delayR_preamp_r;
#X obj 177 487 ciu_vvcm a_dly_ms;
#X obj 47 487 ciu_vvcm a_dly_amt;
#X obj 667 457 ciu_vvcm a_dly_fdbkci;
#X obj 187 837 s a_delayL_ms_r;
#X obj 677 577 s a_delayL_fdbk_r;
#X obj 667 607 s a_delayR_fdbk_r;
#X obj 177 867 s a_delayR_ms_r;
#X obj 667 637 ciu_vvcm a_dlylfo_sin_ci;
#X obj 667 717 s dlymslfo_sin_r;
#X obj 827 717 s dlymslfo_saw_r;
#X obj 827 637 ciu_vvcm a_dlylfo_saw_ci;
#X obj 987 637 ciu_vvcm a_dlylfo_rate_ci;
#X obj 987 837 s dlymslfo_rate_r;
#X obj 987 777 int;
#X floatatom 917 828 5 0 0 0 - - -;
#X obj 987 747 + 2;
#X obj 987 717 * 28;
#X obj 987 697 rev;
#X obj 177 537 pow 4;
#X obj 197 567 lfou_vvcm dlymslfo;
#X obj 257 297 hip~ 111;
#X obj 347 17 inlet~;
#X obj 987 807 * 0.1;
#X obj 257 357 tanhx~;
#X obj 257 417 throw~ a_delayL_in;
#X obj 397 357 tanhx~;
#X obj 397 417 throw~ a_delayR_in;
#X obj 257 387 *~ 1.5;
#X obj 397 387 *~ 1.5;
#X obj 47 577 + 0.01;
#X obj 257 327 *~ 7;
#X obj 397 327 *~ 7;
#X obj 667 547 pow 4;
#X obj 677 517 r dly_fdbk;
#X obj 1017 687 r dly_rate;
#X obj 287 507 r dly_rate;
#X obj 97 537 r dly_amt;
#X connect 0 0 13 0;
#X connect 0 0 16 0;
#X connect 1 0 5 0;
#X connect 3 0 6 0;
#X connect 5 0 2 0;
#X connect 5 1 30 0;
#X connect 6 0 4 0;
#X connect 6 1 7 0;
#X connect 7 0 41 0;
#X connect 10 0 28 0;
#X connect 11 0 39 0;
#X connect 12 0 42 0;
#X connect 17 0 18 0;
#X connect 20 0 19 0;
#X connect 21 0 27 0;
#X connect 23 0 32 0;
#X connect 25 0 23 0;
#X connect 26 0 25 0;
#X connect 27 0 26 0;
#X connect 28 0 0 1;
#X connect 29 0 0 0;
#X connect 30 0 40 0;
#X connect 31 0 7 0;
#X connect 31 0 30 0;
#X connect 32 0 22 0;
#X connect 32 0 24 0;
#X connect 33 0 37 0;
#X connect 35 0 38 0;
#X connect 37 0 34 0;
#X connect 38 0 36 0;
#X connect 39 0 8 0;
#X connect 39 0 9 0;
#X connect 40 0 33 0;
#X connect 41 0 35 0;
#X connect 42 0 14 0;
#X connect 42 0 15 0;
#X connect 43 0 42 0;
#X connect 44 0 27 0;
#X connect 45 0 28 0;
#X connect 46 0 39 0;
#X restore 307 847 pd a_dly;
#X obj 677 1087 tline~ 0.25;
#X obj 307 1087 tline~ 0.25;
#X obj 747 1067 * 0.37;
#X obj 82 429 * 0.6;
#X obj 192 459 * 0.9;
#X obj 152 349 pow 0.1;
#X obj 212 379 rev;
#X obj 212 409 s a_multi_high_amp_r;
#X obj 212 319 * 0.7;
#X obj 212 349 + 0.1;
#X obj 747 1017 rr a_master_amp;
#X obj 82 459 s a_bitred_wet;
#X obj 162 589 s a_bitred_amt;
#X obj 144 500 vsl 30 65 0 1 0 1 empty empty empty 0 -9 0 10 -262144
-1 -1 0 1;
#X obj 737 777 bellmid_3band_vv~ a_multi;
#X obj 733 862 *~ 0.25;
#X obj 427 847 *~ 0.25;
#X connect 0 0 25 0;
#X connect 0 1 24 0;
#X connect 1 0 4 0;
#X connect 1 1 2 0;
#X connect 2 0 38 0;
#X connect 4 0 5 0;
#X connect 5 0 23 0;
#X connect 5 1 40 0;
#X connect 6 0 13 0;
#X connect 7 0 9 0;
#X connect 8 0 28 0;
#X connect 9 0 10 0;
#X connect 10 0 12 0;
#X connect 11 0 15 0;
#X connect 14 0 7 0;
#X connect 15 0 8 0;
#X connect 15 0 7 0;
#X connect 15 0 27 0;
#X connect 16 0 1 0;
#X connect 17 0 1 1;
#X connect 20 0 11 0;
#X connect 20 0 29 0;
#X connect 21 0 14 0;
#X connect 23 0 0 0;
#X connect 23 1 0 1;
#X connect 24 0 19 0;
#X connect 25 0 18 0;
#X connect 25 0 22 0;
#X connect 26 0 24 1;
#X connect 26 0 25 1;
#X connect 27 0 35 0;
#X connect 28 0 6 0;
#X connect 29 0 32 0;
#X connect 30 0 31 0;
#X connect 32 0 33 0;
#X connect 33 0 30 0;
#X connect 34 0 26 0;
#X connect 37 0 36 0;
#X connect 38 0 23 1;
#X connect 38 1 39 0;
#X connect 39 0 0 1;
#X connect 40 0 0 0;
#X restore 722 549 pd a;
#N canvas -8 -8 1280 677 bd 0;
#X obj 92 779 delwrite~ bd_del 200;
#X obj 72 749 rr~;
#X obj 72 609 asym_tanh_vvcm~ bd_asymtan;
#X obj 272 499 stripnote;
#X obj 582 589 s bd_asymtan_amp_r;
#X obj 782 199 vnip_shift_vvcm drum_midi bd_ni3;
#X obj 782 109 vnip_shift_vvcm drum_midi bd_ni5;
#X obj 142 169 vnip_shift_vvcm drum_midi bd_ni;
#X obj 92 809 delread~ bd_del 33;
#X obj 132 439 f;
#X obj 132 409 stripnote;
#X obj 552 19 vnip_shift_vvcm drum_midi bd_ni6;
#X obj 782 19 vnip_shift_vvcm drum_midi bd_ni7;
#X obj 192 49 r drum_midi_mod_1;
#X obj 192 79 - 0.5;
#X obj 192 139 s bd_filt_env_a_r;
#X obj 192 109 clip 0 1;
#X obj 442 289 rr;
#X obj 82 379 rr;
#X obj 2 169 spigot;
#X obj 2 49 citgl_vvcm bd_button;
#X obj 272 529 s bd_triggered;
#X obj 72 839 amp_2x2_vvcm~ bd_amp;
#X obj 72 939 outlet~;
#X obj 252 939 outlet~;
#X obj 552 939 outlet;
#X obj 312 939 outlet~;
#X obj 492 939 outlet~;
#X obj 312 839 amp_2x2_vvcm~ bd_amp_dry;
#X obj 522 559 rev;
#X obj 522 649 s bd_pitch_env_a_r;
#X obj 455 592 vsl 30 65 0 1 0 1 empty empty empty 0 -9 0 10 -262144
-1 -1 0 1;
#X obj 522 619 + 0.075;
#X obj 522 589 * 0.5;
#X obj 582 529 / 96;
#X obj 437 552 nbx 7 20 -1e+037 1e+037 0 1 empty empty empty 0 -8 0
11 -262144 -1 -1 1.32292 256;
#X obj 582 559 + 0.6;
#X obj 2 429 r bd_nv_in;
#X obj 342 169 vnip_shift_vvcm drum_midi bd_ni2_2;
#N canvas 81 75 985 555 bdarp 0;
#X obj 37 407 outlet;
#X obj 37 307 spigot;
#X obj 87 187 citgl_vvcm bdseqci;
#X obj 37 22 seq_count_vvcm bdseq;
#X obj 47 342 r bdseq_rate;
#X obj 37 152 f_16x bdseq;
#X obj 317 22 nbx_16x_vvc bdseq;
#X obj 37 372 f2nv;
#X floatatom 47 173 5 0 0 0 - - -;
#X connect 1 0 7 0;
#X connect 2 0 1 1;
#X connect 3 0 5 0;
#X connect 4 0 7 2;
#X connect 5 0 1 0;
#X connect 5 0 8 0;
#X connect 7 0 0 0;
#X restore 502 349 pd bdarp;
#X obj 72 449 t a a;
#X obj 142 539 bp~ 333;
#X obj 142 569 *~ 1;
#X obj 82 529 lop~ 444;
#X obj 82 559 *~ 0.3;
#X obj 142 269 ciu_vvcm bd_ped_ni;
#X obj 142 319 swap 24;
#X obj 142 349 pack;
#X obj 2 139 b2pack 24 127 2;
#X obj 2 199 f2nv 0.1;
#X obj 72 499 sysk_nv_vvcm~ 3 rewbd bd;
#X obj 722 559 b;
#X obj 722 589 rrandom;
#X obj 722 649 + 5.98;
#X obj 722 679 s bd_pitch_r;
#X obj 722 619 * 0.18;
#X obj 702 289 lfou_vvcm bdsynclfo;
#X obj 842 559 ciu_vvcm bdsynclfo_ni;
#X obj 892 619 s bdsynclfo_mult_r;
#X obj 662 529 s bd_sync;
#X floatatom 735 532 5 0 0 0 - - -;
#X obj 842 679 pow 2;
#X obj 842 649 rev;
#X obj 842 709 s bd_preamp_r;
#X obj 842 619 * 0.3;
#X obj 802 579 inlet;
#X connect 1 0 0 0;
#X connect 1 0 22 0;
#X connect 1 0 28 0;
#X connect 2 0 1 0;
#X connect 3 0 21 0;
#X connect 3 1 34 0;
#X connect 6 0 17 0;
#X connect 7 0 17 0;
#X connect 8 0 22 1;
#X connect 8 0 28 1;
#X connect 10 0 9 1;
#X connect 11 0 17 0;
#X connect 12 0 17 0;
#X connect 13 0 14 0;
#X connect 14 0 16 0;
#X connect 16 0 15 0;
#X connect 17 0 18 0;
#X connect 17 0 25 0;
#X connect 18 0 10 0;
#X connect 18 0 40 0;
#X connect 19 0 49 0;
#X connect 20 0 19 1;
#X connect 22 0 23 0;
#X connect 22 1 24 0;
#X connect 28 0 26 0;
#X connect 28 1 27 0;
#X connect 29 0 31 0;
#X connect 29 0 33 0;
#X connect 32 0 30 0;
#X connect 33 0 32 0;
#X connect 34 0 35 0;
#X connect 34 0 36 0;
#X connect 34 0 51 0;
#X connect 36 0 4 0;
#X connect 37 0 40 0;
#X connect 38 0 17 0;
#X connect 39 0 18 0;
#X connect 40 0 50 0;
#X connect 40 1 3 0;
#X connect 41 0 42 0;
#X connect 42 0 1 0;
#X connect 43 0 44 0;
#X connect 44 0 2 0;
#X connect 45 0 46 0;
#X connect 46 0 47 0;
#X connect 46 1 47 1;
#X connect 47 0 18 0;
#X connect 48 0 19 0;
#X connect 49 0 40 0;
#X connect 50 0 2 0;
#X connect 50 0 41 0;
#X connect 50 0 43 0;
#X connect 51 0 52 0;
#X connect 52 0 55 0;
#X connect 53 0 54 0;
#X connect 55 0 53 0;
#X connect 56 0 59 0;
#X connect 56 0 60 0;
#X connect 57 0 58 0;
#X connect 57 0 64 0;
#X connect 61 0 63 0;
#X connect 62 0 61 0;
#X connect 64 0 62 0;
#X connect 65 0 64 0;
#X connect 65 0 58 0;
#X restore 672 459 pd bd;
#N canvas 0 50 450 300 dspon 0;
#X obj 37 37 inlet;
#X msg 37 59 dsp 1;
#X obj 37 81 s pd;
#X connect 0 0 1 0;
#X connect 1 0 2 0;
#X restore 52 769 pd dspon;
#X obj 278 634 tgl 50 1 empty empty empty 17 7 0 10 -262144 -258113
-1 0 1;
#N canvas -8 -8 1280 677 syn 0;
#X obj 132 979 outlet~;
#X obj 312 979 outlet~;
#X obj 132 869 amp_2x2_vvcm~ syn_amp;
#X obj 102 964 peak_stick2~;
#X obj 132 359 scaler;
#X obj 243 320 nbx 2 20 -1e+037 1e+037 0 1 empty empty empty 0 -8 0
11 -262144 -1 -1 2 256;
#X obj 283 320 nbx 2 20 -1e+037 1e+037 0 1 empty empty empty 0 -8 0
11 -262144 -1 -1 0 256;
#X obj 73 430 bng 40 250 50 0 empty empty empty 17 7 0 10 -262144 -1
-1;
#X obj 132 389 pack;
#X obj 132 329 unpack;
#X obj 282 209 b2n 8;
#X obj 282 239 s syn_arp_reset;
#X obj 142 669 vverb_vvcm~ syn_verb;
#X obj 142 839 hip~ 50;
#X obj 202 839 hip~ 50;
#X obj 132 509 asym_tanh_vvcm~ syn_asymtan;
#X obj 422 979 outlet~;
#X obj 602 979 outlet~;
#X obj 392 964 peak_stick2~;
#X obj 422 869 amp_2x2_vvcm~ syn_amp_a;
#X obj 132 49 nip_mod_chan 1;
#X msg 190 242 36 20;
#X obj 332 129 s synrr_recording_autoerase;
#X obj 132 419 rr;
#X obj 332 209 s synrr_clear;
#X obj 332 159 cin_vvcm rr_erase_ci;
#X obj 332 19 citgl_vvcm rr_auto_ci;
#X obj 512 129 s synrr_record_r;
#X obj 512 99 rr;
#X obj 132 449 sysk_nv_vvcm~ 9 sentinel syn;
#X obj 132 479 *~ 9;
#X obj 132 629 *~ 0.5;
#X obj 132 299 rr;
#X obj 122 19 inlet;
#X connect 2 0 0 0;
#X connect 2 0 3 0;
#X connect 2 1 1 0;
#X connect 4 0 7 0;
#X connect 4 0 8 0;
#X connect 5 0 4 1;
#X connect 6 0 4 2;
#X connect 8 0 23 0;
#X connect 9 0 4 0;
#X connect 9 1 8 1;
#X connect 10 0 11 0;
#X connect 12 0 13 0;
#X connect 12 1 14 0;
#X connect 13 0 2 0;
#X connect 13 0 19 0;
#X connect 14 0 2 1;
#X connect 14 0 19 1;
#X connect 15 0 31 0;
#X connect 19 0 16 0;
#X connect 19 0 18 0;
#X connect 19 1 17 0;
#X connect 20 0 32 0;
#X connect 21 0 32 0;
#X connect 23 0 29 0;
#X connect 25 0 24 0;
#X connect 26 0 22 0;
#X connect 26 0 28 0;
#X connect 28 0 27 0;
#X connect 29 0 30 0;
#X connect 30 0 15 0;
#X connect 31 0 12 1;
#X connect 31 0 12 0;
#X connect 31 0 2 0;
#X connect 31 0 2 1;
#X connect 32 0 9 0;
#X connect 33 0 32 0;
#X restore 602 489 pd syn;
#N canvas 337 50 889 598 sn 0;
#X obj 432 129 vnip_shift_vvcm drum_midi sn3_ni;
#X obj 202 279 sysk_nv_vvcm~ 3 nsn sn;
#X obj 662 129 vnip_shift_vvcm drum_midi sn4_ni;
#X obj 592 289 sel 0;
#X obj 662 319 / 127;
#X obj 662 379 int;
#X obj 662 469 rr;
#X obj 592 469 f 0;
#X obj 592 239 civ_vvcm sn_slider;
#X obj 592 529 spigot;
#X obj 634 376 bng 15 250 50 0 empty empty empty 17 7 0 10 -262144
-1 -1;
#X obj 202 249 rr;
#X obj 292 369 / 127;
#X obj 362 389 hslxnbx_vvc sn_lpf q;
#X obj 292 459 vlinesc~;
#X obj 292 429 * 11111;
#X obj 202 489 *~ 0.1;
#X obj 592 559 + 1;
#X obj 292 309 stripnote;
#X obj 212 109 vnip_shift_vvcm drum_midi sn_ni;
#X obj 202 759 amp_1x2_vvcm~ sn_amp;
#X obj 202 869 outlet~;
#X obj 262 869 outlet~;
#X obj 32 289 spigot;
#X obj 22 319 sel 0;
#X obj 22 349 pack 26 0;
#X obj 92 539 rr;
#X obj 22 139 citgl_vvcm sn_button;
#X obj 292 399 pow 2.5;
#X obj 32 249 pack 26 200;
#X obj 202 519 formant_filter_vvcm~ sn_ff;
#N canvas 0 50 877 345 sn_ni_drill 0;
#X obj 22 9 vnip_shift_vvcm drum_midi sn_ni1_2;
#X obj 22 259 outlet;
#X obj 232 9 vnip_shift_vvcm drum_midi sn_ni1_3;
#X obj 442 9 vnip_shift_vvcm drum_midi sn_ni2_2;
#X obj 652 9 vnip_shift_vvcm drum_midi sn_ni2_3;
#X connect 0 0 1 0;
#X connect 3 0 1 0;
#X connect 4 0 1 0;
#X restore 192 89 pd sn_ni_drill;
#X obj 222 199 rr;
#X obj 592 499 b2n;
#X floatatom 662 490 5 0 0 0 - - -;
#X obj 662 409 sel 0 1 2 3 4 5;
#X obj 662 349 * 5;
#X msg 662 439 0.75;
#X msg 812 439 0.125;
#X obj 432 269 pack 21 80;
#X msg 742 439 -3;
#X msg 692 439 0.375;
#X msg 772 439 0.25;
#X obj 262 489 vcf_np~ 2;
#X obj 32 219 eob2n 1;
#X connect 0 0 11 0;
#X connect 1 0 16 0;
#X connect 1 0 43 0;
#X connect 2 0 11 0;
#X connect 3 0 7 0;
#X connect 3 1 4 0;
#X connect 4 0 36 0;
#X connect 5 0 35 0;
#X connect 6 0 9 1;
#X connect 6 0 33 0;
#X connect 6 0 34 0;
#X connect 7 0 9 1;
#X connect 8 0 3 0;
#X connect 9 0 17 0;
#X connect 9 0 39 0;
#X connect 10 0 7 0;
#X connect 11 0 1 0;
#X connect 11 0 18 0;
#X connect 12 0 28 0;
#X connect 13 0 43 2;
#X connect 14 0 43 1;
#X connect 15 0 14 0;
#X connect 16 0 30 0;
#X connect 18 1 12 0;
#X connect 19 0 11 0;
#X connect 19 0 32 0;
#X connect 20 0 21 0;
#X connect 20 1 22 0;
#X connect 23 0 26 0;
#X connect 24 0 25 0;
#X connect 25 0 26 0;
#X connect 26 0 11 0;
#X connect 27 0 23 1;
#X connect 27 0 24 0;
#X connect 28 0 15 0;
#X connect 29 0 23 0;
#X connect 30 0 20 0;
#X connect 31 0 11 0;
#X connect 32 0 11 0;
#X connect 33 0 9 0;
#X connect 35 0 37 0;
#X connect 35 1 41 0;
#X connect 35 2 40 0;
#X connect 35 3 42 0;
#X connect 35 4 38 0;
#X connect 36 0 5 0;
#X connect 37 0 6 0;
#X connect 38 0 6 0;
#X connect 39 0 11 0;
#X connect 40 0 6 0;
#X connect 41 0 6 0;
#X connect 42 0 6 0;
#X connect 43 0 30 0;
#X connect 44 0 29 0;
#X restore 722 459 pd sn;
#N canvas 19 19 1278 645 hh 0;
#X obj 242 319 sysk_voice_vvcm~ nhh hh;
#X obj 52 289 pack 36 36;
#X obj 262 289 b;
#X obj 242 209 vnip_vvcm drum_midi hh_ni;
#X obj 422 209 vnip_vvcm drum_midi hh2_ni;
#X obj 612 209 vnip_vvcm drum_midi hh3_ni;
#X obj 642 289 b;
#X obj 612 319 f 0;
#X obj 642 349 rr;
#X obj 662 379 s hh_osc_a_env_s_r;
#X obj 652 409 s hh_noise_env_s_r;
#X obj 642 439 s hh_osc_b_env_s_r;
#X obj 692 319 f 0.7;
#X obj 642 319 f 0.4;
#X obj 482 379 s hh_osc_a_env_r_r;
#X obj 472 409 s hh_noise_env_r_r;
#X obj 462 439 s hh_osc_b_env_r_r;
#X obj 532 319 f 1;
#X obj 242 259 t a a;
#X obj 582 259 t a a;
#X obj 312 379 s hh_osc_a_env_d_r;
#X obj 302 409 s hh_noise_env_d_r;
#X obj 292 439 s hh_osc_b_env_d_r;
#X obj 462 319 f 0.15;
#X obj 171 116 vsl 30 65 0 1 0 1 empty empty empty 0 -9 0 10 -262144
-1 -1 0 1;
#X obj 52 259 t b b;
#X obj 242 499 amp_1x2_vvcm~ hh_amp;
#X obj 242 619 outlet~;
#X obj 312 619 outlet~;
#X obj 12 119 b2n;
#X obj 12 149 spigot;
#X obj 832 259 s hh_osc_a_env_a_r;
#X obj 972 259 s hh_osc_b_env_a_r;
#X obj 1112 259 s hh_noise_env_a_r;
#X obj 832 209 ciu_vvcm hh_tn1_a_ci;
#X obj 972 209 ciu_vvcm hh_tn2_a_ci;
#X obj 1112 209 ciu_vvcm hh_nse_a_ci;
#X obj 12 9 ciu_vvcm hhknob;
#N canvas 358 77 450 300 autohh 0;
#X obj 52 199 outlet;
#X obj 52 59 rrandom;
#X obj 52 29 b2n 0.75;
#X obj 52 89 moses 0.11;
#X obj 52 119 * 9.2;
#X connect 1 0 3 0;
#X connect 2 0 1 0;
#X connect 3 0 4 0;
#X connect 4 0 0 0;
#X restore 192 19 pd autohh;
#X obj 192 59 spigot;
#X obj 262 19 citgl_vvcm hhautoci;
#X obj 462 619 outlet~;
#X obj 532 619 outlet~;
#X obj 462 499 amp_1x2_vvcm~ hh_master_amp;
#X obj 242 469 *~ 0.12;
#X obj 262 354 hip~ 10001;
#X obj 172 379 lop~ 1111;
#X obj 242 431 *~ 0.333;
#X obj 242 375 *~ 0.4;
#X obj 112 39 inlet;
#X floatatom 12 110 5 0 0 0 - - -;
#X obj 12 89 u2fseq 5 0 1 0.75 0.5 0.25 0.1875 0.125;
#X obj 392 39 inlet;
#X obj 432 39 inlet;
#X obj 472 39 inlet;
#X connect 0 0 45 0;
#X connect 0 0 46 0;
#X connect 0 0 48 0;
#X connect 1 0 0 0;
#X connect 2 0 7 0;
#X connect 2 0 23 0;
#X connect 3 0 18 0;
#X connect 4 0 18 0;
#X connect 5 0 19 0;
#X connect 6 0 12 0;
#X connect 6 0 13 0;
#X connect 6 0 17 0;
#X connect 7 0 8 0;
#X connect 7 0 10 0;
#X connect 8 0 9 0;
#X connect 8 0 11 0;
#X connect 12 0 10 0;
#X connect 13 0 8 0;
#X connect 17 0 14 0;
#X connect 17 0 15 0;
#X connect 17 0 16 0;
#X connect 17 0 20 0;
#X connect 17 0 21 0;
#X connect 17 0 22 0;
#X connect 18 0 0 0;
#X connect 18 1 2 0;
#X connect 19 0 0 0;
#X connect 19 1 6 0;
#X connect 23 0 14 0;
#X connect 23 0 15 0;
#X connect 23 0 16 0;
#X connect 23 0 20 0;
#X connect 23 0 21 0;
#X connect 23 0 22 0;
#X connect 24 0 51 0;
#X connect 25 0 1 0;
#X connect 25 1 2 0;
#X connect 26 0 27 0;
#X connect 26 1 28 0;
#X connect 29 0 30 0;
#X connect 30 0 25 0;
#X connect 34 0 31 0;
#X connect 35 0 32 0;
#X connect 36 0 33 0;
#X connect 37 0 51 0;
#X connect 38 0 39 0;
#X connect 39 0 51 0;
#X connect 40 0 39 1;
#X connect 43 0 41 0;
#X connect 43 1 42 0;
#X connect 44 0 26 0;
#X connect 44 0 43 0;
#X connect 45 0 47 0;
#X connect 46 0 44 0;
#X connect 47 0 44 0;
#X connect 48 0 47 0;
#X connect 49 0 51 0;
#X connect 51 0 29 0;
#X connect 51 0 50 0;
#X connect 51 1 30 1;
#X connect 52 0 31 0;
#X connect 53 0 32 0;
#X connect 54 0 33 0;
#X restore 772 459 pd hh;
#N canvas 35 92 804 536 cym 0;
#X obj 37 377 tanhx~;
#X obj 227 17 vnip_shift_vvcm drum_midi cym_4ni;
#X obj 17 17 vnip_shift_vvcm drum_midi rcym_ni;
#X obj 37 407 amp_1x2_vvcm~ cym_chan;
#X obj 37 507 outlet~;
#X obj 227 507 outlet~;
#X obj 37 257 sysk_nv_vvcm~ 3 ncym rcymsynth;
#X obj 47 287 downsample_vvcm~ cymdownsamp;
#X obj 117 227 spigot;
#X obj 247 147 citgl_vvcm cym_on_ci;
#X obj 117 197 b2pack 38 100 32;
#X obj 247 227 lfou_vvcm cymdslfo;
#X connect 0 0 3 0;
#X connect 1 0 6 0;
#X connect 2 0 6 0;
#X connect 3 0 4 0;
#X connect 3 1 5 0;
#X connect 6 0 7 0;
#X connect 6 0 0 0;
#X connect 7 0 0 0;
#X connect 8 0 6 0;
#X connect 9 0 8 1;
#X connect 10 0 8 0;
#X connect 11 0 7 1;
#X restore 822 459 pd cym;
#X obj 192 149 bar_readout;
#X obj 452 299 16_pads;
#X text 552 44 Controlled via midi. Drums triggered on channel 16 \,
synth on channel 1 \, midi controls on channels 4 and 16;
#X text 552 24 f# minor;
#X obj 772 281 vsl 30 65 0 1 0 0 empty empty empty 0 -9 0 10 -262144
-1 -1 4100 1;
#X obj 442 169 tgl_dup_vvc sn_button toggle;
#X obj 822 299 tgl_dup_vvc hhautoci toggle;
#X text 822 284 randomize hh speed;
#X text 772 264 hh speed;
#X obj 442 109 tgl_dup_vvc bd_button toggle;
#X obj 442 229 tgl_dup_vvc cym_on_ci toggle;
#X obj 782 381 vsl 30 65 0 1 0 0 empty empty empty 0 -9 0 10 -262144
-1 -1 6400 1;
#X obj 812 381 vsl 30 65 0 1 0 0 empty empty empty 0 -9 0 10 -262144
-1 -1 4300 1;
#X text 812 364 oscb;
#X text 782 364 osca;
#X obj 842 381 vsl 30 65 0 1 0 0 empty empty empty 0 -9 0 10 -262144
-1 -1 0 1;
#X text 842 364 noise;
#X text 782 354 attacks:;
#X obj 782 111 vsl 30 65 0 1 0 0 empty empty empty 0 -9 0 10 -262144
-1 -1 0 1;
#X text 782 94 bd lfo;
#X obj 622 109 tgl_dup_vvc bdseqci toggle;
#X text 754 549 Effects;
#X obj 132 329 bangkeyboard;
#X obj 892 111 vsl 30 65 0 1 0 0 empty empty empty 0 -9 0 10 -262144
-1 -1 0 1;
#X obj 952 111 vsl 30 65 0 1 0 0 empty empty empty 0 -9 0 10 -262144
-1 -1 0 1;
#X obj 992 111 vsl 30 65 0 1 0 0 empty empty empty 0 -9 0 10 -262144
-1 -1 0 1;
#X text 892 84 delay:;
#X obj 952 219 s dly_fdbk;
#X obj 892 219 s dly_amt;
#X text 952 94 fdbk;
#X text 892 94 amt;
#X text 992 94 lfosin;
#X obj 1042 111 vsl 30 65 0 1 0 0 empty empty empty 0 -9 0 10 -262144
-1 -1 0 1;
#X obj 992 189 s dlymslfo_sin_r;
#X text 1042 94 lfosaw;
#X obj 922 111 vsl 30 65 0 1 0 0 empty empty empty 0 -9 0 10 -262144
-1 -1 0 1;
#X text 922 94 rate;
#X obj 922 189 s dly_rate;
#X obj 1042 219 s dlymslfo_saw_r;
#N canvas 0 50 794 502 declares 0;
#X obj 42 456 declare -path ./vv;
#X obj 42 396 declare -path ./synth;
#X obj 42 366 declare -path ./shortcut;
#X obj 42 306 declare -path ./sampler;
#X obj 42 276 declare -path ./oscillator;
#X obj 42 246 declare -path ./modulation;
#X obj 42 216 declare -path ./misc;
#X obj 42 186 declare -path ./conversion;
#X obj 42 126 declare -path ./audio_routing;
#X obj 42 96 declare -path ./audio_effect;
#X obj 42 156 declare -path ./control_and_note;
#X obj 42 336 declare -path ./seq;
#X obj 42 426 declare -path ./timing;
#X text 39 81 For when in root:;
#X text 249 81 For when in a subdirectory:;
#X obj 252 96 declare -path ../audio_effect;
#X obj 252 126 declare -path ../audio_routing;
#X obj 252 156 declare -path ../control_and_note;
#X obj 252 186 declare -path ../conversion;
#X obj 252 216 declare -path ../misc;
#X obj 252 246 declare -path ../modulation;
#X obj 252 276 declare -path ../oscillator;
#X obj 252 306 declare -path ../sampler;
#X obj 252 336 declare -path ../seq;
#X obj 252 366 declare -path ../shortcut;
#X obj 252 396 declare -path ../synth;
#X obj 252 426 declare -path ../timing;
#X obj 252 456 declare -path ../vv;
#X obj 472 96 declare -path piloslib/audio_effect;
#X obj 472 126 declare -path piloslib/audio_routing;
#X obj 472 156 declare -path piloslib/control_and_note;
#X obj 472 186 declare -path piloslib/conversion;
#X obj 472 216 declare -path piloslib/misc;
#X obj 472 246 declare -path piloslib/modulation;
#X obj 472 276 declare -path piloslib/oscillator;
#X obj 472 306 declare -path piloslib/sampler;
#X obj 472 336 declare -path piloslib/seq;
#X obj 472 366 declare -path piloslib/shortcut;
#X obj 472 396 declare -path piloslib/synth;
#X obj 472 426 declare -path piloslib/timing;
#X obj 472 456 declare -path piloslib/vv;
#X text 469 81 For when in a folder in searchpath called piloslib:
;
#X text 29 21 Includes necessary directories. Patches only work if
library is in searchpath (automatic when installed via deken) or the
patch is in the root of the library or a subdirectory of the root;
#X restore 442 79 pd declares;
#X obj 82 550 s env_reset;
#X obj 82 520 lb 0;
#X text 72 487 Envelopes don't go to zero for new note trigger in order
to get the attack effect on the hh synth;
#X connect 0 0 3 0;
#X connect 2 0 1 0;
#X connect 4 0 0 0;
#X connect 5 0 6 0;
#X connect 8 0 9 0;
#X connect 8 1 10 0;
#X connect 9 0 13 0;
#X connect 10 0 14 0;
#X connect 13 0 12 0;
#X connect 13 0 16 0;
#X connect 13 0 19 0;
#X connect 14 0 12 1;
#X connect 14 0 17 0;
#X connect 14 0 20 0;
#X connect 16 0 15 0;
#X connect 17 0 15 1;
#X connect 18 0 17 1;
#X connect 18 0 16 1;
#X connect 18 0 25 0;
#X connect 23 0 8 0;
#X connect 23 1 8 1;
#X connect 24 0 23 0;
#X connect 24 1 23 1;
#X connect 24 2 8 0;
#X connect 24 3 8 1;
#X connect 26 0 12 2;
#X connect 27 0 8 0;
#X connect 27 1 8 1;
#X connect 27 2 23 0;
#X connect 27 3 23 1;
#X connect 28 0 23 0;
#X connect 28 1 23 1;
#X connect 29 0 23 0;
#X connect 29 1 23 1;
#X connect 29 2 8 0;
#X connect 29 3 8 1;
#X connect 30 0 23 0;
#X connect 30 1 23 1;
#X connect 32 0 21 0;
#X connect 35 0 29 0;
#X connect 42 0 29 1;
#X connect 43 0 29 2;
#X connect 46 0 29 3;
#X connect 49 0 24 0;
#X connect 53 0 27 0;
#X connect 54 0 59 0;
#X connect 55 0 58 0;
#X connect 56 0 64 0;
#X connect 63 0 69 0;
#X connect 66 0 68 0;
#X connect 72 0 71 0;
