#N canvas -8 -8 1280 677 10;
#X declare -path ./vv;
#X declare -path ./synth;
#X declare -path ./shortcut;
#X declare -path ./sampler;
#X declare -path ./oscillator;
#X declare -path ./modulation;
#X declare -path ./misc;
#X declare -path ./conversion;
#X declare -path ./audio_routing;
#X declare -path ./audio_effect;
#X declare -path ./control_and_note;
#X declare -path ./seq;
#X declare -path ./timing;
#X declare -path ../audio_effect;
#X declare -path ../audio_routing;
#X declare -path ../control_and_note;
#X declare -path ../conversion;
#X declare -path ../misc;
#X declare -path ../modulation;
#X declare -path ../oscillator;
#X declare -path ../sampler;
#X declare -path ../seq;
#X declare -path ../shortcut;
#X declare -path ../synth;
#X declare -path ../timing;
#X declare -path ../vv;
#X obj 312 69 bng 45 250 50 0 empty empty empty 17 7 0 10 -262144 -1
-1;
#X obj 212 129 s global_save;
#X obj 212 69 bng 45 250 50 0 empty empty empty 17 7 0 10 -262144 -1
-1;
#X obj 312 129 s global_load;
#X obj 312 39 loadbang;
#X obj 402 69 sl_control;
#N canvas 665 208 450 300 msgbx 0;
#X obj 43 13 inlet;
#X msg 43 38 \; load_send clk_zero 72 4 \; load_send tap_tempo 77 4
\; load_send rem_stop 74 4 \; load_send rem_play 75 4 \; load_send
sentwo_delR ms 165.966 761 \; load_send sentwo_delR preamp 0.638655
\; load_send sentwo_delR wet 0.546219 \; load_send sentwo_delR dry
1 \; load_send sentwo_delR fdbk 0.571429 \; load_send sentwo_del ms
0.478992 761 \; load_send sentwo_del preamp 0.638655 \; load_send sentwo_del
wet 0.546219 \; load_send sentwo_del dry 1 \; load_send sentwo_del
fdbk 0.571429 \; load_send chdsent_amp amp 1 \; load_send chdsent_seq_0
30 0 \; load_send chdsent_seq_0 29 0 \; load_send chdsent_seq_0 28
0 \; load_send chdsent_seq_0 27 0 \; load_send chdsent_seq_0 26 0 \;
load_send chdsent_seq_0 25 0 \; load_send chdsent_seq_0 24 0 \; load_send
chdsent_seq_0 22 0 \; load_send chdsent_seq_0 21 0 \; load_send chdsent_seq_0
20 0 \; load_send chdsent_seq_0 19 0 \; load_send chdsent_seq_0 18
0 \; load_send chdsent_seq_0 17 0 \; load_send chdsent_seq_0 16 0 \;
load_send chdsent_seq_0 23 0 \; load_send chdsent_seq_0 31 0 \; load_send
chdsent_seq_0 14 0 \; load_send chdsent_seq_0 13 1 \; load_send chdsent_seq_0
12 0 \; load_send chdsent_seq_0 11 1 \; load_send chdsent_seq_0 10
0 \; load_send chdsent_seq_0 9 1 \; load_send chdsent_seq_0 8 0 \;
load_send chdsent_seq_0 6 0 \; load_send chdsent_seq_0 5 2 \; load_send
chdsent_seq_0 4 0 \; load_send chdsent_seq_0 3 2 \; load_send chdsent_seq_0
2 0 \; load_send chdsent_seq_0 1 2 \; load_send chdsent_seq_0 0 0 \;
load_send chdsent_seq_0 7 2 \; load_send chdsent_seq_0 15 1 \; load_send
chdsenthp freq 0 22150 \; load_send chdsenthp wet 0 1 \; load_send
chdsenthp dry 1 1 \; load_send chdsent lfo_rate 0 0 0 0 0 \; load_send
chdsent mod_env_r 0.5 0 0 0 0 \; load_send chdsent mod_env_a 0 0 0
0 0 \; load_send chdsent mod_env_ms 500 0 0 0 0 \; load_send chdsent
mod_env_pow_a -3 0 0 0 0 \; load_send chdsent mod_env_pow_b 3 0 0 0
0 \; load_send chdsent mod_env_amount 1 0 0 0 0 \; load_send chdsent
lfo_sin 0 1 0 0 0 0 \; load_send chdsent lfo_note_reset 0 \; load_send
chdsent lfo_pow 1 1 0 0 0 0 \; load_send chdsent lfo_saw 0 1 0 0 0
0 \; load_send chdsent filt_amp 1 1 0 0 0 0 0 0 \; load_send chdsent
filt_mod 0.5 3 0 0 0 0 0 0 \; load_send chdsent filt_freq 0 1 0 0 0
0 0 0 \; load_send chdsent filt_pitch_follow 1 \; load_send chdsent
amp_env_amount 1 0 0 0 0 0 0 \; load_send chdsent amp_env_pow 3 0 0
0 0 \; load_send chdsent amp_env_ms 1000 0 0 0 0 \; load_send chdsent
amp_env_r 0.5 0 0 0 0 \; load_send chdsent amp_env_s 0 0 0 0 0 \; load_send
chdsent amp_env_d 0.5 0 0 0 0 \; load_send chdsent amp_env_a 0 0 0
0 0 \; load_send chdsent amp_pitch_follow 1 \; load_send chdsent dry_amp
1 0 0 0 0 0 0 \; load_send chdsent osc_b_pitch_env 1 \; load_send chdsent
osc_b_reset 1 \; load_send chdsent osc_b_filt 0.518692 0 0 0 0 0 0
\; load_send chdsent osc_b_type 1 \; load_send chdsent osc_b_mod_env_amount
1 0 0 0 0 0 0 \; load_send chdsent osc_b_mod_env_pow 5 0 0 0 0 \; load_send
chdsent osc_b_mod_env_ms 500 0 0 0 0 \; load_send chdsent osc_b_mod_env_r
0.5 0 0 0 0 \; load_send chdsent osc_b_mod_env_a 0 0 0 0 0 \; load_send
chdsent osc_b_dry 0.528037 0 0 0 0 0 0 \; load_send chdsent osc_b_sync
1 0 0 0 0 0 0 \; load_send chdsent osc_b_mod 0 0 0 0 0 0 0 \; load_send
chdsent osc_b_pitch 12 0 0 0 0 0 0 \; load_send chdsent fm 0 53 0 0
0 0 0 0 \; load_send chdsent noise_filt 0 0 0 0 0 0 0 \; load_send
chdsent pitch 24 \; load_send chdsent noise_ds 0 0 0 0 0 0 0 \; load_send
chdsent noise_dry 0 0 0 0 0 0 0 \; load_send chdsent pitch_env_amount
0 0 0 0 0 0 0 \; load_send chdsent pitch_env_pow 3 0 0 0 0 \; load_send
chdsent pitch_env_ms 1000 0 0 0 0 \; load_send chdsent pitch_env_r
0.5 0 0 0 0 \; load_send chdsent pitch_env_a 0 0 0 0 0 \; load_send
chdsent osc_a_pitch_env 1 \; load_send chdsent osc_a_reset 1 \; load_send
chdsent osc_a_filt 0.5 0 0 0 0 0 0 \; load_send chdsent osc_a_type
1 \; load_send chdsent osc_a_mod_env_amount 1 0 0 0 0 0 0 \; load_send
chdsent osc_a_mod_env_pow 3 0 0 0 0 \; load_send chdsent osc_a_mod_env_ms
500 0 0 0 0 \; load_send chdsent osc_a_mod_env_r 0.5 0 0 0 0 \; load_send
chdsent osc_a_mod_env_a 0 0 0 0 0 \; load_send chdsent osc_a_dry 0.518692
0 0 0 0 0 0 \; load_send chdsent osc_a_sync 1 0 0 0 0 0 0 \; load_send
chdsent osc_a_mod 0.439252 0 0 0 0 0 0 \; load_send chdsent osc_a_pitch
0 0 0 0 0 0 0 \; load_send chdsent_seq rate 1 \; load_send chdsent_seq
length 16 \; load_send chdsent_seq offset 0 \; load_send chdsent_seq
steps 16 \; load_send sentwoni2_ni \; load_send sentwoni2 pitch 31
\; load_send sentwoni1_ni \; load_send sentwoni1 pitch 36 \; load_send
sentwo_lp freq 0.226891 2222 \; load_send sentwo_lp wet 0.798319 0.17
\; load_send sentwo_lp dry 0.815126 0.17 \; load_send sentwo lfo_rate
0 0 0 0 0 \; load_send sentwo mod_env_r 0.5 0 0 0 0 \; load_send sentwo
mod_env_a 0 0 0 0 0 \; load_send sentwo mod_env_ms 500 0 0 0 0 \; load_send
sentwo mod_env_pow_a -3 0 0 0 0 \; load_send sentwo mod_env_pow_b 3
0 0 0 0 \; load_send sentwo mod_env_amount 1 0 0 0 0 \; load_send sentwo
lfo_sin 0 1 0 0 0 0 \; load_send sentwo lfo_note_reset 0 \; load_send
sentwo lfo_pow 1 1 0 0 0 0 \; load_send sentwo lfo_saw 0 1 0 0 0 0
\; load_send sentwo filt_amp 1 2 0 0 0 0 0 0 \; load_send sentwo filt_mod
0.628049 3 0 0 0 0 0 0 \; load_send sentwo filt_freq 0 -3333 0 7777
0 0 5555 0 \; load_send sentwo filt_pitch_follow 1 \; load_send sentwo
amp_env_amount 0.75 0 0.75 0 0 0 0 \; load_send sentwo amp_env_pow
3 0 0 0 0 \; load_send sentwo amp_env_ms 5555 0 0 0 0 \; load_send
sentwo amp_env_r 0.514019 0 0 0 0 \; load_send sentwo amp_env_s 0.00958351
0 0 0 0 \; load_send sentwo amp_env_d 0.481308 0 0 0 0 \; load_send
sentwo amp_env_a 0 0 0 0 0 \; load_send sentwo amp_pitch_follow 1 \;
load_send sentwo dry_amp 1 0 0 0 0 0 0 \; load_send sentwo osc_b_pitch_env
1 \; load_send sentwo osc_b_reset 1 \; load_send sentwo osc_b_filt
0.490654 0 0 0 0 0 0 \; load_send sentwo osc_b_type 1 \; load_send
sentwo osc_b_mod_env_amount 1 0 0 0 0 0 0 \; load_send sentwo osc_b_mod_env_pow
3 0 0 0 0 \; load_send sentwo osc_b_mod_env_ms 1000 0 0 0 0 \; load_send
sentwo osc_b_mod_env_r 0.5 0 0 0 0 \; load_send sentwo osc_b_mod_env_a
0 0 0 0 0 \; load_send sentwo osc_b_dry 0 0 0 0 0 0 0 \; load_send
sentwo osc_b_sync 1 0 0 0 0 0 0 \; load_send sentwo osc_b_mod 0 0 0
0 0 0 0 \; load_send sentwo osc_b_pitch 12 0 0 0 0 0 0 \; load_send
sentwo fm 0 7 0 0 0 0 0 0 \; load_send sentwo noise_filt 0 0 0 0 0
0 0 \; load_send sentwo pitch 0 \; load_send sentwo noise_ds 0 0 0
0 0 0 0 \; load_send sentwo noise_dry 0 0 0 0 0 0 0 \; load_send sentwo
pitch_env_amount 1 0 0 0 0 0 0 \; load_send sentwo pitch_env_pow 3
0 0 0 0 \; load_send sentwo pitch_env_ms 1000 0 0 0 0 \; load_send
sentwo pitch_env_r 0.5 0 0 0 0 \; load_send sentwo pitch_env_a 0 0
0 0 0 \; load_send sentwo osc_a_pitch_env 1 \; load_send sentwo osc_a_reset
1 \; load_send sentwo osc_a_filt 1 0 0 0 0 0 0 \; load_send sentwo
osc_a_type 1 \; load_send sentwo osc_a_mod_env_amount 1 0 0 0 0 0 0
\; load_send sentwo osc_a_mod_env_pow 3 0 0 0 0 \; load_send sentwo
osc_a_mod_env_ms 500 0 0 0 0 \; load_send sentwo osc_a_mod_env_r 0.5
0 0 0 0 \; load_send sentwo osc_a_mod_env_a 0 0 0 0 0 \; load_send
sentwo osc_a_dry 0 0 0 0 0 0 0 \; load_send sentwo osc_a_sync 6.18198
0 0 0 0 0 0 \; load_send sentwo osc_a_mod 0.443925 0 0 0 0 0 0 \; load_send
sentwo osc_a_pitch 0 0 0 0 0 0 0 \; load_send sentwo_chan master 0.40404
\; load_send sentwo_chan amp_R 1 \; load_send sentwo_chan amp_L 1 \;
load_send sentwo_chan amp 1 \; load_send sentwo_chan on 1 \; load_send
sentwo_seq_0 30 0 \; load_send sentwo_seq_0 29 0 \; load_send sentwo_seq_0
28 0 \; load_send sentwo_seq_0 27 0 \; load_send sentwo_seq_0 26 0
\; load_send sentwo_seq_0 25 0 \; load_send sentwo_seq_0 24 0 \; load_send
sentwo_seq_0 22 0 \; load_send sentwo_seq_0 21 0 \; load_send sentwo_seq_0
20 0 \; load_send sentwo_seq_0 19 0 \; load_send sentwo_seq_0 18 0
\; load_send sentwo_seq_0 17 0 \; load_send sentwo_seq_0 16 0 \; load_send
sentwo_seq_0 23 0 \; load_send sentwo_seq_0 31 0 \; load_send sentwo_seq_0
14 0 \; load_send sentwo_seq_0 13 0 \; load_send sentwo_seq_0 12 0
\; load_send sentwo_seq_0 11 0 \; load_send sentwo_seq_0 10 0 \; load_send
sentwo_seq_0 9 0 \; load_send sentwo_seq_0 8 0 \; load_send sentwo_seq_0
6 0 \; load_send sentwo_seq_0 5 0 \; load_send sentwo_seq_0 4 31 \;
load_send sentwo_seq_0 3 33 \; load_send sentwo_seq_0 2 0 \; load_send
sentwo_seq_0 1 0 \; load_send sentwo_seq_0 0 33 \; load_send sentwo_seq_0
7 31 \; load_send sentwo_seq_0 15 0 \; load_send sentwo_lfo rev 0 \;
load_send sentwo_lfo sync 0 1 \; load_send sentwo_lfo pow 1 1 \; load_send
sentwo_lfo add 0.655462 87 \; load_send sentwo_lfo mult 1 1 \; load_send
sentwo_lfo sin 0 1 \; load_send sentwo_lfo sqr 0 1 \; load_send sentwo_lfo
saw 0.579832 109 \; load_send sentwo_lfo rate 4 \; load_send sentwo_seq
rate 1 \; load_send sentwo_seq length 8 \; load_send sentwo_seq offset
0 \; load_send sentwo_seq steps 16 \; load_send sn_ni_ni 37 0 \; load_send
sn_ni pitch 36 \; load_send sn_bp q 0.731092 4 \; load_send sn_bp freq
0.579832 22150 \; load_send sn_bp wet 0.689076 2 \; load_send sn_bp
dry 0.109244 1 \; load_send sn filt2_freq 0.207317 1111 -1154 0 0 0
\; load_send sn dry_amp 0.579268 2 2 0 0 0 \; load_send sn filt1_to_filt2
1 33 0 0 0 0 \; load_send sn filt2_pitch_follow 1 \; load_send sn amp_env_ms
1000 0 0 0 0 \; load_send sn amp_env_pow 3 0 0 0 0 \; load_send sn
amp_env_s 0.5 0 0 0 0 \; load_send sn amp_env_d 0.5 0 0 0 0 \; load_send
sn amp_env_r 0.5 0 0 0 0 \; load_send sn amp_env_amount 0.25 0 0.75
0 0 \; load_send sn amp_env_a 0 0 0 0 0 \; load_send sn amp_pitch_follow
1 0 0 0 0 \; load_send sn filt2_amp 0.317073 4 0 0 0 0 \; load_send
sn filt1_type 0 \; load_send sn filt1_poles 4 \; load_send sn filt1_env_r
0.434579 0 0 0 0 \; load_send sn filt1_env_a 0 0 0 0 0 \; load_send
sn filt1_env_ms 500 0 0 0 0 \; load_send sn filt1_env_pow_a 9 0 0 0
0 \; load_send sn filt1_env_pow_b 3 0 0 0 0 \; load_send sn filt1_env_amount
11111 0 0 0 0 \; load_send sn filt1_freq 0.054878 12121 0 1092 0 0
\; load_send sn filt1_pitch_follow 1 \; load_send sn filt1_amp 1 3
0 0 0 0 \; load_send sn filt1_mod 0.493902 4 0 -0.32 0 0 \; load_send
sn pitch_env_amount 0 0 141 0 0 \; load_send sn pitch_env_pow 5 0 0
0 0 \; load_send sn pitch_env_ms 250 0 0 0 0 \; load_send sn pitch_env_r
0.443925 0 0 0 0 \; load_send sn pitch_env_a 0 0 0 0 0 \; load_send
sn noise_noenv 0.350467 0 0 0 0 \; load_send sn noise_dry 0.313084
0 0 0 0 \; load_send sn noise_filt1 0.808411 0 0 0 0 \; load_send sn
noise_filt2 0.752336 0 0 0 0 \; load_send sn noise_ds_pitch_env 0.261682
0 0 0 0 \; load_send sn noise_env_r 0.537815 0 0 0 0 \; load_send sn
noise_env_a 0.0700935 0 0 0 0 \; load_send sn noise_env_ms 213 0 -96
0 0 \; load_send sn noise_env_pow_a -3 0 0 0 0 \; load_send sn noise_env_pow_b
3 0 0 0 0 \; load_send sn noise_env_amount 5 0 2 0 0 \; load_send sn
noise_ds 0 0 0 0 0 \; load_send sn osc_a_nomod 0.0981308 0 0 0 0 \;
load_send sn osc_a_sync 1 0 12 0 0 \; load_send sn osc_a_pitch_env
1 1 0 0 0 0 \; load_send sn osc_a_freq 0 0 0 0 0 \; load_send sn osc_a_pitch
0 0 0 0.3 0 \; load_send sn osc_a_pitched 1 \; load_send sn osc_a_phase_start
0 \; load_send sn osc_a_type 1 \; load_send sn osc_a_glide 0 0 0 0
0 \; load_send sn osc_a_reset 1 \; load_send sn osc_a_noenv 0.512195
1 0 0 0 0 \; load_send sn osc_a_asym 0 0 0 0 0 \; load_send sn osc_a_wet
1 0 0 0 0 \; load_send sn osc_a_mod_env_amount 1 0 0 0 0 \; load_send
sn osc_a_mod_env_pow 3 0 0 0 0 \; load_send sn osc_a_mod_env_ms 777
0 0 0 0 \; load_send sn osc_a_mod_env_r 0.5 0 0 0 0 \; load_send sn
osc_a_mod_env_a 0 0 0 0 0 \; load_send sn osc_a_env_r 0.5 0 0 0 0 \;
load_send sn osc_a_env_a 0 0 0 0 0 \; load_send sn osc_a_env_ms 500
0 0 0 0 \; load_send sn osc_a_env_pow_a -3 0 0 0 0 \; load_send sn
osc_a_env_pow_b 3 0 0 0 0 \; load_send sn osc_a_env_amount 1 0 0 0
0 \; load_send sn osc_a_filt1 1 0 0 0 0 \; load_send sn osc_a_filt2
0.439252 0 0 0 0 \; load_send sn osc_a_dry 0.0981308 0 0 0 0 \; load_send
sn osc_a_mod 0 0 0 0 0 \; load_send sn osc_b_freq 0 0 0 0 0 \; load_send
sn osc_b_pitched 1 \; load_send sn osc_b_noenv 0 0 0 0 0 \; load_send
sn osc_b_mod_env_amount 1 0 0 0 0 \; load_send sn osc_b_mod_env_pow
3 0 0 0 0 \; load_send sn osc_b_mod_env_ms 819 0 0 0 0 \; load_send
sn osc_b_mod_env_r 0.5 0 0 0 0 \; load_send sn osc_b_mod_env_a 0 0
0 0 0 \; load_send sn osc_b_phase_start 0 \; load_send sn osc_b_type
0 \; load_send sn osc_b_pitch_env 0 1 0 0 0 0 \; load_send sn osc_b_env_r
0.5 0 0 0 0 \; load_send sn osc_b_env_a 0.0794393 0 0 0 0 \; load_send
sn osc_b_env_ms 450 0 0 0 0 \; load_send sn osc_b_env_pow_a -3 0 0
0 0 \; load_send sn osc_b_env_pow_b -2 0 0 0 0 \; load_send sn osc_b_env_amount
0.5 0 0 0 0 \; load_send sn osc_b_filt1 1 0 0.404762 0 0 \; load_send
sn osc_b_filt2 0.0981308 0 0 0 0 \; load_send sn osc_b_dry 0 0 0 0
0 \; load_send sn osc_b_sync 1 0 0 0 0 \; load_send sn osc_b_glide
0 0 0 0 0 \; load_send sn osc_b_mod 0 -0.214286 0.547619 0 0 \; load_send
sn osc_b_reset 1 \; load_send sn osc_b_pitch 20 0 0 0.5 0 \; load_send
sn fm 0 12 0 0 1 0 \; load_send sn pitch -5 0 0 0 0 \; load_send sn_lfo
rev 0 \; load_send sn_lfo sync 0 1 \; load_send sn_lfo pow 1 1 \; load_send
sn_lfo add 0 127 \; load_send sn_lfo mult 1 144 \; load_send sn_lfo
sin 0 1 \; load_send sn_lfo sqr 0 1 \; load_send sn_lfo saw 1 1 \;
load_send sn_lfo rate 8 \; load_send sn_chan master 0.79798 \; load_send
sn_chan amp_R 1 \; load_send sn_chan amp_L 1 \; load_send sn_chan amp
0.20202 \; load_send sn_chan on 0 \; load_send sn_seq_0 30 0 \; load_send
sn_seq_0 29 0 \; load_send sn_seq_0 28 0 \; load_send sn_seq_0 27 0
\; load_send sn_seq_0 26 0 \; load_send sn_seq_0 25 0 \; load_send
sn_seq_0 24 0 \; load_send sn_seq_0 22 0 \; load_send sn_seq_0 21 0
\; load_send sn_seq_0 20 0 \; load_send sn_seq_0 19 0 \; load_send
sn_seq_0 18 0 \; load_send sn_seq_0 17 0 \; load_send sn_seq_0 16 0
\; load_send sn_seq_0 23 0 \; load_send sn_seq_0 31 0 \; load_send
sn_seq_0 14 36 \; load_send sn_seq_0 13 0 \; load_send sn_seq_0 12
0 \; load_send sn_seq_0 11 0 \; load_send sn_seq_0 10 36 \; load_send
sn_seq_0 9 0 \; load_send sn_seq_0 8 0 \; load_send sn_seq_0 6 36 \;
load_send sn_seq_0 5 29 \; load_send sn_seq_0 4 0 \; load_send sn_seq_0
3 0 \; load_send sn_seq_0 2 36 \; load_send sn_seq_0 1 0 \; load_send
sn_seq_0 0 0 \; load_send sn_seq_0 7 0 \; load_send sn_seq_0 15 0 \;
load_send sn_seq rate 0.5 \; load_send sn_seq length 16 \; load_send
sn_seq offset 0 \; load_send sn_seq steps 16 \; load_send bd_seq_0
30 0 \; load_send bd_seq_0 29 0 \; load_send bd_seq_0 28 38 \; load_send
bd_seq_0 27 0 \; load_send bd_seq_0 26 0 \; load_send bd_seq_0 25 38
\; load_send bd_seq_0 24 0 \; load_send bd_seq_0 22 38 \; load_send
bd_seq_0 21 0 \; load_send bd_seq_0 20 0 \; load_send bd_seq_0 19 38
\; load_send bd_seq_0 18 0 \; load_send bd_seq_0 17 0 \; load_send
bd_seq_0 16 38 \; load_send bd_seq_0 23 0 \; load_send bd_seq_0 31
0 \; load_send bd_seq_0 14 0 \; load_send bd_seq_0 13 0 \; load_send
bd_seq_0 12 38 \; load_send bd_seq_0 11 0 \; load_send bd_seq_0 10
0 \; load_send bd_seq_0 9 38 \; load_send bd_seq_0 8 0 \; load_send
bd_seq_0 6 38 \; load_send bd_seq_0 5 0 \; load_send bd_seq_0 4 0 \;
load_send bd_seq_0 3 38 \; load_send bd_seq_0 2 0 \; load_send bd_seq_0
1 0 \; load_send bd_seq_0 0 36 \; load_send bd_seq_0 7 0 \; load_send
bd_seq_0 15 0 \; load_send bd_seq rate 0.25 \; load_send bd_seq length
32 \; load_send bd_seq offset 0 \; load_send bd_seq steps 32 \; load_send
bd_lfo rev 0 \; load_send bd_lfo sync 0 1 \; load_send bd_lfo pow 1
1 \; load_send bd_lfo add 0 1 \; load_send bd_lfo mult 1 1 \; load_send
bd_lfo sin 0 1 \; load_send bd_lfo sqr 0 1 \; load_send bd_lfo saw
0 1 \; load_send bd_lfo rate 1 \; load_send bd filt2_freq 1 1354 0
0 0 0 \; load_send bd dry_amp 0.536585 1 0 0 0 0 \; load_send bd filt1_to_filt2
0.134146 2 0 0 0 0 \; load_send bd filt2_pitch_follow 1 \; load_send
bd amp_env_ms 1000 0 0 0 0 \; load_send bd amp_env_pow 3 0 0 0 0 \;
load_send bd amp_env_s 0.742991 0 0 0 0 \; load_send bd amp_env_d 0.5
0 0 0 0 \; load_send bd amp_env_r 0.5 0 0 0 0 \; load_send bd amp_env_amount
1 0 0 0 0 \; load_send bd amp_env_a 0 0 0 0 0 \; load_send bd amp_pitch_follow
1 0 0 0 0 \; load_send bd filt2_amp 0.384146 8 0 0 0 0 \; load_send
bd filt1_type 0 \; load_send bd filt1_poles 4 \; load_send bd filt1_env_r
0.0841122 0 0 0 0 \; load_send bd filt1_env_a 0 0 0 0 0 \; load_send
bd filt1_env_ms 500 0 0 0 0 \; load_send bd filt1_env_pow_a -3 0 0
0 0 \; load_send bd filt1_env_pow_b 5 0 0 0 0 \; load_send bd filt1_env_amount
5555 0 0 0 0 \; load_send bd filt1_freq 0 11111 0 0 0 0 \; load_send
bd filt1_pitch_follow 1 \; load_send bd filt1_amp 1 5 0 0 0 0 \; load_send
bd filt1_mod 0.52439 15 0 0 0 0 \; load_send bd pitch_env_amount 256
0 0 0 0 \; load_send bd pitch_env_pow 5 0 0 0 0 \; load_send bd pitch_env_ms
500 0 0 0 0 \; load_send bd pitch_env_r 0.233645 0 0 0 0 \; load_send
bd pitch_env_a 0 0 0 0 0 \; load_send bd noise_noenv 0 0 0 0 0 \; load_send
bd noise_dry 0 0 0 0 0 \; load_send bd noise_filt1 0 0 0 0 0 \; load_send
bd noise_filt2 0 0 0 0 0 \; load_send bd noise_ds_pitch_env 0 0 0 0
0 \; load_send bd noise_env_r 0.5 0 0 0 0 \; load_send bd noise_env_a
0 0 0 0 0 \; load_send bd noise_env_ms 500 0 0 0 0 \; load_send bd
noise_env_pow_a -3 0 0 0 0 \; load_send bd noise_env_pow_b 3 0 0 0
0 \; load_send bd noise_env_amount 1 0 0 0 0 \; load_send bd noise_ds
0 0 0 0 0 \; load_send bd osc_a_nomod 1 0 0 0 0 \; load_send bd osc_a_sync
1 0 0 0 0 \; load_send bd osc_a_pitch_env 1 1 0 0 0 0 \; load_send
bd osc_a_freq 0 0 0 0 0 \; load_send bd osc_a_pitch 0 0 0 0 0 \; load_send
bd osc_a_pitched 1 \; load_send bd osc_a_phase_start 0 \; load_send
bd osc_a_type 1 \; load_send bd osc_a_glide 0 0 0 0 0 \; load_send
bd osc_a_reset 1 \; load_send bd osc_a_noenv 1 1 0 0 0 0 \; load_send
bd osc_a_asym 0 0 0 0 0 \; load_send bd osc_a_wet 1 0 0 0 0 \; load_send
bd osc_a_mod_env_amount 0 0 0 0 0 \; load_send bd osc_a_mod_env_pow
3 0 0 0 0 \; load_send bd osc_a_mod_env_ms 1000 0 0 0 0 \; load_send
bd osc_a_mod_env_r 0.5 0 0 0 0 \; load_send bd osc_a_mod_env_a 0 0
0 0 0 \; load_send bd osc_a_env_r 0.5 0 0 0 0 \; load_send bd osc_a_env_a
0 0 0 0 0 \; load_send bd osc_a_env_ms 500 0 0 0 0 \; load_send bd
osc_a_env_pow_a -3 0 0 0 0 \; load_send bd osc_a_env_pow_b 3 0 0 0
0 \; load_send bd osc_a_env_amount 1 0 0 0 0 \; load_send bd osc_a_filt1
0 0 0 0 0 \; load_send bd osc_a_filt2 0 0 0 0 0 \; load_send bd osc_a_dry
1 0 0 0 0 \; load_send bd osc_a_mod 0 0 0 0 0 \; load_send bd osc_b_freq
0 0 0 0 0 \; load_send bd osc_b_pitched 1 \; load_send bd osc_b_noenv
1 0 0 0 0 \; load_send bd osc_b_mod_env_amount 1 0 2 0 0 \; load_send
bd osc_b_mod_env_pow 5 0 0 0 0 \; load_send bd osc_b_mod_env_ms 1000
0 0 0 0 \; load_send bd osc_b_mod_env_r 0.5 0 0 0 0 \; load_send bd
osc_b_mod_env_a 0 0 0 0 0 \; load_send bd osc_b_phase_start 0 \; load_send
bd osc_b_type 0 \; load_send bd osc_b_pitch_env 0 1 0 0 0 0 \; load_send
bd osc_b_env_r 0.5 0 0 0 0 \; load_send bd osc_b_env_a 0 0 0 0 0 \;
load_send bd osc_b_env_ms 500 0 0 0 0 \; load_send bd osc_b_env_pow_a
-3 0 0 0 0 \; load_send bd osc_b_env_pow_b 3 0 0 0 0 \; load_send bd
osc_b_env_amount 1 0 0 0 0 \; load_send bd osc_b_filt1 0.556075 0 0
0 0 \; load_send bd osc_b_filt2 0 0 0 0 0 \; load_send bd osc_b_dry
0 0 0 0 0 \; load_send bd osc_b_sync 1.16 0 0 0 0 \; load_send bd osc_b_glide
0 0 0 0 0 \; load_send bd osc_b_mod 0 0 0.404762 0 0 \; load_send bd
osc_b_reset 1 \; load_send bd osc_b_pitch 36 0 0 0 0 \; load_send bd
fm 0 1 0 0 0 0 \; load_send bd pitch 0 0 0 0 0 \; load_send bd_chan
master 1 \; load_send bd_chan amp_R 1 \; load_send bd_chan amp_L 1
\; load_send bd_chan amp 0.545455 \; load_send bd_chan on 1 \; load_send
syn_chan master 1 \; load_send syn_chan amp_R 1 \; load_send syn_chan
amp_L 1 \; load_send syn_chan amp 0.613445 \; load_send syn_chan on
1 \; load_send syn_bng_lfo rev 0 \; load_send syn_bng_lfo sync 0.235294
1 \; load_send syn_bng_lfo pow 1 1 \; load_send syn_bng_lfo add 0.117647
1 \; load_send syn_bng_lfo mult 0.218487 1 \; load_send syn_bng_lfo
sin 0.201681 1 \; load_send syn_bng_lfo sqr 0.193277 1 \; load_send
syn_bng_lfo saw 0.596639 1 \; load_send syn_bng_lfo rate 1 \; load_send
synseq_0 14 0 \; load_send synseq_0 13 36 \; load_send synseq_0 12
36 \; load_send synseq_0 11 0 \; load_send synseq_0 10 40 \; load_send
synseq_0 9 36 \; load_send synseq_0 8 36 \; load_send synseq_0 6 0
\; load_send synseq_0 5 36 \; load_send synseq_0 4 36 \; load_send
synseq_0 3 0 \; load_send synseq_0 2 0 \; load_send synseq_0 1 36 \;
load_send synseq_0 0 36 \; load_send synseq_0 7 0 \; load_send synseq_0
15 0 \; load_send syn lfo_rate 1 0 0 0 0 \; load_send syn mod_env_r
0.5 0 0 0 0 \; load_send syn mod_env_a 0 0 0 0 0 \; load_send syn mod_env_ms
500 0 0 0 0 \; load_send syn mod_env_pow_a -3 0 0 0 0 \; load_send
syn mod_env_pow_b 3 0 0 0 0 \; load_send syn mod_env_amount 1 0 0 0
0 \; load_send syn lfo_sin 0.121951 1 0 0 0 0 \; load_send syn lfo_note_reset
1 \; load_send syn lfo_pow 1 1 0 0 0 0 \; load_send syn lfo_saw 0.317073
-1 0 0 0 0 \; load_send syn filt_amp 0.762195 2 0 0 0 0 0 0 \; load_send
syn filt_mod 0.310976 12 0 0 0 0 0 0 \; load_send syn filt_freq 0.554878
5555 0 0 115 0 0 0 \; load_send syn filt_pitch_follow 1 \; load_send
syn amp_env_amount 1.08 0 0 0 0 0 0 \; load_send syn amp_env_pow 3
0 0 0 0 \; load_send syn amp_env_ms 777 0 0 196 0 \; load_send syn
amp_env_r 0.5 0 0 0 0 \; load_send syn amp_env_s 0 0 0 0 0 \; load_send
syn amp_env_d 0.5 0 0 0 0 \; load_send syn amp_env_a 0.296741 0 0 0
0 \; load_send syn amp_pitch_follow 1 \; load_send syn dry_amp 0.602804
0 0 0 0 0 0 \; load_send syn osc_b_pitch_env 1 \; load_send syn osc_b_reset
1 \; load_send syn osc_b_filt 1 0 0 0 0 0 0 \; load_send syn osc_b_type
1 \; load_send syn osc_b_mod_env_amount 1 0 0 0 0 0 0 \; load_send
syn osc_b_mod_env_pow 3 0 0 0 0 \; load_send syn osc_b_mod_env_ms 1000
0 0 0 0 \; load_send syn osc_b_mod_env_r 0.182243 0 0 0 0 \; load_send
syn osc_b_mod_env_a 0 0 0 0.261905 0 \; load_send syn osc_b_dry 0.859813
0 0.428571 0 0 0 0 \; load_send syn osc_b_sync 1 0 0 0 0 0 10 \; load_send
syn osc_b_mod 0.5 0 0 0.642857 0 0 0 \; load_send syn osc_b_pitch 11.85
0 0 0.43 0 0 0 \; load_send syn fm 0.243902 18 0 187 0 0 0 0 \; load_send
syn noise_filt 0.140187 0 0.571429 0 0 0 0 \; load_send syn pitch 36
\; load_send syn noise_ds 0 0 0 0 0 0 0 \; load_send syn noise_dry
0 0 0 0 0 0 0 \; load_send syn pitch_env_amount 1 0 0 0 0 0 0 \; load_send
syn pitch_env_pow 3 0 0 0 0 \; load_send syn pitch_env_ms 1000 0 0
0 0 \; load_send syn pitch_env_r 0.5 0 0 0 0 \; load_send syn pitch_env_a
0 0 0 0 0 \; load_send syn osc_a_pitch_env 1 \; load_send syn osc_a_reset
1 \; load_send syn osc_a_filt 0.588785 0 0 0 0 0 0 \; load_send syn
osc_a_type 1 \; load_send syn osc_a_mod_env_amount 1 0 0 0 0 0 0 \;
load_send syn osc_a_mod_env_pow 1 0 0 0 0 \; load_send syn osc_a_mod_env_ms
1000 0 0 0 0 \; load_send syn osc_a_mod_env_r 0.420561 0 0 0 0 \; load_send
syn osc_a_mod_env_a 0 0 0 0.142857 0 \; load_send syn osc_a_dry 0.425234
0 0 0 0 0 0 \; load_send syn osc_a_sync 1 0 0 0 0 0 0 \; load_send
syn osc_a_mod 0 0 0 0 0 0 0 \; load_send syn osc_a_pitch -0.1 0 0 0.3
0 0 0 \; load_send synseq rate 1 \; load_send synseq length 12 \; load_send
synseq offset 0 \; load_send synseq steps 16 \; load_send global tempo
92 \;;
#X connect 0 0 1 0;
#X restore 402 99 pd msgbx;
#X obj 42 149 global_transport;
#X obj 502 269 catcher~ master;
#X obj 502 319 tanhx~;
#X obj 562 319 tanhx~;
#X obj 42 69 metronome_60;
#X obj 302 389 writesf_global~ 2;
#X obj 502 349 hip~ 3;
#X obj 562 349 hip~ 3;
#X obj 502 489 dac~;
#X obj 502 459 tline~;
#X obj 562 459 tline~;
#X obj 97 391 hsl 180 40 0 1 0 1 empty empty empty -2 -8 0 10 -262144
-1 -1 17900 0;
#X obj 242 469 peak_stick2~;
#X obj 242 479 peak_stick2~;
#X text 97 375 ||||||||||||||||||||||||||||;
#X obj 302 329 tgl 40 1 empty empty empty 17 7 0 10 -262144 -36352
-1 0 1;
#X obj 202 149 bar_readout;
#N canvas 0 50 450 300 dspon 0;
#X obj 37 37 inlet;
#X msg 37 59 dsp 1;
#X obj 37 81 s pd;
#X connect 0 0 1 0;
#X connect 1 0 2 0;
#X restore 42 449 pd dspon;
#N canvas 0 50 923 549 sent 0;
#X obj 37 37 seq_count_vvcm synseq;
#X obj 37 267 sysk_nv_vvcm~ 7 sentinel syn;
#X obj 37 237 pack f 80;
#X obj 37 177 seq_scene synseq 0 f 16 nbx;
#X obj 327 177 b2n_r;
#X obj 377 37 lfou_vvcm syn_bng_lfo;
#X obj 330 244 bng 15 250 50 0 empty empty empty 17 7 0 10 -262144
-1 -1;
#X floatatom 117 198 5 0 0 0 - - -;
#X obj 37 207 sel 0;
#X floatatom 377 262 5 0 0 0 - - -;
#X obj 457 483 vsl 30 65 0 1 0 0 empty empty empty 0 -9 0 10 -262144
-1 -1 0 1;
#X obj 597 483 vsl 30 65 0 1 0 0 empty empty empty 0 -9 0 10 -262144
-1 -1 0 1;
#X obj 467 449 s syn_amp_env_a_r;
#X obj 607 449 s syn_amp_env_s_r;
#X obj 457 369 f;
#X obj 487 369 +;
#X obj 457 339 rrandom;
#X obj 447 483 vsl 30 65 0 1 0 0 empty empty empty 0 -9 0 10 -262144
-1 -1 0 1;
#X obj 457 399 linesc 3333;
#X obj 457 309 b2n 5.3;
#X obj 457 424 pow 6;
#X obj 37 297 chan_1x2_vvcm~ syn_chan;
#X connect 0 0 3 0;
#X connect 1 0 21 0;
#X connect 2 0 1 0;
#X connect 3 0 7 0;
#X connect 3 0 8 0;
#X connect 4 0 2 0;
#X connect 4 0 6 0;
#X connect 5 0 4 0;
#X connect 5 0 9 0;
#X connect 8 1 2 0;
#X connect 14 0 15 1;
#X connect 14 0 18 0;
#X connect 15 0 14 0;
#X connect 16 0 14 0;
#X connect 18 0 10 0;
#X connect 18 0 20 0;
#X connect 19 0 16 0;
#X connect 20 0 17 0;
#X connect 20 0 12 0;
#X restore 502 199 pd sent;
#N canvas 0 50 923 549 bd 0;
#X obj 37 237 pack f 80;
#X obj 327 177 b2n_r;
#X obj 330 244 bng 15 250 50 0 empty empty empty 17 7 0 10 -262144
-1 -1;
#X floatatom 117 198 5 0 0 0 - - -;
#X obj 37 207 sel 0;
#X obj 37 357 chan_1x2_vvcm~ bd_chan;
#X obj 37 267 sysk_nv_vvcm~ 1 imp bd;
#X obj 377 37 lfou_vvcm bd_lfo;
#X obj 37 37 seq_count_vvcm bd_seq;
#X obj 37 177 seq_scene bd_seq 0 f 32 nbx;
#X connect 0 0 6 0;
#X connect 1 0 2 0;
#X connect 4 1 0 0;
#X connect 6 0 5 0;
#X connect 7 0 1 0;
#X connect 8 0 9 0;
#X connect 9 0 3 0;
#X connect 9 0 4 0;
#X restore 562 199 pd bd;
#N canvas 0 50 923 549 sn 0;
#X obj 167 237 pack f 80;
#X floatatom 117 198 5 0 0 0 - - -;
#X obj 37 207 sel 0;
#X obj 37 37 seq_count_vvcm sn_seq;
#X obj 37 177 seq_scene sn_seq 0 f 32 nbx;
#X obj 37 737 chan_1x2_vvcm~ sn_chan;
#X obj 377 37 lfou_vvcm sn_lfo;
#X obj 37 327 b2n 0.25;
#X obj 37 357 pack f 20;
#X obj 37 507 sysk_nv_vvcm~ 3 imp sn;
#X obj 37 447 spigot;
#X obj 37 267 rrandom;
#X obj 37 237 b2n 2;
#X obj 107 417 b2p 8 0.75;
#X obj 37 537 vcf_mix_vvcm~ sn_bp;
#X obj 37 707 hip~ 333;
#X floatatom 337 262 5 0 0 0 - - -;
#X obj 377 287 clip 30 999;
#X obj 197 417 nip_shift_vvcm sn_ni;
#X obj 37 297 u2fseq 4 0 1 0.125 0.25 -3 -6;
#X connect 0 0 9 0;
#X connect 2 1 0 0;
#X connect 2 1 8 0;
#X connect 3 0 4 0;
#X connect 4 0 1 0;
#X connect 4 0 2 0;
#X connect 6 0 16 0;
#X connect 6 0 17 0;
#X connect 7 0 8 0;
#X connect 8 0 10 0;
#X connect 9 0 14 0;
#X connect 10 0 9 0;
#X connect 11 0 19 0;
#X connect 12 0 11 0;
#X connect 13 0 10 1;
#X connect 14 0 15 0;
#X connect 15 0 5 0;
#X connect 17 0 0 1;
#X connect 18 0 9 0;
#X connect 19 1 7 0;
#X restore 602 199 pd sn;
#X text 559 105 a dorian;
#N canvas 0 50 1003 549 sentwo 0;
#X floatatom 117 198 5 0 0 0 - - -;
#X obj 37 207 sel 0;
#X obj 37 37 seq_count_vvcm sentwo_seq;
#X obj 377 37 lfou_vvcm sentwo_lfo;
#X obj 37 177 seq_scene sentwo_seq 0 f 32 nbx;
#X obj 37 527 chan_1x2_vvcm~ sentwo_chan;
#X obj 167 237 pack f 80;
#X obj 37 327 sysk_nv_vvcm~ 3 sentinel sentwo;
#X obj 37 357 lop_mix_vvcm~ sentwo_lp;
#X floatatom 377 262 5 0 0 0 - - -;
#X obj 167 207 b2n 0.75;
#X obj 477 337 b2n 1;
#X obj 477 367 rrandom;
#X obj 477 469 f;
#X obj 507 469 +;
#X obj 827 259 > 12;
#X obj 827 289 sel 1;
#X obj 827 319 f 1;
#X obj 803 342 bng 15 250 50 0 empty empty empty 17 7 0 10 -262144
-1 -1;
#X obj 477 529 s sentwo_osc_a_sync_r;
#X obj 477 499 linesc 50;
#X obj 477 429 - 0.3;
#X obj 477 397 * 1.2;
#X obj 627 563 vsl 30 65 0 1 0 0 empty empty empty 0 -9 0 10 -262144
-1 -1 0 1;
#X obj 627 529 / 13;
#X obj 537 367 f 1.2;
#X obj 577 367 f -1.2;
#X obj 857 319 + 1;
#X obj 827 349 % 2;
#X obj 827 379 sel 0 1;
#X obj 407 529 moses 1;
#X obj 537 337 b;
#X obj 577 337 b;
#X obj 407 499 moses 12;
#X obj 557 397 f 0.2;
#X obj 597 397 f -0.2;
#X obj 677 469 f;
#X obj 707 469 +;
#X obj 677 439 rrandom;
#X obj 667 583 vsl 30 65 0 1 0 0 empty empty empty 0 -9 0 10 -262144
-1 -1 0 1;
#X obj 677 549 s sentwo_amp_env_a_r;
#X obj 817 469 f;
#X obj 847 469 +;
#X obj 817 439 rrandom;
#X obj 807 583 vsl 30 65 0 1 0 0 empty empty empty 0 -9 0 10 -262144
-1 -1 0 1;
#X obj 817 549 s sentwo_amp_env_s_r;
#X obj 817 409 b2n 3;
#X obj 817 499 linesc 5000;
#X obj 677 499 linesc 3333;
#X obj 677 409 b2n 5.3;
#X obj 677 524 pow 4;
#X obj 817 524 pow 4;
#X floatatom 425 437 5 0 0 0 - - -;
#X obj 277 699 outlet~;
#X obj 37 699 outlet~;
#N canvas 0 50 450 300 sentwomidi 0;
#X obj 37 37 nip_shift_vvcm sentwoni1;
#X obj 187 37 nip_shift_vvcm sentwoni2;
#X obj 37 137 outlet;
#X connect 0 0 2 0;
#X connect 1 0 2 0;
#X restore 17 237 pd sentwomidi;
#X obj 46 269 bng 15 250 50 0 empty empty empty 17 7 0 10 -262144 -1
-1;
#X connect 1 1 6 0;
#X connect 2 0 4 0;
#X connect 3 0 6 1;
#X connect 3 0 9 0;
#X connect 4 0 0 0;
#X connect 4 0 1 0;
#X connect 5 0 54 0;
#X connect 5 1 53 0;
#X connect 6 0 7 0;
#X connect 7 0 8 0;
#X connect 8 0 5 0;
#X connect 10 0 6 0;
#X connect 11 0 12 0;
#X connect 12 0 22 0;
#X connect 13 0 14 1;
#X connect 13 0 20 0;
#X connect 13 0 33 0;
#X connect 14 0 13 0;
#X connect 15 0 16 0;
#X connect 16 0 17 0;
#X connect 16 0 18 0;
#X connect 17 0 27 0;
#X connect 17 0 28 0;
#X connect 20 0 19 0;
#X connect 20 0 24 0;
#X connect 21 0 14 0;
#X connect 22 0 21 0;
#X connect 24 0 23 0;
#X connect 25 0 22 1;
#X connect 26 0 22 1;
#X connect 27 0 17 1;
#X connect 28 0 29 0;
#X connect 30 0 31 0;
#X connect 31 0 25 0;
#X connect 31 0 34 0;
#X connect 32 0 26 0;
#X connect 32 0 35 0;
#X connect 33 0 30 0;
#X connect 33 1 32 0;
#X connect 34 0 21 1;
#X connect 35 0 21 1;
#X connect 36 0 37 1;
#X connect 36 0 48 0;
#X connect 37 0 36 0;
#X connect 38 0 36 0;
#X connect 41 0 42 1;
#X connect 41 0 47 0;
#X connect 42 0 41 0;
#X connect 43 0 41 0;
#X connect 46 0 43 0;
#X connect 47 0 51 0;
#X connect 49 0 38 0;
#X connect 50 0 40 0;
#X connect 50 0 39 0;
#X connect 51 0 45 0;
#X connect 51 0 44 0;
#X connect 52 0 13 0;
#X connect 55 0 7 0;
#X connect 55 0 56 0;
#X restore 642 199 pd sentwo;
#X text 579 145 chan ab?;
#X text 589 165 midi;
#N canvas 0 50 1003 549 chdsent 0;
#X obj 167 237 pack f 80;
#X obj 167 207 b2n 0.75;
#X obj 477 337 b2n 1;
#X obj 477 367 rrandom;
#X obj 477 429 - 0.3;
#X obj 477 397 * 1.2;
#X obj 537 367 f 1.2;
#X obj 577 367 f -1.2;
#X obj 537 337 b;
#X obj 577 337 b;
#X obj 557 397 f 0.2;
#X obj 597 397 f -0.2;
#X obj 37 37 seq_count_vvcm chdsent_seq;
#X obj 37 327 sysk_nv_vvcm~ 3 sentinel chdsent;
#X obj 37 357 hip_mix_vvcm~ chdsenthp;
#X obj 37 177 seq_scene chdsent_seq 0 f 32 nbx;
#X obj 37 547 amp_1x2_vvcm~ chdsent_amp;
#X obj 37 657 outlet~;
#X obj 227 657 outlet~;
#X obj 37 517 rr~;
#X obj 167 267 nip_mod_chan 1;
#X msg 47 257 33 \, 36 \, 40;
#X msg 37 237 31 \, 35 \, 38;
#X obj 37 287 f2nv;
#X obj 37 207 sel 1 2 3 4;
#X connect 1 0 0 0;
#X connect 2 0 3 0;
#X connect 3 0 5 0;
#X connect 5 0 4 0;
#X connect 6 0 5 1;
#X connect 7 0 5 1;
#X connect 8 0 6 0;
#X connect 8 0 10 0;
#X connect 9 0 7 0;
#X connect 9 0 11 0;
#X connect 10 0 4 1;
#X connect 11 0 4 1;
#X connect 12 0 15 0;
#X connect 13 0 14 0;
#X connect 14 0 19 0;
#X connect 15 0 24 0;
#X connect 16 0 17 0;
#X connect 16 1 18 0;
#X connect 19 0 16 0;
#X connect 20 0 13 0;
#X connect 21 0 23 0;
#X connect 22 0 23 0;
#X connect 23 0 13 0;
#X connect 24 0 22 0;
#X connect 24 1 21 0;
#X restore 712 199 pd chdsent;
#N canvas 200 100 600 530 del 0;
#X obj 50 70 inlet~;
#X obj 50 310 outlet~;
#X obj 50 105 delay_extfb_vvcm~ sentwo_del;
#X obj 350 310 hip~ 222;
#X obj 410 310 hip~ 333;
#X obj 350 460 throw~ sentwo_del_in;
#X obj 350 400 tanhx~;
#X obj 350 340 *~ 0.7;
#X obj 350 370 *~ 0.1;
#X obj 350 430 *~ 10;
#X obj 480 70 inlet~;
#X obj 480 310 outlet~;
#X obj 780 310 hip~ 222;
#X obj 840 310 hip~ 333;
#X obj 780 400 tanhx~;
#X obj 780 340 *~ 0.7;
#X obj 780 370 *~ 0.1;
#X obj 780 430 *~ 10;
#X obj 480 105 delay_extfb_vvcm~ sentwo_delR;
#X obj 780 460 throw~ sentwo_delR_in;
#X connect 0 0 2 0;
#X connect 2 0 1 0;
#X connect 2 1 3 0;
#X connect 2 1 4 0;
#X connect 3 0 7 0;
#X connect 4 0 7 0;
#X connect 6 0 9 0;
#X connect 7 0 8 0;
#X connect 8 0 6 0;
#X connect 9 0 5 0;
#X connect 10 0 18 0;
#X connect 12 0 15 0;
#X connect 13 0 15 0;
#X connect 14 0 17 0;
#X connect 15 0 16 0;
#X connect 16 0 14 0;
#X connect 17 0 19 0;
#X connect 18 0 11 0;
#X connect 18 1 12 0;
#X connect 18 1 13 0;
#X restore 707 227 pd del;
#N canvas 430 31 722 359 midi 0;
#X obj 142 89 s global_repl_r;
#X obj 272 89 s global_stop_r;
#X obj 142 39 cin_vvcm rem_play;
#X obj 272 39 cin_vvcm rem_stop;
#X obj 532 39 cin_vvcm tap_tempo;
#X obj 532 89 s global_tap_r;
#X obj 402 39 cin_vvcm clk_zero;
#X obj 402 89 f 0;
#X obj 402 119 s global_clk;
#X connect 2 0 0 0;
#X connect 3 0 1 0;
#X connect 4 0 5 0;
#X connect 6 0 7 0;
#X connect 7 0 8 0;
#X restore 502 149 pd midi;
#X obj 812 39 tgl_dup_vvc bd_chan on;
#X obj 812 109 tgl_dup_vvc sn_chan on;
#X obj 812 199 hsl_dup_vvc syn_chan amp;
#X obj 812 389 hsl_dup_vvc chdsent_amp amp;
#X obj 602 489 hsl_dup_vvc sentwo_del preamp;
#X obj 602 539 s sentwo_delR_preamp_r;
#X obj 602 569 hslxnbx_dup_vvc sentwo_del ms;
#X obj 802 489 hsl_dup_vvc sentwo_del fdbk;
#X obj 802 539 s sentwo_delR_fdbk_r;
#X obj 812 299 hsl_dup_vvc sentwo_chan amp;
#X obj 982 299 hslxnbx_dup_vvc sentwo fm;
#X obj 982 109 hslxnbx_dup_vvc sn fm;
#X obj 982 201 vsl 30 65 0 1 0 0 empty empty empty 0 -9 0 10 -262144
-1 -1 0 1;
#X obj 1032 199 * 2.2;
#X obj 1032 229 + 1;
#X obj 1032 259 s syn_osc_b_sync_r;
#X text 979 185 sync;
#X obj 982 389 hslxnbx_dup_vvc chdsent fm;
#X obj 982 449 nbx_dup_vvc chdsent pitch_env_amount;
#X obj 802 569 hsl_dup_vvc sentwo_del wet;
#X obj 802 619 s sentwo_delR_wet_r;
#X obj 602 669 s sentwo_delR_ms;
#X text 569 125 delay lfo;
#X obj 602 639 + 3;
#N canvas 0 50 499 502 declares 0;
#X obj 42 436 declare -path ./vv;
#X obj 42 376 declare -path ./synth;
#X obj 42 346 declare -path ./shortcut;
#X obj 42 286 declare -path ./sampler;
#X obj 42 256 declare -path ./oscillator;
#X obj 42 226 declare -path ./modulation;
#X obj 42 196 declare -path ./misc;
#X obj 42 166 declare -path ./conversion;
#X obj 42 106 declare -path ./audio_routing;
#X obj 42 76 declare -path ./audio_effect;
#X obj 42 136 declare -path ./control_and_note;
#X obj 42 316 declare -path ./seq;
#X obj 42 406 declare -path ./timing;
#X text 39 61 For when in root:;
#X text 249 61 For when in a subdirectory:;
#X obj 252 76 declare -path ../audio_effect;
#X obj 252 106 declare -path ../audio_routing;
#X obj 252 136 declare -path ../control_and_note;
#X obj 252 166 declare -path ../conversion;
#X obj 252 196 declare -path ../misc;
#X obj 252 226 declare -path ../modulation;
#X obj 252 256 declare -path ../oscillator;
#X obj 252 286 declare -path ../sampler;
#X obj 252 316 declare -path ../seq;
#X obj 252 346 declare -path ../shortcut;
#X obj 252 376 declare -path ../synth;
#X obj 252 406 declare -path ../timing;
#X obj 252 436 declare -path ../vv;
#X text 29 11 Includes necessary directories. Only works if patch is
in root or a subdirectory of root. To have this located elsewhere \,
include PilosLib directories in pd's search path;
#X restore 402 129 pd declares;
#X connect 0 0 3 0;
#X connect 2 0 1 0;
#X connect 4 0 0 0;
#X connect 5 0 6 0;
#X connect 8 0 9 0;
#X connect 8 1 10 0;
#X connect 9 0 13 0;
#X connect 10 0 14 0;
#X connect 13 0 12 0;
#X connect 13 0 16 0;
#X connect 13 0 19 0;
#X connect 14 0 12 1;
#X connect 14 0 17 0;
#X connect 14 0 20 0;
#X connect 16 0 15 0;
#X connect 17 0 15 1;
#X connect 18 0 17 1;
#X connect 18 0 16 1;
#X connect 18 0 24 0;
#X connect 22 0 12 2;
#X connect 29 0 33 0;
#X connect 29 1 33 1;
#X connect 32 0 8 0;
#X connect 32 0 33 0;
#X connect 32 1 8 1;
#X connect 32 1 33 1;
#X connect 33 0 8 0;
#X connect 33 1 8 1;
#X connect 39 0 40 0;
#X connect 41 0 58 0;
#X connect 42 0 43 0;
#X connect 47 0 48 0;
#X connect 48 0 49 0;
#X connect 49 0 50 0;
#X connect 54 0 55 0;
#X connect 58 0 56 0;
#X coords 0 0 30 1 0 0 0;
