#N canvas -8 -8 1280 677 10;
#X declare -path ./vv;
#X declare -path ./synth;
#X declare -path ./shortcut;
#X declare -path ./sampler;
#X declare -path ./oscillator;
#X declare -path ./modulation;
#X declare -path ./misc;
#X declare -path ./conversion;
#X declare -path ./audio_routing;
#X declare -path ./audio_effect;
#X declare -path ./control_and_note;
#X declare -path ./seq;
#X declare -path ./timing;
#X declare -path ../audio_effect;
#X declare -path ../audio_routing;
#X declare -path ../control_and_note;
#X declare -path ../conversion;
#X declare -path ../misc;
#X declare -path ../modulation;
#X declare -path ../oscillator;
#X declare -path ../sampler;
#X declare -path ../seq;
#X declare -path ../shortcut;
#X declare -path ../synth;
#X declare -path ../timing;
#X declare -path ../vv;
#X declare -path piloslib/audio_effect;
#X declare -path piloslib/audio_routing;
#X declare -path piloslib/control_and_note;
#X declare -path piloslib/conversion;
#X declare -path piloslib/misc;
#X declare -path piloslib/modulation;
#X declare -path piloslib/oscillator;
#X declare -path piloslib/sampler;
#X declare -path piloslib/seq;
#X declare -path piloslib/shortcut;
#X declare -path piloslib/synth;
#X declare -path piloslib/timing;
#X declare -path piloslib/vv;
#X obj 322 48 bng 60 250 50 0 empty empty empty 17 7 0 10 -262144 -1
-1;
#X obj 192 139 s global_save;
#X obj 192 48 bng 60 250 50 0 empty empty empty 17 7 0 10 -262144 -1
-1;
#X obj 322 149 s global_load;
#X obj 322 19 loadbang;
#X obj 402 19 sl_control;
#A saved 0.589287 3;
#A saved 0.703884 3;
#N canvas 0 50 1280 677 msgbx 0;
#X obj 43 13 inlet;
#X msg 43 38 \; load_send playoff_ci 53 4 \; load_send recoff_ci 54
4 \; load_send recon_ci 46 4 \; load_send rr_erase_ci 55 4 \; load_send
playon_ci 45 4 \; load_send synrr_recording 0 0 \; load_send synrr
length 4 \; load_send synrr thru 1 \; load_send synrr play 0 \; load_send
synrr record 0 \; load_send cym_on_ci_ci 52 4 \; load_send cym_on_ci
toggle 1 \; load_send cymdownsamp amount 0.0672269 \; load_send rcymsynth
poles 2 \; load_send rcymsynth bp 1 1 \; load_send rcymsynth amp 1
1 \; load_send rcymsynth filt_env_amount 3 \; load_send rcymsynth filt_env_ms
1000 \; load_send rcymsynth filt_env_pow 4 \; load_send rcymsynth filt_env_a
0 \; load_send rcymsynth filt_env_r 1 \; load_send rcymsynth pitch
48 \; load_send rcymsynth hp_pitch 1 1 \; load_send rcymsynth lp_pitch
1 1 \; load_send rcymsynth bp_pitch 1 1 \; load_send rcymsynth hp 0.991597
1 \; load_send rcymsynth dry 1 1 \; load_send rcymsynth lp 0.319328
1 \; load_send rcymsynth bp_q 0.0840336 16 \; load_send rcymsynth bp_env
1 2222 \; load_send rcymsynth bp_freq 0.092437 5555 \; load_send rcymsynth
hp_env 0.747899 1 \; load_send rcymsynth hp_freq 0.10084 1113 \; load_send
rcymsynth lp_env 1 1 \; load_send rcymsynth lp_freq 0.907563 10000
\; load_send rcymsynth osc_a_lp 1 1 \; load_send rcymsynth osc_a_bp
0.495798 1 \; load_send rcymsynth osc_a_hp 0 1 \; load_send rcymsynth
osc_b_dry 0 1 \; load_send rcymsynth osc_b_hp 0.151261 1 \; load_send
rcymsynth osc_b_lp 0.495798 1 \; load_send rcymsynth osc_b_bp 0 1 \;
load_send rcymsynth noise_lp 0.210084 1 \; load_send rcymsynth noise_bp
0.092437 1 \; load_send rcymsynth noise_hp 0.268908 1 \; load_send
rcymsynth noise_dry 0 1 \; load_send rcymsynth osc_a_dry 0 1 \; load_send
rcymsynth noise_env_amount 0.7 \; load_send rcymsynth noise_env_pow
3 \; load_send rcymsynth noise_env_ms 20000 \; load_send rcymsynth
noise_env_a 0 \; load_send rcymsynth noise_env_r 0.5 \; load_send rcymsynth
noise_env_d 0.5 \; load_send rcymsynth noise_env_s 0 \; load_send rcymsynth
osc_b_env_amount 0.3 \; load_send rcymsynth osc_b_env_pow 3 \; load_send
rcymsynth osc_b_env_ms 30000 \; load_send rcymsynth osc_b_env_a 0 \;
load_send rcymsynth osc_b_env_r 0.5 \; load_send rcymsynth osc_b_env_d
0.5 \; load_send rcymsynth osc_b_env_s 0 \; load_send rcymsynth osc_a_env_amount
0.25 \; load_send rcymsynth osc_a_env_pow 3 \; load_send rcymsynth
osc_a_env_ms 30000 \; load_send rcymsynth osc_a_env_a 0 \; load_send
rcymsynth osc_a_env_r 0.5 \; load_send rcymsynth osc_a_env_d 0.5 \;
load_send rcymsynth osc_a_env_s 0 \; load_send rcymsynth random_pitch
0 \; load_send rcymsynth a_amp 50 \; load_send rcymsynth b_amp 111
\; load_send rcymsynth osc_b_freq 423 \; load_send rcymsynth osc_a_freq
59 \; load_send rcymsynth fm 0.613445 4 \; load_send cym_chan amp 0.427835
\; load_send rcym_ni_ni 48 \; load_send rcym_ni pitch 31 \; load_send
cym_4ni_ni 50 \; load_send cym_4ni pitch 0.8 \; load_send hhautoci_ci
44 4 \; load_send hhautoci toggle 1 \; load_send hhknob 20 0 \; load_send
hh_nse_a_ci 20 4 \; load_send hh_tn2_a_ci 19 4 \; load_send hh_tn1_a_ci
18 4 \; load_send hh_amp amp 0.242268 \; load_send hh3_ni 46 \; load_send
hh2_ni 42 \; load_send hh_ni 44 \; load_send hh freq 0.12605 3423 \;
load_send hh b_amp 55 \; load_send hh osc_b 0.714286 0.5 \; load_send
hh osc_a 1 0.5 \; load_send hh noise_env_amount 4 \; load_send hh noise_env_pow
5 \; load_send hh noise_env_ms 250 \; load_send hh noise_env_a 0 \;
load_send hh noise_env_r 0.15 \; load_send hh noise_env_d 0.15 \; load_send
hh noise_env_s 0 \; load_send hh osc_b_env_amount 1 \; load_send hh
osc_b_env_pow 7 \; load_send hh osc_b_env_ms 3333 \; load_send hh osc_b_env_a
0 \; load_send hh osc_b_env_r 0.15 \; load_send hh osc_b_env_d 0.15
\; load_send hh osc_b_env_s 0 \; load_send hh osc_a_env_amount 4 \;
load_send hh osc_a_env_pow 5 \; load_send hh osc_a_env_ms 1011 \; load_send
hh osc_a_env_a 0 \; load_send hh osc_a_env_r 0.15 \; load_send hh osc_a_env_d
0.15 \; load_send hh osc_a_env_s 0 \; load_send hh random_pitch 0.285714
\; load_send hh amp 0.554622 27 \; load_send hh a_amp 74 \; load_send
hh osc_b_freq 3570 \; load_send hh osc_a_freq 628 \; load_send hh fm
0.0588235 80 \; load_send sn_ni2_3_ni 45 \; load_send sn_ni2_3 pitch
26 \; load_send sn_ni2_2_ni 41 \; load_send sn_ni2_2 pitch 25 \; load_send
sn_ni1_3_ni 47 \; load_send sn_ni1_3 pitch 28 \; load_send sn_ni1_2_ni
43 \; load_send sn_ni1_2 pitch 27 \; load_send sn_ff wet 1 2 \; load_send
sn_ff dry 0.563025 2 \; load_send sn_ff q 0.680672 3 \; load_send sn_ff
vowel 0 \; load_send sn_ff voice 2 \; load_send sn_ff glide 0 \; load_send
sn_ff freq 50 \; load_send sn_button_ci 43 4 \; load_send sn_button
toggle 1 \; load_send sn_amp amp 0.762887 \; load_send sn_ni_ni 37
\; load_send sn_ni pitch 24 \; load_send sn_lpf q 0.361345 3 \; load_send
sn4_ni_ni 39 \; load_send sn4_ni pitch 22 \; load_send sn osc_a_lp
1 1 \; load_send sn osc_a_bp 1 1 \; load_send sn osc_a_hp 1 1 \; load_send
sn osc_b_dry 1 1 \; load_send sn osc_b_hp 1 1 \; load_send sn osc_b_lp
1 1 \; load_send sn osc_b_bp 1 1 \; load_send sn noise_lp 1 1 \; load_send
sn noise_bp 1 1 \; load_send sn noise_hp 1 1 \; load_send sn noise_dry
1 1 \; load_send sn hp_pitch 1 1 \; load_send sn lp_pitch 0 1 \; load_send
sn bp_pitch 1 1 \; load_send sn bp 0.151429 1 \; load_send sn hp 0.146341
1 \; load_send sn dry 0.361345 1 \; load_send sn lp 0 1 \; load_send
sn osc_a_dry 1 1 \; load_send sn bp_q 0.386555 3 \; load_send sn bp_env
0 1 \; load_send sn bp_freq 0.613445 10000 \; load_send sn hp_env 0
1 \; load_send sn hp_freq 0.092437 10000 \; load_send sn lp_env 0 1
\; load_send sn lp_freq 1 10000 \; load_send sn filt_env_amount 1 \;
load_send sn filt_env_ms 250 \; load_send sn filt_env_pow 3 \; load_send
sn filt_env_a 0 \; load_send sn filt_env_r 0.5 \; load_send sn noise_env_amount
1 \; load_send sn noise_env_ms 333 \; load_send sn noise_env_pow 5
\; load_send sn noise_env_a 0.0588235 \; load_send sn noise_env_r 0.537815
\; load_send sn pitch 30 \; load_send sn fm 0.226891 4 \; load_send
sn osc_a_env_amount 1 \; load_send sn osc_a_env_ms 500 \; load_send
sn osc_a_env_pow 5 \; load_send sn osc_a_env_a 0 \; load_send sn osc_a_env_r
0.252101 \; load_send sn osc_b_env_amount 1 \; load_send sn osc_b_env_ms
250 \; load_send sn osc_b_env_pow 5 \; load_send sn osc_b_env_a 0 \;
load_send sn osc_b_env_r 0.546219 \; load_send sn pitch_env_amount
38 \; load_send sn pitch_env_ms 250 \; load_send sn pitch_env_pow 77
\; load_send sn pitch_env_a 0 \; load_send sn pitch_env_r 0.436975
\; load_send sn3_ni_ni 38 \; load_send sn3_ni pitch 12 \; load_send
rem_ped 11 1 \; load_send rem_kn1 12 4 \; load_send syn lfo_rev 0 \;
load_send syn lfo_note_reset 0 \; load_send syn lfo_sync 0 1 0 0 0
0 \; load_send syn lfo_pow 1 1 0 0 0 0 \; load_send syn lfo_add 0 1
0 0 0 0 \; load_send syn lfo_mult 1 1 0 0 0 0 \; load_send syn lfo_sin
1 1 0 0 0 0 \; load_send syn lfo_sqr 0 1 0 0 0 0 \; load_send syn lfo_saw
0 1 0 0 0 0 \; load_send syn lfo_rate 3 0 0 0 0 \; load_send syn mod_env_r
0.5 0 0 0 0 \; load_send syn mod_env_a 0 0 0 0 0 \; load_send syn mod_env_ms
500 0 0 0 0 \; load_send syn mod_env_pow_a -3 0 0 0 0 \; load_send
syn mod_env_pow_b 3 0 0 0 0 \; load_send syn mod_env_amount 1 0 0 0
0 \; load_send syn filt_amp 0.128049 1 0 0 0 0 0 0 \; load_send syn
filt_mod 0.0914634 9 0 0 0 0 0 0 \; load_send syn filt_freq 0.286585
12222 0 0 0 0 0 0 \; load_send syn filt_pitch_follow 0 \; load_send
syn amp_env_amount 0 0 0.5 0 0 0 0 \; load_send syn amp_env_pow 4 -2
0 0 0 \; load_send syn amp_env_ms 7777 0 0 0 0 \; load_send syn amp_env_r
0.952756 0 0 0 0 \; load_send syn amp_env_s 0.395161 0 0 0 0 \; load_send
syn amp_env_d 0.677419 0 0 0 0 \; load_send syn amp_env_a 0 0 0 0 0
\; load_send syn amp_pitch_follow 1 \; load_send syn dry_amp 0.540323
0 0 0 0 0 0 \; load_send syn osc_b_pitch_env 1 \; load_send syn osc_b_reset
1 \; load_send syn osc_b_filt 0.654206 0 0 0 0 0 0 \; load_send syn
osc_b_type 0 \; load_send syn osc_b_mod_env_amount 0.3 0 0 0 0 0 0
\; load_send syn osc_b_mod_env_pow 3 0 0 0 0 \; load_send syn osc_b_mod_env_ms
1000 0 0 0 0 \; load_send syn osc_b_mod_env_r 0.5 0 0 0 0 \; load_send
syn osc_b_mod_env_a 0 0 0.0645161 0 0 \; load_send syn osc_b_dry 0.453271
0 0 0 0 0 0 \; load_send syn osc_b_sync 1 0.1 0.12 0 0 0 0.3 \; load_send
syn osc_b_mod 0 0 0 0 0 0 0 \; load_send syn osc_b_pitch 12 0 0 -0.09
0 0 0 \; load_send syn fm 0 9 2 0 0 0 0 0 \; load_send syn noise_filt
0.663551 0 0 0 0 0 0 \; load_send syn pitch 0 \; load_send syn noise_ds
0 0 0 0 0 0 0 \; load_send syn noise_dry 0 0 0 0 0 0 0 \; load_send
syn pitch_env_amount -52 0 254 0 0 0 0 \; load_send syn pitch_env_pow
7 0 0 0 0 \; load_send syn pitch_env_ms 786 0 0 0 0 \; load_send syn
pitch_env_r 0.75 0 0 0 0 \; load_send syn pitch_env_a 0 0 0 0 0 \;
load_send syn osc_a_pitch_env 1 \; load_send syn osc_a_reset 1 \; load_send
syn osc_a_filt 1 0 1 0 0 0 0 \; load_send syn osc_a_type 0 \; load_send
syn osc_a_mod_env_amount 1 0 0 0 0 0 0 \; load_send syn osc_a_mod_env_pow
5 0 0 0 0 \; load_send syn osc_a_mod_env_ms 1000 0 0 0 0 \; load_send
syn osc_a_mod_env_r 0.5 0 0 0 0 \; load_send syn osc_a_mod_env_a 0.0403226
0 0 0 0 \; load_send syn osc_a_dry 1 0 1 0 0 0 0 \; load_send syn osc_a_sync
1 0 0 0 0 0 0 \; load_send syn osc_a_mod 0 0 0 0 0 0 0 \; load_send
syn osc_a_pitch 0 0 0 0.05 0 0 0 \; load_send oscia fm 0.0672269 1
\; load_send oscia osc_a_amp 1 \; load_send oscia osc_b_amp 1 \; load_send
oscia osc_b_pitch 12 \; load_send oscia amp_pitch_follow 1 \; load_send
oscia osc_b_reset 0 \; load_send oscia osc_a_reset 0 \; load_send oscia
osc_a_pitch 0 \; load_send oscia noise_dry_amp 0 \; load_send oscia
pitch 0 \; load_send oscia amp_env_amount 3 \; load_send oscia amp_env_pow
3 \; load_send oscia amp_env_ms 2000 \; load_send oscia amp_env_a 0
\; load_send oscia amp_env_r 0.501378 \; load_send oscia amp_env_d
1.00276 \; load_send oscia amp_env_s 0 \; load_send syn_amp_a amp 0.216495
\; load_send syn_asymtan asym 5 \; load_send syn_asymtan amp 0.5 \;
load_send syn_verb preamp 0 \; load_send syn_verb wet 0.168067 \; load_send
syn_verb dry 0.352941 \; load_send syn_verb damping 0.5 \; load_send
syn_verb roomsize 0.85 \; load_send syn_amp amp 0.0721649 \; load_send
bdseq gate 0.613445 2 \; load_send bdseq vel 42 \; load_send bdseq
14 23 \; load_send bdseq 13 0 \; load_send bdseq 12 0 \; load_send
bdseq 11 0 \; load_send bdseq 10 0 \; load_send bdseq 9 35 \; load_send
bdseq 8 0 \; load_send bdseq 6 35 \; load_send bdseq 5 36 \; load_send
bdseq 4 0 \; load_send bdseq 3 36 \; load_send bdseq 2 23 \; load_send
bdseq 1 0 \; load_send bdseq 0 0 \; load_send bdseq 7 0 \; load_send
bdseq 15 0 \; load_send bdseq rate 0.5 \; load_send bdseq length 16
\; load_send bdseq offset 0 \; load_send bdseq steps 16 \; load_send
bdseqci_ci 51 4 \; load_send bdseqci toggle 1 \; load_send bd sync
1 0 0 0 0 0 0 \; load_send bd asym 0.5 1 0 0 0 0 0 0 \; load_send bd
lfo_rev 0 \; load_send bd lfo_note_reset 0 \; load_send bd lfo_sync
0 1 0 0 0 0 \; load_send bd lfo_pow 1 1 0 0 0 0 \; load_send bd lfo_add
0 1 0 0 0 0 \; load_send bd lfo_mult 1 1 0 0 0 0 \; load_send bd lfo_sin
0 1 0 0 0 0 \; load_send bd lfo_sqr 0 1 0 0 0 0 \; load_send bd lfo_saw
0 1 0 0 0 0 \; load_send bd lfo_rate 0 0 0 0 0 \; load_send bd mod_env_r
0.350467 0 0 0 0 \; load_send bd mod_env_a 0 0 0 0 0 \; load_send bd
mod_env_ms 1000 0 0 0 0 \; load_send bd mod_env_pow_a -3 0 0 0 0 \;
load_send bd mod_env_pow_b 3 0 0 0 0 \; load_send bd mod_env_amount
1 0 0 0 0 \; load_send bd noise_ds 0 0 0 0 0 0 0 \; load_send bd glide
0 0 0 0 0 \; load_send bd amp_env_amount 1 0 0 0 0 0 0 \; load_send
bd amp_env_pow 3 0 0 0 0 \; load_send bd amp_env_ms 1577 0 0 0 0 \;
load_send bd amp_env_r 1 0 0 0 0 \; load_send bd amp_env_s 0.88785
0 0 0 0 \; load_send bd amp_env_d 0.0280374 0 0 0 0 \; load_send bd
amp_env_a 0 0 0 0 0 \; load_send bd wet 0.5 0 0 0 0 0 0 \; load_send
bd dry 0.5 0 0 0 0 0 0 \; load_send bd noise_env_amount 0.5 0 0 0 0
0 0 \; load_send bd noise_env_pow 2 0 0 0 0 \; load_send bd noise_env_ms
11 0 0 0 0 \; load_send bd noise_env_r 0.406542 0 0 0 0 \; load_send
bd noise_env_s 0 0 0 0 0 \; load_send bd noise_env_d 0.5 0 0 0 0 \;
load_send bd noise_env_a 0.149533 0 0 0.833333 0 \; load_send bd amp_pitch_follow
0 0 0 0 0 0 0 \; load_send bd mod_env_amount 1 0 0 0 0 0 0 \; load_send
bd mod_env_pow 5 0 0 0 0 \; load_send bd mod_env_ms 1000 0 0 0 0 \;
load_send bd mod_env_r 0.350467 0 0 0 0 \; load_send bd mod_env_a 0
0 0 0 0 \; load_send bd pitch 2 0 0 0 0 0 0 \; load_send bd preamp
1 0 0 0 0 0 0 \; load_send bd mod 0 0 0 0 0 0 0 \; load_send bd pitch_env_amount
317 0 0 0 0 0 0 \; load_send bd pitch_env_pow 10 0 0 0 0 \; load_send
bd pitch_env_ms 817 0 0 0 0 \; load_send bd pitch_env_r 0.200935 0
0 0 0 \; load_send bd pitch_env_a 0 0 0 0 0 \; load_send bd_ni2_2_ni
40 \; load_send bd_ni2_2 pitch 34 \; load_send bd_amp_dry amp 0.103093
\; load_send bd_amp amp 0.329897 \; load_send bd_button_ci 42 4 \;
load_send bd_button toggle 1 \; load_send bd_ni7_ni 51 \; load_send
bd_ni7 pitch 43 \; load_send bd_ni6_ni 49 \; load_send bd_ni6 pitch
39 \; load_send bd_ni_ni 36 \; load_send bd_ni pitch 24 \; load_send
bd_ni5_ni 47 \; load_send bd_ni5 pitch 22 \; load_send bd_ni3_ni 43
\; load_send bd_ni3 pitch 26 \; load_send bd_asymtan asym 8 \; load_send
bd_asymtan amp 1.0375 \; load_send a_knob_2 \; load_send dlymslfo rev
0 \; load_send dlymslfo sync 0 1 \; load_send dlymslfo pow 1 1 \; load_send
dlymslfo add 1 0.01 \; load_send dlymslfo mult 1 1 \; load_send dlymslfo
sin 0.574803 5 \; load_send dlymslfo sqr 0 1 \; load_send dlymslfo
saw 0 5 \; load_send dlymslfo rate 1.5 \; load_send a_dlylfo_rate_ci
10 4 \; load_send a_dlylfo_saw_ci 9 4 \; load_send a_dlylfo_sin_ci
8 4 \; load_send a_dly_fdbkci 23 4 \; load_send a_dly_amt 21 4 \; load_send
a_dly_ms 22 4 \; load_send a_delayR fdbk 0 \; load_send a_delayR wet
0.747899 \; load_send a_delayR dry 1 \; load_send a_delayR ms 2.7517
222 \; load_send a_delayR preamp 0.05 \; load_send a_delayL fdbk 0
\; load_send a_delayL wet 0.714286 \; load_send a_delayL dry 1 \; load_send
a_delayL ms 2.7517 175 \; load_send a_delayL preamp 0.05 \; load_send
a_multi asym 0 \; load_send a_multi amp 2 \; load_send a_multi high_amp
0.9 1 \; load_send a_multi mid_amp 1 1 \; load_send a_multi low_amp
1 1 \; load_send a_multi high_freq 1212 \; load_send a_multi low_freq
220 \; load_send a_speed_down 16 4 \; load_send a_speed_up 17 4 \;
load_send a_rev 50 4 \; load_send a_retrig_2 41 4 \; load_send a_retrig_4
49 4 \; load_send a_retrig_3 48 4 \; load_send a_retrig_1 40 4 \; load_send
a_retrig speed 1 \; load_send a_retrig rev 0 \; load_send a_retrig
4_window 0.125 \; load_send a_retrig 3_window 0.5 \; load_send a_retrig
2_window 1 \; load_send a_retrig 1_window 1 \; load_send a_retrig 3_on
0 \; load_send a_retrig 4_length 0.125 \; load_send a_retrig 3_length
0.25 \; load_send a_retrig 4_on 0 \; load_send a_retrig 2_length 0.5
\; load_send a_retrig 2_on 0 \; load_send a_retrig 1_length 1 \; load_send
a_retrig 1_on 0 \; load_send a_verb preamp 0.697479 \; load_send a_verb
wet 0.10084 \; load_send a_verb dry 0.537815 \; load_send a_verb damping
3 \; load_send a_verb roomsize 1.04 \; load_send drum_midi_rr_record_ci
\; load_send drum_midi_rr_clear_ci \; load_send clk_zero 72 4 \; load_send
tap_tempo 77 4 \; load_send rem_stop 74 4 \; load_send rem_play 75
4 \; load_send global tempo 90 \;;
#X connect 0 0 1 0;
#X restore 402 49 pd msgbx;
#X obj 32 139 global_transport;
#X obj 482 669 catcher~ master;
#X obj 482 699 tanhx~;
#X obj 552 699 tanhx~;
#X obj 32 49 metronome_60;
#X obj 262 759 writesf_global~ 2;
#X obj 482 729 hip~ 3;
#X obj 552 729 hip~ 3;
#X obj 192 169 r global_clk;
#X obj 242 199 % 384;
#X obj 322 169 nbx 1 50 -1e+037 1e+037 0 0 empty empty empty 0 -8 0
45 -262144 -1 -1 0 256;
#X obj 242 229 div 96;
#X obj 322 219 nbx 4 50 -1e+037 1e+037 0 0 empty empty empty 0 -8 0
45 -262144 -1 -1 68 256;
#X obj 242 259 div 96;
#X obj 482 869 dac~;
#X obj 482 839 tline~;
#X obj 552 839 tline~;
#X obj 27 751 hsl 200 45 0 1 0 1 empty empty empty -2 -8 0 10 -262144
-1 -1 19900 0;
#X obj 202 849 peak_stick2~;
#X obj 202 859 peak_stick2~;
#N canvas 430 31 722 359 midi 0;
#X obj 32 39 nip_mod_chan 0;
#X obj 32 319 s drum_midi;
#X obj 142 89 s global_repl_r;
#X obj 272 89 s global_stop_r;
#X obj 142 39 cin_vvcm rem_play;
#X obj 272 39 cin_vvcm rem_stop;
#X obj 252 309 s drum_midi_rr_clear;
#X obj 252 229 s drum_midi_rr_record_r;
#X obj 252 199 sel 0;
#X obj 532 39 cin_vvcm tap_tempo;
#X obj 532 89 s global_tap_r;
#X obj 402 39 cin_vvcm clk_zero;
#X obj 402 89 f 0;
#X obj 402 119 s global_clk;
#X obj 252 259 ciu_vvcm drum_midi_rr_clear_ci;
#X obj 252 149 ciu_vvcm drum_midi_rr_record_ci;
#X obj 502 180 s cisc;
#X obj 502 159 lb 1;
#X obj 42 69 inlet;
#X connect 0 0 1 0;
#X connect 4 0 2 0;
#X connect 5 0 3 0;
#X connect 8 0 7 0;
#X connect 9 0 10 0;
#X connect 11 0 12 0;
#X connect 12 0 13 0;
#X connect 14 0 6 0;
#X connect 15 0 8 0;
#X connect 17 0 16 0;
#X connect 18 0 1 0;
#X restore 222 449 pd midi;
#X text 27 735 ||||||||||||||||||||||||||||;
#N canvas -8 -8 1280 677 a 0;
#X obj 307 1177 vverb_vvcm~ a_verb;
#X obj 307 206 retrig_ij_vvcm~ a_retrig;
#X obj 102 549 * 90;
#X obj 162 579 s a_verb_dry_r;
#X obj 162 549 rev;
#X obj 162 489 pow 0.1;
#X obj 737 766 sk_bit_red_vv~ a_bitred;
#N canvas 0 50 599 472 retrig 0;
#X obj 37 247 s a_retrig_1_on_r;
#X obj 37 327 s a_retrig_3_on_r;
#X obj 177 327 s a_retrig_4_on_r;
#X obj 177 247 s a_retrig_2_on_r;
#X obj 317 327 s a_retrig_rev_r;
#X obj 187 97 + 1;
#X obj 37 157 s a_retrig_speed_r;
#X obj 37 97 * 0.5;
#X obj 37 127 rev;
#X obj 37 197 ciu_vvcm a_retrig_1;
#X obj 37 277 ciu_vvcm a_retrig_3;
#X obj 177 277 ciu_vvcm a_retrig_4;
#X obj 177 197 ciu_vvcm a_retrig_2;
#X obj 317 277 ciu_vvcm a_rev;
#X obj 187 47 ciu_vvcm a_speed_up;
#X obj 37 47 ciu_vvcm a_speed_down;
#X connect 5 0 6 0;
#X connect 7 0 8 0;
#X connect 8 0 6 0;
#X connect 9 0 0 0;
#X connect 10 0 1 0;
#X connect 11 0 2 0;
#X connect 12 0 3 0;
#X connect 13 0 4 0;
#X connect 14 0 5 0;
#X connect 15 0 7 0;
#X restore 217 206 pd retrig;
#X obj 307 766 sk_bit_red_vv~ a_bitred;
#X obj 307 797 bellmid_3band_vvcm~ a_multi;
#X obj 192 809 rev;
#X obj 32 749 rev;
#X obj 192 749 rr;
#X obj 32 779 + 0.1;
#X obj 32 809 * 32;
#X obj 82 689 clip 0 1;
#X obj 32 839 s a_bitred_bits;
#X obj 192 839 s a_bitred_dry;
#X obj 32 719 lb 1;
#X obj 82 719 pow 2;
#X obj 132 49 inlet~;
#X obj 182 49 inlet~;
#X obj 307 1347 outlet~;
#X obj 677 1347 outlet~;
#X obj 34 600 vsl 30 65 0 1 0 1 empty empty empty 0 -9 0 10 -262144
-1 -1 0 1;
#X obj 28 686 bng 15 250 50 0 empty empty empty 17 7 0 10 -262144 -1
-1;
#X obj 500 1369 peak_stick2~;
#N canvas 0 50 1169 593 a_dly 0;
#X obj 177 697 + 0.01;
#X obj 37 17 inlet~;
#X obj 37 317 outlet~;
#X obj 297 17 inlet~;
#X obj 537 317 outlet~;
#X obj 37 77 delay_extfb_vvcm~ a_delayL;
#X obj 537 77 delay_extfb_vvcm~ a_delayR;
#X obj 397 297 hip~ 111;
#X obj 47 457 s a_delayL_preamp_r;
#X obj 27 477 s a_delayR_preamp_r;
#X obj 177 377 ciu_vvcm a_dly_ms;
#X obj 47 377 ciu_vvcm a_dly_amt;
#X obj 667 377 ciu_vvcm a_dly_fdbkci;
#X obj 187 727 s a_delayL_ms_r;
#X obj 677 467 s a_delayL_fdbk_r;
#X obj 667 497 s a_delayR_fdbk_r;
#X obj 177 757 s a_delayR_ms_r;
#X obj 667 437 * 0.95;
#X obj 257 357 throw~ a_delayL_in;
#X obj 397 357 throw~ a_delayR_in;
#X obj 257 327 tanhx~;
#X obj 397 327 tanhx~;
#X obj 667 527 ciu_vvcm a_dlylfo_sin_ci;
#X obj 667 587 s dlymslfo_sin_r;
#X obj 817 587 s dlymslfo_saw_r;
#X obj 817 527 ciu_vvcm a_dlylfo_saw_ci;
#X obj 977 527 ciu_vvcm a_dlylfo_rate_ci;
#X obj 977 747 s dlymslfo_rate_r;
#X obj 977 687 int;
#X obj 977 717 * 0.05;
#X floatatom 907 738 5 0 0 0 - - -;
#X obj 977 657 + 2;
#X obj 977 627 * 28;
#X obj 977 597 rev;
#X obj 177 427 pow 4;
#X obj 197 457 lfou_vvcm dlymslfo;
#X obj 57 497 + 0.1;
#X obj 57 527 s a_delayL_dry_r;
#X obj 37 547 s a_delayR_dry_r;
#X obj 257 297 hip~ 111;
#X obj 47 427 + 0.05;
#X obj 347 17 inlet~;
#X obj 1007 577 r dly_rate;
#X obj 582 389 r dly_fdbk;
#X obj 22 349 r dly_amt;
#X connect 0 0 13 0;
#X connect 0 0 16 0;
#X connect 1 0 5 0;
#X connect 3 0 6 0;
#X connect 5 0 2 0;
#X connect 5 1 39 0;
#X connect 6 0 4 0;
#X connect 6 1 7 0;
#X connect 7 0 21 0;
#X connect 10 0 34 0;
#X connect 11 0 40 0;
#X connect 12 0 17 0;
#X connect 17 0 14 0;
#X connect 17 0 15 0;
#X connect 20 0 18 0;
#X connect 21 0 19 0;
#X connect 22 0 23 0;
#X connect 25 0 24 0;
#X connect 26 0 33 0;
#X connect 28 0 29 0;
#X connect 29 0 27 0;
#X connect 29 0 30 0;
#X connect 31 0 28 0;
#X connect 32 0 31 0;
#X connect 33 0 32 0;
#X connect 34 0 0 1;
#X connect 35 0 0 0;
#X connect 36 0 37 0;
#X connect 36 0 38 0;
#X connect 39 0 20 0;
#X connect 40 0 8 0;
#X connect 40 0 9 0;
#X connect 41 0 7 0;
#X connect 41 0 39 0;
#X connect 42 0 33 0;
#X connect 43 0 17 0;
#X connect 44 0 40 0;
#X restore 307 1077 pd a_dly;
#X obj 102 579 + 1;
#X obj 102 459 + 0;
#X obj 102 609 s a_multi_amp_r;
#X obj 42 489 * 7;
#X obj 42 519 s a_asymtan_asym_r;
#X obj 162 519 * 0.75;
#X obj 222 519 rev;
#X obj 222 549 s a_multi_high_amp_r;
#X obj 677 1317 tline~ 0.25;
#X obj 307 1317 tline~ 0.25;
#X obj 737 1097 * 0.37;
#X obj 82 749 * 0.6;
#X obj 192 779 * 0.9;
#X obj 152 669 pow 0.1;
#X obj 212 699 rev;
#X obj 212 729 s a_multi_high_amp_r;
#X obj 222 489 * 0.9;
#X obj 212 639 * 0.7;
#X obj 212 669 + 0.1;
#X obj 737 1047 rr a_master_amp;
#X obj 82 779 s a_bitred_wet;
#X obj 162 909 s a_bitred_amt;
#X obj 144 820 vsl 30 65 0 1 0 1 empty empty empty 0 -9 0 10 -262144
-1 -1 0 1;
#X obj 102 409 ciu_vvcm a_knob_2;
#X obj 737 1007 bellmid_3band_vv~ a_multi;
#X obj 357 1037 inlet~;
#X connect 0 0 37 0;
#X connect 0 1 36 0;
#X connect 1 0 8 0;
#X connect 1 1 6 0;
#X connect 2 0 28 0;
#X connect 4 0 3 0;
#X connect 5 0 33 0;
#X connect 5 0 44 0;
#X connect 6 0 52 0;
#X connect 8 0 9 0;
#X connect 9 0 27 0;
#X connect 10 0 17 0;
#X connect 11 0 13 0;
#X connect 12 0 40 0;
#X connect 13 0 14 0;
#X connect 14 0 16 0;
#X connect 15 0 19 0;
#X connect 18 0 11 0;
#X connect 19 0 12 0;
#X connect 19 0 11 0;
#X connect 19 0 39 0;
#X connect 20 0 1 0;
#X connect 21 0 1 1;
#X connect 24 0 15 0;
#X connect 24 0 41 0;
#X connect 25 0 18 0;
#X connect 27 0 0 0;
#X connect 27 1 0 1;
#X connect 28 0 30 0;
#X connect 29 0 2 0;
#X connect 29 0 5 0;
#X connect 29 0 31 0;
#X connect 31 0 32 0;
#X connect 33 0 4 0;
#X connect 34 0 35 0;
#X connect 36 0 23 0;
#X connect 37 0 22 0;
#X connect 37 0 26 0;
#X connect 38 0 36 1;
#X connect 38 0 37 1;
#X connect 39 0 48 0;
#X connect 40 0 10 0;
#X connect 41 0 45 0;
#X connect 42 0 43 0;
#X connect 44 0 34 0;
#X connect 45 0 46 0;
#X connect 46 0 42 0;
#X connect 47 0 38 0;
#X connect 50 0 49 0;
#X connect 52 0 27 1;
#X connect 53 0 27 2;
#X restore 612 639 pd a;
#N canvas -8 -8 1280 677 bd 0;
#X obj 72 729 rr~;
#X obj 72 589 asym_tanh_vvcm~ bd_asymtan;
#X obj 272 479 stripnote;
#X obj 582 569 s bd_asymtan_amp_r;
#X obj 782 199 vnip_shift_vvcm drum_midi bd_ni3;
#X obj 782 109 vnip_shift_vvcm drum_midi bd_ni5;
#X obj 722 539 rev;
#X obj 722 599 s bd_glide_r;
#X obj 142 169 vnip_shift_vvcm drum_midi bd_ni;
#X obj 132 419 f;
#X obj 132 389 stripnote;
#X obj 722 569 * 0.77;
#X obj 552 19 vnip_shift_vvcm drum_midi bd_ni6;
#X obj 782 19 vnip_shift_vvcm drum_midi bd_ni7;
#X obj 192 49 r drum_midi_mod_1;
#X obj 192 79 - 0.5;
#X obj 192 139 s bd_filt_env_a_r;
#X obj 192 109 clip 0 1;
#X obj 442 289 rr;
#X obj 82 359 rr;
#X obj 12 159 spigot;
#X obj 2 49 citgl_vvcm bd_button;
#X obj 2 189 sel 0;
#X obj 272 509 s bd_triggered;
#X obj 72 819 amp_2x2_vvcm~ bd_amp;
#X obj 72 919 outlet~;
#X obj 252 919 outlet~;
#X obj 552 919 outlet;
#X obj 262 729 peak_stick2~;
#X obj 72 189 b;
#X obj 842 599 s bd_amp_env_s_r;
#X obj 337 622 bng 15 250 50 0 empty empty empty 17 7 0 10 -262144
-1 -1;
#X obj 2 219 pack 23 0;
#X obj 312 919 outlet~;
#X obj 492 919 outlet~;
#X obj 312 819 amp_2x2_vvcm~ bd_amp_dry;
#X obj 522 539 rev;
#X obj 522 629 s bd_pitch_env_a_r;
#X obj 455 572 vsl 30 65 0 1 0 1 empty empty empty 0 -9 0 10 -262144
-1 -1 0 1;
#X obj 522 599 + 0.075;
#X obj 522 569 * 0.5;
#X obj 582 509 / 96;
#X obj 437 532 nbx 7 20 -1e+037 1e+037 0 1 empty empty empty 0 -8 0
11 -262144 -1 -1 0.4375 256;
#X obj 842 539 * 0.35;
#X obj 842 569 + 0.5;
#X obj 582 539 + 0.6;
#X obj 2 409 r bd_nv_in;
#X obj 20 467 vsl 15 128 0 127 0 0 empty empty empty 0 -9 0 10 -262144
-1 -1 0 1;
#X obj 332 199 vnip_shift_vvcm drum_midi bd_ni2_2;
#X obj 72 479 sysk_nv_vvcm~ 3 rhibd bd;
#N canvas 81 75 985 555 bdarp 0;
#X obj 37 607 outlet;
#X obj 37 507 spigot;
#X obj 87 387 citgl_vvcm bdseqci;
#X obj 87 522 sel 0;
#X obj 87 472 t a a a;
#X obj 127 502 s bdseq_cut;
#X obj 496 519 bng 15 250 50 0 empty empty empty 17 7 0 10 -262144
-1 -1;
#X obj 37 37 seq_16x_nv_vvcm bdseq;
#X connect 1 0 0 0;
#X connect 2 0 4 0;
#X connect 3 0 6 0;
#X connect 4 0 3 0;
#X connect 4 1 1 1;
#X connect 4 2 5 0;
#X connect 7 0 1 0;
#X restore 502 349 pd bdarp;
#X obj 72 219 del 50;
#X obj 12 129 b2pack 24 100 2;
#X obj 72 249 pack 24 0;
#X obj 72 429 t a a;
#X obj 142 519 bp~ 333;
#X obj 142 549 *~ 1;
#X floatatom 202 537 5 0 0 0 - - -;
#X floatatom 202 557 5 0 0 0 - - -;
#X floatatom 248 523 5 0 0 0 - - -;
#X floatatom 180 557 5 0 0 0 - - -;
#X obj 82 509 lop~ 444;
#X obj 82 539 *~ 0.1;
#X obj 322 759 rr~ delwrite~ bd_del 200;
#X obj 322 789 rr~ delread~ bd_del 33;
#X connect 0 0 24 0;
#X connect 0 0 35 0;
#X connect 0 0 28 0;
#X connect 0 0 63 0;
#X connect 1 0 0 0;
#X connect 2 0 23 0;
#X connect 2 1 41 0;
#X connect 8 0 18 0;
#X connect 10 0 9 1;
#X connect 11 0 7 0;
#X connect 12 0 18 0;
#X connect 13 0 18 0;
#X connect 14 0 15 0;
#X connect 15 0 17 0;
#X connect 17 0 16 0;
#X connect 18 0 19 0;
#X connect 18 0 27 0;
#X connect 19 0 10 0;
#X connect 19 0 54 0;
#X connect 20 0 29 0;
#X connect 20 0 54 0;
#X connect 21 0 20 1;
#X connect 21 0 22 0;
#X connect 22 0 32 0;
#X connect 24 0 25 0;
#X connect 24 1 26 0;
#X connect 29 0 51 0;
#X connect 32 0 54 0;
#X connect 35 0 33 0;
#X connect 35 1 34 0;
#X connect 36 0 38 0;
#X connect 36 0 40 0;
#X connect 39 0 37 0;
#X connect 40 0 39 0;
#X connect 41 0 6 0;
#X connect 41 0 42 0;
#X connect 41 0 45 0;
#X connect 43 0 44 0;
#X connect 44 0 30 0;
#X connect 45 0 3 0;
#X connect 46 0 54 0;
#X connect 48 0 18 0;
#X connect 49 0 1 0;
#X connect 49 0 28 0;
#X connect 49 0 55 0;
#X connect 49 0 61 0;
#X connect 50 0 19 0;
#X connect 51 0 53 0;
#X connect 52 0 20 0;
#X connect 53 0 54 0;
#X connect 54 0 49 0;
#X connect 54 1 2 0;
#X connect 54 1 31 0;
#X connect 55 0 56 0;
#X connect 56 0 0 0;
#X connect 57 0 55 1;
#X connect 57 0 58 0;
#X connect 59 0 55 2;
#X connect 60 0 56 1;
#X connect 61 0 62 0;
#X connect 62 0 1 0;
#X connect 63 0 64 0;
#X connect 64 0 24 1;
#X connect 64 0 35 1;
#X restore 582 519 pd bd;
#N canvas 0 50 450 300 dspon 0;
#X obj 37 37 inlet;
#X msg 37 59 dsp 1;
#X obj 37 81 s pd;
#X connect 0 0 1 0;
#X connect 1 0 2 0;
#X restore 22 829 pd dspon;
#X obj 248 694 tgl 50 1 empty empty empty 17 7 0 10 -262144 -258113
-1 0 1;
#N canvas -8 -8 1280 677 syn 0;
#X obj 132 1019 outlet~;
#X obj 312 1019 outlet~;
#X obj 132 909 amp_2x2_vvcm~ syn_amp;
#X obj 707 297 rr;
#X obj 707 147 s syn_amp_env_r_r;
#X obj 102 1004 peak_stick2~;
#X obj 457 365 vsl 50 135 0 1 0 0 empty empty empty 0 -9 0 10 -262144
-1 -1 0 0;
#X msg 457 339 set \$1;
#X obj 863 133 hsl 135 50 0 0.75 0 0 empty empty empty -2 -8 0 10 -262144
-1 -1 0 0;
#X obj 142 709 vverb_vvcm~ syn_verb;
#X obj 142 879 hip~ 50;
#X obj 202 879 hip~ 50;
#X obj 132 549 asym_tanh_vvcm~ syn_asymtan;
#X obj 627 152 s rem_ped;
#X msg 887 109 set \$1;
#X obj 863 233 hsl 223 10 0 0.6 0 0 empty empty empty -2 -8 0 10 -262144
-1 -1 0 0;
#X obj 132 669 rr~;
#X obj 422 1019 outlet~;
#X obj 602 1019 outlet~;
#X obj 392 1004 peak_stick2~;
#X obj 422 909 amp_2x2_vvcm~ syn_amp_a;
#X obj 152 49 nip_mod_chan 1;
#X obj 577 257 s oscia_amp_env_r_r;
#X obj 22 229 sysk_nv_vvcm~ 5 osciano oscia;
#X obj 132 429 sysk_nv_vvcm~ 9 sentinel syn;
#X obj 707 247 ciu_vvcm rem_kn1;
#X obj 707 97 ciu_vvcm rem_ped;
#X obj 252 489 hip~ 900;
#X obj 132 459 *~ 0.333333;
#X obj 707 327 s syn_amp_env_amount_r;
#X obj 587 277 s oscia_amp_env_d_r;
#X obj 577 197 + 0.05;
#X obj 577 227 * 0.5;
#X obj 162 489 rr~ hip~ 555;
#X obj 142 29 inlet;
#X obj 142 79 record_replay_2d_vvcm synrr;
#N canvas 406 133 450 300 rere 0;
#X obj 37 118 s synrr_play_r;
#X obj 37 37 cin_vvcm playon_ci;
#X obj 267 37 cin_vvcm rr_erase_ci;
#X obj 37 88 f 1;
#X obj 147 88 f 0;
#X obj 37 198 f 1;
#X obj 147 198 f 0;
#X obj 37 147 cin_vvcm recon_ci;
#X obj 147 147 cin_vvcm recoff_ci;
#X obj 147 37 cin_vvcm playoff_ci;
#X obj 37 228 s synrr_record_r;
#X obj 267 87 s synrr_clear_r;
#X obj 197 118 s synrr_clear_pipe;
#X obj 327 118 cut_voices syn;
#X connect 1 0 3 0;
#X connect 2 0 11 0;
#X connect 3 0 0 0;
#X connect 4 0 0 0;
#X connect 4 0 12 0;
#X connect 4 0 13 0;
#X connect 5 0 10 0;
#X connect 6 0 10 0;
#X connect 7 0 5 0;
#X connect 8 0 6 0;
#X connect 9 0 4 0;
#X restore 32 89 pd rere;
#X connect 2 0 0 0;
#X connect 2 0 5 0;
#X connect 2 1 1 0;
#X connect 3 0 7 0;
#X connect 3 0 29 0;
#X connect 6 0 3 0;
#X connect 7 0 6 0;
#X connect 8 0 4 0;
#X connect 8 0 31 0;
#X connect 9 0 10 0;
#X connect 9 1 11 0;
#X connect 10 0 2 0;
#X connect 10 0 20 0;
#X connect 11 0 2 1;
#X connect 11 0 20 1;
#X connect 12 0 16 0;
#X connect 14 0 8 0;
#X connect 16 0 9 1;
#X connect 16 0 9 0;
#X connect 16 0 2 0;
#X connect 16 0 2 1;
#X connect 20 0 17 0;
#X connect 20 0 19 0;
#X connect 20 1 18 0;
#X connect 21 0 35 0;
#X connect 23 0 12 0;
#X connect 24 0 28 0;
#X connect 25 0 3 0;
#X connect 26 0 4 0;
#X connect 26 0 13 0;
#X connect 26 0 14 0;
#X connect 26 0 15 0;
#X connect 26 0 31 0;
#X connect 27 0 12 0;
#X connect 28 0 27 0;
#X connect 28 0 12 0;
#X connect 28 0 33 0;
#X connect 31 0 30 0;
#X connect 31 0 32 0;
#X connect 32 0 22 0;
#X connect 33 0 12 0;
#X connect 34 0 35 0;
#X connect 35 0 24 0;
#X connect 35 0 23 0;
#X restore 482 519 pd syn;
#N canvas 337 50 710 598 sn 0;
#X obj 432 129 vnip_shift_vvcm drum_midi sn3_ni;
#X obj 202 279 sysk_nv_vvcm~ 3 nsn sn;
#X obj 662 129 vnip_shift_vvcm drum_midi sn4_ni;
#X obj 202 249 rr;
#X obj 292 369 / 127;
#X obj 362 389 hslxnbx_vvc sn_lpf q;
#X obj 292 459 vlinesc~;
#X obj 292 429 * 11111;
#X obj 202 489 *~ 0.1;
#X obj 432 269 pack 21 100;
#X obj 292 309 stripnote;
#X obj 212 109 vnip_shift_vvcm drum_midi sn_ni;
#X obj 202 759 amp_1x2_vvcm~ sn_amp;
#X obj 202 869 outlet~;
#X obj 262 869 outlet~;
#X obj 32 289 spigot;
#X obj 22 319 sel 0;
#X obj 22 349 pack 26 0;
#X obj 92 539 rr;
#X obj 22 139 citgl_vvcm sn_button;
#X obj 292 399 pow 2.5;
#X obj 32 249 pack 26 200;
#X obj 202 519 formant_filter_vvcm~ sn_ff;
#N canvas 0 50 877 345 sn_ni_drill 0;
#X obj 22 9 vnip_shift_vvcm drum_midi sn_ni1_2;
#X obj 22 259 outlet;
#X obj 232 9 vnip_shift_vvcm drum_midi sn_ni1_3;
#X obj 442 9 vnip_shift_vvcm drum_midi sn_ni2_2;
#X obj 652 9 vnip_shift_vvcm drum_midi sn_ni2_3;
#X connect 0 0 1 0;
#X connect 2 0 1 0;
#X connect 3 0 1 0;
#X connect 4 0 1 0;
#X restore 192 89 pd sn_ni_drill;
#X obj 222 199 rr;
#X obj 32 219 eob2n 1;
#X obj 262 489 vcf_np~ 2;
#X connect 0 0 3 0;
#X connect 1 0 8 0;
#X connect 1 0 26 0;
#X connect 2 0 3 0;
#X connect 3 0 1 0;
#X connect 3 0 10 0;
#X connect 4 0 20 0;
#X connect 5 0 26 2;
#X connect 6 0 26 1;
#X connect 7 0 6 0;
#X connect 8 0 22 0;
#X connect 9 0 3 0;
#X connect 10 1 4 0;
#X connect 11 0 3 0;
#X connect 11 0 24 0;
#X connect 12 0 13 0;
#X connect 12 1 14 0;
#X connect 15 0 18 0;
#X connect 16 0 17 0;
#X connect 17 0 18 0;
#X connect 18 0 3 0;
#X connect 19 0 15 1;
#X connect 19 0 16 0;
#X connect 20 0 7 0;
#X connect 21 0 15 0;
#X connect 22 0 12 0;
#X connect 23 0 3 0;
#X connect 24 0 3 0;
#X connect 25 0 21 0;
#X connect 26 0 22 0;
#X restore 642 519 pd sn;
#N canvas 19 19 1278 645 hh 0;
#X obj 242 319 sysk_voice_vvcm~ nhh hh;
#X obj 52 289 pack 36 36;
#X obj 262 289 b;
#X obj 242 209 vnip_vvcm drum_midi hh_ni;
#X obj 422 209 vnip_vvcm drum_midi hh2_ni;
#X obj 612 209 vnip_vvcm drum_midi hh3_ni;
#X obj 642 289 b;
#X obj 612 319 f 0;
#X obj 642 349 rr;
#X obj 662 379 s hh_osc_a_env_s_r;
#X obj 652 409 s hh_noise_env_s_r;
#X obj 642 439 s hh_osc_b_env_s_r;
#X obj 692 319 f 0.7;
#X obj 642 319 f 0.4;
#X obj 482 379 s hh_osc_a_env_r_r;
#X obj 472 409 s hh_noise_env_r_r;
#X obj 462 439 s hh_osc_b_env_r_r;
#X obj 532 319 f 1;
#X obj 242 259 t a a;
#X obj 582 259 t a a;
#X obj 312 379 s hh_osc_a_env_d_r;
#X obj 302 409 s hh_noise_env_d_r;
#X obj 292 439 s hh_osc_b_env_d_r;
#X obj 462 319 f 0.15;
#X obj 171 116 vsl 30 65 0 1 0 1 empty empty empty 0 -9 0 10 -262144
-1 -1 2000 1;
#X obj 52 259 t b b;
#X obj 242 499 amp_1x2_vvcm~ hh_amp;
#X obj 242 619 outlet~;
#X obj 312 619 outlet~;
#X obj 12 119 b2n;
#X obj 12 149 spigot;
#X obj 832 259 s hh_osc_a_env_a_r;
#X obj 972 259 s hh_osc_b_env_a_r;
#X obj 1112 259 s hh_noise_env_a_r;
#X obj 832 209 ciu_vvcm hh_tn1_a_ci;
#X obj 972 209 ciu_vvcm hh_tn2_a_ci;
#X obj 1112 209 ciu_vvcm hh_nse_a_ci;
#X obj 12 9 ciu_vvcm hhknob;
#X obj 242 469 *~ 0.09;
#N canvas 358 77 450 300 autohh 0;
#X obj 52 199 outlet;
#X obj 52 59 rrandom;
#X obj 52 29 b2n 1.5;
#X obj 52 89 moses 0.15;
#X obj 52 119 * 7.666;
#X connect 1 0 3 0;
#X connect 2 0 1 0;
#X connect 3 0 4 0;
#X connect 4 0 0 0;
#X restore 192 19 pd autohh;
#X obj 192 59 spigot;
#X obj 262 19 citgl_vvcm hhautoci;
#X obj 132 39 inlet;
#X obj 782 159 inlet;
#X obj 822 159 inlet;
#X obj 862 159 inlet;
#X obj 12 89 u2fseq 5 0 1 0.75 0.5 0.25 0.1875 0.125;
#X connect 0 0 38 0;
#X connect 1 0 0 0;
#X connect 2 0 7 0;
#X connect 2 0 23 0;
#X connect 3 0 18 0;
#X connect 4 0 18 0;
#X connect 5 0 19 0;
#X connect 6 0 12 0;
#X connect 6 0 13 0;
#X connect 6 0 17 0;
#X connect 7 0 8 0;
#X connect 7 0 10 0;
#X connect 8 0 9 0;
#X connect 8 0 11 0;
#X connect 12 0 10 0;
#X connect 13 0 8 0;
#X connect 17 0 14 0;
#X connect 17 0 15 0;
#X connect 17 0 16 0;
#X connect 17 0 20 0;
#X connect 17 0 21 0;
#X connect 17 0 22 0;
#X connect 18 0 0 0;
#X connect 18 1 2 0;
#X connect 19 0 0 0;
#X connect 19 1 6 0;
#X connect 23 0 14 0;
#X connect 23 0 15 0;
#X connect 23 0 16 0;
#X connect 23 0 20 0;
#X connect 23 0 21 0;
#X connect 23 0 22 0;
#X connect 24 0 46 0;
#X connect 25 0 1 0;
#X connect 25 1 2 0;
#X connect 26 0 27 0;
#X connect 26 1 28 0;
#X connect 29 0 30 0;
#X connect 30 0 25 0;
#X connect 34 0 31 0;
#X connect 35 0 32 0;
#X connect 36 0 33 0;
#X connect 37 0 46 0;
#X connect 38 0 26 0;
#X connect 39 0 40 0;
#X connect 40 0 46 0;
#X connect 41 0 40 1;
#X connect 42 0 46 0;
#X connect 43 0 31 0;
#X connect 44 0 32 0;
#X connect 45 0 33 0;
#X connect 46 0 29 0;
#X connect 46 1 30 1;
#X restore 692 519 pd hh;
#X obj 322 119 t b b;
#N canvas 35 92 641 536 cym 0;
#X obj 37 377 tanhx~;
#X obj 217 17 vnip_shift_vvcm drum_midi cym_4ni;
#X obj 17 17 vnip_shift_vvcm drum_midi rcym_ni;
#X obj 37 407 amp_1x2_vvcm~ cym_chan;
#X obj 37 507 outlet~;
#X obj 227 507 outlet~;
#X obj 37 257 sysk_nv_vvcm~ 3 ncym rcymsynth;
#X obj 47 287 downsample_vvcm~ cymdownsamp;
#X obj 117 227 spigot;
#X obj 247 147 citgl_vvcm cym_on_ci;
#X obj 117 197 b2pack 31 100 32;
#X connect 0 0 3 0;
#X connect 1 0 6 0;
#X connect 2 0 6 0;
#X connect 3 0 4 0;
#X connect 3 1 5 0;
#X connect 6 0 7 0;
#X connect 6 0 0 0;
#X connect 7 0 0 0;
#X connect 8 0 6 0;
#X connect 9 0 8 1;
#X connect 10 0 8 0;
#X restore 742 519 pd cym;
#X obj 222 289 16_pads;
#X text 642 34 Controlled via midi. Drums triggered on channel 16 \,
synth on channel 1 \, midi controls on channels 4 and 16;
#X obj 712 331 vsl 30 65 0 1 0 0 empty empty empty 0 -9 0 10 -262144
-1 -1 0 1;
#X obj 532 159 tgl_dup_vvc sn_button toggle;
#X obj 762 349 tgl_dup_vvc hhautoci toggle;
#X text 762 334 randomize hh speed;
#X text 712 314 hh speed;
#X obj 532 99 tgl_dup_vvc bd_button toggle;
#X obj 532 219 tgl_dup_vvc cym_on_ci toggle;
#X obj 722 431 vsl 30 65 0 1 0 0 empty empty empty 0 -9 0 10 -262144
-1 -1 0 1;
#X obj 752 431 vsl 30 65 0 1 0 0 empty empty empty 0 -9 0 10 -262144
-1 -1 0 1;
#X text 752 414 oscb;
#X text 722 414 osca;
#X obj 782 431 vsl 30 65 0 1 0 0 empty empty empty 0 -9 0 10 -262144
-1 -1 0 1;
#X text 782 414 noise;
#X text 722 404 attacks:;
#X obj 712 99 tgl_dup_vvc bdseqci toggle;
#X obj 362 289 bangkeyboard;
#X obj 852 431 vsl 30 65 0 1 0 0 empty empty empty 0 -9 0 10 -262144
-1 -1 0 1;
#X obj 912 431 vsl 30 65 0 1 0 0 empty empty empty 0 -9 0 10 -262144
-1 -1 0 1;
#X obj 952 431 vsl 30 65 0 1 0 0 empty empty empty 0 -9 0 10 -262144
-1 -1 0 1;
#X text 852 404 delay:;
#X obj 912 539 s dly_fdbk;
#X obj 852 539 s dly_amt;
#X text 912 414 fdbk;
#X text 852 414 amt;
#X text 952 414 lfosin;
#X obj 1002 431 vsl 30 65 0 1 0 0 empty empty empty 0 -9 0 10 -262144
-1 -1 0 1;
#X obj 952 509 s dlymslfo_sin_r;
#X text 1002 414 lfosaw;
#X obj 882 431 vsl 30 65 0 1 0 0 empty empty empty 0 -9 0 10 -262144
-1 -1 0 1;
#X text 882 414 rate;
#X obj 882 509 s dly_rate;
#X obj 1002 539 s dlymslfo_saw_r;
#N canvas 0 50 794 502 declares 0;
#X obj 42 456 declare -path ./vv;
#X obj 42 396 declare -path ./synth;
#X obj 42 366 declare -path ./shortcut;
#X obj 42 306 declare -path ./sampler;
#X obj 42 276 declare -path ./oscillator;
#X obj 42 246 declare -path ./modulation;
#X obj 42 216 declare -path ./misc;
#X obj 42 186 declare -path ./conversion;
#X obj 42 126 declare -path ./audio_routing;
#X obj 42 96 declare -path ./audio_effect;
#X obj 42 156 declare -path ./control_and_note;
#X obj 42 336 declare -path ./seq;
#X obj 42 426 declare -path ./timing;
#X text 39 81 For when in root:;
#X text 249 81 For when in a subdirectory:;
#X obj 252 96 declare -path ../audio_effect;
#X obj 252 126 declare -path ../audio_routing;
#X obj 252 156 declare -path ../control_and_note;
#X obj 252 186 declare -path ../conversion;
#X obj 252 216 declare -path ../misc;
#X obj 252 246 declare -path ../modulation;
#X obj 252 276 declare -path ../oscillator;
#X obj 252 306 declare -path ../sampler;
#X obj 252 336 declare -path ../seq;
#X obj 252 366 declare -path ../shortcut;
#X obj 252 396 declare -path ../synth;
#X obj 252 426 declare -path ../timing;
#X obj 252 456 declare -path ../vv;
#X obj 472 96 declare -path piloslib/audio_effect;
#X obj 472 126 declare -path piloslib/audio_routing;
#X obj 472 156 declare -path piloslib/control_and_note;
#X obj 472 186 declare -path piloslib/conversion;
#X obj 472 216 declare -path piloslib/misc;
#X obj 472 246 declare -path piloslib/modulation;
#X obj 472 276 declare -path piloslib/oscillator;
#X obj 472 306 declare -path piloslib/sampler;
#X obj 472 336 declare -path piloslib/seq;
#X obj 472 366 declare -path piloslib/shortcut;
#X obj 472 396 declare -path piloslib/synth;
#X obj 472 426 declare -path piloslib/timing;
#X obj 472 456 declare -path piloslib/vv;
#X text 469 81 For when in a folder in searchpath called piloslib:
;
#X text 29 21 Includes necessary directories. Patches only work if
library is in searchpath (automatic when installed via deken) or the
patch is in the root of the library or a subdirectory of the root;
#X restore 402 79 pd declares;
#X obj 82 540 s env_reset;
#X obj 82 510 lb 0;
#X text 652 77 d minor;
#X text 72 477 Envelopes don't go to zero for new note trigger in order
to get the attack effect on the hh synth;
#X connect 0 0 36 0;
#X connect 2 0 1 0;
#X connect 4 0 0 0;
#X connect 5 0 6 0;
#X connect 8 0 9 0;
#X connect 8 1 10 0;
#X connect 9 0 13 0;
#X connect 10 0 14 0;
#X connect 13 0 12 0;
#X connect 13 0 22 0;
#X connect 13 0 25 0;
#X connect 14 0 12 1;
#X connect 14 0 23 0;
#X connect 14 0 26 0;
#X connect 15 0 16 0;
#X connect 15 0 20 0;
#X connect 16 0 18 0;
#X connect 18 0 17 0;
#X connect 20 0 19 0;
#X connect 22 0 21 0;
#X connect 23 0 21 1;
#X connect 24 0 23 1;
#X connect 24 0 22 1;
#X connect 24 0 31 0;
#X connect 29 0 8 0;
#X connect 29 1 8 1;
#X connect 30 0 29 0;
#X connect 30 1 29 1;
#X connect 30 2 8 0;
#X connect 30 2 29 2;
#X connect 30 3 8 1;
#X connect 32 0 12 2;
#X connect 33 0 8 0;
#X connect 33 1 8 1;
#X connect 33 2 29 0;
#X connect 33 3 29 1;
#X connect 34 0 29 0;
#X connect 34 1 29 1;
#X connect 35 0 29 0;
#X connect 35 1 29 1;
#X connect 36 1 3 0;
#X connect 37 0 29 0;
#X connect 37 1 29 1;
#X connect 38 0 27 0;
#X connect 40 0 35 0;
#X connect 47 0 35 1;
#X connect 48 0 35 2;
#X connect 51 0 35 3;
#X connect 55 0 33 0;
#X connect 56 0 61 0;
#X connect 57 0 60 0;
#X connect 58 0 66 0;
#X connect 65 0 71 0;
#X connect 68 0 70 0;
#X connect 74 0 73 0;
