#N canvas 264 41 450 515 10;
#X obj -78 171 spigot;
#X obj -28 141 lb 1;
#X msg -18 171 0;
#X obj -78 201 unpack;
#X obj -138 261 sll \$1;
#X obj 100 100 bng 20 250 50 0 empty empty empty 17 7 0 10 -262144
-1 -1;
#X floatatom 121 100 3 0 0 0 - - -;
#X floatatom 142 100 3 0 0 0 - - -;
#X msg 32 311 set \$1;
#X msg 122 311 set \$1;
#X obj -28 261 rr;
#X obj -78 261 rr;
#X obj -148 291 route;
#X obj -148 321 route;
#X obj -148 111 pack f f f;
#X obj -78 111 pack;
#X obj -78 141 rr;
#X obj -148 351 outlet;
#X obj -78 351 outlet;
#X obj -28 351 outlet;
#X obj -48 81 % 16;
#X obj 12 71 r \$1_reset;
#X obj -148 81 swap;
#X obj 2 101 r global_load;
#X obj -138 211 packtbf;
#X obj -78 51 unpack f f f;
#X obj -78 21 r bctl;
#X text -135 386 Bus Control In select - Output a specific control
signal according to a variable set by \$1 and control number. Press
button to assign to the next control signal received. It is automatically
assigned to the first signal received after creation unless selected
via numberboxes or loading previously saved settings.;
#X floatatom 222 210 5 0 0 0 - - -;
#X text 182 180 b - bus - signal is from a variable named bctl (currently
just control);
#X obj 222 329 s bctl;
#X obj 222 299 packtbf3;
#X floatatom 222 240 5 0 0 0 - - -;
#X floatatom 242 260 5 0 0 0 - - -;
#X floatatom 262 280 5 0 0 0 - - -;
#X connect 0 0 2 0;
#X connect 0 0 3 0;
#X connect 1 0 0 1;
#X connect 2 0 0 1;
#X connect 3 0 11 0;
#X connect 3 1 10 0;
#X connect 4 0 0 0;
#X connect 5 0 1 0;
#X connect 6 0 11 0;
#X connect 6 0 2 0;
#X connect 7 0 10 0;
#X connect 7 0 2 0;
#X connect 8 0 6 0;
#X connect 9 0 7 0;
#X connect 10 0 9 0;
#X connect 10 0 13 1;
#X connect 10 0 19 0;
#X connect 10 0 24 1;
#X connect 11 0 8 0;
#X connect 11 0 12 1;
#X connect 11 0 18 0;
#X connect 11 0 24 0;
#X connect 12 0 13 0;
#X connect 13 0 17 0;
#X connect 14 0 12 0;
#X connect 15 0 16 0;
#X connect 16 0 0 0;
#X connect 20 0 15 1;
#X connect 20 0 14 1;
#X connect 21 0 5 0;
#X connect 22 0 14 0;
#X connect 22 1 14 2;
#X connect 23 0 1 0;
#X connect 24 0 4 0;
#X connect 25 0 22 0;
#X connect 25 1 22 1;
#X connect 25 1 15 0;
#X connect 25 2 20 0;
#X connect 26 0 25 0;
#X connect 31 0 30 0;
#X connect 32 0 31 0;
#X connect 33 0 31 1;
#X connect 34 0 31 2;
#X coords 0 -1 1 1 66 20 2 100 100;
