#N canvas 229 22 715 624 10;
#X obj -78 171 spigot;
#X obj -28 141 lb 1;
#X msg -18 171 0;
#X obj -38 281 unpack;
#X obj -168 381 sll \$1;
#X obj 100 120 bng 20 250 50 0 \$1_reset empty empty 17 7 0 10 -262144
-1 -1;
#X floatatom 121 120 3 0 0 0 - - -;
#X floatatom 142 120 3 0 0 0 - - -;
#X msg 12 411 set \$1;
#X msg 82 411 set \$1;
#X obj 12 311 rr;
#X obj -38 311 rr;
#X obj -208 491 route;
#X obj -78 111 pack;
#X obj -78 141 rr;
#X obj -208 531 outlet;
#X obj -78 521 outlet;
#X obj -28 521 outlet;
#X obj -48 51 % 16;
#X obj -28 81 r \$1_reset;
#X obj -78 21 ctlin;
#X obj 12 101 r global_load;
#X obj -168 351 packtbf3;
#X floatatom 172 120 3 0 0 0 - - -;
#X obj -208 81 pack f f f;
#X obj -208 111 route 127;
#X obj -208 141 unpack;
#X obj -208 231 moses;
#X obj -208 261 moses;
#X obj -208 171 -;
#X obj -88 231 rr;
#X obj -188 291 swap;
#X obj -168 411 unpack f f f;
#X obj -168 441 pack;
#X obj -188 321 pack;
#X obj 22 521 outlet;
#X text 279 135 Control In Strip;
#X floatatom -208 512 5 0 0 0 - - -;
#X text 169 136 Controls;
#X text 279 155 For a set of midi control buttons in ascending. Creates
an ascending strip of control ins that when the nth sends 127 \, n
gets output. For example \, if you have the control assigned to 23
and controls >5 and you send 25 \, it outputs 2 So the first control
is always 0 \, the second sends 1 \, etc. . . Outputs a 0 when a midi
control is sending 127 and adds ascending control numbers;
#X text 101 136 Asn;
#X text 121 136 Val;
#X text 141 136 Chan;
#X connect 0 0 2 0;
#X connect 0 0 3 0;
#X connect 1 0 0 1;
#X connect 2 0 0 1;
#X connect 3 0 11 0;
#X connect 3 1 10 0;
#X connect 4 0 32 0;
#X connect 5 0 1 0;
#X connect 6 0 11 0;
#X connect 7 0 10 0;
#X connect 8 0 6 0;
#X connect 9 0 7 0;
#X connect 10 0 9 0;
#X connect 10 0 12 1;
#X connect 10 0 17 0;
#X connect 10 0 22 1;
#X connect 11 0 8 0;
#X connect 11 0 16 0;
#X connect 11 0 22 0;
#X connect 11 0 29 1;
#X connect 12 0 15 0;
#X connect 12 0 37 0;
#X connect 13 0 14 0;
#X connect 14 0 0 0;
#X connect 18 0 13 1;
#X connect 18 0 24 2;
#X connect 19 0 1 0;
#X connect 20 0 24 0;
#X connect 20 1 13 0;
#X connect 20 1 24 1;
#X connect 20 2 18 0;
#X connect 21 0 1 0;
#X connect 22 0 4 0;
#X connect 23 0 30 0;
#X connect 24 0 25 0;
#X connect 25 0 26 0;
#X connect 26 0 29 0;
#X connect 26 1 31 1;
#X connect 27 1 28 0;
#X connect 28 0 31 0;
#X connect 29 0 27 0;
#X connect 30 0 28 1;
#X connect 30 0 22 2;
#X connect 30 0 35 0;
#X connect 31 0 34 0;
#X connect 31 1 34 1;
#X connect 32 0 33 0;
#X connect 32 1 33 1;
#X connect 32 2 23 0;
#X connect 33 0 0 0;
#X connect 34 0 12 0;
#X coords 0 -1 1 1 123 40 1 100 100;
