#N canvas 264 41 642 514 10;
#X obj -88 171 spigot;
#X msg -28 171 0;
#X obj -88 201 unpack;
#X obj -148 261 sll \$1;
#X obj 100 100 bng 20 250 50 0 empty empty empty 17 7 0 10 -262144
-1 -1;
#X floatatom 121 100 3 0 0 0 - - -;
#X floatatom 142 100 3 0 0 0 - - -;
#X msg 32 311 set \$1;
#X msg 122 311 set \$1;
#X obj -38 261 rr;
#X obj -88 261 rr;
#X obj -158 291 route;
#X obj -158 321 route;
#X obj -158 111 pack f f f;
#X obj -88 111 pack;
#X obj -88 141 rr;
#X obj -158 351 outlet;
#X obj -88 351 outlet;
#X obj -38 351 outlet;
#X obj -58 81 % 16;
#X obj 102 61 r \$1_reset;
#X obj -88 51 ctlin;
#X obj -158 81 swap;
#X obj -38 111 r global_load;
#X obj -148 211 packtbf;
#X text -135 386 Control In select - Output a specific midi control
signal according to a channel and control number. Press button to assign
to the next midi control signal received. It is automatically assigned
to first midi control signal received after creation unless selected
via numberboxes or loading previously saved settings.;
#X obj -38 141 lb -1;
#X text 140 125 channel;
#X text 120 115 control;
#X text 50 95 assign:;
#X connect 0 0 1 0;
#X connect 0 0 2 0;
#X connect 1 0 0 1;
#X connect 2 0 10 0;
#X connect 2 1 9 0;
#X connect 3 0 0 0;
#X connect 4 0 26 0;
#X connect 5 0 10 0;
#X connect 5 0 1 0;
#X connect 6 0 9 0;
#X connect 6 0 1 0;
#X connect 7 0 5 0;
#X connect 8 0 6 0;
#X connect 9 0 8 0;
#X connect 9 0 12 1;
#X connect 9 0 18 0;
#X connect 9 0 24 1;
#X connect 10 0 7 0;
#X connect 10 0 11 1;
#X connect 10 0 17 0;
#X connect 10 0 24 0;
#X connect 11 0 12 0;
#X connect 12 0 16 0;
#X connect 13 0 11 0;
#X connect 14 0 15 0;
#X connect 15 0 0 0;
#X connect 19 0 14 1;
#X connect 19 0 13 1;
#X connect 20 0 4 0;
#X connect 21 0 22 0;
#X connect 21 1 22 1;
#X connect 21 1 14 0;
#X connect 21 2 19 0;
#X connect 22 0 13 0;
#X connect 22 1 13 2;
#X connect 23 0 26 0;
#X connect 24 0 3 0;
#X connect 26 0 0 1;
#X coords 0 -1 1 1 66 20 2 100 100;
