#N canvas 0 0 515 369 10;
#X obj 100 120 ci_sel_vvcm \$1;
#X obj 100 171 sel 0;
#X obj 130 201 b;
#X obj 130 231 f 1;
#X obj 100 231 f 0;
#X obj 100 261 outlet;
#X text 103 29 Control In On (1) on non-zero;
#X text 103 49 \$1 name;
#X text 103 79 or view INTRO.pd in root directory and click [pd midi]
;
#X text 103 69 vFor full explaination right click and open object below
;
#X connect 0 0 1 0;
#X connect 1 0 4 0;
#X connect 1 1 2 0;
#X connect 2 0 3 0;
#X connect 3 0 5 0;
#X connect 4 0 5 0;
#X coords 0 -1 1 1 65 40 1 100 100;
