#N canvas 0 50 894 300 10;
#X obj 37 37 inlet;
#X obj 37 67 b;
#X obj 37 167 s \$1_0_nv;
#X obj 107 167 s \$1_1_nv;
#X obj 177 167 s \$1_11_nv;
#X obj 247 167 s \$1_2_nv;
#X obj 317 167 s \$1_3_nv;
#X obj 387 167 s \$1_4_nv;
#X obj 457 167 s \$1_5_nv;
#X obj 527 167 s \$1_6_nv;
#X obj 597 167 s \$1_7_nv;
#X obj 667 167 s \$1_8_nv;
#X obj 737 167 s \$1_9_nv;
#X obj 807 167 s \$1_10_nv;
#X obj 37 97 pack 24 0;
#X connect 0 0 1 0;
#X connect 1 0 14 0;
#X connect 14 0 2 0;
#X connect 14 0 3 0;
#X connect 14 0 4 0;
#X connect 14 0 5 0;
#X connect 14 0 6 0;
#X connect 14 0 7 0;
#X connect 14 0 8 0;
#X connect 14 0 9 0;
#X connect 14 0 10 0;
#X connect 14 0 11 0;
#X connect 14 0 12 0;
#X connect 14 0 13 0;
