#N canvas 0 50 450 579 10;
#X obj 72 9 inlet;
#X obj 12 219 note_array;
#X obj 96 129 until;
#X obj 96 99 t a b;
#X obj 146 129 f 0;
#X obj 96 159 f;
#X obj 126 159 + 1;
#X obj 96 69 f 127;
#X obj 72 39 t b b;
#X obj 12 249 sel 0;
#X obj 12 279 b;
#X obj 96 189 t a a;
#X obj 12 309 f;
#X obj 12 339 pack f 0;
#X obj 12 9 inlet;
#X obj 12 369 outlet;
#X connect 0 0 8 0;
#X connect 1 0 9 0;
#X connect 2 0 5 0;
#X connect 3 0 2 0;
#X connect 3 1 4 0;
#X connect 4 0 5 1;
#X connect 5 0 6 0;
#X connect 5 0 11 0;
#X connect 6 0 5 1;
#X connect 7 0 3 0;
#X connect 8 0 1 4;
#X connect 8 1 7 0;
#X connect 9 1 10 0;
#X connect 10 0 12 0;
#X connect 11 0 1 1;
#X connect 11 1 12 1;
#X connect 12 0 13 0;
#X connect 13 0 15 0;
#X connect 14 0 1 0;
