#N canvas 0 50 996 346 12;
#X obj 50 290 outlet;
#X obj 50 180 sel 0;
#X obj 150 240 pack f 0;
#X obj 200 180 beat_to_ms;
#X obj 50 90 inlet;
#X text 49 73 Note;
#X text 99 73 Velocity;
#X text 309 73 Gate;
#X text 199 73 Rate (beat);
#X obj 100 90 inlet;
#X obj 310 90 inlet;
#X obj 200 90 inlet;
#X obj 250 100 lb \$1 1;
#X obj 150 210 pipe;
#X obj 120 150 lb \$2 127;
#X text 449 133 \$1 beat;
#X text 449 153 \$2 vel;
#X text 449 173 \$3 gate;
#X obj 310 120 lb \$3 0.999999;
#X text 449 73 Float to Note Velocity pair. Inputs a float and pairs
it with a velocity to the output \, then waits for rate multiplied
by gate to output the note off;
#X obj 200 150 ttbf 0.999999;
#X obj 50 240 pack f 127;
#X obj 310 153 b;
#X obj 310 186 s global_send_tempo;
#X connect 1 1 13 0;
#X connect 1 1 21 0;
#X connect 2 0 0 0;
#X connect 3 0 13 1;
#X connect 4 0 1 0;
#X connect 9 0 21 1;
#X connect 10 0 20 1;
#X connect 11 0 20 0;
#X connect 12 0 20 0;
#X connect 13 0 2 0;
#X connect 14 0 21 1;
#X connect 18 0 20 1;
#X connect 18 0 22 0;
#X connect 20 0 3 0;
#X connect 21 0 0 0;
#X connect 22 0 23 0;
