#N canvas 0 50 378 470 10;
#X obj 189 165 + 1;
#X obj 152 134 until;
#X obj 152 74 t b b;
#X obj 62 224 note_array;
#X obj 152 44 inlet;
#X obj 62 342 outlet;
#X obj 62 252 sel 0;
#X obj 152 164 f;
#X obj 132 314 f;
#X obj 92 282 b;
#X obj 152 194 t a a;
#X obj 62 74 r \$1_nv;
#X msg 187 105 0;
#X msg 152 104 127;
#X connect 0 0 7 1;
#X connect 1 0 7 0;
#X connect 2 0 13 0;
#X connect 2 1 12 0;
#X connect 3 0 6 0;
#X connect 4 0 2 0;
#X connect 6 1 9 0;
#X connect 7 0 0 0;
#X connect 7 0 10 0;
#X connect 8 0 5 0;
#X connect 9 0 8 0;
#X connect 10 0 3 1;
#X connect 10 1 8 1;
#X connect 11 0 3 0;
#X connect 12 0 7 1;
#X connect 13 0 1 0;
