#N canvas 728 53 450 513 10;
#X obj -98 161 spigot;
#X msg -38 161 0;
#X obj -98 191 unpack;
#X obj -158 251 sll \$1;
#X obj 100 100 bng 20 250 50 0 empty empty empty 17 7 0 10 -262144
-1 -1;
#X floatatom 121 100 3 0 0 0 - - -;
#X floatatom 142 100 3 0 0 0 - - -;
#X msg 32 301 set \$1;
#X msg 122 301 set \$1;
#X obj -48 251 rr;
#X obj -98 251 rr;
#X obj -168 281 route;
#X obj -168 311 route;
#X obj -168 101 pack f f f;
#X obj -98 101 pack;
#X obj -98 131 rr;
#X obj -98 41 notein;
#X obj -168 341 outlet;
#X obj -98 341 outlet;
#X obj -48 341 outlet;
#X obj -68 71 % 16;
#X obj -18 71 r \$1_reset;
#X obj -158 211 packtbf;
#X obj -38 101 r global_load;
#X text -135 386 Note In select - Output a specific midi note signal
according to a channel and note number. Press button to assign to the
next midi note signal received. It is automatically assigned to the
first midi note signal received after creation unless selected via
numberboxes or loading previously saved settings.;
#X text 140 125 channel;
#X text 50 95 assign:;
#X text 120 115 note;
#X obj -48 131 lb -1;
#X connect 0 0 1 0;
#X connect 0 0 2 0;
#X connect 1 0 0 1;
#X connect 2 0 10 0;
#X connect 2 1 9 0;
#X connect 3 0 0 0;
#X connect 4 0 28 0;
#X connect 5 0 10 0;
#X connect 5 0 1 0;
#X connect 6 0 9 0;
#X connect 6 0 1 0;
#X connect 7 0 5 0;
#X connect 8 0 6 0;
#X connect 9 0 8 0;
#X connect 9 0 12 1;
#X connect 9 0 19 0;
#X connect 9 0 22 1;
#X connect 10 0 7 0;
#X connect 10 0 11 1;
#X connect 10 0 18 0;
#X connect 10 0 22 0;
#X connect 11 0 12 0;
#X connect 12 0 17 0;
#X connect 13 0 11 0;
#X connect 14 0 15 0;
#X connect 15 0 0 0;
#X connect 16 0 14 0;
#X connect 16 0 13 0;
#X connect 16 1 13 2;
#X connect 16 2 20 0;
#X connect 20 0 14 1;
#X connect 20 0 13 1;
#X connect 21 0 4 0;
#X connect 22 0 3 0;
#X connect 23 0 28 0;
#X connect 28 0 0 1;
#X coords 0 -1 1 1 65 20 2 100 100;
