#N canvas 0 0 450 514 10;
#X obj 100 120 ni_sel_vvcm \$1;
#X obj 100 191 sel 0;
#X obj 100 251 outlet;
#X obj 100 221 b;
#X connect 0 0 1 0;
#X connect 1 1 3 0;
#X connect 3 0 2 0;
#X coords 0 -1 1 1 65 40 1 100 100;
