#N canvas 0 0 450 514 10;
#X obj -148 351 sel 0;
#X obj -118 381 b;
#X obj -118 411 f 1;
#X obj -148 411 f 0;
#X obj -148 441 outlet;
#X obj 100 120 ni_sel_vvcm \$1;
#X connect 0 0 3 0;
#X connect 0 1 1 0;
#X connect 1 0 2 0;
#X connect 2 0 4 0;
#X connect 3 0 4 0;
#X connect 5 0 0 0;
#X coords 0 -1 1 1 65 40 1 100 100;
