#N canvas 0 0 450 300 10;
#X obj 71 45 notein;
#X obj 111 105 sel \$1;
#X obj 111 135 f 1;
#X obj 141 135 b;
#X obj 141 165 f 0;
#X obj 71 195 spigot;
#X obj 71 225 outlet;
#X obj 71 105 pack;
#X obj 111 75 % 16;
#X connect 0 0 7 0;
#X connect 0 1 7 1;
#X connect 0 2 8 0;
#X connect 1 0 2 0;
#X connect 1 1 3 0;
#X connect 2 0 5 1;
#X connect 3 0 4 0;
#X connect 4 0 5 1;
#X connect 5 0 6 0;
#X connect 7 0 5 0;
#X connect 8 0 1 0;
