#N canvas 270 11 450 514 10;
#X obj 100 120 ni_sel_vvcm \$1;
#X obj -138 421 outlet;
#X obj -138 361 swap;
#X obj -138 391 pack;
#X connect 0 0 2 0;
#X connect 0 1 2 1;
#X connect 2 0 3 0;
#X connect 2 1 3 1;
#X connect 3 0 1 0;
#X coords 0 -1 1 1 65 40 1 100 100;
