#N canvas 0 0 689 300 10;
#X obj 71 45 notein;
#X obj 111 135 f 1;
#X obj 141 135 b;
#X obj 141 165 f 0;
#X obj 71 195 spigot;
#X obj 71 225 outlet;
#X obj 71 105 pack;
#X obj 111 75 % 16;
#X obj 151 75 % 16;
#X obj 151 45 lb \$1;
#X text 227 68 Note In Packed with a modulus on the channel \, so channels
are 1-16 instead of going over 16 which happens with multiple controllers
in Pure Data;
#X text 227 108 \$1 channel;
#X obj 111 105 sel;
#X connect 0 0 6 0;
#X connect 0 1 6 1;
#X connect 0 2 7 0;
#X connect 1 0 4 1;
#X connect 2 0 3 0;
#X connect 3 0 4 1;
#X connect 4 0 5 0;
#X connect 6 0 4 0;
#X connect 7 0 12 0;
#X connect 8 0 12 1;
#X connect 9 0 8 0;
#X connect 12 0 1 0;
#X connect 12 1 2 0;
