#N canvas 0 50 744 318 10;
#X obj 21 136 tabwrite \$0-notes;
#X obj 21 80 inlet;
#X text 16 63 Note Vel;
#X obj 161 80 inlet;
#X text 155 63 tabread;
#X obj 161 108 tabread \$0-notes;
#X obj 161 136 outlet;
#X obj 291 80 inlet;
#X obj 291 108 tabwrite \$0-notes;
#X obj 21 108 swap;
#X text 265 63 tabwrite value;
#X obj 411 80 inlet;
#X text 385 63 tabwrite index;
#X obj 21 198 table \$0-notes;
#X obj 511 80 inlet;
#X text 515 63 clear;
#X obj 511 110 b;
#X obj 511 140 f \$0;
#X msg 511 170 \; \$1-notes const 0;
#X connect 1 0 9 0;
#X connect 3 0 5 0;
#X connect 5 0 6 0;
#X connect 7 0 8 0;
#X connect 9 0 0 0;
#X connect 9 1 0 1;
#X connect 11 0 8 1;
#X connect 14 0 16 0;
#X connect 16 0 17 0;
#X connect 17 0 18 0;
