#N canvas 0 0 450 300 10;
#X obj 55 109 outlet;
#X obj 55 19 inlet;
#X obj 75 49 r \$1_bangs;
#X obj 175 49 r \$1_rate;
#X obj 55 79 nv_repeat;
#X connect 1 0 4 0;
#X connect 2 0 4 1;
#X connect 3 0 4 2;
#X connect 4 0 0 0;
