#N canvas 373 104 742 614 10;
#X obj 194 275 f;
#X obj 224 275 + 1;
#X obj 194 425 sel 0;
#X obj 224 35 inlet;
#X msg 244 305 0;
#X obj 284 35 inlet;
#X obj 364 35 inlet;
#X obj 324 485 outlet;
#X text 216 20 Note Vel;
#X text 285 20 Bangs;
#X obj 124 155 stripnote;
#X obj 124 425 pipe_2d;
#X obj 194 245 b;
#X obj 124 185 t b a;
#X obj 124 275 list trim;
#X obj 144 215 packtbf3;
#X obj 124 125 spigot;
#X obj 194 395 >= 3;
#X obj 224 365 + -1;
#X obj 374 65 s \$0_delay;
#X obj 44 155 r \$0_delay;
#X text 365 20 Delay (beat);
#X obj 44 185 beat_to_ms;
#X obj 124 245 list store;
#X obj 284 95 clip 0 55555;
#X obj 324 425 pack f 0;
#X obj 364 365 beat_to_ms;
#X text 473 18 Gate;
#X obj 474 35 inlet;
#X obj 324 395 pipe;
#X obj 474 305 lb \$3 0.999999;
#X obj 364 335 ttbf 0.999999;
#X obj 474 338 b;
#X obj 474 371 s global_send_tempo;
#X obj 194 485 unpack;
#X connect 0 0 1 0;
#X connect 0 0 17 0;
#X connect 1 0 0 1;
#X connect 2 0 23 0;
#X connect 2 1 4 0;
#X connect 3 0 7 0;
#X connect 3 0 16 0;
#X connect 4 0 0 1;
#X connect 5 0 24 0;
#X connect 6 0 19 0;
#X connect 6 0 31 0;
#X connect 10 0 13 0;
#X connect 10 1 15 2;
#X connect 11 0 7 0;
#X connect 11 0 12 0;
#X connect 11 0 34 0;
#X connect 12 0 0 0;
#X connect 13 0 23 0;
#X connect 13 1 15 1;
#X connect 14 0 11 0;
#X connect 15 0 23 1;
#X connect 16 0 10 0;
#X connect 17 0 2 0;
#X connect 18 0 17 1;
#X connect 20 0 22 0;
#X connect 22 0 15 0;
#X connect 23 0 14 0;
#X connect 24 0 16 1;
#X connect 24 0 18 0;
#X connect 25 0 7 0;
#X connect 26 0 29 1;
#X connect 28 0 31 1;
#X connect 29 0 25 0;
#X connect 30 0 31 1;
#X connect 30 0 32 0;
#X connect 31 0 26 0;
#X connect 32 0 33 0;
#X connect 34 0 29 0;
