#N canvas 0 50 1278 645 10;
#X obj 137 37 inlet;
#X obj 137 127 int;
#X msg 437 427 -1;
#X msg 547 427 0;
#X obj 137 67 t a a;
#X obj 137 187 % 12;
#X obj 577 507 +;
#X obj 437 397 route 1 4 6 9 11;
#X msg 597 427 -1;
#X msg 707 427 0;
#X obj 597 397 route 1 4 6 8 11;
#X msg 747 427 -1;
#X msg 857 427 0;
#X obj 747 397 route 1 3 6 8 11;
#X msg 907 427 -1;
#X msg 1017 427 0;
#X msg 1057 427 -1;
#X msg 1167 427 0;
#X obj 1057 397 route 1 3 5 8 10;
#X obj 907 397 route 1 3 6 8 10;
#X msg 287 427 -1;
#X msg 397 427 0;
#X obj 287 397 route 2 4 6 9 11;
#X msg 137 427 -1;
#X msg 247 427 0;
#X obj 137 397 route 2 4 7 9 11;
#X obj 137 367 spigot;
#X obj 177 307 sel 7;
#X msg 177 337 1;
#X msg 217 337 0;
#X obj 177 277 r \$0_mode;
#X obj 137 247 r \$0_note;
#X obj 137 217 s \$0_note;
#X obj 287 367 spigot;
#X msg 327 337 1;
#X msg 367 337 0;
#X obj 327 277 r \$0_mode;
#X obj 287 247 r \$0_note;
#X obj 437 367 spigot;
#X msg 477 337 1;
#X msg 517 337 0;
#X obj 477 277 r \$0_mode;
#X obj 437 247 r \$0_note;
#X obj 597 367 spigot;
#X msg 637 337 1;
#X msg 677 337 0;
#X obj 637 277 r \$0_mode;
#X obj 597 247 r \$0_note;
#X obj 747 367 spigot;
#X msg 787 337 1;
#X msg 827 337 0;
#X obj 787 277 r \$0_mode;
#X obj 747 247 r \$0_note;
#X obj 907 367 spigot;
#X msg 947 337 1;
#X msg 987 337 0;
#X obj 947 277 r \$0_mode;
#X obj 907 247 r \$0_note;
#X obj 1057 367 spigot;
#X msg 1097 337 1;
#X msg 1137 337 0;
#X obj 1097 277 r \$0_mode;
#X obj 1057 247 r \$0_note;
#X obj 1097 307 sel 4;
#X obj 947 307 sel 1;
#X obj 787 307 sel 5;
#X obj 637 307 sel 2;
#X obj 477 307 sel 6;
#X obj 327 307 sel 3;
#X obj 277 37 inlet;
#X obj 277 67 s \$0_mode;
#X obj 197 37 inlet;
#X obj 577 537 outlet;
#X obj 17 427 spigot;
#X msg 57 397 1;
#X msg 97 397 0;
#X obj 57 337 r \$0_mode;
#X obj 57 367 sel 0;
#X obj 137 97 + 12.5;
#N canvas 0 50 739 352 misc 0;
#X msg 67 237 -1;
#X msg 147 237 0;
#X obj 67 177 spigot;
#X msg 107 147 1;
#X msg 147 147 0;
#X obj 107 87 r \$0_mode;
#X obj 67 57 r \$0_note;
#X obj 107 117 sel 8;
#X msg 107 237 -2;
#X obj 67 297 outlet;
#X msg 227 237 -1;
#X msg 307 237 0;
#X obj 227 177 spigot;
#X msg 267 147 1;
#X msg 307 147 0;
#X obj 267 87 r \$0_mode;
#X obj 227 57 r \$0_note;
#X msg 267 237 -2;
#X obj 227 207 route 1 4 6 8 11 9 2;
#X text 71 39 Major pent;
#X text 231 39 Minor pent;
#X obj 227 267 rr;
#X obj 267 117 sel 9;
#X obj 67 207 route 1 3 5 8 10 11 6;
#X msg 377 237 -1;
#X msg 457 237 0;
#X obj 377 177 spigot;
#X msg 417 147 1;
#X msg 457 147 0;
#X obj 417 87 r \$0_mode;
#X obj 377 57 r \$0_note;
#X msg 417 237 -2;
#X obj 377 267 rr;
#X text 381 39 Blues;
#X obj 417 117 sel 10;
#X obj 377 207 route 1 4 8 11 9 2;
#X connect 0 0 9 0;
#X connect 1 0 9 0;
#X connect 2 0 23 0;
#X connect 3 0 2 1;
#X connect 4 0 2 1;
#X connect 5 0 7 0;
#X connect 6 0 2 0;
#X connect 7 0 3 0;
#X connect 7 1 4 0;
#X connect 8 0 9 0;
#X connect 10 0 21 0;
#X connect 11 0 21 0;
#X connect 12 0 18 0;
#X connect 13 0 12 1;
#X connect 14 0 12 1;
#X connect 15 0 22 0;
#X connect 16 0 12 0;
#X connect 17 0 21 0;
#X connect 18 0 10 0;
#X connect 18 1 10 0;
#X connect 18 2 10 0;
#X connect 18 3 10 0;
#X connect 18 4 10 0;
#X connect 18 5 17 0;
#X connect 18 6 17 0;
#X connect 18 7 11 0;
#X connect 21 0 9 0;
#X connect 22 0 13 0;
#X connect 22 1 14 0;
#X connect 23 0 0 0;
#X connect 23 1 0 0;
#X connect 23 2 0 0;
#X connect 23 3 0 0;
#X connect 23 4 0 0;
#X connect 23 5 8 0;
#X connect 23 6 8 0;
#X connect 23 7 1 0;
#X connect 24 0 32 0;
#X connect 25 0 32 0;
#X connect 26 0 35 0;
#X connect 27 0 26 1;
#X connect 28 0 26 1;
#X connect 29 0 34 0;
#X connect 30 0 26 0;
#X connect 31 0 32 0;
#X connect 32 0 9 0;
#X connect 34 0 27 0;
#X connect 34 1 28 0;
#X connect 35 0 24 0;
#X connect 35 1 24 0;
#X connect 35 2 24 0;
#X connect 35 3 24 0;
#X connect 35 4 31 0;
#X connect 35 5 31 0;
#X connect 35 6 25 0;
#X restore 607 507 pd misc;
#X text 132 20 Note Vel;
#X text 192 20 Transpose;
#X text 372 20 0-bypass 1-Ionian 2-Dorian 3-Phrygian 4-Lydian 5-Mixolydian
6-Aeolian 7-Locrian 8-Major Pentatonic 9-Minor Pentatonic 10-Blues
;
#X text 282 20 Mode;
#X obj 137 157 - \$1;
#X obj 317 37 lb \$2;
#X text 512 20 \$1 Transpose;
#X text 512 40 \$2 Mode;
#X connect 0 0 4 0;
#X connect 1 0 84 0;
#X connect 2 0 6 0;
#X connect 3 0 6 0;
#X connect 4 0 73 0;
#X connect 4 0 78 0;
#X connect 4 1 6 1;
#X connect 5 0 32 0;
#X connect 6 0 72 0;
#X connect 7 0 2 0;
#X connect 7 1 2 0;
#X connect 7 2 2 0;
#X connect 7 3 2 0;
#X connect 7 4 2 0;
#X connect 7 5 3 0;
#X connect 8 0 6 0;
#X connect 9 0 6 0;
#X connect 10 0 8 0;
#X connect 10 1 8 0;
#X connect 10 2 8 0;
#X connect 10 3 8 0;
#X connect 10 4 8 0;
#X connect 10 5 9 0;
#X connect 11 0 6 0;
#X connect 12 0 6 0;
#X connect 13 0 11 0;
#X connect 13 1 11 0;
#X connect 13 2 11 0;
#X connect 13 3 11 0;
#X connect 13 4 11 0;
#X connect 13 5 12 0;
#X connect 14 0 6 0;
#X connect 15 0 6 0;
#X connect 16 0 6 0;
#X connect 17 0 6 0;
#X connect 18 0 16 0;
#X connect 18 1 16 0;
#X connect 18 2 16 0;
#X connect 18 3 16 0;
#X connect 18 4 16 0;
#X connect 18 5 17 0;
#X connect 19 0 14 0;
#X connect 19 1 14 0;
#X connect 19 2 14 0;
#X connect 19 3 14 0;
#X connect 19 4 14 0;
#X connect 19 5 15 0;
#X connect 20 0 6 0;
#X connect 21 0 6 0;
#X connect 22 0 20 0;
#X connect 22 1 20 0;
#X connect 22 2 20 0;
#X connect 22 3 20 0;
#X connect 22 4 20 0;
#X connect 22 5 21 0;
#X connect 23 0 6 0;
#X connect 24 0 6 0;
#X connect 25 0 23 0;
#X connect 25 1 23 0;
#X connect 25 2 23 0;
#X connect 25 3 23 0;
#X connect 25 4 23 0;
#X connect 25 5 24 0;
#X connect 26 0 25 0;
#X connect 27 0 28 0;
#X connect 27 1 29 0;
#X connect 28 0 26 1;
#X connect 29 0 26 1;
#X connect 30 0 27 0;
#X connect 31 0 26 0;
#X connect 33 0 22 0;
#X connect 34 0 33 1;
#X connect 35 0 33 1;
#X connect 36 0 68 0;
#X connect 37 0 33 0;
#X connect 38 0 7 0;
#X connect 39 0 38 1;
#X connect 40 0 38 1;
#X connect 41 0 67 0;
#X connect 42 0 38 0;
#X connect 43 0 10 0;
#X connect 44 0 43 1;
#X connect 45 0 43 1;
#X connect 46 0 66 0;
#X connect 47 0 43 0;
#X connect 48 0 13 0;
#X connect 49 0 48 1;
#X connect 50 0 48 1;
#X connect 51 0 65 0;
#X connect 52 0 48 0;
#X connect 53 0 19 0;
#X connect 54 0 53 1;
#X connect 55 0 53 1;
#X connect 56 0 64 0;
#X connect 57 0 53 0;
#X connect 58 0 18 0;
#X connect 59 0 58 1;
#X connect 60 0 58 1;
#X connect 61 0 63 0;
#X connect 62 0 58 0;
#X connect 63 0 59 0;
#X connect 63 1 60 0;
#X connect 64 0 54 0;
#X connect 64 1 55 0;
#X connect 65 0 49 0;
#X connect 65 1 50 0;
#X connect 66 0 44 0;
#X connect 66 1 45 0;
#X connect 67 0 39 0;
#X connect 67 1 40 0;
#X connect 68 0 34 0;
#X connect 68 1 35 0;
#X connect 69 0 70 0;
#X connect 71 0 84 1;
#X connect 73 0 72 0;
#X connect 74 0 73 1;
#X connect 75 0 73 1;
#X connect 76 0 77 0;
#X connect 77 0 74 0;
#X connect 77 1 75 0;
#X connect 78 0 1 0;
#X connect 79 0 6 0;
#X connect 84 0 5 0;
#X connect 85 0 70 0;
