#N canvas 692 61 450 514 10;
#X obj 100 310 outlet;
#X obj 100 250 swap;
#X obj 100 280 pack;
#X obj 100 140 nbx_hide_vvc \$2 pitch 36;
#X obj 100 120 vni_sel_vvcm \$1 \$2_ni;
#X text 8 120 Instructions->;
#X connect 1 0 2 0;
#X connect 1 1 2 1;
#X connect 2 0 0 0;
#X connect 3 0 1 1;
#X connect 4 0 1 0;
#X coords 0 -1 1 1 85 80 1 100 100;
