#N canvas 270 11 450 514 10;
#X obj 100 251 outlet;
#X obj 100 191 swap;
#X obj 100 221 pack;
#X obj 100 120 vni_sel_vvcm \$1 \$2;
#X connect 1 0 2 0;
#X connect 1 1 2 1;
#X connect 2 0 0 0;
#X connect 3 0 1 0;
#X connect 3 1 1 1;
#X coords 0 -1 1 1 65 40 1 100 100;
