#N canvas 238 180 887 310 10;
#X text 74 5 Trig;
#X obj 72 110 adsr_pa~ 0 0 0;
#X obj 72 140 outlet~;
#X obj 152 20 r \$1_\$2_a;
#X obj 222 20 r \$1_\$2_d;
#X obj 292 20 r \$1_\$2_s;
#X obj 362 20 r \$1_\$2_r;
#X obj 432 20 r \$1_\$2_ms;
#X obj 512 19 r \$1_\$2_pow;
#X obj 592 19 r \$1_\$2_amount;
#X obj 12 20 inlet;
#X obj 72 20 r \$1_\$3_nv;
#X connect 1 0 2 0;
#X connect 3 0 1 1;
#X connect 4 0 1 2;
#X connect 5 0 1 3;
#X connect 6 0 1 4;
#X connect 7 0 1 5;
#X connect 8 0 1 6;
#X connect 9 0 1 7;
#X connect 10 0 1 0;
#X connect 11 0 1 0;
