#N canvas 352 43 594 526 10;
#X text 471 18 ms;
#X obj 152 183 + 5;
#X text 44 18 Trig;
#X obj 272 243 + 5;
#X text 163 18 a;
#X text 253 18 d;
#X obj 42 322 pack f f f f;
#X text 303 18 s;
#X text 423 18 r;
#X obj 362 303 sel 0;
#X obj 362 273 spigot;
#X obj 452 213 r \$0-latest;
#X obj 432 243 ==;
#X obj 362 183 r \$0-nv;
#X obj 42 234 stripnote;
#X obj 52 264 s \$0-latest;
#X obj 42 123 t a a;
#X obj 72 153 s \$0-nv;
#X obj 412 123 ttbf;
#X obj 272 183 ttbf;
#X obj 152 123 ttbf;
#X obj 42 33 inlet;
#X obj 152 33 inlet;
#X obj 242 33 inlet;
#X obj 412 33 inlet;
#X obj 462 33 inlet;
#X obj 42 492 line;
#X obj 42 522 outlet;
#X obj 132 352 del;
#X obj 132 383 pack f f f;
#X msg 132 412 \$3 \$2;
#X obj 132 322 b;
#X obj 362 213 swap;
#X msg 42 352 0 5 \, 1 \$2;
#X obj 272 213 clip 0 1e+038;
#X obj 152 153 clip 0 1e+038;
#X obj 412 153 clip 0 1e+038;
#X obj 292 33 inlet;
#X obj 292 63 clip 0 1;
#X obj 362 333 pack 0 f;
#X connect 1 0 6 1;
#X connect 1 0 28 1;
#X connect 3 0 6 2;
#X connect 3 0 29 1;
#X connect 6 0 33 0;
#X connect 9 0 39 0;
#X connect 10 0 9 0;
#X connect 11 0 12 1;
#X connect 12 0 10 1;
#X connect 13 0 32 0;
#X connect 14 0 15 0;
#X connect 14 0 6 0;
#X connect 14 0 31 0;
#X connect 16 0 14 0;
#X connect 16 1 17 0;
#X connect 18 0 36 0;
#X connect 19 0 34 0;
#X connect 20 0 35 0;
#X connect 21 0 16 0;
#X connect 22 0 20 0;
#X connect 23 0 19 0;
#X connect 24 0 18 0;
#X connect 25 0 18 1;
#X connect 25 0 19 1;
#X connect 25 0 20 1;
#X connect 26 0 27 0;
#X connect 28 0 29 0;
#X connect 29 0 30 0;
#X connect 30 0 26 0;
#X connect 31 0 28 0;
#X connect 32 0 10 0;
#X connect 32 1 12 0;
#X connect 33 0 26 0;
#X connect 34 0 3 0;
#X connect 35 0 1 0;
#X connect 36 0 39 1;
#X connect 37 0 38 0;
#X connect 38 0 6 3;
#X connect 38 0 29 2;
#X connect 39 0 26 0;
#X coords 0 526 1 525 141 111 0;
