#N canvas 0 0 932 454 10;
#X text 281 5 ms;
#X text 74 5 Trig;
#X text 123 5 a;
#X text 163 5 d;
#X text 203 5 s;
#X text 243 5 r;
#X obj 72 20 inlet;
#X obj 112 20 inlet;
#X obj 152 20 inlet;
#X obj 192 20 inlet;
#X obj 232 20 inlet;
#X obj 272 20 inlet;
#X obj 312 20 inlet;
#X text 318 5 pow;
#X obj 312 50 neg2frac;
#X obj 372 20 inlet;
#X text 370 5 amount;
#X obj 72 80 adsr_ 0 0 0 0 0;
#X obj 72 110 pow;
#X obj 72 170 outlet;
#X obj 72 140 * 1;
#X connect 6 0 17 0;
#X connect 7 0 17 1;
#X connect 8 0 17 2;
#X connect 9 0 17 3;
#X connect 10 0 17 4;
#X connect 11 0 17 5;
#X connect 12 0 14 0;
#X connect 14 0 18 1;
#X connect 15 0 20 1;
#X connect 17 0 18 0;
#X connect 18 0 20 0;
#X connect 20 0 19 0;
