#N canvas 0 0 1204 310 10;
#X text 581 5 ms;
#X text 24 5 Trig;
#X text 103 5 a;
#X text 223 5 d;
#X text 343 5 s;
#X text 463 5 r;
#X obj 212 20 r_\$1_\$2_d;
#X obj 332 20 r_\$1_\$2_s;
#X obj 572 20 r_\$1_\$2_ms;
#X obj 1002 19 r_\$1_\$2_amount;
#X obj 22 50 r \$1_\$3_nv;
#X obj 452 20 r_\$1_\$2_r;
#X obj 92 20 r_\$1_\$2_a;
#X obj 22 140 outlet~;
#X obj 22 110 adsr_ppa~ 0 0 0 0 0 0 0 0, f 105;
#X obj 702 19 r_\$1_\$2_pow_a;
#X obj 852 19 r_\$1_\$2_pow_b;
#X obj 12 20 inlet;
#X connect 6 0 14 2;
#X connect 7 0 14 3;
#X connect 8 0 14 5;
#X connect 9 0 14 8;
#X connect 10 0 14 0;
#X connect 11 0 14 4;
#X connect 12 0 14 1;
#X connect 14 0 13 0;
#X connect 15 0 14 6;
#X connect 16 0 14 7;
#X connect 17 0 14 0;
