#N canvas 591 57 852 623 10;
#X obj 62 519 vline~;
#X text 541 15 ms;
#X obj 62 549 outlet~;
#X text 64 15 Trig;
#X text 183 15 a;
#X text 273 15 d;
#X text 363 15 s;
#X text 453 15 r;
#X obj 62 181 stripnote;
#X obj 72 211 s \$0-latest;
#X obj 62 150 t a a;
#X obj 442 150 ttbf;
#X obj 262 120 ttbf;
#X obj 172 120 ttbf;
#X obj 62 30 inlet;
#X obj 172 30 inlet;
#X obj 262 30 inlet;
#X obj 352 30 inlet;
#X obj 442 30 inlet;
#X obj 532 30 inlet;
#X obj 392 321 r global_stop;
#X obj 352 150 clip 0 1;
#X obj 172 180 + 5;
#X obj 262 180 + 5;
#X obj 472 386 pack 0 f;
#X obj 172 150 clip 0 1e+038;
#X obj 262 150 clip 0 1e+038;
#X obj 442 180 clip 0 1e+038;
#X obj 282 353 sel 0;
#X obj 282 323 spigot;
#X obj 332 263 r \$0-latest;
#X obj 312 293 ==;
#X obj 282 263 swap;
#X obj 282 383 pack 0 f;
#X obj 392 351 f 0;
#X obj 172 240 + 5;
#X msg 62 379 0 5 \, 1 \$2 \$6 \, \$4 \$3 \$5;
#X obj 62 349 pack f f f f f f;
#X obj 202 320 r env_reset;
#X obj 162 320 lb 5;
#X obj 582 440 rr;
#X obj 582 30 inlet;
#X text 581 15 repeat;
#X obj 282 413 spigot;
#X obj 282 443 del;
#X connect 0 0 2 0;
#X connect 8 0 9 0;
#X connect 8 0 37 0;
#X connect 10 0 8 0;
#X connect 10 1 32 0;
#X connect 11 0 27 0;
#X connect 12 0 26 0;
#X connect 13 0 25 0;
#X connect 14 0 10 0;
#X connect 15 0 13 0;
#X connect 16 0 12 0;
#X connect 17 0 21 0;
#X connect 18 0 11 0;
#X connect 19 0 11 1;
#X connect 19 0 12 1;
#X connect 19 0 13 1;
#X connect 20 0 24 0;
#X connect 20 0 34 0;
#X connect 21 0 37 3;
#X connect 22 0 35 0;
#X connect 22 0 37 1;
#X connect 23 0 37 2;
#X connect 24 0 0 0;
#X connect 25 0 22 0;
#X connect 26 0 23 0;
#X connect 27 0 24 1;
#X connect 27 0 33 1;
#X connect 28 0 33 0;
#X connect 29 0 28 0;
#X connect 30 0 31 1;
#X connect 31 0 29 1;
#X connect 32 0 29 0;
#X connect 32 1 31 0;
#X connect 33 0 0 0;
#X connect 33 0 43 0;
#X connect 34 0 31 1;
#X connect 35 0 37 4;
#X connect 36 0 0 0;
#X connect 37 0 36 0;
#X connect 38 0 37 5;
#X connect 39 0 37 5;
#X connect 41 0 40 0;
#X connect 43 0 44 0;
#X connect 44 0 37 0;
#X coords 0 623 1 622 141 111 0;
