#N canvas 340 23 852 623 10;
#X obj 72 499 vline~;
#X text 551 15 ms;
#X text 74 15 Trig;
#X text 193 15 a;
#X text 283 15 d;
#X obj 152 301 pack f f f f;
#X text 373 15 s;
#X text 463 15 r;
#X obj 72 211 stripnote;
#X obj 72 180 unpack;
#X obj 72 241 s \$0-latest;
#X obj 72 150 t a a;
#X obj 452 90 ttbf;
#X obj 272 120 ttbf;
#X obj 182 120 ttbf;
#X obj 72 30 inlet;
#X obj 182 30 inlet;
#X obj 272 30 inlet;
#X obj 362 30 inlet;
#X obj 452 30 inlet;
#X obj 542 30 inlet;
#X obj 22 301 r global_stop;
#X msg 122 331 0 5 \, 1 \$2 \, \$4 \$3 \$2;
#X obj 362 60 clip 0 1;
#X obj 182 180 + 5;
#X obj 272 180 + 5;
#X obj 602 30 inlet;
#X obj 432 490 pow~;
#X obj 602 60 neg2frac;
#X obj 752 30 inlet;
#X text 750 15 amount;
#X obj 432 520 tline~;
#X obj 432 550 outlet~;
#X text 608 15 pow a;
#X obj 682 30 inlet;
#X obj 682 60 neg2frac;
#X text 688 15 pow b;
#X obj 382 270 b;
#X obj 472 300 del;
#X obj 432 430 vlinesc~;
#X obj 432 400 f;
#X obj 472 400 f;
#X obj 22 331 pack 0 f;
#X obj 82 331 f 0;
#X obj 752 60 clip 0 1e+038;
#X obj 452 120 clip 0 1e+038;
#X obj 272 150 clip 0 1e+038;
#X obj 182 150 clip 0 1e+038;
#X obj 252 380 sel 0;
#X obj 252 350 spigot;
#X obj 302 290 r \$0-latest;
#X obj 282 320 ==;
#X obj 252 290 swap;
#X obj 252 410 pack 0 f;
#X obj 82 361 s \$0-latest;
#X connect 0 0 27 0;
#X connect 5 0 22 0;
#X connect 8 0 10 0;
#X connect 8 0 5 0;
#X connect 8 1 37 0;
#X connect 9 0 8 0;
#X connect 9 1 8 1;
#X connect 11 0 9 0;
#X connect 11 1 52 0;
#X connect 12 0 45 0;
#X connect 13 0 46 0;
#X connect 14 0 47 0;
#X connect 15 0 11 0;
#X connect 16 0 14 0;
#X connect 17 0 13 0;
#X connect 18 0 23 0;
#X connect 19 0 12 0;
#X connect 20 0 12 1;
#X connect 20 0 13 1;
#X connect 20 0 14 1;
#X connect 21 0 42 0;
#X connect 21 0 43 0;
#X connect 22 0 0 0;
#X connect 23 0 5 3;
#X connect 24 0 5 1;
#X connect 24 0 38 1;
#X connect 25 0 5 2;
#X connect 26 0 28 0;
#X connect 27 0 31 0;
#X connect 28 0 40 1;
#X connect 29 0 44 0;
#X connect 31 0 32 0;
#X connect 34 0 35 0;
#X connect 35 0 41 1;
#X connect 37 0 38 0;
#X connect 37 0 40 0;
#X connect 38 0 41 0;
#X connect 39 0 27 1;
#X connect 40 0 39 0;
#X connect 41 0 39 0;
#X connect 42 0 0 0;
#X connect 43 0 54 0;
#X connect 44 0 31 1;
#X connect 45 0 42 1;
#X connect 45 0 53 1;
#X connect 46 0 25 0;
#X connect 47 0 24 0;
#X connect 48 0 53 0;
#X connect 49 0 48 0;
#X connect 50 0 51 1;
#X connect 51 0 49 1;
#X connect 52 0 49 0;
#X connect 52 1 51 0;
#X connect 53 0 0 0;
#X coords 0 623 1 622 141 111 0;
