#N canvas 0 0 998 310 10;
#X text 581 5 ms;
#X text 24 5 Trig;
#X text 103 5 a;
#X text 223 5 d;
#X text 343 5 s;
#X text 463 5 r;
#X obj 212 20 vv_mhx4 \$1 \$2_d \$3;
#X obj 332 20 vv_mhx4 \$1 \$2_s \$3;
#X obj 572 20 vv_mhx4 \$1 \$2_ms \$3;
#X obj 702 19 vv_mhx4 \$1 \$2_pow \$3;
#X obj 832 19 vv_mhx \$1 \$2_amount \$3;
#X obj 22 20 r \$1_\$3_nv;
#X obj 452 20 vv_mhx4 \$1 \$2_r \$3;
#X obj 92 20 vv_mhx4 \$1 \$2_a \$3;
#X obj 22 110 adsr_pa 0 0 0;
#X obj 22 140 outlet;
#X connect 6 0 14 2;
#X connect 7 0 14 3;
#X connect 8 0 14 5;
#X connect 9 0 14 6;
#X connect 10 0 14 7;
#X connect 11 0 14 0;
#X connect 12 0 14 4;
#X connect 13 0 14 1;
#X connect 14 0 15 0;
