#N canvas 622 24 852 623 10;
#X obj 62 519 vline~;
#X text 541 15 ms;
#X obj 62 549 outlet~;
#X text 64 15 Trig;
#X text 183 15 a;
#X text 273 15 d;
#X obj 62 349 pack f f f f;
#X text 363 15 s;
#X text 453 15 r;
#X obj 62 261 stripnote;
#X obj 62 180 unpack;
#X obj 72 291 s \$0-latest;
#X obj 62 150 t a a;
#X obj 442 150 ttbf;
#X obj 262 120 ttbf;
#X obj 172 120 ttbf;
#X obj 62 30 inlet;
#X obj 172 30 inlet;
#X obj 262 30 inlet;
#X obj 352 30 inlet;
#X obj 442 30 inlet;
#X obj 532 30 inlet;
#X obj 362 321 r global_stop;
#X msg 62 379 0 5 \, 1 \$2 \, \$4 \$3 \$2;
#X obj 352 150 clip 0 1;
#X obj 172 180 + 5;
#X obj 262 180 + 5;
#X obj 442 386 pack 0 f;
#X obj 172 150 clip 0 1e+038;
#X obj 262 150 clip 0 1e+038;
#X obj 442 180 clip 0 1e+038;
#X obj 252 353 sel 0;
#X obj 252 323 spigot;
#X obj 302 263 r \$0-latest;
#X obj 282 293 ==;
#X obj 252 263 swap;
#X obj 252 383 pack 0 f;
#X obj 362 351 f 0;
#X connect 0 0 2 0;
#X connect 6 0 23 0;
#X connect 9 0 11 0;
#X connect 9 0 6 0;
#X connect 10 0 9 0;
#X connect 10 1 9 1;
#X connect 12 0 10 0;
#X connect 12 1 35 0;
#X connect 13 0 30 0;
#X connect 14 0 29 0;
#X connect 15 0 28 0;
#X connect 16 0 12 0;
#X connect 17 0 15 0;
#X connect 18 0 14 0;
#X connect 19 0 24 0;
#X connect 20 0 13 0;
#X connect 21 0 13 1;
#X connect 21 0 14 1;
#X connect 21 0 15 1;
#X connect 22 0 27 0;
#X connect 22 0 37 0;
#X connect 23 0 0 0;
#X connect 24 0 6 3;
#X connect 25 0 6 1;
#X connect 26 0 6 2;
#X connect 27 0 0 0;
#X connect 28 0 25 0;
#X connect 29 0 26 0;
#X connect 30 0 27 1;
#X connect 30 0 36 1;
#X connect 31 0 36 0;
#X connect 32 0 31 0;
#X connect 33 0 34 1;
#X connect 34 0 32 1;
#X connect 35 0 32 0;
#X connect 35 1 34 0;
#X connect 36 0 0 0;
#X connect 37 0 34 1;
#X coords 0 623 1 622 141 111 0;
