#N canvas 238 180 887 310 10;
#X text 74 5 Trig;
#X obj 152 20 r \$1_\$2_a;
#X obj 222 20 r \$1_\$2_d;
#X obj 292 20 r \$1_\$2_s;
#X obj 362 20 r \$1_\$2_r;
#X obj 432 20 r \$1_\$2_ms;
#X obj 512 19 r \$1_\$2_pow;
#X obj 592 19 r \$1_\$2_amount;
#X obj 72 110 adsr_pa 0 0 0;
#X obj 72 140 outlet;
#X obj 22 20 inlet;
#X obj 72 20 r \$1_\$3_nv;
#X connect 1 0 8 1;
#X connect 2 0 8 2;
#X connect 3 0 8 3;
#X connect 4 0 8 4;
#X connect 5 0 8 5;
#X connect 6 0 8 6;
#X connect 7 0 8 7;
#X connect 8 0 9 0;
#X connect 10 0 8 0;
#X connect 11 0 8 0;
