#N canvas 9 31 593 623 10;
#X text 371 5 ms;
#X obj 142 169 + 5;
#X obj 252 169 + 5;
#X text 153 5 a;
#X text 263 5 r;
#X obj 62 170 stripnote;
#X obj 62 20 inlet;
#X obj 142 110 ttbf;
#X obj 252 110 ttbf;
#X obj 142 20 inlet;
#X obj 252 20 inlet;
#X obj 362 20 inlet;
#X obj 62 319 line;
#X obj 62 379 outlet;
#X obj 182 259 f;
#X msg 182 289 0 \$1;
#X obj 182 229 del 5;
#X obj 62 229 f;
#X msg 62 289 1 \$1;
#X obj 62 199 b;
#X obj 142 139 clip 0 1e+038;
#X obj 252 139 clip 0 1e+038;
#X connect 1 0 16 1;
#X connect 1 0 17 1;
#X connect 2 0 14 1;
#X connect 5 0 19 0;
#X connect 6 0 5 0;
#X connect 7 0 20 0;
#X connect 8 0 21 0;
#X connect 9 0 7 0;
#X connect 10 0 8 0;
#X connect 11 0 7 1;
#X connect 11 0 8 1;
#X connect 12 0 13 0;
#X connect 14 0 15 0;
#X connect 15 0 12 0;
#X connect 16 0 14 0;
#X connect 17 0 18 0;
#X connect 18 0 12 0;
#X connect 19 0 17 0;
#X connect 19 0 16 0;
#X connect 20 0 1 0;
#X connect 21 0 2 0;
#X coords 0 623 1 622 141 111 0;
