#N canvas 238 180 887 310 10;
#X text 74 5 Trig;
#X obj 72 140 outlet~;
#X obj 142 20 r \$1_\$2_a;
#X obj 212 20 r \$1_\$2_r;
#X obj 282 20 r \$1_\$2_ms;
#X obj 12 20 inlet;
#X obj 552 20 r \$1_\$2_amount;
#X obj 362 20 r \$1_\$2_pow_a;
#X obj 452 20 r \$1_\$2_pow_b;
#X obj 72 110 ar_ppa~ 0 0 0 0 0;
#X obj 72 20 r \$1_\$3_nv;
#X connect 2 0 9 1;
#X connect 3 0 9 2;
#X connect 4 0 9 3;
#X connect 5 0 9 0;
#X connect 6 0 9 6;
#X connect 7 0 9 4;
#X connect 8 0 9 5;
#X connect 9 0 1 0;
#X connect 10 0 9 0;
