#N canvas 0 0 735 301 10;
#X obj 57 107 vv_mhx4 \$1 \$2_a \$3;
#X obj 37 167 ar_pa~ 0 0;
#X obj 177 107 vv_mhx4 \$1 \$2_r \$3;
#X obj 297 107 vv_mhx4 \$1 \$2_ms \$3;
#X obj 417 107 vv_mhx4 \$1 \$2_pow \$3;
#X obj 547 107 vv_mhx \$1 \$2_amount \$3;
#X obj 37 197 outlet~;
#X obj 37 77 r \$1_\$3_nv;
#X connect 0 0 1 1;
#X connect 1 0 6 0;
#X connect 2 0 1 2;
#X connect 3 0 1 3;
#X connect 4 0 1 4;
#X connect 5 0 1 5;
#X connect 7 0 1 0;
