#N canvas 238 180 887 310 10;
#X text 74 5 Trig;
#X obj 72 140 outlet~;
#X obj 142 20 r \$1_\$2_a;
#X obj 212 20 r \$1_\$2_r;
#X obj 282 20 r \$1_\$2_ms;
#X obj 352 20 r \$1_\$2_pow;
#X obj 432 20 r \$1_\$2_amount;
#X obj 72 110 ar_pa~ 0 0 0;
#X obj 12 20 inlet;
#X obj 72 20 r \$1_\$3_nv;
#X connect 2 0 7 1;
#X connect 3 0 7 2;
#X connect 4 0 7 3;
#X connect 5 0 7 4;
#X connect 6 0 7 5;
#X connect 7 0 1 0;
#X connect 8 0 7 0;
#X connect 9 0 7 0;
