#N canvas 152 203 1021 310 10;
#X text 74 5 Trig;
#X obj 72 140 outlet~;
#X obj 12 20 inlet;
#X obj 72 110 ar_ppa~ 0 0 0 0 0;
#X obj 72 20 r \$1_\$3_nv;
#X obj 832 20 vv_mhx \$1 \$2_amount \$3;
#X obj 682 20 vv_mhx4 \$1 \$2_pow_b \$3;
#X obj 532 20 vv_mhx4 \$1 \$2_pow_a \$3;
#X obj 392 20 vv_mhx4 \$1 \$2_ms \$3;
#X obj 392 20 vv_mhx4 \$1 \$2_ms \$3;
#X obj 262 20 vv_mhx4 \$1 \$2_r \$3;
#X obj 142 20 vv_mhx4 \$1 \$2_a \$3;
#X obj 532 80 r \$1_\$2_pow;
#X obj 622 140 s \$1_\$2_pow_b;
#X obj 532 140 s \$1_\$2_pow_a;
#X connect 2 0 3 0;
#X connect 3 0 1 0;
#X connect 4 0 3 0;
#X connect 5 0 3 6;
#X connect 6 0 3 5;
#X connect 7 0 3 4;
#X connect 8 0 3 3;
#X connect 10 0 3 2;
#X connect 11 0 3 1;
#X connect 12 0 13 0;
#X connect 12 0 14 0;
