#N canvas 135 68 777 519 10;
#X text 401 21 ms;
#X obj 172 125 + 5;
#X obj 92 185 pack f f f;
#X obj 282 125 + 5;
#X text 183 21 a;
#X text 293 21 r;
#X obj 92 126 stripnote;
#X obj 92 36 inlet;
#X obj 92 245 vline~;
#X obj 172 66 ttbf;
#X obj 282 66 ttbf;
#X obj 172 36 inlet;
#X obj 282 36 inlet;
#X obj 392 36 inlet;
#X msg 92 215 0 5 \, 1 \$2 \, 0 \$3 \$2;
#X obj 442 36 inlet;
#X obj 242 416 pow~;
#X obj 442 96 neg2frac;
#X obj 652 36 inlet;
#X text 650 21 amount;
#X obj 242 446 tline~;
#X obj 242 476 outlet~;
#X text 448 21 pow a;
#X obj 522 36 inlet;
#X obj 522 96 neg2frac;
#X text 528 21 pow b;
#X obj 262 246 del;
#X obj 222 336 f;
#X obj 262 336 f;
#X obj 222 366 vlinesc~ 1;
#X obj 222 216 t b b;
#X msg 287 219 stop;
#X obj 282 96 clip 0 1e+038;
#X obj 172 96 clip 0 1e+038;
#X obj 652 66 clip 0 1e+038;
#X connect 1 0 2 1;
#X connect 1 0 26 1;
#X connect 2 0 14 0;
#X connect 3 0 2 2;
#X connect 6 0 2 0;
#X connect 6 0 30 0;
#X connect 7 0 6 0;
#X connect 8 0 16 0;
#X connect 9 0 33 0;
#X connect 10 0 32 0;
#X connect 11 0 9 0;
#X connect 12 0 10 0;
#X connect 13 0 9 1;
#X connect 13 0 10 1;
#X connect 14 0 8 0;
#X connect 15 0 17 0;
#X connect 16 0 20 0;
#X connect 17 0 27 1;
#X connect 18 0 34 0;
#X connect 20 0 21 0;
#X connect 23 0 24 0;
#X connect 24 0 28 1;
#X connect 26 0 28 0;
#X connect 27 0 29 0;
#X connect 28 0 29 0;
#X connect 29 0 16 1;
#X connect 30 0 26 0;
#X connect 30 0 27 0;
#X connect 30 1 31 0;
#X connect 31 0 26 0;
#X connect 32 0 3 0;
#X connect 33 0 1 0;
#X connect 34 0 20 1;
#X coords 0 519 1 518 141 111 0;
