#N canvas 238 180 887 310 10;
#X text 74 5 Trig;
#X obj 152 20 r \$1_\$2_a;
#X obj 222 20 r \$1_\$2_r;
#X obj 292 20 r \$1_\$2_ms;
#X obj 362 20 r \$1_\$2_pow;
#X obj 442 20 r \$1_\$2_amount;
#X obj 72 110 ar_pa 0 0 0;
#X obj 72 140 outlet;
#X obj 22 20 inlet;
#X obj 72 20 r \$1_\$3_nv;
#X connect 1 0 6 1;
#X connect 2 0 6 2;
#X connect 3 0 6 3;
#X connect 4 0 6 4;
#X connect 5 0 6 5;
#X connect 6 0 7 0;
#X connect 8 0 6 0;
#X connect 9 0 6 0;
