#N canvas 0 0 932 454 10;
#X text 201 5 ms;
#X text 74 5 Trig;
#X text 123 5 a;
#X text 163 5 r;
#X obj 72 20 inlet;
#X obj 112 20 inlet;
#X obj 152 20 inlet;
#X obj 192 20 inlet;
#X obj 242 20 inlet;
#X text 248 5 pow;
#X obj 242 50 neg2frac;
#X obj 302 20 inlet;
#X text 300 5 amount;
#X obj 72 110 pow;
#X obj 72 140 *;
#X obj 72 170 outlet;
#X obj 72 80 ar_ 0 0 0 0 0;
#X connect 4 0 16 0;
#X connect 5 0 16 1;
#X connect 6 0 16 2;
#X connect 7 0 16 3;
#X connect 8 0 10 0;
#X connect 10 0 13 1;
#X connect 11 0 14 1;
#X connect 13 0 14 0;
#X connect 14 0 15 0;
#X connect 16 0 13 0;
