#N canvas 84 14 456 577 10;
#X text 311 26 ms;
#X obj 132 190 + 5;
#X obj 52 370 pack f f f;
#X obj 242 190 + 5;
#X text 143 26 a;
#X text 253 26 r;
#X obj 52 191 stripnote;
#X obj 52 41 inlet;
#X obj 52 430 vline~;
#X obj 52 460 outlet~;
#X obj 132 131 ttbf;
#X obj 242 131 ttbf;
#X obj 132 41 inlet;
#X obj 242 41 inlet;
#X obj 302 41 inlet;
#X msg 52 400 0 5 \, 1 \$2 \, 0 \$3 \$2;
#X obj 242 161 clip 0 1e+038;
#X obj 132 161 clip 0 1e+038;
#X obj 352 191 rr;
#X obj 352 41 inlet;
#X text 351 26 repeat;
#X obj 242 310 spigot;
#X obj 242 280 del;
#X msg 132 251 stop;
#X obj 172 210 ptbf;
#X obj 242 250 b;
#X connect 1 0 2 1;
#X connect 1 0 24 0;
#X connect 2 0 15 0;
#X connect 2 0 25 0;
#X connect 3 0 2 2;
#X connect 3 0 24 1;
#X connect 6 0 2 0;
#X connect 6 0 23 0;
#X connect 7 0 6 0;
#X connect 8 0 9 0;
#X connect 10 0 17 0;
#X connect 11 0 16 0;
#X connect 12 0 10 0;
#X connect 13 0 11 0;
#X connect 14 0 10 1;
#X connect 14 0 11 1;
#X connect 15 0 8 0;
#X connect 16 0 3 0;
#X connect 17 0 1 0;
#X connect 18 0 21 1;
#X connect 19 0 18 0;
#X connect 21 0 2 0;
#X connect 22 0 21 0;
#X connect 23 0 22 0;
#X connect 24 0 22 1;
#X connect 25 0 22 0;
#X coords 0 577 1 576 141 111 0;
