#N canvas 480 121 417 422 10;
#X text 351 14 ms;
#X obj 122 178 + 5;
#X obj 42 238 pack f f f;
#X obj 232 178 + 5;
#X text 133 14 a;
#X text 243 14 r;
#X obj 42 179 stripnote;
#X obj 42 29 inlet;
#X obj 42 298 vline~;
#X obj 42 358 outlet~;
#X obj 122 119 ttbf;
#X obj 232 119 ttbf;
#X obj 122 29 inlet;
#X obj 232 29 inlet;
#X obj 342 29 inlet;
#X msg 42 268 0 5 \, 1 \$2 \, 0 \$3 \$2;
#X obj 232 149 clip 0 1e+038;
#X obj 122 149 clip 0 1e+038;
#X connect 1 0 2 1;
#X connect 2 0 15 0;
#X connect 3 0 2 2;
#X connect 6 0 2 0;
#X connect 7 0 6 0;
#X connect 8 0 9 0;
#X connect 10 0 17 0;
#X connect 11 0 16 0;
#X connect 12 0 10 0;
#X connect 13 0 11 0;
#X connect 14 0 10 1;
#X connect 14 0 11 1;
#X connect 15 0 8 0;
#X connect 16 0 3 0;
#X connect 17 0 1 0;
#X coords 0 422 1 421 141 111 0;
