#N canvas 255 71 677 580 10;
#X obj 37 37 inlet;
#X obj 87 37 inlet;
#X text 334 246 \$1 Speed (beat);
#X text 34 21 Rate;
#X text 84 21 Reset;
#X obj 77 457 * 1;
#X obj 77 487 + 0;
#X obj 37 217 wrap;
#X obj 37 97 +;
#X obj 137 37 inlet;
#X text 134 21 Sync;
#X obj 37 247 *;
#X obj 187 37 inlet;
#X text 194 21 Saw;
#X obj 237 37 inlet;
#X text 244 21 Sqr;
#X obj 287 37 inlet;
#X text 294 21 Sin;
#X obj 337 37 inlet;
#X obj 387 37 inlet;
#X obj 437 37 inlet;
#X text 344 21 Mult;
#X text 394 21 Add;
#X text 444 21 Pow;
#X obj 37 367 moses;
#X obj 37 397 pow;
#X obj 37 427 * -1;
#X obj 77 397 pow;
#X obj 77 517 outlet;
#X obj 37 67 b2u_r \$1;
#X obj 37 307 ptbf;
#X obj 37 337 ptbf;
#X obj 127 247 unip_to_usin;
#X obj 127 277 *;
#X obj 77 247 > 0.5;
#X obj 77 277 *;
#X obj 437 97 neg2frac;
#X obj 487 37 inlet;
#X text 494 21 Rev;
#X obj 37 127 wrap;
#X obj 37 187 + 1;
#X obj 37 157 rev;
#X text 334 226 lfo unipolar (0-1) with add and mult;
#X obj 127 457 outlet;
#X connect 0 0 29 0;
#X connect 1 0 29 1;
#X connect 5 0 6 0;
#X connect 6 0 28 0;
#X connect 7 0 11 0;
#X connect 7 0 32 0;
#X connect 7 0 34 0;
#X connect 8 0 39 0;
#X connect 9 0 8 1;
#X connect 11 0 30 0;
#X connect 12 0 11 1;
#X connect 14 0 35 1;
#X connect 16 0 33 1;
#X connect 18 0 5 1;
#X connect 19 0 6 1;
#X connect 20 0 36 0;
#X connect 24 0 25 0;
#X connect 24 1 27 0;
#X connect 25 0 26 0;
#X connect 26 0 5 0;
#X connect 26 0 43 0;
#X connect 27 0 5 0;
#X connect 27 0 43 0;
#X connect 29 0 8 0;
#X connect 30 0 31 0;
#X connect 31 0 24 0;
#X connect 32 0 33 0;
#X connect 33 0 31 1;
#X connect 34 0 35 0;
#X connect 35 0 30 1;
#X connect 36 0 25 1;
#X connect 36 0 27 1;
#X connect 37 0 41 1;
#X connect 39 0 41 0;
#X connect 40 0 7 0;
#X connect 41 0 40 0;
