#N canvas 0 50 986 320 10;
#X text 34 21 Rate;
#X text 194 21 Reset;
#X text 434 21 Sync;
#X text 524 21 Saw;
#X text 734 21 Sin;
#X text 804 21 Mult;
#X text 884 21 Add;
#X text 954 21 Pow;
#X obj 37 37 r \$1_rate;
#X obj 197 37 r \$1_reset;
#X obj 437 37 r \$1_sync;
#X obj 517 37 r \$1_saw;
#X obj 727 37 r \$1_sin;
#X obj 797 37 r \$1_mult;
#X obj 877 37 r \$1_add;
#X obj 947 37 r \$1_pow;
#X obj 37 137 outlet;
#X obj 1007 37 r \$1_rev;
#X text 1014 21 Rev;
#X obj 37 107 lfou_2 0 0 0 0 0 0 0 0 0 0 0 0 0 0 0 0 0 0;
#X text 594 21 Pulse;
#X obj 587 37 r \$1_pulse;
#X text 664 21 Pulse;
#X obj 657 37 r \$1_width;
#X text 104 21 Rate (ms);
#X obj 107 37 r \$1_rate_ms;
#X obj 267 37 r \$1_reset_rate;
#X text 264 21 Reset rate;
#X text 364 21 Indep;
#X obj 367 37 r \$1_indep;
#X obj 287 137 outlet;
#X connect 8 0 19 0;
#X connect 9 0 19 2;
#X connect 10 0 19 5;
#X connect 11 0 19 6;
#X connect 12 0 19 9;
#X connect 13 0 19 10;
#X connect 14 0 19 11;
#X connect 15 0 19 12;
#X connect 17 0 19 13;
#X connect 19 0 16 0;
#X connect 19 1 30 0;
#X connect 21 0 19 7;
#X connect 23 0 19 8;
#X connect 25 0 19 1;
#X connect 26 0 19 3;
#X connect 29 0 19 4;
