#N canvas 0 50 941 319 10;
#X text 34 21 Rate;
#X text 164 21 Reset;
#X text 254 21 Sync;
#X text 394 21 Saw;
#X text 524 21 Sqr;
#X text 654 21 Sin;
#X text 784 21 Mult;
#X text 914 21 Add;
#X text 1034 21 Pow;
#X obj 37 37 vv_mqu \$1 \$2_rate \$3;
#X obj 167 37 r \$1_\$2_reset;
#X obj 387 37 vv_mqu \$1 \$2_saw \$3;
#X obj 517 37 vv_mqu \$1 \$2_sqr \$3;
#X obj 647 37 vv_mqu \$1 \$2_sin \$3;
#X obj 777 37 vv_mqu \$1 \$2_mult \$3;
#X obj 907 37 vv_mqu \$1 \$2_add \$3;
#X obj 1027 37 vv_mqu \$1 \$2_pow \$3;
#X obj 37 197 lfou 0 0 0 0 0 0 0 0 0 0 0 0 0 0 0 0 0 0;
#X obj 37 227 outlet;
#X obj 1147 37 r \$1_\$2_rev;
#X text 1154 21 Rev;
#X obj 257 37 vv_mqu \$1 \$2_sync \$3;
#X text 114 61 Reset;
#X obj 117 77 r \$1_\$2_note_reset;
#X obj 47 77 r \$1_\$2_nv;
#X obj 47 107 stripnote;
#X obj 47 137 b;
#X obj 47 167 spigot;
#X connect 9 0 17 0;
#X connect 10 0 17 1;
#X connect 11 0 17 3;
#X connect 12 0 17 4;
#X connect 13 0 17 5;
#X connect 14 0 17 6;
#X connect 15 0 17 7;
#X connect 16 0 17 8;
#X connect 17 0 18 0;
#X connect 19 0 17 9;
#X connect 21 0 17 2;
#X connect 23 0 27 1;
#X connect 24 0 25 0;
#X connect 25 0 26 0;
#X connect 26 0 27 0;
#X connect 27 0 17 1;
