#N canvas 0 50 771 320 10;
#X text 34 21 Rate;
#X text 114 21 Reset;
#X text 204 21 Sync;
#X text 294 21 Saw;
#X text 364 21 Sqr;
#X text 434 21 Sin;
#X text 504 21 Mult;
#X text 584 21 Add;
#X text 654 21 Pow;
#X obj 37 37 r \$1_rate;
#X obj 117 37 r \$1_reset;
#X obj 207 37 r \$1_sync;
#X obj 287 37 r \$1_saw;
#X obj 357 37 r \$1_sqr;
#X obj 427 37 r \$1_sin;
#X obj 497 37 r \$1_mult;
#X obj 577 37 r \$1_add;
#X obj 647 37 r \$1_pow;
#X obj 37 107 lfou 0 0 0 0 0 0 0 0 0 0 0 0 0 0 0 0 0 0;
#X obj 37 137 outlet;
#X obj 707 37 r \$1_rev;
#X text 714 21 Rev;
#X obj 247 137 outlet;
#X connect 9 0 18 0;
#X connect 10 0 18 1;
#X connect 11 0 18 2;
#X connect 12 0 18 3;
#X connect 13 0 18 4;
#X connect 14 0 18 5;
#X connect 15 0 18 6;
#X connect 16 0 18 7;
#X connect 17 0 18 8;
#X connect 18 0 19 0;
#X connect 18 1 22 0;
#X connect 20 0 18 9;
