#N canvas -8 -8 1280 677 10;
#X obj 60 30 inlet;
#X obj 110 60 outlet;
#X obj 110 130 nbx_vvc \$1 rate 1;
#X obj 390 190 hslxnbx_vvc \$1 saw;
#X obj 390 130 hslxnbx_vvc \$1 sin;
#X obj 240 250 hslxnbx_vvc \$1 mult 1 1;
#X obj 240 310 hslxnbx_vvc \$1 add;
#X obj 240 190 hslxnbx_vvc \$1 pow 1 1;
#X obj 240 130 hslxnbx_vvc \$1 sync;
#X obj 60 60 b;
#X obj 110 240 bng_hide_vvc \$1 reset;
#X obj 150 240 tgl_hide_vvc \$1 rev 0;
#X obj 210 30 vv_file_vvc \$1;
#X obj 110 30 lfou_2_vv \$1;
#X obj 390 250 hslxnbx_vvc \$1 pulse;
#X obj 390 310 hsl_vvc \$1 width 0.5;
#X obj 110 190 nbx_vvc \$1 rate_ms;
#X text 114 173 +;
#X obj 190 240 tgl_hide_vvc \$1 indep;
#X obj 110 290 nbx_vvc \$1 reset_rate;
#X text 114 333 0=off;
#X connect 0 0 9 0;
#X connect 9 0 10 0;
#X connect 13 0 1 0;
#X coords 0 -1 1 1 430 280 1 100 100;
