#N canvas 255 71 901 580 10;
#X obj 37 37 inlet;
#X obj 167 37 inlet;
#X text 454 446 \$1 Speed (beat);
#X text 34 21 Rate;
#X text 164 21 Reset;
#X obj 217 767 * 1;
#X obj 217 797 + 0;
#X obj 177 517 wrap;
#X obj 177 397 +;
#X obj 307 37 inlet;
#X text 304 21 Sync;
#X obj 177 547 *;
#X obj 357 37 inlet;
#X text 364 21 Saw;
#X obj 407 37 inlet;
#X obj 507 37 inlet;
#X text 514 21 Sin;
#X obj 557 37 inlet;
#X obj 607 37 inlet;
#X obj 657 37 inlet;
#X text 564 21 Mult;
#X text 614 21 Add;
#X text 664 21 Pow;
#X obj 177 667 moses;
#X obj 177 697 pow;
#X obj 177 727 * -1;
#X obj 217 697 pow;
#X obj 217 827 outlet;
#X obj 37 217 b2u_r \$1;
#X obj 177 607 ptbf;
#X obj 177 637 ptbf;
#X obj 267 547 unip_to_usin;
#X obj 267 577 *;
#X obj 217 547 > 0.5;
#X obj 217 577 *;
#X obj 657 67 neg2frac;
#X obj 707 37 inlet;
#X text 714 21 Rev;
#X obj 177 427 wrap;
#X obj 177 487 + 1;
#X obj 177 457 rev;
#X text 454 426 lfo unipolar (0-1) with add and mult;
#X text 404 21 Pulse;
#X obj 457 37 inlet;
#X text 454 21 Width;
#X obj 97 37 inlet;
#X text 94 21 Rate (ms);
#X obj 97 67 ms_to_beat;
#X obj 37 97 ptbf;
#X obj 747 127 r global_clk;
#X obj 687 217 b2u_ci \$1;
#X obj 747 157 b;
#X obj 747 187 f;
#X obj 777 187 + 1;
#X msg 717 157 0;
#X obj 207 37 inlet;
#X obj 167 67 rr;
#X obj 207 67 b2n;
#X obj 207 97 spigot;
#X obj 207 67;
#X obj 257 37 inlet;
#X text 204 21 Rate;
#X text 254 21 Indep;
#X obj 237 247 rr;
#X obj 37 367 spigot;
#X obj 237 277 rev;
#X obj 97 367 spigot;
#X obj 697 307 sel 0;
#X obj 697 277 spigot;
#X msg 741 274 1;
#X msg 741 294 0;
#X obj 697 247 moses 0.0001;
#X obj 277 767 outlet;
#X obj 121 241 metro;
#X obj 159 274 + 1;
#X msg 209 190 0;
#X obj 148 123 r global_tempo;
#X obj 148 151 swap 2500;
#X obj 148 181 /;
#X obj 121 274 f 1;
#X obj 51 187 r global_play;
#X obj 209 159 r global_reset;
#X obj 148 211 ptbf;
#X obj 51 157 beat_to_ms;
#X obj 97 307 b2u_ci;
#X obj 37 67 neg2frac;
#X obj 147 307 b2u_r;
#X obj 147 337 == 0;
#X obj 147 367 sel 1;
#X connect 0 0 85 0;
#X connect 1 0 56 0;
#X connect 5 0 6 0;
#X connect 6 0 27 0;
#X connect 7 0 11 0;
#X connect 7 0 31 0;
#X connect 7 0 33 0;
#X connect 8 0 38 0;
#X connect 9 0 8 1;
#X connect 11 0 29 0;
#X connect 12 0 11 1;
#X connect 14 0 34 1;
#X connect 15 0 32 1;
#X connect 17 0 5 1;
#X connect 18 0 6 1;
#X connect 19 0 35 0;
#X connect 23 0 24 0;
#X connect 23 1 26 0;
#X connect 24 0 25 0;
#X connect 25 0 5 0;
#X connect 25 0 72 0;
#X connect 26 0 5 0;
#X connect 26 0 72 0;
#X connect 28 0 64 0;
#X connect 29 0 30 0;
#X connect 30 0 23 0;
#X connect 31 0 32 0;
#X connect 32 0 30 1;
#X connect 33 0 34 0;
#X connect 34 0 29 1;
#X connect 35 0 24 1;
#X connect 35 0 26 1;
#X connect 36 0 40 1;
#X connect 38 0 40 0;
#X connect 39 0 7 0;
#X connect 40 0 39 0;
#X connect 43 0 33 1;
#X connect 45 0 47 0;
#X connect 47 0 48 1;
#X connect 48 0 28 0;
#X connect 48 0 83 0;
#X connect 48 0 86 0;
#X connect 49 0 51 0;
#X connect 50 0 71 0;
#X connect 51 0 52 0;
#X connect 52 0 53 0;
#X connect 52 0 50 1;
#X connect 53 0 52 1;
#X connect 54 0 52 1;
#X connect 55 0 57 0;
#X connect 55 0 59 0;
#X connect 55 0 58 1;
#X connect 56 0 28 1;
#X connect 57 0 58 0;
#X connect 58 0 56 0;
#X connect 60 0 63 0;
#X connect 63 0 65 0;
#X connect 63 0 66 1;
#X connect 64 0 8 0;
#X connect 65 0 64 1;
#X connect 66 0 8 0;
#X connect 67 0 54 0;
#X connect 68 0 67 0;
#X connect 68 0 70 0;
#X connect 69 0 68 1;
#X connect 70 0 68 1;
#X connect 71 0 68 0;
#X connect 71 1 69 0;
#X connect 73 0 79 0;
#X connect 74 0 79 1;
#X connect 75 0 79 1;
#X connect 76 0 77 0;
#X connect 77 0 78 0;
#X connect 77 1 78 1;
#X connect 78 0 82 0;
#X connect 79 0 74 0;
#X connect 79 0 84 1;
#X connect 80 0 73 0;
#X connect 81 0 75 0;
#X connect 81 0 86 1;
#X connect 82 0 73 1;
#X connect 83 0 82 1;
#X connect 85 0 48 0;
#X connect 86 0 87 0;
#X connect 86 0 66 0;
#X connect 87 0 88 0;
#X connect 88 0 86 1;
