#N canvas 468 119 508 376 10;
#X obj 110 10 inlet;
#X obj 110 70 outlet;
#X obj 110 170 hslxnbx_vvc \$1 mult 1 1;
#X obj 110 230 hslxnbx_vvc \$1 add;
#X obj 110 40 n2rma_vv \$1;
#X obj 110 120 bng_vvc \$1 trig;
#X obj 100 122 vsl 10 65 0 1 0 0 empty empty empty 0 -9 0 10 -262144
-1 -1 0 1;
#X connect 0 0 4 0;
#X connect 4 0 1 0;
#X connect 4 0 6 0;
#X coords 0 -1 1 1 160 200 1 100 100;
