#N canvas 0 50 450 300 10;
#X obj 97 17 inlet;
#X obj 97 47 rrandom;
#X obj 97 137 outlet;
#X obj 157 17 inlet;
#X obj 197 17 inlet;
#X obj 97 77 * \$1;
#X obj 97 107 + \$2;
#X text 227 118 baNg to Random \, Multiply \, Add;
#X connect 0 0 1 0;
#X connect 1 0 5 0;
#X connect 3 0 5 1;
#X connect 4 0 6 1;
#X connect 5 0 6 0;
#X connect 6 0 2 0;
