#N canvas -1 50 451 300 10;
#X obj 52 96 b2u_r;
#X obj 52 126 >= 0.5;
#X obj 52 156 sel 0 1;
#X obj 52 186 f 0;
#X obj 82 186 f 1;
#X obj 52 66 inlet;
#X text 53 52 Rate;
#X obj 132 66 inlet;
#X obj 92 66 inlet;
#X text 93 52 Reset;
#X text 133 52 Width;
#X obj 172 66 inlet;
#X text 173 52 amp a;
#X obj 222 66 inlet;
#X text 223 52 amp b;
#X obj 52 216 outlet;
#X connect 0 0 1 0;
#X connect 1 0 2 0;
#X connect 2 0 3 0;
#X connect 2 1 4 0;
#X connect 3 0 15 0;
#X connect 4 0 15 0;
#X connect 5 0 0 0;
#X connect 7 0 1 1;
#X connect 8 0 0 1;
#X connect 11 0 3 1;
#X connect 13 0 4 1;
