#N canvas 214 11 921 647 10;
#X obj 152 343 timer;
#X obj 152 433 pack f f f;
#X obj 252 393 unpack;
#X obj 192 553 thirray;
#X msg 312 493 0;
#X obj 272 223 t b a;
#X msg 372 443 clear;
#X obj 212 223 t b b b;
#X obj 272 463 t a b;
#X obj 382 383 r global_stop;
#X obj 152 3 inlet;
#X obj 352 3 inlet;
#X text 149 -12 Append;
#X text 353 -12 Clear;
#X obj 402 3 inlet;
#X text 399 -12 Record;
#X obj 292 133 spigot;
#X obj 452 13 lb 1;
#X obj 502 3 inlet;
#X text 499 -12 Length;
#X obj 272 433 sll \$1;
#X obj 552 123 s \$0_thru;
#X obj 502 33 s \$0_length;
#X obj 212 3 r \$0_length;
#X obj 592 3 inlet;
#X obj 552 93 spigot;
#X obj 642 13 lb 1;
#X obj 212 133 b2n 8;
#X obj 302 3 inlet;
#X obj 212 193 spigot;
#X text 299 -12 Play;
#X obj 152 33 s \$0_in;
#X obj 292 103 r \$0_in;
#X obj 552 63 r \$0_in;
#X text 594 -12 Thru;
#X obj 292 643 unpack f f f;
#X obj 192 733 pipe;
#X obj 292 733 pipe;
#X obj 192 763 pack;
#X obj 192 613 t a a;
#X obj 192 643 unpack f f f;
#X obj 192 793 outlet;
#X obj 282 763 r \$0_thru;
#X obj 212 103 * 4;
#X obj 192 673 swap;
#X obj 292 673 swap;
#X obj 152 373 ms_to_beat;
#X obj 222 703 beat_to_ms;
#X obj 322 703 beat_to_ms;
#X msg 402 303 0 0;
#X obj 192 583 list split 3;
#X obj 152 583 rr;
#X obj 312 193 spigot;
#X obj 212 163 t b b;
#X obj 392 163 r \$1_autoerase;
#X obj 432 413 r \$1_clear_pipe;
#X obj 12 163 cut_on_notes;
#X obj 52 133 sel 0;
#X obj 122 293 loadbang;
#X obj 307 166 bng 15 250 50 0 empty empty empty 17 7 0 10 -262144
-1 -1;
#X connect 0 0 46 0;
#X connect 1 0 3 1;
#X connect 2 0 1 1;
#X connect 2 1 1 2;
#X connect 3 1 20 0;
#X connect 3 1 50 0;
#X connect 4 0 3 0;
#X connect 5 0 0 1;
#X connect 5 1 2 0;
#X connect 6 0 36 0;
#X connect 6 0 37 0;
#X connect 7 0 0 0;
#X connect 7 1 3 2;
#X connect 7 2 6 0;
#X connect 8 0 3 1;
#X connect 8 1 4 0;
#X connect 9 0 6 0;
#X connect 10 0 31 0;
#X connect 11 0 4 0;
#X connect 11 0 6 0;
#X connect 11 0 49 0;
#X connect 11 0 56 1;
#X connect 14 0 16 1;
#X connect 16 0 5 0;
#X connect 16 0 59 0;
#X connect 17 0 16 1;
#X connect 18 0 22 0;
#X connect 20 0 8 0;
#X connect 23 0 43 0;
#X connect 24 0 25 1;
#X connect 25 0 21 0;
#X connect 26 0 25 1;
#X connect 27 0 53 0;
#X connect 28 0 29 1;
#X connect 28 0 57 0;
#X connect 29 0 7 0;
#X connect 32 0 16 0;
#X connect 33 0 25 0;
#X connect 35 0 45 0;
#X connect 35 2 45 1;
#X connect 36 0 38 0;
#X connect 37 0 38 1;
#X connect 38 0 41 0;
#X connect 38 0 56 0;
#X connect 39 0 40 0;
#X connect 39 1 35 0;
#X connect 40 0 44 0;
#X connect 40 1 44 1;
#X connect 42 0 41 0;
#X connect 43 0 27 0;
#X connect 44 0 36 0;
#X connect 44 1 47 0;
#X connect 45 0 37 0;
#X connect 45 1 48 0;
#X connect 46 0 1 0;
#X connect 47 0 36 1;
#X connect 48 0 37 1;
#X connect 49 0 20 0;
#X connect 50 0 39 0;
#X connect 50 1 51 0;
#X connect 51 0 50 0;
#X connect 52 0 49 0;
#X connect 52 0 6 0;
#X connect 52 0 4 0;
#X connect 53 0 29 0;
#X connect 53 1 52 0;
#X connect 54 0 52 1;
#X connect 55 0 6 0;
#X connect 56 0 41 0;
#X connect 57 0 56 1;
#X connect 57 0 6 0;
#X connect 58 0 0 0;
