#N canvas -8 -8 1280 677 10;
#X obj 142 243 timer;
#X obj 152 443 thirray;
#X msg 282 373 0;
#X obj 182 203 t b a;
#X obj 142 573 pipe;
#X msg 332 343 clear;
#X obj 142 133 t b b b;
#X obj 242 343 t a b;
#X obj 332 313 r global_stop;
#X obj 142 603 outlet;
#X obj 82 13 inlet;
#X obj 282 13 inlet;
#X text 79 -2 Append;
#X text 283 -2 Clear;
#X obj 332 13 inlet;
#X text 329 -2 Record;
#X obj 232 73 spigot;
#X obj 382 23 lb 1;
#X obj 432 13 inlet;
#X text 429 -2 Length;
#X obj 242 313 sll \$1;
#X obj 482 133 s \$0_thru;
#X obj 222 573 r \$0_thru;
#X obj 432 43 s \$0_length;
#X obj 142 13 r \$0_length;
#X obj 522 13 inlet;
#X obj 482 103 spigot;
#X obj 562 23 lb 1;
#X obj 232 13 inlet;
#X obj 142 103 spigot;
#X text 229 -2 Play;
#X obj 82 43 s \$0_in;
#X obj 232 43 r \$0_in;
#X obj 482 73 r \$0_in;
#X text 524 -2 Thru;
#X obj 142 43 * 4;
#X obj 142 73 b2n;
#X obj 142 313 pack;
#X obj 142 503 swap;
#X obj 182 543 beat_to_ms;
#X obj 142 273 ms_to_beat;
#X msg 342 273 0;
#X obj 142 473 list split 2;
#X obj 102 503 rr;
#X connect 0 0 40 0;
#X connect 1 1 42 0;
#X connect 1 2 20 0;
#X connect 2 0 1 0;
#X connect 3 0 0 1;
#X connect 3 1 37 1;
#X connect 4 0 9 0;
#X connect 5 0 4 0;
#X connect 6 0 0 0;
#X connect 6 1 1 2;
#X connect 6 2 5 0;
#X connect 7 0 1 1;
#X connect 7 1 2 0;
#X connect 8 0 5 0;
#X connect 10 0 31 0;
#X connect 11 0 2 0;
#X connect 11 0 5 0;
#X connect 11 0 41 0;
#X connect 14 0 16 1;
#X connect 16 0 3 0;
#X connect 17 0 16 1;
#X connect 18 0 23 0;
#X connect 20 0 7 0;
#X connect 22 0 9 0;
#X connect 24 0 35 0;
#X connect 25 0 26 1;
#X connect 26 0 21 0;
#X connect 27 0 26 1;
#X connect 28 0 29 1;
#X connect 29 0 6 0;
#X connect 32 0 16 0;
#X connect 33 0 26 0;
#X connect 35 0 36 0;
#X connect 36 0 29 0;
#X connect 37 0 1 1;
#X connect 38 0 4 0;
#X connect 38 1 39 0;
#X connect 39 0 4 1;
#X connect 40 0 37 0;
#X connect 41 0 20 0;
#X connect 42 0 38 0;
#X connect 42 1 43 0;
#X connect 43 0 42 0;
