#N canvas 0 50 563 300 10;
#X obj 51 26 inlet;
#X text 48 11 Append;
#X obj 291 56 r \$1_record;
#X obj 471 56 r \$1_thru;
#X obj 381 56 r \$1_length;
#X obj 51 146 outlet;
#X obj 141 56 r \$1_play;
#X obj 211 56 r \$1_clear;
#X obj 71 56 r \$1_nv_r;
#X obj 51 116 record_replay_2d \$1_recording;
#X connect 0 0 9 0;
#X connect 2 0 9 3;
#X connect 3 0 9 5;
#X connect 4 0 9 4;
#X connect 6 0 9 1;
#X connect 7 0 9 2;
#X connect 8 0 9 0;
#X connect 9 0 5 0;
