#N canvas 396 96 450 300 10;
#X obj 82 27 inlet;
#X obj 212 127 f;
#X obj 122 57 r global_clk;
#X obj 212 87 b;
#X obj 82 227 outlet;
#X obj 212 27 inlet;
#X obj 132 227 outlet;
#X obj 182 227 outlet;
#X obj 132 107 sel 0;
#X obj 82 197 b2u_ci \$1;
#X obj 122 167 -;
#X obj 252 57 r global_reset;
#X obj 252 107 b;
#X obj 252 137 f 0;
#X connect 0 0 9 0;
#X connect 1 0 10 1;
#X connect 2 0 1 1;
#X connect 2 0 8 0;
#X connect 2 0 10 0;
#X connect 3 0 1 0;
#X connect 5 0 3 0;
#X connect 9 0 4 0;
#X connect 9 1 6 0;
#X connect 9 2 7 0;
#X connect 10 0 9 1;
#X connect 11 0 12 0;
#X connect 12 0 13 0;
#X connect 13 0 10 1;
