#N canvas 340 192 417 333 10;
#X obj 37 27 inlet;
#X obj 37 57 rrandom;
#X obj 37 177 outlet;
#X obj 97 27 inlet;
#X obj 197 27 inlet;
#X obj 37 117 + \$2;
#X obj 37 147 +;
#X obj 247 27 inlet;
#X text 40 11 Bang;
#X text 100 11 Mult;
#X text 200 11 Add;
#X text 250 11 Set;
#X obj 77 147 f \$3;
#X text 18 252 \$1 multiply by;
#X text 18 272 \$2 add;
#X text 18 292 \$3 init;
#X text 18 222 "Real" Random moving - seeded random with a part of
the load time and move the value every step from the last output;
#X obj 137 37 lb \$1 1;
#X obj 37 87 *;
#X connect 0 0 1 0;
#X connect 1 0 18 0;
#X connect 3 0 18 1;
#X connect 4 0 5 1;
#X connect 5 0 6 0;
#X connect 6 0 2 0;
#X connect 6 0 12 0;
#X connect 7 0 12 1;
#X connect 12 0 6 1;
#X connect 17 0 18 1;
#X connect 18 0 5 0;
