#N canvas 0 0 450 300 10;
#X obj 72 52 inlet;
#X obj 112 82 * -1;
#X obj 112 112 exp;
#X obj 72 112 exp;
#X obj 112 142 +;
#X obj 72 142 -;
#X obj 72 172 /;
#X obj 72 202 outlet;
#X connect 0 0 1 0;
#X connect 0 0 3 0;
#X connect 1 0 2 0;
#X connect 2 0 4 1;
#X connect 2 0 5 1;
#X connect 3 0 4 0;
#X connect 3 0 5 0;
#X connect 4 0 6 1;
#X connect 5 0 6 0;
#X connect 6 0 7 0;
