#N canvas 645 122 833 602 10;
#X obj 27 22 inlet;
#X text 27 8 Width;
#X obj 27 92 * 0.5;
#X obj 27 122 + 0.5;
#X obj 27 62 pow 0.35;
#X obj -139 22 inlet;
#X text -137 8 Unip;
#X obj 27 152 rr;
#X obj -59 142 -;
#X obj -39 212 -;
#X obj -39 272 -;
#X obj -59 352 /;
#X obj -19 352 >;
#X obj -139 352 /;
#X obj -139 422 * 2;
#X obj -139 482 outlet;
#X obj -59 62 lb 1;
#X obj -59 102 swap;
#X obj -39 242 swap;
#X obj -139 382 spigot;
#X obj -59 382 spigot;
#X obj 67 32 lb \$1;
#X obj -139 452 + -1;
#X obj -99 352 <=;
#X connect 0 0 4 0;
#X connect 2 0 3 0;
#X connect 3 0 7 0;
#X connect 4 0 2 0;
#X connect 5 0 9 0;
#X connect 5 0 12 0;
#X connect 5 0 13 0;
#X connect 5 0 23 0;
#X connect 7 0 9 1;
#X connect 7 0 12 1;
#X connect 7 0 13 1;
#X connect 7 0 17 0;
#X connect 7 0 23 1;
#X connect 8 0 11 1;
#X connect 8 0 18 1;
#X connect 9 0 18 0;
#X connect 10 0 11 0;
#X connect 11 0 20 0;
#X connect 12 0 20 1;
#X connect 13 0 19 0;
#X connect 14 0 22 0;
#X connect 16 0 17 1;
#X connect 17 0 8 0;
#X connect 17 1 8 1;
#X connect 18 0 10 0;
#X connect 18 1 10 1;
#X connect 19 0 14 0;
#X connect 20 0 14 0;
#X connect 21 0 4 0;
#X connect 22 0 15 0;
#X connect 23 0 19 1;
#X coords 0 602 1 601 67 46 0;
