#N canvas 0 0 450 300 10;
#X obj 22 36 inlet~;
#X obj 172 66 catch~ \$1_in~;
#X obj 262 36 inlet~;
#X obj 282 66 catch~ \$1_R_in~;
#X obj 42 66 catch~ \$1_L_in~;
#X obj 262 106 outlet~;
#X obj 22 106 outlet~;
#X connect 0 0 6 0;
#X connect 1 0 5 0;
#X connect 1 0 6 0;
#X connect 2 0 5 0;
#X connect 3 0 5 0;
#X connect 4 0 6 0;
