#N canvas 388 67 564 598 10;
#X obj 72 26 inlet~;
#X obj 72 86 rr~;
#X obj 142 176 r \$1_on;
#X obj 102 56 catch~ \$1_in~;
#X obj 102 116 r \$1_amp;
#X obj 142 206 sel 0;
#X msg 142 235 0;
#X msg 182 235 1;
#X obj 72 276 tline~ 1;
#X obj 72 176 tline~ 1;
#X obj 92 306 r \$1_amp_L;
#X obj 332 306 r \$1_amp_R;
#X obj 312 366 rr~;
#X obj 72 366 rr~;
#X obj 102 366 outlet~;
#X obj 342 366 outlet~;
#X obj 152 366 s~ \$1_L_out~;
#X obj 392 366 s~ \$1_R_out~;
#X obj 222 406 r \$1_master;
#X obj 312 476 throw~ master_R_in~;
#X obj 72 476 throw~ master_L_in~;
#X text 234 39 channel 1in x 2outs;
#X obj 72 336 tline~ 1;
#X obj 312 336 tline~ 1;
#X obj 312 446 tline~ 1;
#X obj 72 446 tline~ 1;
#X connect 0 0 1 0;
#X connect 1 0 9 0;
#X connect 2 0 5 0;
#X connect 3 0 1 0;
#X connect 4 0 9 1;
#X connect 5 0 6 0;
#X connect 5 1 7 0;
#X connect 6 0 8 1;
#X connect 7 0 8 1;
#X connect 8 0 22 0;
#X connect 8 0 23 0;
#X connect 9 0 8 0;
#X connect 10 0 22 1;
#X connect 11 0 23 1;
#X connect 12 0 24 0;
#X connect 13 0 25 0;
#X connect 18 0 24 1;
#X connect 18 0 25 1;
#X connect 22 0 13 0;
#X connect 22 0 14 0;
#X connect 22 0 16 0;
#X connect 23 0 12 0;
#X connect 23 0 15 0;
#X connect 23 0 17 0;
#X connect 24 0 19 0;
#X connect 25 0 20 0;
