#N canvas 426 54 646 479 10;
#X obj 310 120 tgl_hide_vvc \$1 on 1;
#X obj 110 120 vsl_hide_vvc \$1 amp 1;
#X obj 150 120 vsl_hide_vvc \$1 amp_L 1;
#X obj 200 120 vsl_hide_vvc \$1 amp_R 1;
#X obj 260 120 vsl_hide_vvc \$1 master 1;
#X obj -40 70 inlet~;
#X obj 40 70 inlet~;
#X obj -40 130 outlet~;
#X obj 40 130 outlet~;
#X obj 230 140 peak_stick~ \$1_R_out~;
#X obj 180 140 peak_stick~ \$1_L_out~;
#X obj -40 100 chan_2x2~ \$1;
#X connect 5 0 11 0;
#X connect 6 0 11 1;
#X connect 11 0 7 0;
#X connect 11 0 10 0;
#X connect 11 1 8 0;
#X connect 11 1 9 0;
#X coords 0 -1 1 1 250 150 1 100 100;
