#N canvas 426 54 646 479 10;
#X obj 410 160 inlet~;
#X obj 410 220 outlet~;
#X obj 490 220 outlet~;
#X obj 310 120 tgl_hide_vvc \$1 on 1;
#X obj 110 120 vsl_hide_vvc \$1 amp 1;
#X obj 150 120 vsl_hide_vvc \$1 amp_L 1;
#X obj 200 120 vsl_hide_vvc \$1 amp_R 1;
#X obj 260 120 vsl_hide_vvc \$1 master 1;
#X obj 410 190 chan_1x2~ \$1;
#X obj 230 140 peak_stick~ \$1_R_out~;
#X obj 180 140 peak_stick~ \$1_L_out~;
#X text 224 59 channel 1in x 2outs;
#X connect 0 0 8 0;
#X connect 8 0 1 0;
#X connect 8 0 10 0;
#X connect 8 1 2 0;
#X connect 8 1 9 0;
#X coords 0 -1 1 1 250 150 1 100 100;
