#N canvas 811 80 753 651 10;
#X obj 72 26 inlet~;
#X obj 72 96 rr~;
#X obj 222 186 r \$1_on;
#X obj 222 56 catch~ \$1_in~;
#X obj 222 126 r \$1_amp;
#X obj 222 216 sel 0;
#X msg 222 245 0;
#X msg 262 245 1;
#X obj 72 286 tline~ 1;
#X obj 72 186 tline~ 1;
#X obj 92 316 r \$1_amp_L;
#X obj 342 316 r \$1_amp_R;
#X obj 322 376 rr~;
#X obj 72 376 rr~;
#X obj 102 376 outlet~;
#X obj 352 376 outlet~;
#X obj 162 376 s~ \$1_L_out~;
#X obj 322 26 inlet~;
#X obj 322 96 rr~;
#X obj 322 286 tline~ 1;
#X obj 322 186 tline~ 1;
#X obj 342 56 catch~ \$1_R_in~;
#X obj 92 56 catch~ \$1_L_in~;
#X obj 412 376 s~ \$1_R_out~;
#X obj 222 416 r \$1_master;
#X text 494 69 channel 2ins 2outs;
#X obj 72 486 throw~ master_L_in~;
#X obj 322 486 throw~ master_R_in~;
#X obj 72 456 tline~ 1;
#X obj 322 456 tline~ 1;
#X obj 322 346 tline~ 1;
#X obj 72 346 tline~ 1;
#X connect 0 0 1 0;
#X connect 1 0 9 0;
#X connect 2 0 5 0;
#X connect 3 0 1 0;
#X connect 3 0 18 0;
#X connect 4 0 9 1;
#X connect 4 0 20 1;
#X connect 5 0 6 0;
#X connect 5 1 7 0;
#X connect 6 0 8 1;
#X connect 6 0 19 1;
#X connect 7 0 8 1;
#X connect 7 0 19 1;
#X connect 8 0 31 0;
#X connect 9 0 8 0;
#X connect 10 0 31 1;
#X connect 11 0 30 1;
#X connect 12 0 29 0;
#X connect 13 0 28 0;
#X connect 17 0 18 0;
#X connect 18 0 20 0;
#X connect 19 0 30 0;
#X connect 20 0 19 0;
#X connect 21 0 18 0;
#X connect 22 0 1 0;
#X connect 24 0 28 1;
#X connect 24 0 29 1;
#X connect 28 0 26 0;
#X connect 29 0 27 0;
#X connect 30 0 12 0;
#X connect 30 0 15 0;
#X connect 30 0 23 0;
#X connect 31 0 13 0;
#X connect 31 0 14 0;
#X connect 31 0 16 0;
