#N canvas 0 0 450 300 10;
#X obj 142 76 r \$1_\$2_L;
#X obj 292 76 r \$1_\$2_R;
#X obj 202 106 r \$1_\$2;
#X obj 272 166 throw~ \$2_R_in~;
#X obj 122 166 throw~ \$2_L_in~;
#X obj 122 46 inlet~;
#X obj 272 46 inlet~;
#X obj 122 106 tline~ 1;
#X obj 272 106 tline~ 1;
#X obj 272 136 tline~ 1;
#X obj 122 136 tline~ 1;
#X connect 0 0 7 1;
#X connect 1 0 8 1;
#X connect 2 0 9 1;
#X connect 2 0 10 1;
#X connect 5 0 7 0;
#X connect 6 0 8 0;
#X connect 7 0 10 0;
#X connect 8 0 9 0;
#X connect 9 0 3 0;
#X connect 10 0 4 0;
