#N canvas 63 187 566 300 10;
#X obj 37 37 inlet~;
#X msg 167 97 start;
#X msg 267 67 stop;
#X msg 207 217 open -wave wsfg_out.wav;
#X obj 77 247 writesf~;
#X obj 167 37 r \$1_start;
#X obj 267 37 r \$1_stop;
#X obj 347 37 r \$1_file;
#X obj 347 67 list2p open -wave;
#X obj 347 97 list;
#X obj 347 127 list trim;
#X obj 167 67 t b b;
#X connect 0 0 4 0;
#X connect 1 0 4 0;
#X connect 2 0 4 0;
#X connect 3 0 4 0;
#X connect 5 0 11 0;
#X connect 6 0 2 0;
#X connect 7 0 8 0;
#X connect 8 0 9 1;
#X connect 9 0 10 0;
#X connect 10 0 4 0;
#X connect 11 0 1 0;
#X connect 11 1 9 0;
