#N canvas 63 187 524 324 10;
#X obj 37 37 inlet~;
#X obj 97 37 inlet~;
#X obj 237 37 r global_play;
#X obj 337 37 r global_stop;
#X msg 207 157 start;
#X msg 337 157 stop;
#X obj 167 37 inlet;
#X obj 77 247 writesf~ 2;
#X msg 257 217 open -wave ../wsfg_out.wav;
#X text 165 22 Enable;
#X text 35 22 L;
#X text 95 22 R;
#X obj 237 127 t b b;
#X obj 307 67 f 1;
#X obj 237 97 spigot 1;
#X obj 237 67 spigot 1;
#X obj 297 97 f 0;
#X text 70 277 Record to wav aligned with clock. Wav stored in root
folder as wsfg_out.wav;
#X connect 0 0 7 0;
#X connect 1 0 7 1;
#X connect 2 0 15 0;
#X connect 3 0 5 0;
#X connect 3 0 13 0;
#X connect 4 0 7 0;
#X connect 5 0 7 0;
#X connect 6 0 15 1;
#X connect 8 0 7 0;
#X connect 12 0 4 0;
#X connect 12 1 8 0;
#X connect 13 0 14 1;
#X connect 14 0 12 0;
#X connect 14 0 16 0;
#X connect 15 0 14 0;
#X connect 16 0 14 1;
