#N canvas 679 214 450 300 10;
#X obj 37 37 inlet~;
#X obj 237 37 r global_play;
#X obj 337 37 r global_stop;
#X msg 237 127 start;
#X msg 337 127 stop;
#X obj 167 37 inlet;
#X obj 237 97 t b b;
#X obj 77 247 writesf~;
#X msg 207 217 open -wave ../wsfg_out.wav;
#X connect 0 0 7 0;
#X connect 1 0 6 0;
#X connect 2 0 4 0;
#X connect 3 0 7 0;
#X connect 4 0 7 0;
#X connect 5 0 7 0;
#X connect 6 0 3 0;
#X connect 6 1 8 0;
#X connect 8 0 7 0;
