#N canvas 791 91 304 225 10;
#X obj 72 168 outlet;
#X obj 42 33 inlet;
#X text 42 17 Beats;
#X obj 42 68 * 60000;
#X obj 143 33 r global_tempo;
#X obj 72 132 * 44.1;
#X obj 92 33 inlet;
#X text 92 17 Tempo;
#X obj 72 105 dtbf 120;
#X obj 143 83 r global_sample_rate;
#X obj 143 113 * 0.001;
#X obj 143 172 s global_send_tempo;
#X obj 143 142 loadbang;
#X connect 1 0 3 0;
#X connect 3 0 8 0;
#X connect 4 0 8 1;
#X connect 5 0 0 0;
#X connect 6 0 8 1;
#X connect 8 0 5 0;
#X connect 9 0 10 0;
#X connect 10 0 5 1;
#X connect 12 0 11 0;
#X coords 0 225 1 224 354 70 0;
