#N canvas 372 161 387 310 10;
#X obj 51 133 outlet;
#X obj 51 38 inlet;
#X text 51 22 Samp;
#X obj 51 100 * 44.1;
#X obj 101 38 r global_sample_rate;
#X obj 101 68 * 0.001;
#X connect 1 0 3 0;
#X connect 3 0 0 0;
#X connect 4 0 5 0;
#X connect 5 0 3 1;
