#N canvas 679 91 422 334 10;
#X obj 42 205 outlet;
#X obj 22 52 inlet;
#X obj 253 52 r global_tempo;
#X obj 202 52 inlet;
#X text 202 36 Tempo;
#X text 22 36 Samp;
#X obj 42 169 / 60000;
#X obj 22 112 / 44.1;
#X obj 42 142 ttbf 120;
#X obj 63 52 r global_sample_rate;
#X obj 63 82 * 0.001;
#X connect 1 0 7 0;
#X connect 2 0 8 1;
#X connect 3 0 8 1;
#X connect 6 0 0 0;
#X connect 7 0 8 0;
#X connect 8 0 6 0;
#X connect 9 0 10 0;
#X connect 10 0 7 1;
#X coords 0 334 1 333 354 70 0;
