#N canvas 0 0 450 300 10;
#X obj 37 37 inlet;
#X obj 37 97 pack \$1 \$2;
#X obj 37 127 outlet;
#X obj 97 37 inlet;
#X obj 147 37 inlet;
#X obj 147 67 b2n \$3;
#X text 241 76 beat to packed pair;
#X connect 0 0 1 0;
#X connect 1 0 2 0;
#X connect 3 0 1 1;
#X connect 4 0 5 0;
#X connect 5 0 1 0;
