#N canvas 0 50 450 300 10;
#X obj 72 83 * 24;
#X obj 22 83 % 24;
#X obj 22 24 r global_clk;
#X obj 122 24 inlet;
#X text 125 7 Beat;
#X obj 22 173 outlet;
#X text 28 189 unip;
#X obj 22 143 / 23;
#X obj 172 24 lb \$1 1;
#X obj 122 53 neg2frac;
#X obj 43 113 + -1;
#X text 222 65 beat to unipolar (0-1);
#X text 222 85 \$1 beat;
#X connect 0 0 1 1;
#X connect 0 0 10 0;
#X connect 1 0 7 0;
#X connect 2 0 1 0;
#X connect 3 0 9 0;
#X connect 7 0 5 0;
#X connect 8 0 9 0;
#X connect 9 0 0 0;
#X connect 10 0 7 1;
