#N canvas 0 50 450 300 10;
#X obj 72 143 * 24;
#X obj 22 143 % 24;
#X obj 22 24 r global_clk;
#X obj 122 24 inlet;
#X text 125 7 Beat;
#X obj 22 233 outlet;
#X text 28 249 unip;
#X obj 22 203 / 23;
#X obj 172 24 lb \$1 1;
#X obj 122 83 neg2frac;
#X obj 43 173 + -1;
#X obj 22 113 %;
#X obj 42 83 * 24;
#X obj 232 23 inlet;
#X text 238 6 Mod;
#X obj 42 53 lb \$2 8;
#X text 252 95 beat to unipolar (0-1);
#X text 252 115 with modulus over global clock;
#X connect 0 0 1 1;
#X connect 0 0 10 0;
#X connect 1 0 7 0;
#X connect 2 0 11 0;
#X connect 3 0 9 0;
#X connect 7 0 5 0;
#X connect 8 0 9 0;
#X connect 9 0 0 0;
#X connect 10 0 7 1;
#X connect 11 0 1 0;
#X connect 12 0 11 1;
#X connect 13 0 12 0;
#X connect 15 0 12 0;
