#N canvas 396 96 545 300 10;
#X obj 42 27 inlet;
#X obj 172 127 f;
#X obj 82 57 r global_clk;
#X obj 172 87 b;
#X obj 42 227 outlet;
#X obj 172 27 inlet;
#X obj 92 107 sel 0;
#X obj 82 167 -;
#X obj 212 57 r global_reset;
#X obj 212 107 b;
#X obj 212 137 f 0;
#X text 252 115 with reset (bang to create new start position;
#X text 252 95 beat to unipolar (0-1);
#X text 40 10 Beat;
#X text 170 10 Reset;
#X obj 42 197 b2u_ci \$1;
#X connect 0 0 15 0;
#X connect 1 0 7 1;
#X connect 2 0 1 1;
#X connect 2 0 6 0;
#X connect 2 0 7 0;
#X connect 3 0 1 0;
#X connect 5 0 3 0;
#X connect 7 0 15 1;
#X connect 8 0 9 0;
#X connect 9 0 10 0;
#X connect 10 0 7 1;
#X connect 15 0 4 0;
