#N canvas 618 168 340 467 10;
#X obj 132 44 inlet;
#X text 135 27 Clk;
#X obj 72 133 * 24;
#X obj 22 133 % 24;
#X obj 22 44 inlet;
#X text 25 27 Beat;
#X obj 22 223 outlet;
#X text 28 239 unip;
#X obj 22 193 / 23;
#X obj 72 44 lb \$1 1;
#X obj 22 73 neg2frac;
#X obj 43 163 + -1;
#X text 152 95 beat to unipolar (0-1);
#X text 152 115 with Clock Input;
#X connect 0 0 3 0;
#X connect 2 0 3 1;
#X connect 2 0 11 0;
#X connect 3 0 8 0;
#X connect 4 0 10 0;
#X connect 8 0 6 0;
#X connect 9 0 10 0;
#X connect 10 0 2 0;
#X connect 11 0 8 1;
