#N canvas 0 50 450 300 10;
#X obj 210 -10 r global_clk;
#X obj 270 20 % 384;
#X obj 100 100 nbx 1 50 -1e+037 1e+037 0 0 empty empty empty 0 -8 0
45 -262144 -1 -1 0 256;
#X obj 220 50 div 96;
#X obj 100 150 nbx 4 40 -1e+037 1e+037 0 0 empty empty empty 0 -8 0
35 -262144 -1 -1 0 256;
#X obj 210 80 div 96;
#X obj 103 200 hsl 140 10 0 1 0 0 empty empty empty -2 -8 0 10 -262144
-1 -1 0 1;
#X obj 270 50 / 384;
#X obj 310 20 % 96;
#X obj 310 50 / 96;
#X obj 103 190 hsl 140 10 0 1 0 0 empty empty empty -2 -8 0 10 -262144
-1 -1 0 1;
#X obj 103 210 hsl 140 10 0 1 0 0 empty empty empty -2 -8 0 10 -262144
-1 -1 0 1;
#X obj 350 20 % 1536;
#X obj 350 50 / 1536;
#X text 253 184 bar;
#X text 253 194 4 bars;
#X text 253 204 16 bars;
#X connect 0 0 1 0;
#X connect 0 0 5 0;
#X connect 0 0 8 0;
#X connect 0 0 12 0;
#X connect 1 0 3 0;
#X connect 1 0 7 0;
#X connect 3 0 2 0;
#X connect 5 0 4 0;
#X connect 7 0 6 0;
#X connect 8 0 9 0;
#X connect 9 0 10 0;
#X connect 12 0 13 0;
#X connect 13 0 11 0;
#X coords 0 -1 1 1 145 120 2 100 100;
