#N canvas 244 92 678 387 10;
#X floatatom 429 135 5 0 0 0 - - -;
#X obj 121 225 metro;
#X obj 121 333 outlet;
#X obj 171 333 outlet;
#X obj 221 333 outlet;
#X msg 349 134 stop;
#X obj 311 43 inlet;
#X obj 349 43 inlet;
#X text 313 27 Play;
#X text 351 28 Stop;
#X obj 159 278 + 1;
#X msg 389 134 0;
#X obj 389 43 inlet;
#X text 389 28 Reset;
#X text 124 348 Clock;
#X text 178 348 Play;
#X text 225 348 Stop;
#X obj 429 43 inlet;
#X text 429 28 Tempo;
#X obj 271 43 inlet;
#X text 271 27 Clock;
#X obj 329 250 s global_play;
#X obj 369 220 s global_stop;
#X obj 439 164 s global_tempo;
#X obj 148 43 r global_tempo;
#X obj 31 307 s global_clk;
#X obj 409 190 s global_reset;
#X msg 469 104 set \$1;
#X obj 599 43 inlet;
#X text 599 28 Tap;
#X obj 29 183 s global_tempo_ms;
#X obj 148 101 swap 2500;
#X obj 148 131 /;
#X obj 599 73 tap_tempo;
#X text 17 167 allows syncing without precision loss;
#X obj 121 278 f 1;
#X obj 469 43 r global_send_tempo;
#X obj 469 73 b;
#X connect 0 0 23 0;
#X connect 1 0 35 0;
#X connect 5 0 1 0;
#X connect 6 0 1 0;
#X connect 6 0 21 0;
#X connect 6 0 3 0;
#X connect 7 0 5 0;
#X connect 7 0 22 0;
#X connect 7 0 4 0;
#X connect 10 0 35 1;
#X connect 11 0 35 1;
#X connect 12 0 0 0;
#X connect 12 0 11 0;
#X connect 12 0 26 0;
#X connect 17 0 0 0;
#X connect 19 0 35 0;
#X connect 24 0 27 0;
#X connect 24 0 31 0;
#X connect 27 0 0 0;
#X connect 28 0 33 0;
#X connect 31 0 32 0;
#X connect 31 1 32 1;
#X connect 32 0 1 1;
#X connect 32 0 30 0;
#X connect 35 0 10 0;
#X connect 35 0 2 0;
#X connect 35 0 25 0;
#X connect 36 0 37 0;
#X connect 37 0 0 0;
