#N canvas 0 0 450 300 10;
#X obj 75 145 f;
#X obj 105 145 + 1;
#X obj 90 85 r global_reset;
#X msg 90 115 0;
#X text 78 39 Step;
#X obj 75 55 inlet;
#X obj 75 174 outlet;
#X connect 0 0 1 0;
#X connect 0 0 6 0;
#X connect 1 0 0 1;
#X connect 2 0 3 0;
#X connect 3 0 0 1;
#X connect 5 0 0 0;
