#N canvas 797 205 478 403 10;
#X obj 138 34 inlet;
#X text 141 17 Beat;
#X obj 24 244 outlet;
#X text 28 260 reset;
#X obj 24 214 spigot;
#X obj 24 154 f;
#X obj 54 154 + 1;
#X obj 24 94 r global_reset;
#X obj 24 124 f 0;
#X obj 24 184 % 2;
#X obj 138 94 t b b;
#X text 222 95 every other beat to baNg;
#X obj 138 64 b2n \$1;
#X connect 0 0 12 0;
#X connect 4 0 2 0;
#X connect 5 0 6 0;
#X connect 5 0 9 0;
#X connect 6 0 5 1;
#X connect 7 0 8 0;
#X connect 8 0 5 1;
#X connect 9 0 4 1;
#X connect 10 0 4 0;
#X connect 10 1 5 0;
#X connect 12 0 10 0;
