#N canvas 0 50 487 566 10;
#X obj 122 231 f;
#X obj 122 169 timer;
#X obj 152 231 +;
#X obj 122 199 t b a;
#X obj 222 199 f;
#X obj 252 199 + 1;
#X msg 182 199 0;
#X obj 142 261 spigot;
#X obj 232 229 == 3;
#X obj 142 291 / 4;
#X obj 142 351 /;
#X obj 112 411 b;
#X floatatom 62 258 5 0 0 0 - - -, f 5;
#X floatatom 59 285 5 0 0 0 - - -, f 5;
#X floatatom 69 315 5 0 0 0 - - -, f 5;
#X floatatom 69 345 5 0 0 0 - - -, f 5;
#X obj 302 98 bng 60 250 50 0 empty empty empty 17 7 0 10 -262144 -1
-1;
#X floatatom 62 208 5 0 0 0 - - -, f 5;
#X obj 122 139 t b b b;
#X obj 302 378 bng 60 250 50 0 empty empty empty 17 7 0 10 -262144
-1 -1;
#X obj 42 109 spigot;
#X msg 42 169 0;
#X msg 202 109 1;
#X obj 122 109 spigot;
#X msg 82 169 1;
#X msg 202 139 0;
#X obj 142 321 swap 30000;
#X obj 112 441 f 0;
#X obj 112 471 s global_clk_in;
#X obj 122 49 inlet;
#X obj 152 79 lb;
#X obj 202 79 del 3000;
#X obj 142 442 s global_tempo_r;
#X obj 142 382 + 0.5;
#X obj 142 412 int;
#X connect 0 0 2 0;
#X connect 0 0 7 0;
#X connect 0 0 14 0;
#X connect 1 0 3 0;
#X connect 1 0 17 0;
#X connect 2 0 0 1;
#X connect 2 0 13 0;
#X connect 3 0 0 0;
#X connect 3 1 2 1;
#X connect 3 1 12 0;
#X connect 4 0 5 0;
#X connect 4 0 8 0;
#X connect 5 0 4 1;
#X connect 6 0 0 1;
#X connect 7 0 9 0;
#X connect 7 0 15 0;
#X connect 7 0 6 0;
#X connect 8 0 7 1;
#X connect 9 0 26 0;
#X connect 10 0 11 0;
#X connect 10 0 19 0;
#X connect 10 0 33 0;
#X connect 11 0 27 0;
#X connect 18 0 1 0;
#X connect 18 1 1 1;
#X connect 18 2 4 0;
#X connect 20 0 1 0;
#X connect 20 0 21 0;
#X connect 20 0 24 0;
#X connect 21 0 20 1;
#X connect 22 0 20 1;
#X connect 22 0 25 0;
#X connect 23 0 18 0;
#X connect 24 0 23 1;
#X connect 25 0 23 1;
#X connect 25 0 6 0;
#X connect 25 0 4 1;
#X connect 26 0 10 0;
#X connect 26 1 10 1;
#X connect 27 0 28 0;
#X connect 29 0 20 0;
#X connect 29 0 23 0;
#X connect 29 0 31 0;
#X connect 30 0 22 0;
#X connect 31 0 16 0;
#X connect 31 0 22 0;
#X connect 33 0 34 0;
#X connect 34 0 32 0;
