#N canvas 203 249 388 285 10;
#X obj 127 117 vv_file_vvc \$1;
#N canvas 50 74 1140 556 osc 0;
#X obj 17 17 nbx_6m_vvc \$1 pitch;
#X obj 217 17 ar_pa_vvc_mhx \$1 pitch_env;
#X obj 17 157 hslxnbx_6m_vvc \$1 fm;
#N canvas 0 50 994 584 osc_b 0;
#X obj 37 37 ajah_osc_vvc \$1 osc_b;
#X restore 87 477 pd osc_b;
#N canvas 0 50 996 553 osc_a 0;
#X obj 37 37 ajah_osc_a_vvc \$1 osc_a;
#X restore 17 477 pd osc_a;
#N canvas 0 50 933 553 noise 0;
#X obj 677 17 hsl_6m_vvc \$1 noise_ds;
#X obj 457 357 hsl_6m_vvc \$1 noise_filt2;
#X obj 237 357 hsl_6m_vvc \$1 noise_filt1;
#X obj 17 357 hsl_6m_vvc \$1 noise_dry;
#X obj 17 17 adsr_ppa_vvc_mhx \$1 noise_env;
#X restore 227 477 pd noise;
#N canvas 0 50 994 584 osc_c 0;
#X obj 37 37 ajah_osc_vvc \$1 osc_c;
#X restore 157 477 pd osc_c;
#X obj 17 307 hslxnbx_6m_vvc \$1 fm_c_to_a;
#X obj 507 307 hslxnbx_6m_vvc \$1 osc_ds;
#X obj 207 307 hslxnbx_6m_vvc \$1 fm_c_to_b;
#X text 512 291 Osc downsample;
#X text 22 141 osc b to a;
#X restore 117 87 pd osc;
#N canvas 32 50 901 602 filt+amp 0;
#X text 672 216 hp~;
#X obj 677 427 hslxnbx_6m_vvc \$1 filt2_amp 1 1;
#X obj 427 87 hsl_6m_vvc \$1 amp_pitch_follow 1;
#X obj 677 237 hslxnbx_6m_vvc \$1 filt2_freq 1111 1;
#X obj 677 377 hsl_vvc \$1 filt2_pitch_follow 1;
#X obj 657 597 hslxnbx_6m_vvc \$1 filt1_to_filt2 1 1;
#X obj 17 237 ajah_filt_vvc \$1 filt1;
#X obj 17 87 hslxnbx_6m_vvc \$1 dry_amp 1 1;
#X text 675 59 dry;
#X text 715 149 V;
#X text 715 159 V;
#X text 715 169 V;
#X text 685 79 V;
#X text 685 89 V;
#X text 685 99 V;
#X text 715 89 V;
#X text 715 99 V;
#X text 825 89 V;
#X text 825 99 V;
#X text 825 79 V;
#X text 705 59 vcf~;
#X text 815 59 hip~;
#X text 685 109 V;
#X text 685 119 V;
#X text 685 129 V;
#X text 825 109 V;
#X text 825 119 V;
#X text 825 129 V;
#X text 715 109 V;
#X text 715 119 V;
#X text 715 129 V;
#X text 685 139 >>>>>V<<<<<<<<<<<<<<<<<<;
#X text 705 49 filt1;
#X text 815 49 filt2;
#X text 675 29 Output:;
#X text 715 79 V;
#X text 715 69 V>filt1_to_filt2^;
#X text 695 179 output;
#X text 672 206 filt2;
#X restore 167 87 pd filt+amp;
#X obj 117 57 mhx_engine_vvc \$1;
#X text 249 82 4-macro;
#X text 249 62 2-velocity;
#X text 249 52 1-pitch;
#X text 249 92 5-AR Env;
#X text 249 102 6-LFO;
#X text 249 72 3-random (per voice);
