#N canvas 0 50 949 522 10;
#X obj 350 120 hslxnbx_6m_vvc \$1 \$2_mod 3 0.5;
#X obj 550 120 hslxnbx_6m_vvc \$1 \$2_amp 1 1;
#X obj 110 270 hsl_vvc \$1 \$2_pitch_follow 1;
#X obj 110 340 ar_ppa_vvc_mhx \$1 \$2_env;
#X obj 290 270 nbx_vvc \$1 \$2_poles 4;
#X text 436 309 0: bandpass;
#X text 436 319 1: lowpass;
#X obj 430 270 nbx_vvc \$1 \$2_type;
#X text 296 309 1-4;
#X obj 110 120 hslxnbx_6m_vvc \$1 \$2_freq 11111;
#X coords 0 -1 1 1 630 500 1 100 100;
