#N canvas 0 50 1056 593 10;
#X obj 400 110 nbx_6m_vvc \$1 \$2_pitch;
#X obj 300 190 tgl_hide_vvc \$1 \$2_reset 1;
#X obj 730 260 hsl_6m_vvc \$1 \$2_mod;
#X obj 780 110 nbx_4m_vvc \$1 \$2_glide;
#X obj 110 170 nbx_6m_vvc \$1 \$2_sync 1;
#X obj 770 380 hsl_6m_vvc \$1 \$2_dry 1;
#X obj 770 580 hsl_6m_vvc \$1 \$2_filt2;
#X obj 770 480 hsl_6m_vvc \$1 \$2_filt1;
#X obj 500 230 hslxnbx_4m_vvc \$1 \$2_pitch_env 1;
#X obj 110 290 nbx_vvc \$1 \$2_type 1;
#X obj 300 250 hsl_vvc \$1 \$2_phase_start;
#X obj 110 380 adsr_ppa_vvc_mhx \$1 \$2_env;
#X obj 590 110 nbx_6m_vvc \$1 \$2_freq;
#X text 581 121 +;
#X obj 250 110 hsl_vvc \$1 \$2_pitched 1;
#X text 781 197 monophony only;
#X text 112 347 0: Sine<->Square;
#X text 112 357 1: Triangle<->Saw;
#X text 112 327 Osc wave mod type;
#X coords 0 -1 1 1 910 620 1 100 100;
