#N canvas 387 116 740 518 10;
#X obj 17 17 inlet;
#X obj 17 77 unpack;
#X obj 17 107 +;
#X obj 17 137 pack;
#X obj 17 377 outlet~;
#N canvas 86 83 1087 559 osc 0;
#X obj 167 87 stripnote;
#X obj 57 237 vv_mhx \$1 osc_a_pitch \$2;
#X obj 37 267 ptbf;
#X obj 377 267 ptbf;
#X obj 397 237 vv_mhx \$1 osc_b_pitch \$2;
#X obj 37 297 mtof;
#X obj 377 387 vlinesc~;
#X obj 377 297 mtof;
#X obj 37 57 t a a;
#X obj 67 177 r \$1_osc_a_reset;
#X obj 507 407 spigot;
#X obj 537 377 r \$1_osc_b_reset;
#X obj 37 87 stripnote;
#X obj 37 117 * 0;
#X obj 37 207 spigot;
#X obj 37 27 inlet;
#X obj 37 727 outlet~;
#X obj 827 567 noise~;
#X obj 377 727 outlet~;
#X obj 37 387 vlinesc~;
#X obj 87 267 vv_mhx4 \$1 osc_a_glide \$2;
#X obj 427 267 vv_mhx4 \$1 osc_b_glide \$2;
#X obj 87 297 + 3;
#X obj 427 297 + 3;
#X obj 276 267 vv_mhx \$1 fm \$2;
#X obj 276 297 clip 0 77777;
#X obj 827 687 outlet~;
#X obj 47 617 tline~;
#X obj 327 597 tline~;
#X obj 827 597 downsample~;
#X obj 837 477 ssam~;
#X obj 837 507 change;
#X obj 897 537 vv_mhx \$1 noise_ds \$2;
#X obj 897 567 ptbf;
#X obj 827 657 *~;
#X obj 897 507 vv_mhx4 \$1 noise_ds_pitch_env \$2;
#X obj 317 567 vv_mhx4 \$1 osc_b_pitch_env \$2;
#X obj 107 587 vv_mhx4 \$1 osc_a_pitch_env \$2;
#X obj 837 537 ttbf;
#X obj 37 457 freq_mod~;
#X obj 37 647 ajah_osc_a~ \$1 osc_a \$2;
#X obj 377 637 ajah_osc~ \$1 osc_b \$2;
#X obj 657 287 ptbf;
#X obj 657 407 vlinesc~;
#X obj 657 317 mtof;
#X obj 787 397 spigot;
#X obj 707 317 + 3;
#X obj 577 527 tline~;
#X obj 907 217 rr;
#X obj 567 497 vv_mhx4 \$1 osc_c_pitch_env \$2;
#X obj 677 257 vv_mhx \$1 osc_c_pitch \$2;
#X obj 707 287 vv_mhx4 \$1 osc_c_glide \$2;
#X obj 617 727 outlet~;
#X obj 897 307 r \$1_osc_c_reset;
#X obj 837 627 adsr_ppa_vv_mhx~ \$1 noise_env \$2;
#X obj 206 667 clip 0 77777;
#X obj 206 637 vv_mhx \$1 fm_c_to_a \$2;
#X obj 37 487 freq_mod~;
#X obj 207 417 ar_pa_vv_mhx~ \$1 pitch_env \$2 128;
#X obj 207 477 +~ -8.175;
#X obj 207 447 mtof~;
#X obj 617 697 downsample~;
#X obj 377 697 downsample~;
#X obj 37 697 downsample~;
#X obj 687 637 vv_mhx \$1 osc_ds \$2;
#X obj 687 667 rr;
#X obj 377 607 freq_mod~;
#X obj 466 727 clip 0 77777;
#X obj 466 697 vv_mhx \$1 fm_c_to_b \$2;
#X obj 117 387 vlinesc~;
#X obj 617 587 ajah_osc~ \$1 osc_c \$2;
#X obj 387 487 vlinesc~;
#X obj 387 457 vv_mhx \$1 osc_b_freq \$2;
#X obj 117 297 vv_mhx \$1 osc_a_freq \$2;
#X obj 647 557 vlinesc~;
#X obj 647 527 vv_mhx \$1 osc_c_freq \$2;
#X obj 37 357 *;
#X obj 377 357 *;
#X obj 657 377 *;
#X obj 57 327 r \$1_osc_a_pitched;
#X obj 397 327 r \$1_osc_b_pitched;
#X obj 677 347 r \$1_osc_c_pitched;
#X connect 0 0 2 0;
#X connect 0 0 3 0;
#X connect 0 0 42 0;
#X connect 1 0 2 1;
#X connect 2 0 5 0;
#X connect 3 0 7 0;
#X connect 4 0 3 1;
#X connect 5 0 76 0;
#X connect 6 0 66 0;
#X connect 7 0 77 0;
#X connect 8 0 12 0;
#X connect 8 1 0 0;
#X connect 9 0 14 1;
#X connect 10 0 41 1;
#X connect 11 0 10 1;
#X connect 12 0 13 0;
#X connect 13 0 10 0;
#X connect 13 0 14 0;
#X connect 13 0 48 0;
#X connect 14 0 40 1;
#X connect 15 0 8 0;
#X connect 17 0 29 0;
#X connect 19 0 39 0;
#X connect 20 0 22 0;
#X connect 21 0 23 0;
#X connect 22 0 19 1;
#X connect 23 0 6 1;
#X connect 24 0 25 0;
#X connect 25 0 39 2;
#X connect 27 0 40 0;
#X connect 28 0 41 0;
#X connect 29 0 34 0;
#X connect 30 0 31 0;
#X connect 31 0 38 0;
#X connect 32 0 33 1;
#X connect 33 0 29 1;
#X connect 34 0 26 0;
#X connect 35 0 38 1;
#X connect 36 0 28 1;
#X connect 37 0 27 1;
#X connect 38 0 33 0;
#X connect 39 0 57 0;
#X connect 40 0 63 0;
#X connect 41 0 39 1;
#X connect 41 0 62 0;
#X connect 42 0 44 0;
#X connect 43 0 70 0;
#X connect 44 0 78 0;
#X connect 45 0 70 1;
#X connect 46 0 43 1;
#X connect 47 0 70 0;
#X connect 48 0 45 0;
#X connect 49 0 47 1;
#X connect 50 0 42 1;
#X connect 51 0 46 0;
#X connect 53 0 45 1;
#X connect 54 0 34 1;
#X connect 55 0 57 2;
#X connect 56 0 55 0;
#X connect 57 0 40 0;
#X connect 58 0 60 0;
#X connect 58 0 30 0;
#X connect 59 0 27 0;
#X connect 59 0 28 0;
#X connect 59 0 47 0;
#X connect 60 0 59 0;
#X connect 61 0 52 0;
#X connect 62 0 18 0;
#X connect 63 0 16 0;
#X connect 64 0 65 0;
#X connect 65 0 61 1;
#X connect 65 0 62 1;
#X connect 65 0 63 1;
#X connect 66 0 41 0;
#X connect 67 0 66 2;
#X connect 68 0 67 0;
#X connect 69 0 39 0;
#X connect 70 0 57 1;
#X connect 70 0 61 0;
#X connect 70 0 66 1;
#X connect 71 0 66 0;
#X connect 72 0 71 0;
#X connect 73 0 69 0;
#X connect 74 0 70 0;
#X connect 75 0 74 0;
#X connect 76 0 19 0;
#X connect 77 0 6 0;
#X connect 78 0 43 0;
#X connect 79 0 76 1;
#X connect 80 0 77 1;
#X connect 81 0 78 1;
#X restore 17 167 pd osc;
#N canvas 270 77 941 441 filt 1;
#X obj 17 37 inlet~;
#X obj 207 37 inlet~;
#X obj 77 167 tline~;
#X obj 137 167 vv_mhx \$1 dry_amp \$2;
#X obj 547 377 outlet~;
#X obj 857 47 inlet;
#X obj 587 37 inlet~;
#X text 18 20 Osc A;
#X text 588 20 Noise;
#X text 208 20 Osc B;
#X text 858 30 Pitch;
#X obj 547 347 tline~;
#X obj 747 197 *;
#X obj 547 287 hip~;
#X obj 547 257 hip~;
#X obj 587 227 ptbf;
#X obj 787 167 r \$1_filt2_pitch_follow;
#X obj 567 317 vv_mhx \$1 filt2_amp \$2;
#X obj 587 197 vv_mhx \$1 filt2_freq \$2;
#X obj 397 37 inlet~;
#X text 398 20 Osc C;
#X obj 17 67 imp_filt_send~ \$1 osc_a \$2;
#X obj 207 67 imp_filt_send~ \$1 osc_b \$2;
#X obj 397 67 imp_filt_send~ \$1 osc_c \$2;
#X obj 587 67 imp_filt_send~ \$1 noise \$2;
#X obj 547 167 rr~;
#X obj 307 167 ajah_filt~ \$1 filt1 \$2;
#X connect 0 0 21 0;
#X connect 1 0 22 0;
#X connect 2 0 4 0;
#X connect 3 0 2 1;
#X connect 5 0 12 0;
#X connect 5 0 26 1;
#X connect 6 0 24 0;
#X connect 11 0 4 0;
#X connect 12 0 15 1;
#X connect 13 0 11 0;
#X connect 14 0 13 0;
#X connect 15 0 14 1;
#X connect 15 0 13 1;
#X connect 16 0 12 1;
#X connect 17 0 11 1;
#X connect 18 0 15 0;
#X connect 19 0 23 0;
#X connect 21 0 2 0;
#X connect 21 1 26 0;
#X connect 21 2 25 0;
#X connect 22 0 2 0;
#X connect 22 1 26 0;
#X connect 22 2 25 0;
#X connect 23 0 2 0;
#X connect 23 1 26 0;
#X connect 23 2 25 0;
#X connect 24 0 2 0;
#X connect 24 1 26 0;
#X connect 24 2 25 0;
#X connect 25 0 14 0;
#X connect 26 0 4 0;
#X connect 26 1 25 0;
#X restore 17 197 pd filt;
#X obj 257 137 / -127;
#X obj 257 167 + 1;
#X obj 257 197 -;
#X obj 67 137 mtof;
#X obj 317 107 vv_mhx \$1 amp_pitch_follow \$2;
#X obj 317 137 moses 1;
#X obj 367 187 b;
#X obj 367 217 f 1;
#X obj 257 257 *;
#X obj 257 287 + 1;
#X obj 17 317 tline~;
#X obj 77 77 vv_mhx4 \$1 pitch \$2;
#X obj 77 167 mhx_engine \$1 \$2;
#X connect 0 0 1 0;
#X connect 1 0 2 0;
#X connect 1 1 3 1;
#X connect 2 0 3 0;
#X connect 2 0 7 0;
#X connect 2 0 10 0;
#X connect 3 0 5 0;
#X connect 3 0 19 0;
#X connect 5 0 6 0;
#X connect 5 1 6 1;
#X connect 5 2 6 2;
#X connect 5 3 6 3;
#X connect 6 0 17 0;
#X connect 7 0 8 0;
#X connect 8 0 9 0;
#X connect 9 0 15 0;
#X connect 10 0 6 4;
#X connect 11 0 12 0;
#X connect 11 0 15 1;
#X connect 12 0 9 1;
#X connect 12 1 13 0;
#X connect 13 0 14 0;
#X connect 14 0 9 1;
#X connect 15 0 16 0;
#X connect 16 0 17 1;
#X connect 17 0 4 0;
#X connect 18 0 2 1;
