#N canvas 419 147 444 456 10;
#X obj 17 37 inlet~;
#X obj 17 137 hard_sync_phasor~;
#X obj 17 377 outlet~;
#X obj 77 37 inlet;
#X obj 137 107 vv_mhx \$1 \$2_sync \$3;
#X text 347 38 \$1 parent;
#X text 347 58 \$2 name;
#X text 347 78 \$3 voice;
#X obj 137 167 vv_mhx \$1 \$2_mod \$3;
#X obj 137 197 vlinesc~;
#X obj 17 317 *~;
#X obj 127 37 r \$1_\$2_phase_start;
#X obj 77 67 f 0;
#X obj 197 197 vv_mhx \$1 \$2_asym \$3;
#X obj 27 287 adsr_ppa_vv_mhx~ \$1 \$2_env \$3;
#X obj 17 257 satm_cv~;
#X obj 207 217 vv_mhx \$1 \$2_mix \$3;
#X connect 0 0 1 0;
#X connect 1 0 15 0;
#X connect 3 0 12 0;
#X connect 4 0 1 2;
#X connect 8 0 9 0;
#X connect 9 0 15 1;
#X connect 10 0 2 0;
#X connect 11 0 12 1;
#X connect 12 0 1 1;
#X connect 13 0 15 2;
#X connect 14 0 10 1;
#X connect 15 0 10 0;
#X connect 16 0 15 3;
