#N canvas 0 50 563 300 10;
#X obj 37 37 inlet~;
#X obj 37 97 tline~;
#X obj 37 127 outlet~;
#X obj 177 97 tline~;
#X obj 327 97 tline~;
#X obj 177 127 outlet~;
#X obj 327 127 outlet~;
#X text 287 178 \$1 parent;
#X text 287 198 \$2 name;
#X text 287 218 \$3 voice;
#X obj 197 67 vv_mhx \$1 \$2_filt1 \$3;
#X obj 347 67 vv_mhx \$1 \$2_filt2 \$3;
#X obj 57 67 vv_mhx \$1 \$2_dry \$3;
#X connect 0 0 1 0;
#X connect 0 0 3 0;
#X connect 0 0 4 0;
#X connect 1 0 2 0;
#X connect 3 0 5 0;
#X connect 4 0 6 0;
#X connect 10 0 3 1;
#X connect 11 0 4 1;
#X connect 12 0 1 1;
