#N canvas 0 41 1056 593 10;
#X obj 270 110 nbx_6m_vvc \$1 \$2_pitch;
#X obj 110 180 tgl_hide_vvc \$1 \$2_reset 1;
#X obj 620 380 hsl_6m_vvc \$1 \$2_mod;
#X obj 450 240 nbx_6m_vvc \$1 \$2_glide;
#X obj 270 240 nbx_6m_vvc \$1 \$2_sync 1;
#X obj 770 520 hsl_6m_vvc \$1 \$2_dry 1;
#X obj 770 720 hsl_6m_vvc \$1 \$2_filt2;
#X obj 770 620 hsl_6m_vvc \$1 \$2_filt1;
#X obj 640 110 hslxnbx_6m_vvc \$1 \$2_pitch_env 1;
#X obj 110 240 hsl_vvc \$1 \$2_phase_start;
#X obj 110 520 adsr_ppa_vvc_mhx \$1 \$2_env;
#X obj 450 380 hslxnbx_6m_vvc \$1 \$2_asym;
#X obj 450 110 nbx_6m_vvc \$1 \$2_freq;
#X obj 120 120 hsl_vvc \$1 \$2_pitched 1;
#X text 112 377 Osc wave mod type;
#X text 112 397 Sine<->Square;
#X obj 230 380 hsl_6m_vvc \$1 \$2_mix 1;
#X text 452 357 Monophony only;
#X coords 0 -1 1 1 900 760 1 100 100;
