#N canvas 0 50 450 300 10;
#X obj 92 189 b;
#X obj 92 69 stripnote;
#X obj 172 69 del 7000;
#X obj 172 129 swap;
#X msg 172 99 0;
#X obj 172 159 pack;
#X obj 92 39 inlet;
#X text 304 96 \$1 name_voice;
#X obj 172 189 s \$1_nv;
#X connect 0 0 2 0;
#X connect 1 0 0 0;
#X connect 1 0 3 1;
#X connect 2 0 4 0;
#X connect 3 0 5 0;
#X connect 3 1 5 1;
#X connect 4 0 3 0;
#X connect 5 0 8 0;
#X connect 6 0 1 0;
