#N canvas 569 50 633 516 10;
#X obj 67 37 inlet~;
#X obj 67 277 tline~;
#X obj 67 327 outlet~;
#X obj 227 37 inlet;
#X obj 227 97 *;
#X obj 87 97 vlinesc~;
#X obj 227 127 vlinesc~;
#X obj 87 67 vv_mhx \$1 \$2_freq \$3;
#X obj 267 67 r \$1_\$2_pitch_follow;
#X obj 87 247 vv_mhx \$1 \$2_amp \$3;
#X obj 207 157 vv_mhx \$1 \$2_mod \$3;
#X obj 67 217 \$4 \$5;
#X text 437 58 \$1 parent;
#X text 437 78 \$2 name;
#X text 437 98 \$3 voice;
#X text 437 118 \$4 filter name;
#X obj 87 187 clip~ 1 22050;
#X text 437 138 \$5 filter argument 1;
#X connect 0 0 11 0;
#X connect 1 0 2 0;
#X connect 3 0 4 0;
#X connect 4 0 6 0;
#X connect 5 0 16 0;
#X connect 6 0 16 0;
#X connect 7 0 5 0;
#X connect 8 0 4 1;
#X connect 9 0 1 1;
#X connect 10 0 11 2;
#X connect 11 0 1 0;
#X connect 16 0 11 1;
