#N canvas 586 59 633 516 10;
#X obj 67 37 inlet~;
#X obj 67 397 tline~;
#X obj 67 447 outlet~;
#X obj 287 37 inlet;
#X obj 287 97 *;
#X obj 87 97 vlinesc~;
#X obj 287 127 vlinesc~;
#X obj 87 67 vv_mqu \$1 \$2_freq \$3;
#X obj 327 67 r \$1_\$2_pitch_follow;
#X obj 87 367 vv_mqu \$1 \$2_amp \$3;
#X obj 127 217 vv_mqu \$1 \$2_mod \$3;
#X obj 207 397 tline~;
#X obj 207 447 outlet~;
#X obj 67 337 rr~;
#X obj 227 367 vv_mqu \$1 \$2_to_filt2 \$3;
#X obj 97 127 ar_ppa_vv_mqu~ \$1 \$2_env \$3;
#X obj 67 307 vcf_npnp~ 4 1;
#X obj 167 307 lb 1;
#X obj 137 247 r \$1_\$2_poles;
#X obj 147 277 r \$1_\$2_type;
#X text 357 178 \$1 parent;
#X text 357 198 \$2 name;
#X text 357 218 \$3 voice;
#X obj 87 187 clip~ 1 22050;
#X connect 0 0 16 0;
#X connect 1 0 2 0;
#X connect 3 0 4 0;
#X connect 4 0 6 0;
#X connect 5 0 23 0;
#X connect 6 0 23 0;
#X connect 7 0 5 0;
#X connect 8 0 4 1;
#X connect 9 0 1 1;
#X connect 10 0 16 2;
#X connect 11 0 12 0;
#X connect 13 0 1 0;
#X connect 13 0 11 0;
#X connect 14 0 11 1;
#X connect 15 0 23 0;
#X connect 16 0 13 0;
#X connect 17 0 16 4;
#X connect 18 0 16 3;
#X connect 19 0 16 4;
#X connect 23 0 16 1;
