#N canvas 0 41 1056 593 10;
#X obj 730 440 hsl_4m_vvc \$1 \$2_mod;
#X obj 730 780 hsl_4m_vvc \$1 \$2_dry 1;
#X obj 730 980 hsl_4m_vvc \$1 \$2_filt2;
#X obj 730 880 hsl_4m_vvc \$1 \$2_filt1;
#X obj 110 680 ar_ppa_vvc_mqu \$1 \$2_env;
#X obj 110 440 ar_pa_vvc_mqu \$1 \$2_mod_env;
#X obj 280 340 nbx_4m_vvc \$1 \$2_wet 1;
#X obj 460 340 hsl_4m_vvc \$1 \$2_asym;
#X obj 550 940 hslxnbx_4m_vvc \$1 \$2_noenv;
#X obj 290 190 tgl_hide_vvc \$1 \$2_reset 1;
#X obj 460 210 nbx_4m_vvc \$1 \$2_glide;
#X obj 110 260 nbx_vvc \$1 \$2_type 1;
#X obj 290 250 hsl_vvc \$1 \$2_phase_start;
#X obj 450 110 hsl_vvc \$1 \$2_pitched 1;
#X obj 600 110 nbx_4m_vvc \$1 \$2_pitch;
#X obj 780 110 nbx_4m_vvc \$1 \$2_freq;
#X obj 750 210 hslxnbx_4m_vvc \$1 \$2_pitch_env 1;
#X obj 110 170 nbx_4m_vvc \$1 \$2_sync 1;
#X obj 110 340 nbx_4m_vvc \$1 \$2_nomod;
#X text 461 297 monophony only;
#X text 112 317 0: Sine<->Square;
#X text 112 327 1: Triangle<->Saw;
#X text 112 297 Osc wave mod type;
#X coords 0 -1 1 1 860 980 1 100 100;
