#N canvas 419 147 444 456 10;
#X obj 17 37 inlet~;
#X obj 17 137 hard_sync_phasor~;
#X obj 17 407 outlet~;
#X obj 77 37 inlet;
#X obj 137 107 vv_mqu \$1 \$2_sync \$3;
#X text 347 38 \$1 parent;
#X text 347 58 \$2 name;
#X text 347 78 \$3 voice;
#X obj 137 197 vv_mqu \$1 \$2_mod \$3;
#X obj 137 227 vlinesc~;
#X obj 97 167 ar_pa_vv_mqu~ \$1 \$2_mod_env \$3;
#X obj 17 377 *~;
#X obj 177 347 *~;
#X obj 187 317 ar_ppa_vv_mqu~ \$1 \$2_env \$3;
#X obj 27 347 vv_mqu \$1 \$2_noenv \$3;
#X obj 127 37 r \$1_\$2_phase_start;
#X obj 77 67 f 0;
#X obj 17 287 satdw_cv~;
#X obj 197 227 vv_mqu \$1 \$2_asym \$3;
#X obj 217 267 vv_mqu \$1 \$2_wet \$3;
#X obj 207 247 vv_mqu \$1 \$2_nomod \$3;
#X connect 0 0 1 0;
#X connect 1 0 17 0;
#X connect 3 0 16 0;
#X connect 4 0 1 2;
#X connect 8 0 9 0;
#X connect 9 0 17 1;
#X connect 10 0 17 1;
#X connect 11 0 2 0;
#X connect 12 0 2 0;
#X connect 13 0 12 1;
#X connect 14 0 11 1;
#X connect 15 0 16 1;
#X connect 16 0 1 1;
#X connect 17 0 11 0;
#X connect 17 0 12 0;
#X connect 18 0 17 2;
#X connect 19 0 17 4;
#X connect 20 0 17 3;
