#N canvas 0 50 1056 593 10;
#X obj 390 110 nbx_4m_vvc \$1 \$2_pitch;
#X obj 300 190 tgl_hide_vvc \$1 \$2_reset 1;
#X obj 730 350 hsl_4m_vvc \$1 \$2_mod;
#X obj 460 210 nbx_4m_vvc \$1 \$2_glide;
#X obj 110 170 nbx_4m_vvc \$1 \$2_sync 1;
#X obj 770 650 hsl_4m_vvc \$1 \$2_dry 1;
#X obj 770 850 hsl_4m_vvc \$1 \$2_filt2;
#X obj 770 750 hsl_4m_vvc \$1 \$2_filt1;
#X obj 110 590 ar_ppa_vvc_mqu \$1 \$2_env;
#X obj 750 110 hslxnbx_4m_vvc \$1 \$2_pitch_env 1;
#X obj 110 270 nbx_vvc \$1 \$2_type 1;
#X obj 300 250 hsl_vvc \$1 \$2_phase_start;
#X obj 110 350 ar_pa_vvc_mqu \$1 \$2_mod_env;
#X obj 110 850 hsl_4m_vvc \$1 \$2_noenv;
#X obj 240 110 hsl_vvc \$1 \$2_pitched 1;
#X obj 570 110 nbx_4m_vvc \$1 \$2_freq;
#X text 471 297 monophony only;
#X text 112 327 0: Sine<->Square;
#X text 112 337 1: Triangle<->Saw;
#X text 112 307 Osc wave mod type;
#X coords 0 -1 1 1 910 840 1 100 100;
