#N canvas 233 61 540 475 10;
#X obj 17 257 *~;
#X obj 37 227 adsr_pa_vv_mqu~ \$1 amp_env \$2;
#X obj 17 17 inlet;
#X obj 17 77 unpack;
#X obj 17 107 +;
#X obj 17 137 pack;
#X obj 17 377 outlet~;
#X obj 77 77 vv_mqu \$1 pitch \$2;
#N canvas 86 83 1087 559 osc 0;
#X obj 167 87 stripnote;
#X obj 57 237 vv_mqu \$1 osc_a_pitch \$2;
#X obj 37 267 ptbf;
#X obj 37 297 mtof;
#X obj 37 57 t a a;
#X obj 67 177 r \$1_osc_a_reset;
#X obj 617 397 spigot;
#X obj 647 367 r \$1_osc_b_reset;
#X obj 37 87 stripnote;
#X obj 37 117 * 0;
#X obj 37 207 spigot;
#X obj 37 27 inlet;
#X obj 37 797 outlet~;
#X obj 547 677 noise~;
#X obj 377 797 outlet~;
#X obj 37 467 vlinesc~;
#X obj 87 407 vv_mqu \$1 osc_a_glide \$2;
#X obj 87 437 + 3;
#X obj 266 407 vv_mqu \$1 fm \$2;
#X obj 266 437 clip 0 77777;
#X obj 547 797 outlet~;
#X obj 47 687 tline~;
#X obj 327 617 tline~;
#X obj 547 707 downsample~;
#X obj 557 587 ssam~;
#X obj 557 617 change;
#X obj 617 647 vv_mqu \$1 noise_ds \$2;
#X obj 617 677 ptbf;
#X obj 377 677 imp_osc~ \$1 osc_b \$2;
#X obj 547 767 *~;
#X obj 557 737 ar_ppa_vv_mqu~ \$1 noise_env \$2;
#X obj 617 617 vv_mqu \$1 noise_ds_pitch_env \$2;
#X obj 317 587 vv_mqu \$1 osc_b_pitch_env \$2;
#X obj 107 657 vv_mqu \$1 osc_a_pitch_env \$2;
#X obj 557 647 ttbf;
#X obj 37 717 imp_osc_a~ \$1 osc_a \$2;
#X obj 767 707 vv_mqu \$1 noise_noenv \$2;
#X obj 757 737 tline~;
#X obj 37 497 freq_mod~;
#X obj 207 557 +~ -8.175;
#X obj 207 497 ar_pa_vv_mqu~ \$1 pitch_env \$2 128;
#X obj 207 527 mtof~;
#X obj 87 357 vlinesc~;
#X obj 37 357 *;
#X obj 57 327 r \$1_osc_a_pitched;
#X obj 417 337 ptbf;
#X obj 437 307 vv_mhx \$1 osc_b_pitch \$2;
#X obj 417 457 vlinesc~;
#X obj 417 367 mtof;
#X obj 467 337 vv_mhx4 \$1 osc_b_glide \$2;
#X obj 467 367 + 3;
#X obj 477 527 vlinesc~;
#X obj 477 497 vv_mhx \$1 osc_b_freq \$2;
#X obj 417 427 *;
#X obj 437 397 r \$1_osc_b_pitched;
#X obj 87 297 vv_mqu \$1 osc_a_freq \$2;
#X connect 0 0 2 0;
#X connect 0 0 45 0;
#X connect 1 0 2 1;
#X connect 2 0 3 0;
#X connect 3 0 43 0;
#X connect 4 0 8 0;
#X connect 4 1 0 0;
#X connect 5 0 10 1;
#X connect 6 0 28 1;
#X connect 7 0 6 1;
#X connect 8 0 9 0;
#X connect 9 0 6 0;
#X connect 9 0 10 0;
#X connect 10 0 35 1;
#X connect 11 0 4 0;
#X connect 13 0 23 0;
#X connect 15 0 38 0;
#X connect 16 0 17 0;
#X connect 17 0 15 1;
#X connect 18 0 19 0;
#X connect 19 0 38 2;
#X connect 21 0 35 0;
#X connect 22 0 28 0;
#X connect 23 0 29 0;
#X connect 23 0 37 0;
#X connect 24 0 25 0;
#X connect 25 0 34 0;
#X connect 26 0 27 1;
#X connect 27 0 23 1;
#X connect 28 0 14 0;
#X connect 28 0 38 1;
#X connect 29 0 20 0;
#X connect 30 0 29 1;
#X connect 31 0 34 1;
#X connect 32 0 22 1;
#X connect 33 0 21 1;
#X connect 34 0 27 0;
#X connect 35 0 12 0;
#X connect 36 0 37 1;
#X connect 37 0 20 0;
#X connect 38 0 35 0;
#X connect 39 0 21 0;
#X connect 39 0 22 0;
#X connect 40 0 24 0;
#X connect 40 0 41 0;
#X connect 41 0 39 0;
#X connect 42 0 38 0;
#X connect 43 0 15 0;
#X connect 44 0 43 1;
#X connect 45 0 48 0;
#X connect 46 0 45 1;
#X connect 47 0 28 0;
#X connect 48 0 53 0;
#X connect 49 0 50 0;
#X connect 50 0 47 1;
#X connect 51 0 28 0;
#X connect 52 0 51 0;
#X connect 53 0 47 0;
#X connect 54 0 53 1;
#X connect 55 0 42 0;
#X restore 17 167 pd osc;
#N canvas 270 77 941 520 filt 0;
#X obj 37 37 inlet~;
#X obj 237 37 inlet~;
#X obj 97 167 tline~;
#X obj 157 167 vv_mqu \$1 dry_amp \$2;
#X obj 137 287 outlet~;
#X obj 717 37 inlet;
#X obj 437 37 inlet~;
#X text 38 20 Osc A;
#X text 438 20 Noise;
#X text 238 20 Osc B;
#X text 718 20 Pitch;
#X obj 37 67 imp_filt_send~ \$1 osc_a \$2;
#X obj 237 67 imp_filt_send~ \$1 osc_b \$2;
#X obj 437 67 imp_filt_send~ \$1 noise \$2;
#X obj 567 347 tline~;
#X obj 757 197 *;
#X obj 567 287 hip~;
#X obj 567 257 hip~;
#X obj 617 227 ptbf;
#X obj 797 167 r \$1_filt2_pitch_follow;
#X obj 587 317 vv_mqu \$1 filt2_amp \$2;
#X obj 617 197 vv_mqu \$1 filt2_freq \$2;
#X obj 567 167 rr~ \$1 filt2 \$2;
#X obj 327 167 imp_filt~ \$1 filt1 \$2;
#X connect 0 0 11 0;
#X connect 1 0 12 0;
#X connect 2 0 4 0;
#X connect 3 0 2 1;
#X connect 5 0 15 0;
#X connect 5 0 23 1;
#X connect 6 0 13 0;
#X connect 11 0 2 0;
#X connect 11 1 23 0;
#X connect 11 2 22 0;
#X connect 12 0 2 0;
#X connect 12 1 23 0;
#X connect 12 2 22 0;
#X connect 13 0 2 0;
#X connect 13 1 23 0;
#X connect 13 2 22 0;
#X connect 14 0 4 0;
#X connect 15 0 18 1;
#X connect 16 0 14 0;
#X connect 17 0 16 0;
#X connect 18 0 17 1;
#X connect 18 0 16 1;
#X connect 19 0 15 1;
#X connect 20 0 14 1;
#X connect 21 0 18 0;
#X connect 22 0 17 0;
#X connect 23 0 4 0;
#X connect 23 1 22 0;
#X restore 17 197 pd filt;
#X obj 257 137 / -127;
#X obj 257 167 + 1;
#X obj 257 197 -;
#X obj 67 137 mtof;
#X obj 317 107 vv_mqu \$1 amp_pitch_follow \$2;
#X obj 317 137 moses 1;
#X obj 367 187 b;
#X obj 367 217 f 1;
#X obj 257 257 *;
#X obj 257 287 + 1;
#X obj 17 317 tline~;
#X obj 77 167 mqu_engine \$1 \$2;
#X connect 0 0 20 0;
#X connect 1 0 0 1;
#X connect 2 0 3 0;
#X connect 3 0 4 0;
#X connect 3 1 5 1;
#X connect 4 0 5 0;
#X connect 4 0 10 0;
#X connect 4 0 13 0;
#X connect 5 0 8 0;
#X connect 5 0 21 0;
#X connect 7 0 4 1;
#X connect 8 0 9 0;
#X connect 8 1 9 1;
#X connect 8 2 9 2;
#X connect 9 0 0 0;
#X connect 10 0 11 0;
#X connect 11 0 12 0;
#X connect 12 0 18 0;
#X connect 13 0 9 3;
#X connect 14 0 15 0;
#X connect 14 0 18 1;
#X connect 15 0 12 1;
#X connect 15 1 16 0;
#X connect 16 0 17 0;
#X connect 17 0 12 1;
#X connect 18 0 19 0;
#X connect 19 0 20 1;
#X connect 20 0 6 0;
