#N canvas 660 289 388 285 10;
#X obj 127 117 vv_file_vvc \$1;
#N canvas 50 74 906 385 osc 0;
#X obj 17 17 nbx_4m_vvc \$1 pitch;
#X obj 17 147 hslxnbx_4m_vvc \$1 fm;
#N canvas 0 50 994 584 osc_b 0;
#X obj 37 37 imp_osc_vvc \$1 osc_b;
#X restore 87 337 pd osc_b;
#N canvas 0 50 996 553 osc_a 0;
#X obj 37 37 imp_osc_a_vvc \$1 osc_a;
#X restore 17 337 pd osc_a;
#N canvas 0 50 933 553 noise 0;
#X obj 17 7 hsl_4m_vvc \$1 noise_ds;
#X obj 17 137 ar_ppa_vvc_mqu \$1 noise_env;
#X obj 247 7 hsl_4m_vvc \$1 noise_ds_pitch_env;
#X obj 457 417 hsl_4m_vvc \$1 noise_filt2;
#X obj 237 417 hsl_4m_vvc \$1 noise_filt1;
#X obj 17 417 hsl_4m_vvc \$1 noise_dry;
#X obj 637 287 hsl_4m_vvc \$1 noise_noenv;
#X restore 157 337 pd noise;
#X obj 217 17 ar_pa_vvc_mqu \$1 pitch_env;
#X restore 117 77 pd osc;
#N canvas 42 125 962 602 filt+amp 0;
#X obj 17 37 imp_filt_vvc \$1 filt1;
#X obj 477 527 hslxnbx_4m_vvc \$1 filt2_amp 1 1;
#X obj 577 737 hsl_4m_vvc \$1 amp_pitch_follow 1;
#X obj 7 737 adsr_pa_vvc_mqu \$1 amp_env;
#X obj 247 667 hsl_vvc \$1 filt2_pitch_follow 1;
#X obj 667 397 hslxnbx_4m_vvc \$1 filt1_to_filt2 1 1;
#X obj 17 517 hslxnbx_4m_vvc \$1 dry_amp 1 1;
#X obj 247 527 hslxnbx_4m_vvc \$1 filt2_freq 555 1;
#X text 725 579 dry;
#X text 745 699 amp_env;
#X text 765 669 V;
#X text 765 679 V;
#X text 765 689 V;
#X text 735 599 V;
#X text 735 609 V;
#X text 735 619 V;
#X text 765 609 V;
#X text 765 619 V;
#X text 875 609 V;
#X text 875 619 V;
#X text 875 599 V;
#X text 755 579 vcf~;
#X text 865 579 hip~;
#X text 242 506 hip~;
#X text 735 629 V;
#X text 735 639 V;
#X text 735 649 V;
#X text 875 629 V;
#X text 875 639 V;
#X text 875 649 V;
#X text 765 629 V;
#X text 765 639 V;
#X text 765 649 V;
#X text 735 659 >>>>>V<<<<<<<<<<<<<<<<<<;
#X text 755 569 filt1;
#X text 865 569 filt2;
#X text 725 549 Output:;
#X text 765 599 V;
#X text 765 589 V>filt1_to_filt2^;
#X restore 167 77 pd filt+amp;
#X text 159 52 Mod type: mqu;
#X text 249 82 4-macro;
#X text 249 62 2-velocity;
#X text 249 52 1-pitch;
#X text 249 72 3-random (per voice);
