#N canvas 0 0 450 300 10;
#X obj 307 97 r \$1_\$2_env;
#X obj 287 127 tline~;
#X obj 77 197 outlet~;
#X obj 167 127 tline~;
#X obj 187 97 r \$1_\$2_pitch;
#X obj 77 97 r \$1_\$2_freq;
#X obj 77 127 vline~;
#X obj 167 67 r~ \$1_\$3_pitch;
#X obj 287 67 r~ \$1_\$3_filt_env;
#X text 186 217 \$1 parent name;
#X text 186 257 \$3 voice;
#X text 186 237 \$2 filter name;
#X connect 0 0 1 1;
#X connect 1 0 2 0;
#X connect 3 0 2 0;
#X connect 4 0 3 1;
#X connect 5 0 6 0;
#X connect 6 0 2 0;
#X connect 7 0 3 0;
#X connect 8 0 1 0;
