#N canvas 0 0 501 321 10;
#X obj 77 157 outlet~;
#X obj 77 127 tline~;
#X obj 77 67 inlet~;
#X obj 177 157 outlet~;
#X obj 177 127 tline~;
#X obj 197 97 r \$1_\$2_lp;
#X obj 97 97 r \$1_\$2_dry;
#X obj 267 157 outlet~;
#X obj 267 127 tline~;
#X obj 367 157 outlet~;
#X obj 367 127 tline~;
#X obj 287 97 r \$1_\$2_hp;
#X obj 387 97 r \$1_\$2_bp;
#X text 186 217 \$1 parent name;
#X text 186 237 \$2 source;
#X connect 1 0 0 0;
#X connect 2 0 1 0;
#X connect 2 0 4 0;
#X connect 2 0 8 0;
#X connect 2 0 10 0;
#X connect 4 0 3 0;
#X connect 5 0 4 1;
#X connect 6 0 1 1;
#X connect 8 0 7 0;
#X connect 10 0 9 0;
#X connect 11 0 8 1;
#X connect 12 0 10 1;
