#N canvas -8 -8 1280 677 10;
#X obj 32 109 stripnote;
#X obj 32 229 mtof;
#X obj 32 389 sintanh_unimod~;
#X obj 32 319 vlinesc~;
#X obj 72 259 * 990;
#X obj 72 289 + 10;
#X obj 352 289 *~;
#X obj 352 259 noise~;
#X obj 32 499 *~;
#X obj 32 629 outlet~;
#X obj 32 19 inlet;
#X obj 32 199 + -12;
#X obj 72 529 r \$1_preamp;
#X obj 72 229 r \$1_glide;
#X obj 132 329 r \$1_mod;
#X obj 132 359 * 0.1;
#X obj 62 139 r \$1_pitch;
#X obj 62 79 s \$1_\$2_nv;
#X obj 182 459 adsr_pa_vv~ \$1 amp_env \$2;
#X obj 162 289 ar_pa_vv~ \$1 pitch_env \$2;
#X obj 412 259 ar_pa_vv~ \$1 noise_env \$2;
#X obj 32 169 ptbf;
#X obj 32 599 tanhx~;
#X obj 32 559 *~;
#X obj 32 49 t a a;
#X connect 0 0 21 0;
#X connect 1 0 3 0;
#X connect 2 0 8 0;
#X connect 3 0 2 0;
#X connect 4 0 5 0;
#X connect 5 0 3 1;
#X connect 6 0 8 0;
#X connect 7 0 6 0;
#X connect 8 0 23 0;
#X connect 10 0 24 0;
#X connect 11 0 1 0;
#X connect 12 0 23 1;
#X connect 13 0 4 0;
#X connect 14 0 15 0;
#X connect 15 0 2 2;
#X connect 16 0 21 1;
#X connect 18 0 8 1;
#X connect 19 0 2 0;
#X connect 20 0 6 1;
#X connect 21 0 11 0;
#X connect 22 0 9 0;
#X connect 23 0 22 0;
#X connect 24 0 0 0;
#X connect 24 1 17 0;
