#N canvas -8 -8 1280 677 10;
#X obj 207 27 hslxnbx_vvc \$1 fm;
#X obj 27 327 nbx_vvc \$1 osc_a_freq 1111;
#X obj 27 557 nbx_vvc \$1 osc_b_freq 1111;
#X obj 197 557 nbx_vvc \$1 b_amp 500;
#X obj 197 327 nbx_vvc \$1 a_amp 50;
#X obj 207 97 hsl_vvc \$1 random_pitch;
#X obj 27 167 adsr_pa_vvc \$1 osc_a_env;
#X obj 27 397 adsr_pa_vvc \$1 osc_b_env;
#X obj 27 627 adsr_pa_vvc \$1 noise_env;
#X obj 487 167 hslxnbx_vvc \$1 osc_a_dry 1 1;
#X obj 487 637 hslxnbx_vvc \$1 noise_dry 1 1;
#X obj 487 707 hslxnbx_vvc \$1 noise_hp 1 1;
#X obj 677 707 hslxnbx_vvc \$1 noise_bp 1 1;
#X obj 677 637 hslxnbx_vvc \$1 noise_lp 1 1;
#X obj 707 467 hslxnbx_vvc \$1 osc_b_bp 1 1;
#X obj 707 397 hslxnbx_vvc \$1 osc_b_lp 1 1;
#X obj 487 467 hslxnbx_vvc \$1 osc_b_hp 1 1;
#X obj 487 397 hslxnbx_vvc \$1 osc_b_dry 1 1;
#X obj 487 237 hslxnbx_vvc \$1 osc_a_hp 1 1;
#X obj 697 237 hslxnbx_vvc \$1 osc_a_bp 1 1;
#X obj 697 167 hslxnbx_vvc \$1 osc_a_lp 1 1;
#X obj 367 27 vv_file_vvc \$1;
#X obj 197 1037 hslxnbx_vvc \$1 lp_freq 10000 1;
#X obj 197 1097 hslxnbx_vvc \$1 lp_env;
#X obj 427 1037 hslxnbx_vvc \$1 hp_freq 10000 1;
#X obj 427 1097 hslxnbx_vvc \$1 hp_env;
#X obj 647 1037 hslxnbx_vvc \$1 bp_freq 10000 1;
#X obj 647 1097 hslxnbx_vvc \$1 bp_env;
#X obj 787 977 hslxnbx_vvc \$1 bp_q 3 0.5;
#X obj 197 977 hslxnbx_vvc \$1 lp;
#X obj 27 977 hslxnbx_vvc \$1 dry 1 1;
#X obj 427 977 hslxnbx_vvc \$1 hp;
#X obj 647 1167 hslxnbx_vvc \$1 bp_pitch;
#X obj 197 1167 hslxnbx_vvc \$1 lp_pitch;
#X obj 427 1167 hslxnbx_vvc \$1 hp_pitch;
#X obj 27 97 nbx_vvc \$1 pitch;
#X obj 27 807 ar_pa_vvc \$1 filt_env;
#X obj 27 27 hslxnbx_vvc \$1 amp 1 1;
#X obj 647 977 hslxnbx_vvc \$1 bp;
#X obj 797 1187 nbx_vvc \$1 poles 2;
#X text 775 829 dry;
#X text 815 919 V;
#X text 815 929 V;
#X text 815 939 V;
#X text 785 849 V;
#X text 785 859 V;
#X text 785 869 V;
#X text 815 849 V;
#X text 815 899 V;
#X text 775 809 Output:;
#X text 815 829 lp;
#X text 815 879 hp;
#X text 845 849 V;
#X text 845 859 V;
#X text 845 869 V;
#X text 845 829 bp;
#X text 785 909 >>>>>V<<<<<;
#X text 815 859 V;
#X text 785 879 V;
#X text 785 889 V;
#X text 785 899 V;
#X text 845 879 V;
#X text 845 889 V;
#X text 845 899 V;
#X text 815 949 Out;
#X text 25 149 Osc Type: Sine;
#X text 25 379 Osc Type: Sine;
