#N canvas -8 -8 1278 675 10;
#X obj 267 447 osc~;
#X obj 167 197 mtof;
#X obj 267 567 *~;
#X obj 167 107 stripnote;
#X obj 267 327 vlinesc~;
#X obj 537 447 osc~;
#X obj 537 567 *~;
#X obj 807 567 *~;
#X obj 807 537 noise~;
#X obj 267 417 freq_mod~;
#X obj 287 387 r \$1_fm;
#X obj 537 417 vlinesc~;
#X obj 537 387 r \$1_osc_b_freq;
#X obj 267 297 r \$1_osc_a_freq;
#X obj 307 447 r \$1_a_amp;
#X obj 267 477 tline~;
#X obj 537 477 tline~;
#X obj 577 447 r \$1_b_amp;
#X obj 267 507 tanhx~;
#X obj 167 377 vlinesc~;
#X obj 167 17 inlet;
#X obj 167 227 *;
#X obj 207 197 r \$1_random_pitch;
#X obj 167 287 random;
#X obj 167 257 t b a;
#X obj 167 317 -;
#X obj 107 287 * 0.5;
#X obj 167 347 ptbf;
#X obj 197 77 s \$1_\$2_nv;
#X obj 537 507 tanhx~;
#X obj 287 537 adsr_pa_vv~ \$1 osc_a_env \$2;
#X obj 557 537 adsr_pa_vv~ \$1 osc_b_env \$2;
#X obj 857 537 adsr_pa_vv~ \$1 noise_env \$2;
#X obj 267 837 outlet~;
#X obj 267 747 tline~;
#X obj 287 717 r \$1_dry;
#X obj 677 747 tline~;
#X obj 697 717 r \$1_hp;
#X obj 677 807 hip~;
#X obj 937 747 tline~;
#X obj 957 717 r \$1_bp;
#X obj 997 777 r \$1_bp_q;
#X obj 417 747 tline~;
#X obj 477 779 ssam~;
#X obj 417 807 lop~;
#X obj 437 717 r \$1_lp;
#X obj 737 777 ssam~;
#X obj 37 597 ar_pa_vv~ \$1 filt_env \$2;
#X obj 997 747 multi_filt_control~ \$1 bp \$2;
#X obj 267 597 multi_filt_sends~ \$1 osc_a;
#X obj 37 627 s~ \$1_\$2_filt_env;
#X obj 737 747 multi_filt_control~ \$1 hp \$2;
#X obj 477 747 multi_filt_control~ \$1 lp \$2;
#X obj 537 597 multi_filt_sends~ \$1 osc_b;
#X obj 807 597 multi_filt_sends~ \$1 noise;
#X obj 147 467 s~ \$1_\$2_pitch;
#X obj 167 167 +;
#X obj 187 137 r \$1_pitch;
#X obj 937 807 vcf_np~ 2;
#X obj 167 47 t a a;
#X obj 1067 777 r \$1_poles;
#X connect 0 0 15 0;
#X connect 1 0 21 0;
#X connect 1 0 27 1;
#X connect 2 0 49 0;
#X connect 3 0 56 0;
#X connect 4 0 9 0;
#X connect 5 0 16 0;
#X connect 6 0 53 0;
#X connect 7 0 54 0;
#X connect 8 0 7 0;
#X connect 9 0 0 0;
#X connect 10 0 9 2;
#X connect 11 0 5 0;
#X connect 12 0 11 0;
#X connect 13 0 4 0;
#X connect 14 0 15 1;
#X connect 15 0 18 0;
#X connect 16 0 29 0;
#X connect 17 0 16 1;
#X connect 18 0 2 0;
#X connect 19 0 0 0;
#X connect 19 0 5 0;
#X connect 19 0 55 0;
#X connect 20 0 59 0;
#X connect 21 0 24 0;
#X connect 21 0 26 0;
#X connect 22 0 21 1;
#X connect 23 0 25 0;
#X connect 24 0 23 0;
#X connect 24 1 23 1;
#X connect 25 0 27 0;
#X connect 26 0 25 1;
#X connect 27 0 19 0;
#X connect 29 0 6 0;
#X connect 29 0 9 1;
#X connect 30 0 2 1;
#X connect 31 0 6 1;
#X connect 32 0 7 1;
#X connect 34 0 33 0;
#X connect 35 0 34 1;
#X connect 36 0 38 0;
#X connect 37 0 36 1;
#X connect 38 0 33 0;
#X connect 39 0 58 0;
#X connect 40 0 39 1;
#X connect 41 0 58 2;
#X connect 42 0 44 0;
#X connect 43 0 44 1;
#X connect 44 0 36 0;
#X connect 45 0 42 1;
#X connect 46 0 38 1;
#X connect 47 0 50 0;
#X connect 48 0 58 1;
#X connect 49 0 34 0;
#X connect 49 1 42 0;
#X connect 49 2 36 0;
#X connect 49 3 39 0;
#X connect 51 0 46 0;
#X connect 52 0 43 0;
#X connect 53 0 34 0;
#X connect 53 1 42 0;
#X connect 53 2 36 0;
#X connect 53 3 39 0;
#X connect 54 0 34 0;
#X connect 54 1 42 0;
#X connect 54 2 36 0;
#X connect 54 3 39 0;
#X connect 56 0 1 0;
#X connect 57 0 56 1;
#X connect 58 0 33 0;
#X connect 59 0 3 0;
#X connect 59 1 28 0;
#X connect 60 0 58 3;
