#N canvas 656 78 1028 645 10;
#X obj 87 67 t a a a;
#X obj 327 197 osc~;
#X obj 87 157 mtof;
#X obj 327 317 *~;
#X obj 87 127 stripnote;
#X obj 327 77 vlinesc~;
#X obj 597 137 osc~;
#X obj 597 257 *~;
#X obj 777 347 *~;
#X obj 777 317 noise~;
#X obj 327 167 freq_mod~;
#X obj 327 527 outlet~;
#X obj 347 137 r \$1_fm;
#X obj 597 107 vlinesc~;
#X obj 597 77 r \$1_osc_b_freq;
#X obj 327 47 r \$1_osc_a_freq;
#X obj 367 197 r \$1_a_amp;
#X obj 327 227 tline~;
#X obj 597 167 tline~;
#X obj 637 137 r \$1_b_amp;
#X obj 327 257 tanhx~;
#X obj 327 497 tline~;
#X obj 347 467 r \$1_amp;
#X obj 237 107 vlinesc~;
#X obj 87 37 inlet;
#X obj 87 187 *;
#X obj 127 157 r \$1_random_pitch;
#X obj 87 247 random;
#X obj 87 217 t b a;
#X obj 87 277 -;
#X obj 27 247 * 0.5;
#X obj 237 77 ptbf;
#X obj 117 97 s \$1_\$2_nv;
#X obj 237 47 r \$1_freq;
#X obj 327 407 hip~ 555;
#X obj 597 197 tanhx~;
#X obj 327 437 *~ 0.333;
#X obj 347 287 adsr_pa_vv~ \$1 osc_a_env \$2;
#X obj 617 227 adsr_pa_vv~ \$1 osc_b_env \$2;
#X obj 827 317 adsr_pa_vv~ \$1 noise_env \$2;
#X obj 597 347 tline~;
#X obj 617 317 r \$1_osc_b;
#X obj 327 377 tline~;
#X obj 347 347 r \$1_osc_a;
#X connect 0 0 4 0;
#X connect 0 1 32 0;
#X connect 1 0 17 0;
#X connect 2 0 25 0;
#X connect 3 0 42 0;
#X connect 4 0 2 0;
#X connect 5 0 10 0;
#X connect 6 0 18 0;
#X connect 7 0 10 1;
#X connect 7 0 40 0;
#X connect 8 0 34 0;
#X connect 9 0 8 0;
#X connect 10 0 1 0;
#X connect 12 0 10 2;
#X connect 13 0 6 0;
#X connect 14 0 13 0;
#X connect 15 0 5 0;
#X connect 16 0 17 1;
#X connect 17 0 20 0;
#X connect 18 0 35 0;
#X connect 19 0 18 1;
#X connect 20 0 3 0;
#X connect 21 0 11 0;
#X connect 22 0 21 1;
#X connect 23 0 1 0;
#X connect 23 0 6 0;
#X connect 24 0 0 0;
#X connect 25 0 28 0;
#X connect 25 0 30 0;
#X connect 26 0 25 1;
#X connect 27 0 29 0;
#X connect 28 0 27 0;
#X connect 28 1 27 1;
#X connect 29 0 31 0;
#X connect 30 0 29 1;
#X connect 31 0 23 0;
#X connect 33 0 31 1;
#X connect 34 0 36 0;
#X connect 35 0 7 0;
#X connect 36 0 21 0;
#X connect 37 0 3 1;
#X connect 38 0 7 1;
#X connect 39 0 8 1;
#X connect 40 0 34 0;
#X connect 41 0 40 1;
#X connect 42 0 34 0;
#X connect 43 0 42 1;
