#N canvas 0 0 1034 647 10;
#X obj 17 207 ar_pa_vvc \$1 pitch_env;
#X obj 327 207 ar_pa_vvc \$1 osc_b_env;
#X obj 327 27 ar_pa_vvc \$1 osc_a_env;
#X obj 17 37 hslxnbx_vvc \$1 fm;
#X obj 17 107 nbx_vvc \$1 pitch;
#X obj 327 387 ar_pa_vvc \$1 noise_env;
#X obj 17 387 ar_pa_vvc \$1 filt_env;
#X obj 17 697 hslxnbx_vvc \$1 lp_freq 10000;
#X obj 17 757 hslxnbx_vvc \$1 lp_env;
#X obj 247 697 hslxnbx_vvc \$1 hp_freq 10000;
#X obj 247 757 hslxnbx_vvc \$1 hp_env;
#X obj 467 697 hslxnbx_vvc \$1 bp_freq 10000;
#X obj 467 757 hslxnbx_vvc \$1 bp_env;
#X obj 607 637 hslxnbx_vvc \$1 bp_q 3 0.5;
#X obj 637 27 hslxnbx_vvc \$1 osc_a_dry 1 1;
#X obj 17 637 hslxnbx_vvc \$1 lp;
#X obj 17 567 hslxnbx_vvc \$1 dry 1 1;
#X obj 247 637 hslxnbx_vvc \$1 hp;
#X obj 467 637 hslxnbx_vvc \$1 bp;
#X obj 467 827 hslxnbx_vvc \$1 bp_pitch;
#X obj 17 827 hslxnbx_vvc \$1 lp_pitch;
#X obj 247 827 hslxnbx_vvc \$1 hp_pitch;
#X obj 637 387 hslxnbx_vvc \$1 noise_dry 1 1;
#X obj 637 457 hslxnbx_vvc \$1 noise_hp 1 1;
#X obj 817 457 hslxnbx_vvc \$1 noise_bp 1 1;
#X obj 817 387 hslxnbx_vvc \$1 noise_lp 1 1;
#X obj 817 277 hslxnbx_vvc \$1 osc_b_bp 1 1;
#X obj 817 207 hslxnbx_vvc \$1 osc_b_lp 1 1;
#X obj 637 277 hslxnbx_vvc \$1 osc_b_hp 1 1;
#X obj 637 207 hslxnbx_vvc \$1 osc_b_dry 1 1;
#X obj 637 97 hslxnbx_vvc \$1 osc_a_hp 1 1;
#X obj 817 97 hslxnbx_vvc \$1 osc_a_bp 1 1;
#X obj 817 27 hslxnbx_vvc \$1 osc_a_lp 1 1;
#X obj 177 37 vv_file_vvc \$1;
#X text 805 589 dry;
#X text 845 649 V;
#X text 845 659 V;
#X text 845 669 V;
#X text 815 609 V;
#X text 815 619 V;
#X text 815 629 V;
#X text 835 609 V;
#X text 835 619 V;
#X text 835 629 V;
#X text 855 609 V;
#X text 855 619 V;
#X text 855 629 V;
#X text 805 569 Output:;
#X text 835 589 lp;
#X text 855 589 hp;
#X text 875 609 V;
#X text 875 619 V;
#X text 875 629 V;
#X text 875 589 bp;
#X text 815 639 >>>>>V<<<<<;
#X text 845 679 Out;
#X text 325 11 Osc Type: Sine;
#X text 325 191 Osc Type: Sine;
