#N canvas 0 0 1094 681 10;
#X obj 67 87 t a a a;
#X obj 67 487 osc~;
#X obj 67 247 mtof;
#X obj 67 517 *~;
#X obj 67 157 stripnote;
#X obj 67 277 vlinesc~;
#X obj 347 487 osc~;
#X obj 347 517 *~;
#X obj 347 457 +~ 50;
#X obj 607 487 *~;
#X obj 607 457 noise~;
#X obj 67 367 freq_mod~;
#X obj 87 337 r \$1_fm;
#X obj 607 517 hip~ 333;
#X obj 67 57 inlet;
#X obj 117 487 ar_pa_vv~ \$1 osc_a_env \$2;
#X obj 307 367 ar_pa_vv~ \$1 pitch_env \$2;
#X obj 397 487 ar_pa_vv~ \$1 osc_b_env \$2;
#X obj 657 457 ar_pa_vv~ \$1 noise_env \$2;
#X obj 67 857 outlet~;
#X obj 87 127 s \$1_\$2_nv;
#X obj 87 187 r \$1_pitch;
#X obj 67 217 ptbf;
#X obj 67 697 tline~;
#X obj 87 667 r \$1_dry;
#X obj 477 697 tline~;
#X obj 497 667 r \$1_hp;
#X obj 477 757 hip~;
#X obj 737 697 tline~;
#X obj 757 667 r \$1_bp;
#X obj 817 727 r \$1_bp_q;
#X obj 217 697 tline~;
#X obj 277 729 ssam~;
#X obj 217 757 lop~;
#X obj 237 667 r \$1_lp;
#X obj 537 727 ssam~;
#X obj 847 517 ar_pa_vv~ \$1 filt_env \$2;
#X obj 817 697 multi_filt_control~ \$1 bp \$2;
#X obj 67 547 multi_filt_sends~ \$1 osc_a;
#X obj 127 307 s~ \$1_\$2_pitch;
#X obj 847 547 s~ \$1_\$2_filt_env;
#X obj 537 697 multi_filt_control~ \$1 hp \$2;
#X obj 277 697 multi_filt_control~ \$1 lp \$2;
#X obj 347 547 multi_filt_sends~ \$1 osc_b;
#X obj 607 547 multi_filt_sends~ \$1 noise;
#X obj 737 757 vcf_np~ 2;
#X obj 887 727 r \$1_poles;
#X connect 0 0 4 0;
#X connect 0 1 20 0;
#X connect 1 0 3 0;
#X connect 2 0 5 0;
#X connect 3 0 38 0;
#X connect 4 0 22 0;
#X connect 5 0 8 0;
#X connect 5 0 11 0;
#X connect 5 0 39 0;
#X connect 6 0 7 0;
#X connect 7 0 11 1;
#X connect 7 0 43 0;
#X connect 8 0 6 0;
#X connect 9 0 13 0;
#X connect 10 0 9 0;
#X connect 11 0 1 0;
#X connect 12 0 11 2;
#X connect 13 0 44 0;
#X connect 14 0 0 0;
#X connect 15 0 3 1;
#X connect 16 0 1 0;
#X connect 16 0 8 0;
#X connect 17 0 7 1;
#X connect 18 0 9 1;
#X connect 21 0 22 1;
#X connect 22 0 2 0;
#X connect 23 0 19 0;
#X connect 24 0 23 1;
#X connect 25 0 27 0;
#X connect 26 0 25 1;
#X connect 27 0 19 0;
#X connect 28 0 45 0;
#X connect 29 0 28 1;
#X connect 30 0 45 2;
#X connect 31 0 33 0;
#X connect 32 0 33 1;
#X connect 33 0 19 0;
#X connect 34 0 31 1;
#X connect 35 0 27 1;
#X connect 36 0 40 0;
#X connect 37 0 45 1;
#X connect 38 0 23 0;
#X connect 38 1 31 0;
#X connect 38 2 25 0;
#X connect 38 3 28 0;
#X connect 41 0 35 0;
#X connect 42 0 32 0;
#X connect 43 0 23 0;
#X connect 43 1 31 0;
#X connect 43 2 25 0;
#X connect 43 3 28 0;
#X connect 44 0 23 0;
#X connect 44 1 31 0;
#X connect 44 2 25 0;
#X connect 44 3 28 0;
#X connect 45 0 19 0;
#X connect 46 0 45 3;
