#N canvas 169 50 613 462 10;
#X obj 17 227 *~;
#X obj 17 17 inlet;
#X obj 17 47 unpack;
#X obj 17 77 +;
#X obj 17 107 pack;
#X obj 257 197 tline~;
#X obj 257 227 +~ 1;
#X obj 17 287 outlet~;
#X obj 17 257 *~;
#N canvas 131 50 857 651 osc 1;
#X obj 127 87 stripnote;
#X obj 37 447 freq_mod~;
#X obj 37 297 ptbf;
#X obj 257 297 ptbf;
#X obj 37 387 mtof;
#X obj 37 417 vlinesc~;
#X obj 257 417 vlinesc~;
#X obj 257 387 mtof;
#X obj 37 57 t a a;
#X obj 117 207 r \$1_osc_a_reset;
#X obj 407 237 spigot;
#X obj 437 207 r \$1_osc_b_reset;
#X obj 37 117 stripnote;
#X obj 37 147 * 0;
#X obj 87 237 spigot;
#X obj 37 27 inlet;
#X obj 37 567 outlet~;
#X obj 397 537 tline~;
#X obj 397 447 noise~;
#X obj 176 297 r \$1_pb;
#X obj 37 327 ptbf;
#X obj 257 327 ptbf;
#X obj 37 477 osc~;
#X obj 257 447 osc~;
#X obj 277 267 r \$1_osc_b_pitch;
#X obj 57 267 r \$1_osc_a_pitch;
#X obj 86 387 r \$1_fm;
#X obj 417 507 r \$1_noise_dry_amp;
#X obj 57 507 r \$1_osc_a_amp;
#X obj 37 537 tline~;
#X obj 257 537 tline~;
#X obj 277 507 r \$1_osc_b_amp;
#X connect 0 0 2 0;
#X connect 0 0 3 0;
#X connect 1 0 22 0;
#X connect 2 0 20 0;
#X connect 3 0 21 0;
#X connect 4 0 5 0;
#X connect 5 0 1 0;
#X connect 6 0 23 0;
#X connect 7 0 6 0;
#X connect 8 0 12 0;
#X connect 8 1 0 0;
#X connect 9 0 14 1;
#X connect 10 0 23 1;
#X connect 11 0 10 1;
#X connect 12 0 13 0;
#X connect 13 0 10 0;
#X connect 13 0 14 0;
#X connect 14 0 22 1;
#X connect 15 0 8 0;
#X connect 17 0 16 0;
#X connect 18 0 17 0;
#X connect 19 0 20 1;
#X connect 19 0 21 1;
#X connect 20 0 4 0;
#X connect 21 0 7 0;
#X connect 22 0 29 0;
#X connect 23 0 30 0;
#X connect 23 0 1 1;
#X connect 24 0 3 1;
#X connect 25 0 2 1;
#X connect 26 0 1 2;
#X connect 27 0 17 1;
#X connect 28 0 29 1;
#X connect 29 0 16 0;
#X connect 30 0 16 0;
#X connect 31 0 30 1;
#X restore 17 137 pd osc;
#X obj 257 107 / -127;
#X obj 257 137 + 1;
#X obj 257 167 -;
#X obj 297 137 r \$1_amp_pitch_follow;
#X obj 77 47 r \$1_pitch;
#X obj 37 197 adsr_pa_vv~ \$1 amp_env \$2;
#X obj 177 47 s \$1_\$2_nv;
#X connect 0 0 8 0;
#X connect 1 0 2 0;
#X connect 1 0 16 0;
#X connect 2 0 3 0;
#X connect 2 1 4 1;
#X connect 3 0 4 0;
#X connect 3 0 10 0;
#X connect 4 0 9 0;
#X connect 5 0 6 0;
#X connect 6 0 8 1;
#X connect 8 0 7 0;
#X connect 9 0 0 0;
#X connect 10 0 11 0;
#X connect 11 0 12 0;
#X connect 12 0 5 0;
#X connect 13 0 5 1;
#X connect 13 0 12 1;
#X connect 14 0 3 1;
#X connect 15 0 0 1;
