#N canvas 434 88 692 544 10;
#X obj 32 109 stripnote;
#X obj 32 229 mtof;
#X obj 32 319 vlinesc~;
#X obj 72 259 * 990;
#X obj 72 289 + 10;
#X obj 122 539 *~;
#X obj 122 509 noise~;
#X obj 32 589 *~;
#X obj 32 789 outlet~;
#X obj 32 19 inlet;
#X obj 72 229 r \$1_glide;
#X obj 172 389 r \$1_mod;
#X obj 62 139 r \$1_pitch;
#X obj 42 79 s \$1_\$2_nv;
#X obj 122 569 adsr_pa_vv~ \$1 amp_env \$2;
#X obj 142 269 ar_pa_vv~ \$1 pitch_env \$2;
#X obj 32 169 ptbf;
#X obj 172 419 vlinesc~;
#X obj 172 359 ar_pa_vv~ \$1 mod_env \$2;
#X obj 242 419 vlinesc~;
#X obj 242 389 r \$1_asym;
#X obj 332 409 r \$1_dry;
#X obj 402 409 r \$1_wet;
#X obj 72 699 r \$1_preamp;
#X obj 32 49 t a a;
#X obj 62 639 pitch_follow;
#X obj 32 669 tline~;
#X obj 2 619 rr;
#X obj 32 199 rr;
#X obj 182 509 adsr_pa_vv~ \$1 noise_env \$2;
#X obj 62 599 r \$1_amp_pitch_follow;
#X obj 32 759 tanhx~;
#X obj 32 729 tline~;
#X obj 32 509 satdw_cv~;
#X obj 32 389 hard_sync_phasor~;
#X obj 142 329 r \$1_sync;
#X connect 0 0 16 0;
#X connect 1 0 2 0;
#X connect 2 0 34 0;
#X connect 3 0 4 0;
#X connect 4 0 2 1;
#X connect 5 0 7 0;
#X connect 6 0 5 0;
#X connect 7 0 26 0;
#X connect 9 0 24 0;
#X connect 10 0 3 0;
#X connect 11 0 17 0;
#X connect 12 0 16 1;
#X connect 14 0 7 1;
#X connect 15 0 34 0;
#X connect 16 0 28 0;
#X connect 17 0 33 1;
#X connect 18 0 33 1;
#X connect 20 0 19 0;
#X connect 20 0 33 2;
#X connect 21 0 33 3;
#X connect 22 0 33 4;
#X connect 23 0 32 1;
#X connect 24 0 0 0;
#X connect 24 1 13 0;
#X connect 25 0 26 1;
#X connect 26 0 32 0;
#X connect 27 0 25 0;
#X connect 28 0 1 0;
#X connect 28 0 27 0;
#X connect 29 0 5 1;
#X connect 30 0 25 1;
#X connect 31 0 8 0;
#X connect 32 0 31 0;
#X connect 33 0 7 0;
#X connect 34 0 33 0;
#X connect 35 0 34 2;
