#N canvas 41 85 945 542 10;
#X obj 150 13 ar_pa_vvc \$1 pitch_env;
#X obj 10 193 hsl_vvc \$1 mod;
#X obj 10 63 hsl_vvc \$1 glide;
#X obj 10 433 vv_file_vvc \$1;
#X obj 220 373 adsr_pa_vvc \$1 amp_env;
#X obj 120 433 nbx_hide_vvc \$1 preamp 1;
#X obj 70 13 nbx_hide_vvc \$1 pitch;
#X obj 150 193 ar_pa_vvc \$1 mod_env;
#X obj 10 373 hsl_vvc \$1 amp_pitch_follow;
#X obj 650 263 hsl_vvc \$1 dry 0.5;
#X obj 650 313 hsl_vvc \$1 wet 0.5;
#X obj 470 263 hslxnbx_vvc \$1 asym 30 0;
#X obj 470 13 adsr_pa_vvc \$1 noise_env;
#X obj 470 193 hslxnbx_vvc \$1 sync 1 1;
#X text 11 112 monophony only;
#X text 651 242 For asym/tanh mod;
#X text 11 172 Mod: Sine<->Square;
#X coords 0 542 1 541 630 360 0;
