#N canvas 434 88 692 544 10;
#X obj 32 109 stripnote;
#X obj 32 229 mtof;
#X obj 32 319 vlinesc~;
#X obj 72 259 * 990;
#X obj 72 289 + 10;
#X obj 62 559 *~;
#X obj 32 609 *~;
#X obj 32 799 outlet~;
#X obj 32 19 inlet;
#X obj 62 139 vv_mhx \$1 pitch \$2;
#X obj 122 589 adsr_pa_vv_mhx~ \$1 amp_env \$2;
#X obj 142 269 ar_pa_vv_mhx~ \$1 pitch_env \$2;
#X obj 32 169 ptbf;
#X obj 152 359 vlinesc~;
#X obj 142 299 ar_pa_vv_mhx~ \$1 mod_env \$2;
#X obj 262 359 vlinesc~;
#X obj 32 49 t a a;
#X obj 62 659 pitch_follow;
#X obj 32 689 tline~;
#X obj 2 639 rr;
#X obj 32 199 rr;
#X obj 82 529 adsr_pa_vv_mhx~ \$1 noise_env \$2;
#X obj 62 469 noise~;
#X obj 62 499 downsample~;
#X obj 42 79 mhx_engine \$1 \$2;
#X obj 72 709 vv_mhx \$1 preamp \$2;
#X obj 62 619 vv_mhx \$1 amp_pitch_follow \$2;
#X obj 132 469 vv_mhx \$1 noise_ds \$2;
#X obj 452 359 vv_mhx \$1 wet \$2;
#X obj 342 359 vv_mhx \$1 dry \$2;
#X obj 262 329 vv_mhx \$1 asym \$2;
#X obj 152 329 vv_mhx \$1 mod \$2;
#X obj 72 229 vv_mhx4 \$1 glide \$2;
#X obj 32 769 tanhx~;
#X obj 32 739 tline~;
#X obj 32 439 satdw~;
#X connect 0 0 12 0;
#X connect 1 0 2 0;
#X connect 2 0 35 0;
#X connect 3 0 4 0;
#X connect 4 0 2 1;
#X connect 5 0 6 0;
#X connect 6 0 18 0;
#X connect 8 0 16 0;
#X connect 9 0 12 1;
#X connect 10 0 6 1;
#X connect 11 0 35 0;
#X connect 12 0 20 0;
#X connect 13 0 35 2;
#X connect 14 0 35 2;
#X connect 15 0 35 3;
#X connect 16 0 0 0;
#X connect 16 1 24 0;
#X connect 17 0 18 1;
#X connect 18 0 34 0;
#X connect 19 0 17 0;
#X connect 20 0 1 0;
#X connect 20 0 19 0;
#X connect 21 0 5 1;
#X connect 22 0 23 0;
#X connect 23 0 5 0;
#X connect 25 0 34 1;
#X connect 26 0 17 1;
#X connect 27 0 23 1;
#X connect 28 0 35 5;
#X connect 29 0 35 4;
#X connect 30 0 15 0;
#X connect 31 0 13 0;
#X connect 32 0 3 0;
#X connect 33 0 7 0;
#X connect 34 0 33 0;
#X connect 35 0 6 0;
