#N canvas 41 85 1034 542 10;
#X obj 240 103 ar_pa_vvc_mhx \$1 pitch_env;
#X obj 10 713 hsl_6m_vvc \$1 mod;
#X obj 10 13 vv_file_vvc \$1;
#X obj 10 1223 nbx_6m_vvc \$1 preamp 1;
#X obj 10 103 nbx_6m_vvc \$1 pitch;
#X obj 240 713 ar_pa_vvc_mhx \$1 mod_env;
#X obj 10 1113 hsl_6m_vvc \$1 amp_pitch_follow;
#X obj 10 353 adsr_pa_vvc_mhx \$1 noise_env;
#X obj 510 943 hsl_6m_vvc \$1 dry 0.5;
#X obj 740 943 hsl_6m_vvc \$1 wet 0.5;
#X obj 240 1113 adsr_pa_vvc_mhx \$1 amp_env;
#X obj 10 243 hsl_4m_vvc \$1 glide;
#X obj 580 353 hsl_6m_vvc \$1 noise_ds;
#X obj 120 13 mhx_engine_vvc \$1;
#X obj 240 943 hslxnbx_6m_vvc \$1 asym 30;
#X text 119 62 4-macro;
#X text 119 42 2-velocity;
#X text 119 52 3-random;
#X text 119 32 1-pitch;
#X text 119 72 5-AR Env;
#X text 119 82 6-LFO;
#X coords 0 542 1 541 630 360 0;
