#N canvas 660 289 388 285 10;
#X obj 127 117 vv_file_vvc \$1;
#N canvas 232 7 1019 665 osc 0;
#X obj 17 437 rhine_osc_vvc \$1 osc_a;
#X obj 707 437 rhine_osc_vvc \$1 osc_b;
#X obj 17 17 nbx_6m_vvc \$1 pitch;
#X obj 287 17 ar_pa_vvc_mhx \$1 pitch_env;
#X obj 687 307 hsl_6m_vvc \$1 noise_filt2;
#X obj 467 307 hsl_6m_vvc \$1 noise_filt1;
#X obj 247 307 hsl_6m_vvc \$1 noise_dry;
#X obj 17 307 hsl_6m_vvc \$1 noise_ds;
#X obj 17 147 hslxnbx_6m_vvc \$1 fm;
#X restore 167 77 pd osc;
#N canvas 32 50 901 602 filt+amp 0;
#X obj 17 367 hsl_6m_vvc \$1 dry_amp 1;
#X obj 577 477 hsl_vvc \$1 amp_pitch_follow 1;
#X obj 7 477 adsr_pa_vvc_mhx \$1 amp_env 0.75;
#X obj 247 7 rhine_filt_vvc \$1 filt1;
#X obj 247 247 rhine_filt_vvc \$1 filt2;
#X text 155 249 bob~ \, lowpass;
#X text 115 9 vcf~ \, 2 pole bandpass;
#X text 25 109 dry;
#X text 45 199 amp_env;
#X text 35 159 >>>>>V<<<<<<<;
#X text 65 169 V;
#X text 65 179 V;
#X text 65 189 V;
#X text 35 129 V;
#X text 35 139 V;
#X text 35 149 V;
#X text 65 129 V;
#X text 65 139 V;
#X text 65 149 V;
#X text 105 129 V;
#X text 105 139 V;
#X text 105 149 V;
#X text 25 89 Output:;
#X text 55 109 filt1;
#X text 95 109 filt2;
#X restore 217 77 pd filt+amp;
#X obj 47 77 mhx_engine_vvc \$1;
#X text 49 122 4-macro;
#X text 49 102 2-velocity;
#X text 49 112 3-random;
#X text 49 92 1-pitch;
#X text 49 132 5-AR Env;
#X text 49 142 6-LFO;
