#N canvas 419 147 444 316 10;
#X obj 17 37 inlet~;
#X obj 17 67 hard_sync_phasor~;
#X obj 17 247 outlet~;
#X obj 77 37 inlet;
#X obj 137 37 vv_mhx \$1 \$2_sync \$3;
#X text 347 38 \$1 parent;
#X text 347 58 \$2 name;
#X text 347 78 \$3 voice;
#X obj 137 127 vv_mhx \$1 \$2_mod \$3;
#X obj 137 157 vlinesc~;
#X obj 147 187 r \$1_\$2_type;
#X obj 17 217 multi_osc_cv~;
#X obj 97 97 ar_pa_vv_mhx~ \$1 \$2_mod_env \$3;
#X connect 0 0 1 0;
#X connect 1 0 11 0;
#X connect 3 0 1 1;
#X connect 4 0 1 2;
#X connect 8 0 9 0;
#X connect 9 0 11 1;
#X connect 10 0 11 2;
#X connect 11 0 2 0;
#X connect 12 0 11 1;
