#N canvas 660 289 388 285 10;
#X obj 127 117 vv_file_vvc \$1;
#N canvas 232 7 1019 665 osc 0;
#X obj 17 377 sentinel_osc_vvc \$1 osc_a;
#X obj 207 17 ar_pa_vvc_mhx \$1 pitch_env;
#X obj 247 257 hsl_6m_vvc \$1 noise_dry;
#X obj 17 257 hsl_6m_vvc \$1 noise_ds;
#X obj 17 17 nbx_vvc \$1 pitch;
#X obj 467 257 hsl_6m_vvc \$1 noise_filt;
#X obj 17 67 hslxnbx_6m_vvc \$1 fm;
#X obj 687 377 sentinel_osc_vvc \$1 osc_b;
#X restore 177 77 pd osc;
#N canvas 82 50 851 602 filt+amp 0;
#X obj 17 127 hsl_6m_vvc \$1 dry_amp 1;
#X obj 577 237 hsl_vvc \$1 amp_pitch_follow 1;
#X obj 7 237 adsr_pa_vvc_mhx \$1 amp_env 0.75;
#X obj 247 7 sentinel_filt_vvc \$1 filt;
#X text 155 9 vcf~ bandpass;
#X restore 227 77 pd filt+amp;
#X obj 57 77 mhx_engine_vvc \$1;
#X text 49 122 4-macro;
#X text 49 102 2-velocity;
#X text 49 112 3-random;
#X text 49 92 1-pitch;
#X text 49 132 5-AR Env;
#X text 49 142 6-LFO;
