#N canvas 0 50 1278 645 10;
#X obj 17 257 *~;
#X obj 37 227 adsr_pa_vv_mhx~ \$1 amp_env \$2;
#X obj 17 17 inlet;
#X obj 17 77 unpack;
#X obj 17 107 +;
#X obj 17 137 pack;
#X obj 17 347 outlet~;
#N canvas 86 83 1087 559 osc 0;
#X obj 167 87 stripnote;
#X obj 37 357 freq_mod~;
#X obj 67 237 vv_mhx \$1 osc_a_pitch \$2;
#X obj 37 267 ptbf;
#X obj 427 237 ptbf;
#X obj 447 207 vv_mhx \$1 osc_b_pitch \$2;
#X obj 37 297 mtof;
#X obj 427 297 vlinesc~;
#X obj 427 267 mtof;
#X obj 37 57 t a a;
#X obj 197 177 r \$1_osc_a_reset;
#X obj 647 207 spigot;
#X obj 677 177 r \$1_osc_b_reset;
#X obj 37 87 stripnote;
#X obj 37 117 * 0;
#X obj 167 207 spigot;
#X obj 37 27 inlet;
#X obj 37 527 outlet~;
#X obj 597 447 noise~;
#X obj 427 507 outlet~;
#X obj 37 327 vlinesc~;
#X obj 227 327 ar_pa_vv_mhx~ \$1 pitch_env \$2 128;
#X obj 266 267 vv_mhx \$1 fm \$2;
#X obj 266 297 clip 0 77777;
#X obj 597 507 outlet~;
#X obj 597 477 downsample~;
#X obj 667 447 vv_mhx \$1 noise_ds \$2;
#X obj 37 497 sentinel_osc~ \$1 osc_a \$2;
#X obj 427 447 sentinel_osc~ \$1 osc_b \$2;
#X obj 117 467 tline~;
#X obj 47 417 r \$1_osc_a_pitch_env;
#X obj 337 417 tline~;
#X obj 297 387 r \$1_osc_b_pitch_env;
#X obj 227 357 mtof~;
#X obj 227 387 +~ -8.175;
#X connect 0 0 3 0;
#X connect 0 0 4 0;
#X connect 1 0 27 0;
#X connect 2 0 3 1;
#X connect 3 0 6 0;
#X connect 4 0 8 0;
#X connect 5 0 4 1;
#X connect 6 0 20 0;
#X connect 7 0 28 0;
#X connect 8 0 7 0;
#X connect 9 0 13 0;
#X connect 9 1 0 0;
#X connect 10 0 15 1;
#X connect 11 0 28 1;
#X connect 12 0 11 1;
#X connect 13 0 14 0;
#X connect 14 0 11 0;
#X connect 14 0 15 0;
#X connect 15 0 27 1;
#X connect 16 0 9 0;
#X connect 18 0 25 0;
#X connect 20 0 1 0;
#X connect 21 0 33 0;
#X connect 22 0 23 0;
#X connect 23 0 1 2;
#X connect 25 0 24 0;
#X connect 26 0 25 1;
#X connect 27 0 17 0;
#X connect 28 0 19 0;
#X connect 28 0 1 1;
#X connect 29 0 27 0;
#X connect 30 0 29 1;
#X connect 31 0 28 0;
#X connect 32 0 31 1;
#X connect 33 0 34 0;
#X connect 34 0 29 0;
#X connect 34 0 31 0;
#X restore 17 167 pd osc;
#N canvas 270 77 941 520 filt 0;
#X obj 37 37 inlet~;
#X obj 237 37 inlet~;
#X obj 97 167 tline~;
#X obj 157 167 vv_mhx \$1 dry_amp \$2;
#X obj 137 287 outlet~;
#X obj 717 37 inlet;
#X obj 437 37 inlet~;
#X text 38 20 Osc A;
#X text 438 20 Noise;
#X text 238 20 Osc B;
#X text 718 20 Pitch;
#X obj 437 67 sentinel_filt_send~ \$1 noise \$2;
#X obj 37 67 sentinel_filt_send~ \$1 osc_a \$2;
#X obj 237 67 sentinel_filt_send~ \$1 osc_b \$2;
#X obj 327 167 dynamic_filt~ \$1 filt \$2 vcf_np~ 2;
#X connect 0 0 12 0;
#X connect 1 0 13 0;
#X connect 2 0 4 0;
#X connect 3 0 2 1;
#X connect 5 0 14 1;
#X connect 6 0 11 0;
#X connect 11 0 2 0;
#X connect 11 1 14 0;
#X connect 12 0 2 0;
#X connect 12 1 14 0;
#X connect 13 0 2 0;
#X connect 13 1 14 0;
#X connect 14 0 4 0;
#X restore 17 197 pd filt;
#X obj 257 137 / -127;
#X obj 257 167 + 1;
#X obj 257 197 -;
#X obj 67 137 mtof;
#X obj 77 167 mhx_engine \$1 \$2;
#X obj 317 137 moses 1;
#X obj 367 187 b;
#X obj 367 217 f 1;
#X obj 257 257 *;
#X obj 257 287 + 1;
#X obj 17 317 tline~;
#X obj 317 107 vv_mhx4 \$1 amp_pitch_follow \$2;
#X obj 77 77 r \$1_pitch;
#X connect 0 0 19 0;
#X connect 1 0 0 1;
#X connect 2 0 3 0;
#X connect 3 0 4 0;
#X connect 3 1 5 1;
#X connect 4 0 5 0;
#X connect 4 0 9 0;
#X connect 4 0 12 0;
#X connect 5 0 7 0;
#X connect 5 0 13 0;
#X connect 7 0 8 0;
#X connect 7 1 8 1;
#X connect 7 2 8 2;
#X connect 8 0 0 0;
#X connect 9 0 10 0;
#X connect 10 0 11 0;
#X connect 11 0 17 0;
#X connect 12 0 8 3;
#X connect 14 0 11 1;
#X connect 14 1 15 0;
#X connect 15 0 16 0;
#X connect 16 0 11 1;
#X connect 17 0 18 0;
#X connect 18 0 19 1;
#X connect 19 0 6 0;
#X connect 20 0 14 0;
#X connect 20 0 17 1;
#X connect 21 0 4 1;
