#N canvas 0 50 633 516 10;
#X obj 37 37 inlet~;
#X obj 37 307 tline~;
#X obj 37 357 outlet~;
#X obj 237 37 inlet;
#X obj 237 97 *;
#X obj 97 97 vlinesc~;
#X obj 237 127 vlinesc~;
#X obj 97 187 clip~ 1 22000;
#X obj 97 67 vv_mhx \$1 \$2_freq \$3;
#X obj 277 67 r \$1_\$2_pitch_follow;
#X obj 57 277 vv_mhx \$1 \$2_amp \$3;
#X obj 187 187 vv_mhx \$1 \$2_mod \$3;
#X obj 37 247 vcf_np~ 2;
#X connect 0 0 12 0;
#X connect 1 0 2 0;
#X connect 3 0 4 0;
#X connect 4 0 6 0;
#X connect 5 0 7 0;
#X connect 6 0 7 0;
#X connect 7 0 12 1;
#X connect 8 0 5 0;
#X connect 9 0 4 1;
#X connect 10 0 1 1;
#X connect 11 0 12 2;
#X connect 12 0 1 0;
