#N canvas 0 0 1280 677 10;
#X obj 30 400 \$1_voice~ \$2 0;
#X obj 30 580 outlet~;
#X obj 30 100 pack f f f;
#X obj 33 71 poly 12 1;
#X obj 33 41 inlet;
#X obj 130 400 \$1_voice~ \$2 1;
#X obj 230 400 \$1_voice~ \$2 2;
#X obj 330 400 \$1_voice~ \$2 3;
#X obj 430 400 \$1_voice~ \$2 4;
#X obj 530 400 \$1_voice~ \$2 5;
#X obj 630 400 \$1_voice~ \$2 6;
#X obj 730 400 \$1_voice~ \$2 7;
#X obj 830 400 \$1_voice~ \$2 8;
#X obj 1030 400 \$1_voice~ \$2 10;
#X obj 1130 400 \$1_voice~ \$2 11;
#X obj 930 400 \$1_voice~ \$2 9;
#X obj 420 250 \$1_voice~ \$2 12;
#X obj 520 250 \$1_voice~ \$2 13;
#X obj 620 250 \$1_voice~ \$2 14;
#X obj 720 250 \$1_voice~ \$2 15;
#X obj 820 250 \$1_voice~ \$2 16;
#X obj 920 250 \$1_voice~ \$2 17;
#X obj 1020 250 \$1_voice~ \$2 18;
#X obj 1120 250 \$1_voice~ \$2 19;
#X obj 1220 250 \$1_voice~ \$2 20;
#X obj 990 180 \$1_voice~ \$2 21;
#X obj 1190 180 \$1_voice~ \$2 23;
#X obj 30 140 route 1 2 3 4 5 6 7 8 9 10 11 12 13 14 15 16 17 18 19
20 21 22 23 24, f 141;
#X obj 1090 180 \$1_voice~ \$2 22;
#X connect 0 0 1 0;
#X connect 2 0 27 0;
#X connect 3 0 2 0;
#X connect 3 1 2 1;
#X connect 3 2 2 2;
#X connect 4 0 3 0;
#X connect 5 0 1 0;
#X connect 6 0 1 0;
#X connect 7 0 1 0;
#X connect 8 0 1 0;
#X connect 9 0 1 0;
#X connect 10 0 1 0;
#X connect 11 0 1 0;
#X connect 12 0 1 0;
#X connect 13 0 1 0;
#X connect 14 0 1 0;
#X connect 15 0 1 0;
#X connect 16 0 1 0;
#X connect 17 0 1 0;
#X connect 18 0 1 0;
#X connect 19 0 1 0;
#X connect 20 0 1 0;
#X connect 21 0 1 0;
#X connect 22 0 1 0;
#X connect 23 0 1 0;
#X connect 24 0 1 0;
#X connect 25 0 1 0;
#X connect 26 0 1 0;
#X connect 27 0 0 0;
#X connect 27 1 5 0;
#X connect 27 2 6 0;
#X connect 27 3 7 0;
#X connect 27 4 8 0;
#X connect 27 5 9 0;
#X connect 27 6 10 0;
#X connect 27 7 11 0;
#X connect 27 8 12 0;
#X connect 27 9 15 0;
#X connect 27 10 13 0;
#X connect 27 11 14 0;
#X connect 27 12 16 0;
#X connect 27 13 17 0;
#X connect 27 14 18 0;
#X connect 27 15 19 0;
#X connect 27 16 20 0;
#X connect 27 17 21 0;
#X connect 27 18 22 0;
#X connect 27 19 23 0;
#X connect 27 20 24 0;
#X connect 27 21 25 0;
#X connect 27 22 28 0;
#X connect 27 23 26 0;
#X connect 28 0 1 0;
