#N canvas 598 305 453 260 10;
#X obj 137 37 inlet;
#X obj 137 97 outlet~;
#X obj 137 67 sysk_\$1v~ \$2 \$3;
#X obj 47 37 \$2_vvc \$3;
#X text 38 185 \$1 voices;
#X text 38 225 \$3 name;
#X text 38 205 \$2 synth;
#X text 38 135 SYnth/sampler SKeleton n-voice- Create a synth or sampler
with a vvc and n amount of voices. Voices greater than 9 may need another
sysk_(n)v~ object built (see piloslib/synth directory for available
amounts of voices.);
#X connect 0 0 2 0;
#X connect 2 0 1 0;
