#N canvas 0 50 1280 607 10;
#X obj 181 393 pack f f f;
#X obj 181 363 poly 3 1;
#X obj 181 53 inlet;
#X text 173 38 Note Vel;
#X obj 181 543 outlet~;
#X obj 181 483 \$1_voice~ \$2 0;
#X obj 291 483 \$1_voice~ \$2 1;
#X obj 401 483 \$1_voice~ \$2 2;
#X obj 181 423 route 1 2 3 4;
#X obj 511 483 \$1_voice~ \$2 3;
#X connect 0 0 8 0;
#X connect 1 0 0 0;
#X connect 1 1 0 1;
#X connect 1 2 0 2;
#X connect 2 0 1 0;
#X connect 5 0 4 0;
#X connect 6 0 4 0;
#X connect 7 0 4 0;
#X connect 8 0 5 0;
#X connect 8 1 6 0;
#X connect 8 2 7 0;
#X connect 8 3 9 0;
#X connect 9 0 4 0;
