#N canvas 0 0 1315 693 10;
#X obj 30 140 route 1 2 3 4 5 6 7 8 9 10 11 12 13 14 15 16 17 18 19
20 21;
#X obj 30 400 \$1_voice~ \$2 0;
#X obj 30 550 outlet~;
#X obj 30 100 pack f f f;
#X obj 33 71 poly 12 1;
#X obj 33 41 inlet;
#X obj 130 400 \$1_voice~ \$2 1;
#X obj 230 400 \$1_voice~ \$2 2;
#X obj 330 400 \$1_voice~ \$2 3;
#X obj 430 400 \$1_voice~ \$2 4;
#X obj 530 400 \$1_voice~ \$2 5;
#X obj 630 400 \$1_voice~ \$2 6;
#X obj 730 400 \$1_voice~ \$2 7;
#X obj 830 400 \$1_voice~ \$2 8;
#X obj 1030 400 \$1_voice~ \$2 10;
#X obj 1130 400 \$1_voice~ \$2 11;
#X obj 930 400 \$1_voice~ \$2 9;
#X connect 0 0 1 0;
#X connect 0 1 6 0;
#X connect 0 2 7 0;
#X connect 0 3 8 0;
#X connect 0 4 9 0;
#X connect 0 5 10 0;
#X connect 0 6 11 0;
#X connect 0 7 12 0;
#X connect 0 8 13 0;
#X connect 0 9 16 0;
#X connect 0 10 14 0;
#X connect 0 11 15 0;
#X connect 1 0 2 0;
#X connect 3 0 0 0;
#X connect 4 0 3 0;
#X connect 4 1 3 1;
#X connect 4 2 3 2;
#X connect 5 0 4 0;
#X connect 6 0 2 0;
#X connect 7 0 2 0;
#X connect 8 0 2 0;
#X connect 9 0 2 0;
#X connect 10 0 2 0;
#X connect 11 0 2 0;
#X connect 12 0 2 0;
#X connect 13 0 2 0;
#X connect 14 0 2 0;
#X connect 15 0 2 0;
#X connect 16 0 2 0;
