#N canvas 0 0 1280 647 10;
#X obj 30 400 \$1_voice~ \$2 0;
#X obj 140 400 \$1_voice~ \$2 1;
#X obj 250 400 \$1_voice~ \$2 2;
#X obj 360 400 \$1_voice~ \$2 3;
#X obj 470 400 \$1_voice~ \$2 4;
#X obj 580 400 \$1_voice~ \$2 5;
#X obj 690 400 \$1_voice~ \$2 6;
#X obj 30 550 outlet~;
#X obj 30 100 pack f f f;
#X obj 33 41 inlet;
#X obj 33 71 poly 7 1;
#X obj 30 140 route 1 2 3 4 5 6 7;
#X connect 0 0 7 0;
#X connect 1 0 7 0;
#X connect 2 0 7 0;
#X connect 3 0 7 0;
#X connect 4 0 7 0;
#X connect 5 0 7 0;
#X connect 6 0 7 0;
#X connect 8 0 11 0;
#X connect 9 0 10 0;
#X connect 10 0 8 0;
#X connect 10 1 8 1;
#X connect 10 2 8 2;
#X connect 11 0 0 0;
#X connect 11 1 1 0;
#X connect 11 2 2 0;
#X connect 11 3 3 0;
#X connect 11 4 4 0;
#X connect 11 5 5 0;
#X connect 11 6 6 0;
