#N canvas 284 90 604 478 10;
#X obj 33 240 \$1_voice~ \$2 0;
#X obj 133 240 \$1_voice~ \$2 1;
#X obj 233 240 \$1_voice~ \$2 2;
#X obj 333 240 \$1_voice~ \$2 3;
#X obj 433 240 \$1_voice~ \$2 4;
#X obj 33 370 outlet~;
#X obj 33 100 pack f f f;
#X obj 33 41 inlet;
#X obj 33 71 poly 5 1;
#X obj 33 130 route 1 2 3 4 5;
#X connect 0 0 5 0;
#X connect 1 0 5 0;
#X connect 2 0 5 0;
#X connect 3 0 5 0;
#X connect 4 0 5 0;
#X connect 6 0 9 0;
#X connect 7 0 8 0;
#X connect 8 0 6 0;
#X connect 8 1 6 1;
#X connect 8 2 6 2;
#X connect 9 0 0 0;
#X connect 9 1 1 0;
#X connect 9 2 2 0;
#X connect 9 3 3 0;
#X connect 9 4 4 0;
