#N canvas 439 143 566 403 10;
#X obj 71 113 pack f f f;
#X obj 71 83 poly 3 1;
#X obj 71 53 inlet;
#X text 63 38 Note Vel;
#X obj 71 263 outlet~;
#X obj 71 143 route 1 2 3;
#X obj 71 203 \$1_voice~ \$2 0;
#X obj 171 203 \$1_voice~ \$2 1;
#X obj 271 203 \$1_voice~ \$2 2;
#X connect 0 0 5 0;
#X connect 1 0 0 0;
#X connect 1 1 0 1;
#X connect 1 2 0 2;
#X connect 2 0 1 0;
#X connect 5 0 6 0;
#X connect 5 1 7 0;
#X connect 5 2 8 0;
#X connect 6 0 4 0;
#X connect 7 0 4 0;
#X connect 8 0 4 0;
