#N canvas 0 50 450 300 10;
#X obj 131 122 f \$1;
#X obj 131 42 inlet;
#X obj 171 42 inlet;
#X text 134 26 Bang;
#X text 171 26 Value;
#X obj 131 232 outlet;
#X obj 131 182 f \$2;
#X obj 131 152 sel 0 z;
#X msg 171 182 0;
#X obj 131 92 b;
#X connect 0 0 7 0;
#X connect 1 0 9 0;
#X connect 2 0 0 1;
#X connect 6 0 5 0;
#X connect 7 0 6 0;
#X connect 7 1 8 0;
#X connect 7 2 5 0;
#X connect 8 0 5 0;
#X connect 9 0 0 0;
