#N canvas 0 0 450 300 10;
#X text 151 4 Value;
#X obj 212 20 inlet;
#X text 221 4 ms;
#X obj 152 80 line;
#X obj 152 110 outlet;
#X obj 152 50 pack 0 \$1;
#X obj 262 20 inlet;
#X text 268 4 Set;
#X obj 152 20 inlet;
#X connect 1 0 5 1;
#X connect 3 0 4 0;
#X connect 5 0 3 0;
#X connect 6 0 3 0;
#X connect 8 0 5 0;
