#N canvas 99 71 450 300 10;
#X obj 206 63 inlet;
#X obj 206 183 outlet;
#X obj 206 153 list trim;
#X obj 206 93 list prepend \$2;
#X obj 206 123 list prepend \$1;
#X connect 0 0 3 0;
#X connect 2 0 1 0;
#X connect 3 0 4 0;
#X connect 4 0 2 0;
