#N canvas 0 50 450 300 10;
#X obj 57 57 inlet;
#X obj 57 197 outlet;
#X obj 57 167 f \$1;
#X obj 87 167 f \$2;
#X obj 117 167 f \$3;
#X obj 147 167 f \$4;
#X obj 177 167 f \$5;
#X obj 207 167 f \$6;
#X obj 237 167 f \$7;
#X obj 267 167 f \$8;
#X obj 57 87 sel 0 1 2 3 4 5 6 7;
#X connect 0 0 10 0;
#X connect 2 0 1 0;
#X connect 3 0 1 0;
#X connect 4 0 1 0;
#X connect 5 0 1 0;
#X connect 6 0 1 0;
#X connect 7 0 1 0;
#X connect 8 0 1 0;
#X connect 9 0 1 0;
#X connect 10 0 2 0;
#X connect 10 1 3 0;
#X connect 10 2 4 0;
#X connect 10 3 5 0;
#X connect 10 4 6 0;
#X connect 10 5 7 0;
#X connect 10 6 8 0;
#X connect 10 7 9 0;
