#N canvas 0 0 218 188 10;
#X obj 31 29 inlet;
#X obj 77 29 inlet;
#X obj 31 103 pack;
#X obj 31 129 outlet;
#X obj 77 63 t b a;
#X connect 0 0 2 0;
#X connect 1 0 4 0;
#X connect 2 0 3 0;
#X connect 4 0 2 0;
#X connect 4 1 2 1;
