#N canvas 0 0 218 206 10;
#X obj -169 29 inlet;
#X obj -123 29 inlet;
#X obj -169 129 outlet;
#X obj -123 63 t b a;
#X obj -169 103 pack;
#X connect 0 0 4 0;
#X connect 1 0 3 0;
#X connect 3 0 4 0;
#X connect 3 1 4 1;
#X connect 4 0 2 0;
