#N canvas 188 296 522 354 10;
#X obj 21 29 inlet;
#X obj 67 29 inlet;
#X obj 21 271 outlet;
#X obj 107 29 inlet;
#X obj 147 29 inlet;
#X obj 67 63 t b a;
#X obj 107 63 t b a;
#X obj 147 63 t b a;
#X obj 187 29 inlet;
#X obj 227 29 inlet;
#X obj 267 29 inlet;
#X obj 187 63 t b a;
#X obj 227 63 t b a;
#X obj 267 63 t b a;
#X obj 307 29 inlet;
#X obj 347 29 inlet;
#X obj 307 63 t b a;
#X obj 347 63 t b a;
#X obj 387 29 inlet;
#X obj 427 29 inlet;
#X obj 387 63 t b a;
#X obj 427 63 t b a;
#X obj 21 183 pack f f f f f f f f f f f;
#X connect 0 0 22 0;
#X connect 1 0 5 0;
#X connect 3 0 6 0;
#X connect 4 0 7 0;
#X connect 5 0 22 0;
#X connect 5 1 22 1;
#X connect 6 0 22 0;
#X connect 6 1 22 2;
#X connect 7 0 22 0;
#X connect 7 1 22 3;
#X connect 8 0 11 0;
#X connect 9 0 12 0;
#X connect 10 0 13 0;
#X connect 11 0 22 0;
#X connect 11 1 22 4;
#X connect 12 0 22 0;
#X connect 12 1 22 5;
#X connect 13 0 22 0;
#X connect 13 1 22 6;
#X connect 14 0 16 0;
#X connect 15 0 17 0;
#X connect 16 0 22 0;
#X connect 16 1 22 7;
#X connect 17 0 22 0;
#X connect 17 1 22 8;
#X connect 18 0 20 0;
#X connect 19 0 21 0;
#X connect 20 0 22 0;
#X connect 20 1 22 9;
#X connect 21 0 22 0;
#X connect 21 1 22 10;
#X connect 22 0 2 0;
