#N canvas 0 0 605 252 10;
#X obj 35 38 inlet;
#X obj 35 128 * -1;
#X obj 35 158 + 1;
#X obj 35 188 outlet;
#X obj 75 38 inlet;
#X obj 75 68 sel 0 1;
#X obj 75 98 f -1;
#X obj 165 98 f 1;
#X obj 45 98 f 1;
#X obj 125 98 f 0;
#X text 158 45 Reverse direction of unipolar ranges: values going from
0 to 1 instead go from 1 to 0;
#X connect 0 0 1 0;
#X connect 1 0 2 0;
#X connect 2 0 3 0;
#X connect 4 0 5 0;
#X connect 5 0 8 0;
#X connect 5 0 9 0;
#X connect 5 1 6 0;
#X connect 5 1 7 0;
#X connect 6 0 1 1;
#X connect 7 0 2 1;
#X connect 8 0 1 1;
#X connect 9 0 2 1;
