#N canvas 0 50 450 300 10;
#X obj 37 37 inlet;
#X obj 37 126 spigot;
#X obj 37 155 outlet;
#X obj 77 67 r \$1;
#X obj 77 96 == \$2;
#X connect 0 0 1 0;
#X connect 1 0 2 0;
#X connect 3 0 4 0;
#X connect 4 0 1 1;
