#N canvas 0 0 450 300 10;
#X obj 99 80 snapshot~;
#X obj 99 22 inlet~;
#X floatatom 102 118 5 0 0 0 - - -;
#X obj 80 162 outlet;
#X obj 144 22 autometro 5;
#X connect 0 0 3 0;
#X connect 0 0 2 0;
#X connect 1 0 0 0;
#X connect 4 0 0 0;
#X coords 0 -1 1 1 35 38 1 100 100;
