#N canvas 0 0 450 300 10;
#X obj 29 90 snapshot~;
#X obj 29 32 inlet~;
#X obj 29 120 outlet;
#X obj 74 32 lb \$1 5;
#X obj 74 62 autometro;
#X text 152 70 SnapShotAutoMetro;
#X connect 0 0 2 0;
#X connect 1 0 0 0;
#X connect 3 0 4 1;
#X connect 4 0 0 0;
#X coords 0 300 1 299 35 38 0;
