#N canvas 420 174 450 300 10;
#X obj 49 39 inlet~;
#X obj 99 39 inlet;
#X obj 49 159 outlet~;
#X obj 189 39 inlet;
#X obj 49 129 *~;
#X obj 139 49 lb \$1;
#X obj 99 99 vlinesc~ \$2;
#X obj 239 39 inlet;
#X text 302 70 \$1 multiply by;
#X text 302 90 \$2 line ms;
#X text 302 50 Times line;
#X connect 0 0 4 0;
#X connect 1 0 6 0;
#X connect 3 0 6 1;
#X connect 4 0 2 0;
#X connect 5 0 6 0;
#X connect 6 0 4 1;
#X connect 7 0 6 2;
