#N canvas 0 50 450 300 10;
#X text 41 14 Value;
#X obj 92 30 inlet;
#X text 101 14 ms;
#X obj 192 30 inlet;
#X text 198 14 Set;
#X obj 42 30 inlet;
#X obj 42 170 vline~;
#X obj 42 200 outlet~;
#X obj 132 40 lb \$1 5;
#X obj 42 110 pack;
#X text 262 50 Vline ShortCut;
#X text 262 70 \$1 line ms (default 5);
#X connect 1 0 9 1;
#X connect 3 0 6 0;
#X connect 5 0 9 0;
#X connect 6 0 7 0;
#X connect 8 0 9 1;
#X connect 9 0 6 0;
