#N canvas 0 0 606 319 10;
#X obj 142 229 tline~;
#X obj 202 79 sel 0;
#X obj 202 139 f 0;
#X obj 242 139 f 1;
#X obj 212 199 rev;
#X obj 242 109 b;
#X obj 82 49 inlet~;
#X obj 142 49 inlet~;
#X obj 202 49 inlet;
#X obj 82 259 outlet~;
#X text 83 32 dry ~;
#X text 143 32 wet ~;
#X text 197 32 control;
#X obj 82 229 tline~ 1;
#X text 296 77 If control is zero \, dry signal passes;
#X connect 0 0 9 0;
#X connect 1 0 2 0;
#X connect 1 1 5 0;
#X connect 2 0 4 0;
#X connect 2 0 0 1;
#X connect 3 0 4 0;
#X connect 3 0 0 1;
#X connect 4 0 13 1;
#X connect 5 0 3 0;
#X connect 6 0 13 0;
#X connect 7 0 0 0;
#X connect 8 0 1 0;
#X connect 13 0 9 0;
